<?xml version="1.0" standalone="no"?>
<!DOCTYPE svg PUBLIC "-//W3C//DTD SVG 1.1//EN" "http://www.w3.org/Graphics/SVG/1.1/DTD/svg11.dtd" >
<svg xmlns="http://www.w3.org/2000/svg">
    <defs>
        <font id="Apercu-Regular">
            <font-face font-family="Apercu"
                       units-per-em="1000"
                       ascent="958"
                       descent="-279"
                       bbox="-85 -235 1164 949"
                    />
            <missing-glyph horiz-adv-x="0" />
            
            <glyph glyph-name="#" unicode="&#x23;" horiz-adv-x="650" d=" M112,492 L246,492 L289,700 L362,700 L319,492 L461,492 L503,700 L576,700 L534,492 L650,492 L650,424 L520,424 L490,276 L610,276 L610,208 L476,208 L433,0 L360,0 L403,208 L261,208 L219,0 L146,0 L188,208 L72,208 L72,276 L202,276 L232,424 L112,424 M275,276 L417,276 L447,424 L305,424"/> 
            <glyph glyph-name="$" unicode="&#x24;" horiz-adv-x="476" d=" M369,550 Q343,596 316.5,610.5 Q290,625 258,625 Q220,625 197,598 Q174,571 174,537 Q174,511 184.5,492 Q195,473 213.5,457.5 Q232,442 256.5,429 Q281,416 309,402 Q339,387 368.5,369.5 Q398,352 422,329 Q446,306 461,274.5 Q476,243 476,201 Q476,158 462,122 Q448,86 422,58 Q375,7 306,-4 L306,-90 L226,-90 L226,-5 Q154,7 104.5,58 Q55,109 40,181 L116,227 Q125,196 136.5,168.5 Q148,141 165.5,120.5 Q183,100 207.5,88 Q232,76 266,76 Q293,76 318.5,86 Q344,96 361,116 Q388,149 388,199 Q388,224 377,244 Q366,264 347.5,280.5 Q329,297 305,310 Q281,323 256,335 Q222,351 191,368.5 Q160,386 137,408.5 Q114,431 100,460 Q86,489 86,530 Q86,564 97,593.5 Q108,623 127,646 Q146,669 171.5,684 Q197,699 226,705 L226,790 L306,790 L306,704 Q357,694 388,665.5 Q419,637 440,596"/> 
            <glyph glyph-name="%" unicode="&#x25;" horiz-adv-x="784" d=" M58,548 Q58,581 70,610.5 Q82,640 103.5,661.5 Q125,683 154.5,695.5 Q184,708 218,708 Q252,708 281.5,695.5 Q311,683 332.5,661.5 Q354,640 366,610.5 Q378,581 378,548 Q378,515 366,485.5 Q354,456 332.5,434.5 Q311,413 281.5,400.5 Q252,388 218,388 Q184,388 154.5,400.5 Q125,413 103.5,434.5 Q82,456 70,485.5 Q58,515 58,548 M131,548 Q131,510 154,484 Q177,458 218,458 Q259,458 282,484 Q305,510 305,548 Q305,586 282,612 Q259,638 218,638 Q177,638 154,612 Q131,586 131,548 M464,152 Q464,185 476,214.5 Q488,244 509.5,265.5 Q531,287 560.5,299.5 Q590,312 624,312 Q658,312 687.5,299.5 Q717,287 738.5,265.5 Q760,244 772,214.5 Q784,185 784,152 Q784,119 772,89.5 Q760,60 738.5,38.5 Q717,17 687.5,4.5 Q658,-8 624,-8 Q590,-8 560.5,4.5 Q531,17 509.5,38.5 Q488,60 476,89.5 Q464,119 464,152 M537,152 Q537,114 560,88 Q583,62 624,62 Q665,62 688,88 Q711,114 711,152 Q711,190 688,216 Q665,242 624,242 Q583,242 560,216 Q537,190 537,152 M714,690 L176,-29 L126,11 L664,729"/> 
            <glyph glyph-name="&amp;" unicode="&#x26;" horiz-adv-x="633" d=" M286,-8 Q239,-8 200,6 Q161,20 133,47 Q105,74 90,112.5 Q75,151 75,200 Q75,239 86.5,272.5 Q98,306 117,333 Q136,360 160.5,380 Q185,400 210,413 Q201,426 190,442 Q179,458 170,476.5 Q161,495 155,515.5 Q149,536 149,559 Q149,592 161,619 Q173,646 193.5,666 Q214,686 242.5,697 Q271,708 304,708 Q342,708 371,696.5 Q400,685 420,666 Q440,647 450,621.5 Q460,596 460,568 Q460,527 435,483 Q420,457 389.5,433.5 Q359,410 324,392 L470,207 Q482,232 493.5,261.5 Q505,291 517,326 L573,265 Q562,233 549,202 Q536,171 521,142 L633,0 L532,0 L473,74 Q440,36 394.5,14 Q349,-8 286,-8 M286,70 Q372,70 425,135 L253,356 Q211,333 184,294 Q157,255 157,198 Q157,166 167.5,142.5 Q178,119 196,102.5 Q214,86 237.5,78 Q261,70 286,70 M304,636 Q269,636 249,612.5 Q229,589 229,555 Q229,529 243.5,500.5 Q258,472 278,446 Q323,469 352,495.5 Q381,522 381,563 Q381,594 360,615 Q339,636 304,636"/> 
            <glyph glyph-name="'" unicode="&#x27;" horiz-adv-x="200" d=" M88,708 L200,708 L175,476 L113,476"/> 
            <glyph glyph-name="(" unicode="&#x28;" horiz-adv-x="262" d=" M262,750 Q211,669 184,573.5 Q157,478 157,350 Q157,222 184,126.5 Q211,31 262,-50 L178,-50 Q155,-14 135.5,27 Q116,68 101.5,116.5 Q87,165 79,222.5 Q71,280 71,350 Q71,420 79,477.5 Q87,535 101.5,583.5 Q116,632 135.5,673 Q155,714 178,750"/> 
            <glyph glyph-name=")" unicode="&#x29;" horiz-adv-x="221" d=" M114,750 Q137,714 156.5,673 Q176,632 190.5,583.5 Q205,535 213,477.5 Q221,420 221,350 Q221,280 213,222.5 Q205,165 190.5,116.5 Q176,68 156.5,27 Q137,-14 114,-50 L30,-50 Q81,31 108,126.5 Q135,222 135,350 Q135,478 108,573.5 Q81,669 30,750"/> 
            <glyph glyph-name="*" unicode="&#x2A;" horiz-adv-x="430" d=" M278,570 L409,613 L430,548 L300,505 L380,394 L325,355 L244,466 L163,355 L108,394 L188,505 L58,548 L79,613 L210,570 L210,708 L278,708"/> 
            <glyph glyph-name="+" unicode="&#x2B;" horiz-adv-x="505" d=" M322,539 L322,356 L505,356 L505,282 L322,282 L322,99 L248,99 L248,282 L65,282 L65,356 L248,356 L248,539"/> 
            <glyph glyph-name="," unicode="&#x2C;" horiz-adv-x="248" d=" M134,110 L248,110 L132,-107 L68,-107"/> 
            <glyph glyph-name="-" unicode="&#x2D;" horiz-adv-x="410" d=" M71,354 L410,354 L410,280 L71,280"/> 
            <glyph glyph-name="." unicode="&#x2E;" horiz-adv-x="216" d=" M90,59 Q90,85 108,103.5 Q126,122 153,122 Q179,122 197.5,103.5 Q216,85 216,59 Q216,32 197.5,14 Q179,-4 153,-4 Q126,-4 108,14 Q90,32 90,59"/> 
            <glyph glyph-name="/" unicode="&#x2F;" horiz-adv-x="539" d=" M539,750 L103,-50 L19,-50 L455,750"/> 
            <glyph glyph-name="0" unicode="&#x30;" horiz-adv-x="558" d=" M312,708 Q373,708 419,682.5 Q465,657 496,610.5 Q527,564 542.5,498 Q558,432 558,350 Q558,268 542.5,202 Q527,136 496,89.5 Q465,43 419,17.5 Q373,-8 312,-8 Q251,-8 205,17.5 Q159,43 128,89.5 Q97,136 81.5,202 Q66,268 66,350 Q66,432 81.5,498 Q97,564 128,610.5 Q159,657 205,682.5 Q251,708 312,708 M312,628 Q272,628 242,608.5 Q212,589 192.5,553 Q173,517 163.5,465.5 Q154,414 154,350 Q154,286 163.5,234.5 Q173,183 192.5,147 Q212,111 242,91.5 Q272,72 312,72 Q352,72 382,91.5 Q412,111 431.5,147 Q451,183 460.5,234.5 Q470,286 470,350 Q470,414 460.5,465.5 Q451,517 431.5,553 Q412,589 382,608.5 Q352,628 312,628"/> 
            <glyph glyph-name="1" unicode="&#x31;" horiz-adv-x="285" d=" M285,700 L285,0 L203,0 L203,574 L74,499 L74,591 L254,700"/> 
            <glyph glyph-name="2" unicode="&#x32;" horiz-adv-x="495" d=" M72,39 L339,381 Q355,402 366,419.5 Q377,437 384,452.5 Q391,468 393.5,482.5 Q396,497 396,514 Q396,563 370,594 Q356,610 335.5,619 Q315,628 286,628 Q235,628 205.5,594.5 Q176,561 171,508 L87,524 Q90,563 106,596.5 Q122,630 148.5,654.5 Q175,679 210,693.5 Q245,708 286,708 Q338,708 375.5,691.5 Q413,675 438,647 Q482,597 482,514 Q482,469 467.5,433 Q453,397 426,362 L208,80 L495,80 L495,0 L72,0"/> 
            <glyph glyph-name="3" unicode="&#x33;" horiz-adv-x="510" d=" M145,203 Q154,140 188.5,106 Q223,72 284,72 Q345,72 384.5,110 Q424,148 424,220 Q424,292 384.5,330 Q345,368 284,368 Q268,368 253,365.5 Q238,363 222,355 L187,402 L347,620 L94,620 L94,700 L474,700 L474,673 L296,432 Q301,434 310,434.5 Q319,435 324,435 Q364,435 398,419.5 Q432,404 457,376 Q482,348 496,308 Q510,268 510,220 Q510,170 493.5,128 Q477,86 447,56 Q417,26 375.5,9 Q334,-8 284,-8 Q240,-8 201.5,6 Q163,20 133.5,46 Q104,72 84.5,109 Q65,146 61,192"/> 
            <glyph glyph-name="4" unicode="&#x34;" horiz-adv-x="541" d=" M368,149 L64,149 L64,184 L360,700 L454,700 L454,229 L541,229 L541,149 L454,149 L454,0 L368,0 M368,229 L368,568 L178,229"/> 
            <glyph glyph-name="5" unicode="&#x35;" horiz-adv-x="510" d=" M163,199 Q171,136 204,104 Q237,72 290,72 Q354,72 389,115 Q424,158 424,228 Q424,298 389.5,341 Q355,384 290,384 Q245,384 210,362 Q175,340 149,306 L96,318 L134,700 L468,700 L468,620 L207,620 L181,417 Q201,437 232,450.5 Q263,464 296,464 Q347,464 386.5,446.5 Q426,429 453.5,397.5 Q481,366 495.5,323 Q510,280 510,228 Q510,176 494.5,133 Q479,90 450.5,58.5 Q422,27 381.5,9.5 Q341,-8 290,-8 Q248,-8 211.5,4 Q175,16 147,39.5 Q119,63 101,99 Q83,135 78,183"/> 
            <glyph glyph-name="6" unicode="&#x36;" horiz-adv-x="518" d=" M297,448 Q346,448 386.5,430.5 Q427,413 456,382 Q485,351 501.5,309.5 Q518,268 518,220 Q518,172 501.5,130.5 Q485,89 456,58 Q427,27 386.5,9.5 Q346,-8 297,-8 Q248,-8 207.5,9.5 Q167,27 137.5,58 Q108,89 92,130.5 Q76,172 76,220 Q76,256 85.5,288 Q95,320 112,349 L319,708 L415,708 L263,441 Q271,445 280.5,446.5 Q290,448 297,448 M297,368 Q239,368 201.5,328.5 Q164,289 164,220 Q164,188 174,160.5 Q184,133 201.5,113.5 Q219,94 243.5,83 Q268,72 297,72 Q326,72 350.5,83 Q375,94 392.5,113.5 Q410,133 420,160.5 Q430,188 430,220 Q430,289 392.5,328.5 Q355,368 297,368"/> 
            <glyph glyph-name="7" unicode="&#x37;" horiz-adv-x="454" d=" M94,0 L351,620 L55,620 L55,700 L454,700 L454,663 L182,0"/> 
            <glyph glyph-name="8" unicode="&#x38;" horiz-adv-x="509" d=" M292,708 Q334,708 369.5,693.5 Q405,679 430.5,653.5 Q456,628 470,594 Q484,560 484,521 Q484,476 462,436 Q440,396 405,377 Q451,356 480,311.5 Q509,267 509,201 Q509,151 491.5,112.5 Q474,74 444,47 Q414,20 374.5,6 Q335,-8 292,-8 Q248,-8 209,6 Q170,20 140,47 Q110,74 92.5,112.5 Q75,151 75,201 Q75,267 104,311.5 Q133,356 179,377 Q144,396 122,436 Q100,476 100,521 Q100,560 114,594 Q128,628 153.5,653.5 Q179,679 214.5,693.5 Q250,708 292,708 M292,330 Q236,330 199.5,295.5 Q163,261 163,201 Q163,141 199.5,106.5 Q236,72 292,72 Q348,72 384.5,106.5 Q421,141 421,201 Q421,261 384.5,295.5 Q348,330 292,330 M292,632 Q242,632 213,600.5 Q184,569 184,521 Q184,473 213,441.5 Q242,410 292,410 Q342,410 371,441.5 Q400,473 400,521 Q400,569 371,600.5 Q342,632 292,632"/> 
            <glyph glyph-name="9" unicode="&#x39;" horiz-adv-x="518" d=" M297,252 Q248,252 207.5,269.5 Q167,287 137.5,318 Q108,349 92,390.5 Q76,432 76,480 Q76,528 92,569.5 Q108,611 137.5,642 Q167,673 207.5,690.5 Q248,708 297,708 Q346,708 386.5,690.5 Q427,673 456,642 Q485,611 501.5,569.5 Q518,528 518,480 Q518,444 508.5,412 Q499,380 482,351 L275,-8 L179,-8 L331,259 Q323,255 313.5,253.5 Q304,252 297,252 M297,332 Q355,332 392.5,371.5 Q430,411 430,480 Q430,512 420,539.5 Q410,567 392.5,586.5 Q375,606 350.5,617 Q326,628 297,628 Q268,628 243.5,617 Q219,606 201.5,586.5 Q184,567 174,539.5 Q164,512 164,480 Q164,411 201.5,371.5 Q239,332 297,332"/> 
            <glyph glyph-name=":" unicode="&#x3A;" horiz-adv-x="216" d=" M90,59 Q90,85 108,103.5 Q126,122 153,122 Q179,122 197.5,103.5 Q216,85 216,59 Q216,32 197.5,14 Q179,-4 153,-4 Q126,-4 108,14 Q90,32 90,59 M90,403 Q90,429 108,447.5 Q126,466 153,466 Q179,466 197.5,447.5 Q216,429 216,403 Q216,376 197.5,358 Q179,340 153,340 Q126,340 108,358 Q90,376 90,403"/> 
            <glyph glyph-name=";" unicode="&#x3B;" horiz-adv-x="216" d=" M88,403 Q88,429 106,447.5 Q124,466 151,466 Q177,466 195.5,447.5 Q214,429 214,403 Q214,376 195.5,358 Q177,340 151,340 Q124,340 106,358 Q88,376 88,403 M102,110 L216,110 L100,-107 L36,-107"/> 
            <glyph glyph-name="&lt;" unicode="&#x3C;" horiz-adv-x="399" d=" M50,354 L399,539 L399,453 L132,310 L399,167 L399,81 L50,266"/> 
            <glyph glyph-name="=" unicode="&#x3D;" horiz-adv-x="499" d=" M100,430 L499,430 L499,356 L100,356 M100,264 L499,264 L499,190 L100,190"/> 
            <glyph glyph-name="&gt;" unicode="&#x3E;" horiz-adv-x="405" d=" M405,266 L56,81 L56,167 L323,310 L56,453 L56,539 L405,354"/> 
            <glyph glyph-name="?" unicode="&#x3F;" horiz-adv-x="400" d=" M163,63 Q163,92 182,111.5 Q201,131 229,131 Q258,131 277.5,111.5 Q297,92 297,63 Q297,35 277.5,16 Q258,-3 229,-3 Q201,-3 182,16 Q163,35 163,63 M363,307 Q346,256 311.5,228.5 Q277,201 229,201 Q169,201 133,234.5 Q97,268 97,326 Q97,371 120,401.5 Q143,432 182,452 Q198,460 209.5,465 Q221,470 231.5,474 Q242,478 252,482.5 Q262,487 274,493 Q300,507 309,524.5 Q318,542 318,564 Q318,597 296,616 Q284,627 269,632.5 Q254,638 231,638 Q191,638 164,612 Q137,586 126,545 L48,558 Q62,626 108.5,667 Q155,708 231,708 Q271,708 302,696 Q333,684 355,664 Q378,642 389,615.5 Q400,589 400,559 Q400,521 381,490 Q362,459 324,440 L223,391 Q196,376 185,359 Q174,342 174,322 Q174,298 188,284.5 Q202,271 226,271 Q255,271 271.5,289 Q288,307 298,330"/> 
            <glyph glyph-name="@" unicode="&#x40;" horiz-adv-x="848" d=" M655,509 L632,257 Q631,249 630.5,243 Q630,237 630,234 Q630,182 677,182 Q724,182 744,229 Q764,276 764,352 Q764,502 690.5,574 Q617,646 476,646 Q417,646 361,624 Q305,602 261.5,558.5 Q218,515 191.5,450 Q165,385 165,298 Q165,220 191.5,160 Q218,100 261.5,59.5 Q305,19 360.5,-1.5 Q416,-22 475,-22 Q504,-22 531.5,-20 Q559,-18 588,-11.5 Q617,-5 649,7 Q681,19 719,39 L747,-28 Q708,-46 676.5,-58.5 Q645,-71 614.5,-79 Q584,-87 550.5,-90.5 Q517,-94 475,-94 Q391,-94 319,-66.5 Q247,-39 194,12.5 Q141,64 111,137 Q81,210 81,301 Q81,400 114,477.5 Q147,555 202.5,608.5 Q258,662 330,690 Q402,718 481,718 Q565,718 632.5,694 Q700,670 748,623.5 Q796,577 822,508.5 Q848,440 848,352 Q848,289 834.5,243 Q821,197 797.5,167 Q774,137 742,122.5 Q710,108 673,108 Q631,108 602.5,129 Q574,150 561,177 Q539,144 506.5,126 Q474,108 430,108 Q388,108 355.5,122.5 Q323,137 301.5,162 Q280,187 269,221.5 Q258,256 258,295 Q258,340 272.5,380 Q287,420 314,450 Q341,480 380,498 Q419,516 468,516 Q509,516 536,501 Q563,486 579,459 L589,509 M461,442 Q431,442 408.5,430.5 Q386,419 371,399 Q356,379 348,351.5 Q340,324 340,292 Q340,240 364.5,211 Q389,182 437,182 Q467,182 490,194 Q513,206 528,227 Q543,248 551,275 Q559,302 559,332 Q559,389 533,415.5 Q507,442 461,442"/> 
            <glyph glyph-name="A" unicode="&#x41;" horiz-adv-x="580" d=" M254,700 L338,700 L580,0 L492,0 L430,187 L162,187 L100,0 L12,0 M402,271 L296,586 L190,271"/> 
            <glyph glyph-name="B" unicode="&#x42;" horiz-adv-x="564" d=" M333,700 Q424,700 477,653.5 Q530,607 530,520 Q530,473 507,437 Q484,401 451,383 Q502,363 533,318.5 Q564,274 564,208 Q564,110 506.5,55 Q449,0 346,0 L97,0 L97,700 M185,84 L333,84 Q403,84 438,113.5 Q473,143 473,208 Q473,272 438,301.5 Q403,331 333,331 L185,331 M185,616 L185,415 L328,415 Q377,415 408,439.5 Q439,464 439,515 Q439,566 408,591 Q377,616 328,616"/> 
            <glyph glyph-name="C" unicode="&#x43;" horiz-adv-x="645" d=" M645,204 Q633,158 609.5,119 Q586,80 551,52 Q516,24 471,8 Q426,-8 371,-8 Q310,-8 253,14.5 Q196,37 152,81.5 Q108,126 81.5,193 Q55,260 55,350 Q55,440 81.5,507 Q108,574 152,618.5 Q196,663 253,685.5 Q310,708 371,708 Q426,708 471,692 Q516,676 551,648 Q586,620 609.5,581 Q633,542 645,496 L560,471 Q536,545 488,584.5 Q440,624 371,624 Q323,624 281.5,606.5 Q240,589 210,554.5 Q180,520 163,469 Q146,418 146,350 Q146,282 163,231 Q180,180 210,145.5 Q240,111 281.5,93.5 Q323,76 371,76 Q440,76 488,115.5 Q536,155 560,229"/> 
            <glyph glyph-name="D" unicode="&#x44;" horiz-adv-x="611" d=" M289,700 Q353,700 411.5,677 Q470,654 514.5,610 Q559,566 585,500.5 Q611,435 611,350 Q611,265 585,199.5 Q559,134 514.5,90 Q470,46 411.5,23 Q353,0 289,0 L97,0 L97,700 M185,616 L185,84 L274,84 Q322,84 366,98 Q410,112 443.5,143.5 Q477,175 497,225.5 Q517,276 517,350 Q517,423 497,474 Q477,525 443.5,556.5 Q410,588 366,602 Q322,616 274,616"/> 
            <glyph glyph-name="E" unicode="&#x45;" horiz-adv-x="509" d=" M499,700 L499,616 L185,616 L185,415 L439,415 L439,331 L185,331 L185,84 L509,84 L509,0 L97,0 L97,700"/> 
            <glyph glyph-name="F" unicode="&#x46;" horiz-adv-x="504" d=" M504,700 L504,616 L185,616 L185,407 L444,407 L444,323 L185,323 L185,0 L97,0 L97,700"/> 
            <glyph glyph-name="G" unicode="&#x47;" horiz-adv-x="648" d=" M413,353 L648,353 L648,0 L573,0 L564,96 Q539,52 489,22 Q439,-8 367,-8 Q307,-8 251,14 Q195,36 151.5,80 Q108,124 81.5,191.5 Q55,259 55,350 Q55,441 81.5,508.5 Q108,576 152,620 Q196,664 253,686 Q310,708 371,708 Q426,708 471.5,692.5 Q517,677 552,649.5 Q587,622 610.5,583 Q634,544 646,496 L561,471 Q537,545 489,584.5 Q441,624 371,624 Q323,624 281.5,606.5 Q240,589 210,554.5 Q180,520 163,469 Q146,418 146,350 Q146,282 163,231 Q180,180 210,145.5 Q240,111 281.5,93.5 Q323,76 371,76 Q416,76 451,90.5 Q486,105 510,130.5 Q534,156 547.5,191.5 Q561,227 564,269 L413,269"/> 
            <glyph glyph-name="H" unicode="&#x48;" horiz-adv-x="593" d=" M593,700 L593,0 L505,0 L505,330 L185,330 L185,0 L97,0 L97,700 L185,700 L185,414 L505,414 L505,700"/> 
            <glyph glyph-name="I" unicode="&#x49;" horiz-adv-x="185" d=" M185,700 L185,0 L97,0 L97,700"/> 
            <glyph glyph-name="J" unicode="&#x4A;" horiz-adv-x="427" d=" M339,700 L427,700 L427,215 Q427,161 411.5,119.5 Q396,78 368.5,49.5 Q341,21 303.5,6.5 Q266,-8 223,-8 Q175,-8 138,7 Q101,22 75,47.5 Q49,73 33,106 Q17,139 11,175 L100,194 Q111,140 141.5,108 Q172,76 223,76 Q275,76 307,109 Q339,142 339,219"/> 
            <glyph glyph-name="K" unicode="&#x4B;" horiz-adv-x="582" d=" M470,0 L185,353 L185,0 L97,0 L97,700 L185,700 L185,419 L446,700 L558,700 L274,386 L582,0"/> 
            <glyph glyph-name="L" unicode="&#x4C;" horiz-adv-x="503" d=" M185,700 L185,84 L503,84 L503,0 L97,0 L97,700"/> 
            <glyph glyph-name="M" unicode="&#x4D;" horiz-adv-x="687" d=" M205,700 L392,207 L579,700 L687,700 L687,0 L599,0 L599,510 L423,64 L361,64 L185,510 L185,0 L97,0 L97,700"/> 
            <glyph glyph-name="N" unicode="&#x4E;" horiz-adv-x="604" d=" M604,700 L604,0 L501,0 L185,557 L185,0 L97,0 L97,700 L200,700 L516,143 L516,700"/> 
            <glyph glyph-name="O" unicode="&#x4F;" horiz-adv-x="683" d=" M369,708 Q432,708 488.5,685 Q545,662 588.5,616.5 Q632,571 657.5,504 Q683,437 683,350 Q683,263 657.5,196 Q632,129 588.5,83.5 Q545,38 488.5,15 Q432,-8 369,-8 Q306,-8 249.5,15 Q193,38 149.5,83.5 Q106,129 80.5,196 Q55,263 55,350 Q55,437 80.5,504 Q106,571 149.5,616.5 Q193,662 249.5,685 Q306,708 369,708 M369,624 Q322,624 281.5,607 Q241,590 211,555.5 Q181,521 163.5,470 Q146,419 146,350 Q146,281 163.5,230 Q181,179 211,144.5 Q241,110 281.5,93 Q322,76 369,76 Q415,76 456,93 Q497,110 527,144.5 Q557,179 574.5,230 Q592,281 592,350 Q592,419 574.5,470 Q557,521 527,555.5 Q497,590 456,607 Q415,624 369,624"/> 
            <glyph glyph-name="P" unicode="&#x50;" horiz-adv-x="549" d=" M185,300 L185,0 L97,0 L97,700 L341,700 Q440,700 494.5,646 Q549,592 549,500 Q549,408 494.5,354 Q440,300 341,300 M346,384 Q400,384 429,414 Q458,444 458,500 Q458,556 429,586 Q400,616 346,616 L185,616 L185,384"/> 
            <glyph glyph-name="Q" unicode="&#x51;" horiz-adv-x="688" d=" M369,708 Q432,708 488.5,685 Q545,662 588.5,616.5 Q632,571 657.5,504 Q683,437 683,350 Q683,280 666,223.5 Q649,167 620,123 L688,56 L624,-8 L559,57 Q518,25 470,8.5 Q422,-8 369,-8 Q306,-8 249.5,15 Q193,38 149.5,83.5 Q106,129 80.5,196 Q55,263 55,350 Q55,437 80.5,504 Q106,571 149.5,616.5 Q193,662 249.5,685 Q306,708 369,708 M480,264 L556,187 Q573,219 582.5,259.5 Q592,300 592,350 Q592,419 574.5,470 Q557,521 527,555.5 Q497,590 456,607 Q415,624 369,624 Q322,624 281.5,607 Q241,590 211,555.5 Q181,521 163.5,470 Q146,419 146,350 Q146,281 163.5,230 Q181,179 211,144.5 Q241,110 281.5,93 Q322,76 369,76 Q405,76 438,86 Q471,96 498,117 L416,200"/> 
            <glyph glyph-name="R" unicode="&#x52;" horiz-adv-x="599" d=" M290,330 L185,330 L185,0 L97,0 L97,700 L330,700 Q376,700 414,687.5 Q452,675 479,651.5 Q506,628 521,593.5 Q536,559 536,515 Q536,442 497.5,396 Q459,350 390,336 L599,0 L495,0 M185,616 L185,414 L332,414 Q387,414 416,438 Q445,462 445,515 Q445,568 416,592 Q387,616 332,616"/> 
            <glyph glyph-name="S" unicode="&#x53;" horiz-adv-x="476" d=" M369,550 Q343,596 316.5,610 Q290,624 258,624 Q220,624 197,597.5 Q174,571 174,537 Q174,511 184.5,492 Q195,473 213.5,457.5 Q232,442 256.5,429 Q281,416 309,402 Q339,387 368.5,369.5 Q398,352 422,329 Q446,306 461,274.5 Q476,243 476,201 Q476,158 462,122 Q448,86 422,58 Q393,26 353,9 Q313,-8 266,-8 Q222,-8 184.5,6 Q147,20 118,45.5 Q89,71 69,105.5 Q49,140 40,181 L116,227 Q125,196 136.5,168.5 Q148,141 165.5,120.5 Q183,100 207.5,88 Q232,76 266,76 Q293,76 318.5,86 Q344,96 361,116 Q388,149 388,199 Q388,224 377,244 Q366,264 347.5,280.5 Q329,297 305,310 Q281,323 256,335 Q222,351 191,368.5 Q160,386 137,408.5 Q114,431 100,460 Q86,489 86,530 Q86,569 100,601.5 Q114,634 137.5,658 Q161,682 192,695 Q223,708 258,708 Q295,708 323.5,700 Q352,692 373.5,677 Q395,662 411,641.5 Q427,621 440,596"/> 
            <glyph glyph-name="T" unicode="&#x54;" horiz-adv-x="507" d=" M15,700 L507,700 L507,616 L305,616 L305,0 L217,0 L217,616 L15,616"/> 
            <glyph glyph-name="U" unicode="&#x55;" horiz-adv-x="572" d=" M82,700 L170,700 L170,232 Q170,199 180,170.5 Q190,142 210,121 Q230,100 259.5,88 Q289,76 327,76 Q365,76 394.5,88 Q424,100 444,121 Q464,142 474,170.5 Q484,199 484,232 L484,700 L572,700 L572,238 Q572,178 552.5,132 Q533,86 500,55 Q467,24 422.5,8 Q378,-8 327,-8 Q276,-8 231.5,8 Q187,24 154,55 Q121,86 101.5,132 Q82,178 82,238"/> 
            <glyph glyph-name="V" unicode="&#x56;" horiz-adv-x="578" d=" M578,700 L337,0 L249,0 L8,700 L101,700 L293,125 L485,700"/> 
            <glyph glyph-name="W" unicode="&#x57;" horiz-adv-x="876" d=" M876,700 L689,0 L597,0 L452,481 L307,0 L215,0 L28,700 L121,700 L263,130 L412,626 L492,626 L641,130 L783,700"/> 
            <glyph glyph-name="X" unicode="&#x58;" horiz-adv-x="559" d=" M149,700 L288,462 L427,700 L528,700 L338,376 L559,0 L458,0 L288,290 L118,0 L17,0 L238,376 L48,700"/> 
            <glyph glyph-name="Y" unicode="&#x59;" horiz-adv-x="502" d=" M4,700 L101,700 L253,390 L405,700 L502,700 L297,302 L297,0 L209,0 L209,302"/> 
            <glyph glyph-name="Z" unicode="&#x5A;" horiz-adv-x="506" d=" M57,700 L496,700 L496,658 L170,84 L506,84 L506,0 L45,0 L45,42 L371,616 L57,616"/> 
            <glyph glyph-name="[" unicode="&#x5B;" horiz-adv-x="285" d=" M97,750 L285,750 L285,674 L177,674 L177,26 L285,26 L285,-50 L97,-50"/> 
            <glyph glyph-name="\" unicode="&#x5C;" horiz-adv-x="524" d=" M88,750 L524,-50 L440,-50 L4,750"/> 
            <glyph glyph-name="]" unicode="&#x5D;" horiz-adv-x="226" d=" M226,750 L226,-50 L38,-50 L38,26 L146,26 L146,674 L38,674 L38,750"/> 
            <glyph glyph-name="^" unicode="&#x5E;" horiz-adv-x="498" d=" M312,700 L498,421 L415,421 L278,624 L141,421 L58,421 L244,700"/> 
            <glyph glyph-name="_" unicode="&#x5F;" horiz-adv-x="429" d=" M30,0 L429,0 L429,-74 L30,-74"/> 
            <glyph glyph-name="`" unicode="&#x60;" horiz-adv-x="208" d=" M208,560 L140,560 L19,704 L140,704"/> 
            <glyph glyph-name="a" unicode="&#x61;" horiz-adv-x="450" d=" M142,145 Q142,109 163.5,88.5 Q185,68 225,68 Q249,68 274.5,76 Q300,84 320,102 Q340,120 353,149.5 Q366,179 366,222 L366,234 L276,234 Q211,234 176.5,211 Q142,188 142,145 M450,0 L384,0 L370,71 Q346,36 307.5,14 Q269,-8 212,-8 Q180,-8 152,0.5 Q124,9 102.5,28 Q81,47 68.5,75.5 Q56,104 56,145 Q56,185 72,216 Q88,247 118,268 Q148,289 190,299.5 Q232,310 284,310 L366,310 L366,332 Q366,390 334,413 Q302,436 256,436 Q217,436 188,415.5 Q159,395 151,357 L77,374 Q88,438 136,475 Q184,512 256,512 Q298,512 333.5,501 Q369,490 395,467 Q421,444 435.5,408 Q450,372 450,322"/> 
            <glyph glyph-name="b" unicode="&#x62;" horiz-adv-x="547" d=" M547,252 Q547,195 533,147.5 Q519,100 490.5,65.5 Q462,31 420,11.5 Q378,-8 323,-8 Q300,-8 277.5,-2.5 Q255,3 235.5,13 Q216,23 200.5,35.5 Q185,48 176,62 L176,0 L92,0 L92,708 L176,708 L176,444 Q182,455 197,467 Q212,479 232,489 Q252,499 275.5,505.5 Q299,512 323,512 Q378,512 420,492.5 Q462,473 490.5,438.5 Q519,404 533,356.5 Q547,309 547,252 M461,252 Q461,292 450.5,326 Q440,360 421,384.5 Q402,409 375,422.5 Q348,436 315,436 Q280,436 253,422.5 Q226,409 207.5,384.5 Q189,360 179,326 Q169,292 169,252 Q169,211 179,177.5 Q189,144 207.5,119.5 Q226,95 253,81.5 Q280,68 315,68 Q348,68 375,81.5 Q402,95 421,119.5 Q440,144 450.5,177.5 Q461,211 461,252"/> 
            <glyph glyph-name="c" unicode="&#x63;" horiz-adv-x="494" d=" M494,131 Q463,60 412,26 Q361,-8 283,-8 Q225,-8 182,13.5 Q139,35 110.5,71 Q82,107 68,154 Q54,201 54,252 Q54,303 68,350 Q82,397 110.5,433 Q139,469 182,490.5 Q225,512 283,512 Q361,512 412,478 Q463,444 494,373 L421,343 Q401,389 368,412.5 Q335,436 283,436 Q246,436 219,421.5 Q192,407 174.5,382 Q157,357 148.5,323.5 Q140,290 140,252 Q140,214 148.5,180.5 Q157,147 174.5,122 Q192,97 219,82.5 Q246,68 283,68 Q335,68 368,91.5 Q401,115 421,161"/> 
            <glyph glyph-name="d" unicode="&#x64;" horiz-adv-x="509" d=" M54,252 Q54,309 68,356.5 Q82,404 110.5,438.5 Q139,473 180.5,492.5 Q222,512 278,512 Q302,512 325.5,505.5 Q349,499 369,489 Q389,479 404,467 Q419,455 425,444 L425,708 L509,708 L509,0 L425,0 L425,62 Q416,48 400.5,35.5 Q385,23 365.5,13 Q346,3 323.5,-2.5 Q301,-8 278,-8 Q222,-8 180.5,11.5 Q139,31 110.5,65.5 Q82,100 68,147.5 Q54,195 54,252 M140,252 Q140,211 150.5,177.5 Q161,144 180,119.5 Q199,95 226,81.5 Q253,68 286,68 Q320,68 347.5,81.5 Q375,95 393.5,119.5 Q412,144 422,177.5 Q432,211 432,252 Q432,292 422,326 Q412,360 393.5,384.5 Q375,409 347.5,422.5 Q320,436 286,436 Q253,436 226,422.5 Q199,409 180,384.5 Q161,360 150.5,326 Q140,292 140,252"/> 
            <glyph glyph-name="e" unicode="&#x65;" horiz-adv-x="510" d=" M510,234 L140,234 Q142,199 151.5,169 Q161,139 178.5,116.5 Q196,94 222,81 Q248,68 282,68 Q338,68 369.5,92.5 Q401,117 422,164 L496,132 Q461,58 410.5,25 Q360,-8 282,-8 Q225,-8 182,13.5 Q139,35 110.5,71 Q82,107 68,154 Q54,201 54,252 Q54,303 68,350 Q82,397 110.5,433 Q139,469 182,490.5 Q225,512 282,512 Q338,512 380.5,492 Q423,472 452,439 Q481,406 495.5,363 Q510,320 510,273 M282,436 Q223,436 189.5,400.5 Q156,365 145,310 L422,310 Q411,364 377,400 Q343,436 282,436"/> 
            <glyph glyph-name="f" unicode="&#x66;" horiz-adv-x="354" d=" M47,504 L119,504 L119,537 Q119,625 162,666.5 Q205,708 282,708 Q303,708 322.5,703.5 Q342,699 354,692 L337,618 Q309,632 281,632 Q239,632 221,609 Q203,586 203,537 L203,504 L319,504 L319,428 L203,428 L203,0 L119,0 L119,428 L47,428"/> 
            <glyph glyph-name="g" unicode="&#x67;" horiz-adv-x="485" d=" M90,342 Q90,381 103.5,412.5 Q117,444 141,466 Q165,488 197,500 Q229,512 266,512 Q291,512 314,506 Q337,500 357,489 L447,540 L485,471 L417,433 Q442,394 442,342 Q442,303 428.5,271.5 Q415,240 391,218.5 Q367,197 335,185.5 Q303,174 266,174 Q216,174 179,192 Q146,176 146,143 Q146,101 203,101 L322,101 Q393,101 436.5,66 Q480,31 480,-38 Q480,-85 463,-118 Q446,-151 416.5,-172 Q387,-193 348.5,-202.5 Q310,-212 267,-212 Q219,-212 179.5,-201 Q140,-190 112,-168.5 Q84,-147 68.5,-116 Q53,-85 53,-46 Q53,-11 66.5,15.5 Q80,42 100,59 Q84,73 75,92.5 Q66,112 66,139 Q66,171 82.5,194.5 Q99,218 127,232 Q110,253 100,280.5 Q90,308 90,342 M207,29 Q197,29 187.5,29.5 Q178,30 170,31 Q152,17 144.5,-1.5 Q137,-20 137,-43 Q137,-85 169.5,-111.5 Q202,-138 267,-138 Q333,-138 363.5,-111.5 Q394,-85 394,-46 Q394,-4 370,12.5 Q346,29 309,29 M172,342 Q172,294 200,270 Q228,246 266,246 Q304,246 332,270 Q360,294 360,342 Q360,390 332,415 Q304,440 266,440 Q228,440 200,415 Q172,390 172,342"/> 
            <glyph glyph-name="h" unicode="&#x68;" horiz-adv-x="499" d=" M499,0 L415,0 L415,333 Q415,385 392.5,410.5 Q370,436 328,436 Q300,436 273,421 Q246,406 224.5,377.5 Q203,349 189.5,307.5 Q176,266 176,214 L176,0 L92,0 L92,708 L176,708 L176,410 Q200,456 246,484 Q292,512 351,512 Q420,512 459.5,471.5 Q499,431 499,350"/> 
            <glyph glyph-name="i" unicode="&#x69;" horiz-adv-x="198" d=" M177,504 L177,0 L93,0 L93,504 M72,644 Q72,671 90,689.5 Q108,708 135,708 Q162,708 180,689.5 Q198,671 198,644 Q198,618 180,600 Q162,582 135,582 Q108,582 90,600 Q72,618 72,644"/> 
            <glyph glyph-name="j" unicode="&#x6A;" horiz-adv-x="198" d=" M3,-132 Q25,-126 42,-118 Q59,-110 71,-97.5 Q83,-85 89,-66 Q95,-47 95,-18 L95,504 L179,504 L179,-26 Q179,-104 138.5,-151 Q98,-198 25,-212 M72,644 Q72,671 90,689.5 Q108,708 135,708 Q162,708 180,689.5 Q198,671 198,644 Q198,618 180,600 Q162,582 135,582 Q108,582 90,600 Q72,618 72,644"/> 
            <glyph glyph-name="k" unicode="&#x6B;" horiz-adv-x="496" d=" M176,708 L176,293 L372,504 L480,504 L266,273 L496,0 L389,0 L176,253 L176,0 L92,0 L92,708"/> 
            <glyph glyph-name="l" unicode="&#x6C;" horiz-adv-x="174" d=" M174,708 L174,0 L90,0 L90,708"/> 
            <glyph glyph-name="m" unicode="&#x6D;" horiz-adv-x="774" d=" M774,0 L690,0 L690,337 Q690,436 609,436 Q582,436 557.5,421 Q533,406 514.5,376.5 Q496,347 485.5,304.5 Q475,262 475,207 L475,0 L391,0 L391,337 Q391,436 310,436 Q283,436 258.5,421 Q234,406 215.5,376.5 Q197,347 186.5,304.5 Q176,262 176,207 L176,0 L92,0 L92,504 L176,504 L176,411 Q200,459 240,485.5 Q280,512 333,512 Q386,512 421,484.5 Q456,457 468,407 Q494,457 536,484.5 Q578,512 632,512 Q701,512 737.5,470 Q774,428 774,355"/> 
            <glyph glyph-name="n" unicode="&#x6E;" horiz-adv-x="491" d=" M491,0 L407,0 L407,333 Q407,385 384.5,410.5 Q362,436 320,436 Q292,436 266,420.5 Q240,405 220,376 Q200,347 188,305 Q176,263 176,211 L176,0 L92,0 L92,504 L176,504 L176,411 Q204,460 247,486 Q290,512 343,512 Q412,512 451.5,471 Q491,430 491,355"/> 
            <glyph glyph-name="o" unicode="&#x6F;" horiz-adv-x="538" d=" M54,252 Q54,303 70.5,350 Q87,397 118.5,433 Q150,469 194.5,490.5 Q239,512 296,512 Q353,512 397.5,490.5 Q442,469 473.5,433 Q505,397 521.5,350 Q538,303 538,252 Q538,201 521.5,154 Q505,107 473.5,71 Q442,35 397.5,13.5 Q353,-8 296,-8 Q239,-8 194.5,13.5 Q150,35 118.5,71 Q87,107 70.5,154 Q54,201 54,252 M140,252 Q140,217 150,184 Q160,151 179.5,125 Q199,99 228,83.5 Q257,68 296,68 Q335,68 364,83.5 Q393,99 412.5,125 Q432,151 442,184 Q452,217 452,252 Q452,287 442,320 Q432,353 412.5,379 Q393,405 364,420.5 Q335,436 296,436 Q257,436 228,420.5 Q199,405 179.5,379 Q160,353 150,320 Q140,287 140,252"/> 
            <glyph glyph-name="p" unicode="&#x70;" horiz-adv-x="547" d=" M547,252 Q547,195 533,147.5 Q519,100 490.5,65.5 Q462,31 420,11.5 Q378,-8 323,-8 Q299,-8 275.5,-1.5 Q252,5 232,15 Q212,25 197,37 Q182,49 176,60 L176,-204 L92,-204 L92,504 L176,504 L176,442 Q185,456 200.5,468.5 Q216,481 235.5,491 Q255,501 277.5,506.5 Q300,512 323,512 Q378,512 420,492.5 Q462,473 490.5,438.5 Q519,404 533,356.5 Q547,309 547,252 M461,252 Q461,292 450.5,326 Q440,360 421,384.5 Q402,409 375,422.5 Q348,436 315,436 Q280,436 253,422.5 Q226,409 207.5,384.5 Q189,360 179,326 Q169,292 169,252 Q169,211 179,177.5 Q189,144 207.5,119.5 Q226,95 253,81.5 Q280,68 315,68 Q348,68 375,81.5 Q402,95 421,119.5 Q440,144 450.5,177.5 Q461,211 461,252"/> 
            <glyph glyph-name="q" unicode="&#x71;" horiz-adv-x="509" d=" M54,252 Q54,309 68,356.5 Q82,404 110.5,438.5 Q139,473 180.5,492.5 Q222,512 278,512 Q301,512 323.5,506.5 Q346,501 365.5,491 Q385,481 400.5,468.5 Q416,456 425,442 L425,504 L509,504 L509,-204 L425,-204 L425,60 Q419,49 404,37 Q389,25 369,15 Q349,5 325.5,-1.5 Q302,-8 278,-8 Q222,-8 180.5,11.5 Q139,31 110.5,65.5 Q82,100 68,147.5 Q54,195 54,252 M140,252 Q140,211 150.5,177.5 Q161,144 180,119.5 Q199,95 226,81.5 Q253,68 286,68 Q320,68 347.5,81.5 Q375,95 393.5,119.5 Q412,144 422,177.5 Q432,211 432,252 Q432,292 422,326 Q412,360 393.5,384.5 Q375,409 347.5,422.5 Q320,436 286,436 Q253,436 226,422.5 Q199,409 180,384.5 Q161,360 150.5,326 Q140,292 140,252"/> 
            <glyph glyph-name="r" unicode="&#x72;" horiz-adv-x="393" d=" M376,422 Q348,436 317,436 Q291,436 266,421 Q241,406 221,375 Q201,344 188.5,298 Q176,252 176,191 L176,0 L92,0 L92,504 L176,504 L176,418 Q187,439 204,456.5 Q221,474 240.5,486 Q260,498 281.5,505 Q303,512 324,512 Q345,512 363.5,507.5 Q382,503 393,497"/> 
            <glyph glyph-name="s" unicode="&#x73;" horiz-adv-x="406" d=" M236,512 Q328,512 382,435 L325,386 Q300,413 279.5,424.5 Q259,436 233,436 Q207,436 189.5,419.5 Q172,403 172,372 Q172,349 189.5,334.5 Q207,320 233,307.5 Q259,295 289,283 Q319,271 345,254.5 Q371,238 388.5,213.5 Q406,189 406,152 Q406,76 361,34 Q316,-8 239,-8 Q200,-8 169.5,3.5 Q139,15 116,34.5 Q93,54 77,78 Q61,102 51,128 L122,167 Q139,126 168,97 Q197,68 239,68 Q277,68 298.5,87.5 Q320,107 320,147 Q320,170 303,184.5 Q286,199 260,210.5 Q234,222 204,233.5 Q174,245 148,262.5 Q122,280 105,306 Q88,332 88,373 Q88,402 98.5,427.5 Q109,453 128,471.5 Q147,490 174.5,501 Q202,512 236,512"/> 
            <glyph glyph-name="t" unicode="&#x74;" horiz-adv-x="340" d=" M25,504 L112,504 L112,655 L196,708 L196,504 L328,504 L328,428 L196,428 L196,151 Q196,110 213.5,89 Q231,68 263,68 Q280,68 293,71.5 Q306,75 320,84 L340,11 Q322,0 301,-4 Q280,-8 258,-8 Q194,-8 153,32 Q112,72 112,158 L112,428 L25,428"/> 
            <glyph glyph-name="u" unicode="&#x75;" horiz-adv-x="485" d=" M86,504 L170,504 L170,171 Q170,119 192.5,93.5 Q215,68 257,68 Q285,68 311,83.5 Q337,99 357,128 Q377,157 389,198.5 Q401,240 401,293 L401,504 L485,504 L485,0 L401,0 L401,93 Q373,44 330,18 Q287,-8 234,-8 Q165,-8 125.5,33 Q86,74 86,149"/> 
            <glyph glyph-name="v" unicode="&#x76;" horiz-adv-x="437" d=" M437,504 L271,0 L185,0 L19,504 L105,504 L228,107 L351,504"/> 
            <glyph glyph-name="w" unicode="&#x77;" horiz-adv-x="701" d=" M701,504 L548,0 L468,0 L369,383 L270,0 L190,0 L37,504 L125,504 L228,117 L327,504 L411,504 L510,117 L613,504"/> 
            <glyph glyph-name="x" unicode="&#x78;" horiz-adv-x="440" d=" M132,504 L229,345 L326,504 L424,504 L277,266 L440,0 L342,0 L229,187 L116,0 L18,0 L181,266 L34,504"/> 
            <glyph glyph-name="y" unicode="&#x79;" horiz-adv-x="448" d=" M448,504 L198,-204 L112,-204 L192,21 L15,504 L107,504 L235,140 L360,504"/> 
            <glyph glyph-name="z" unicode="&#x7A;" horiz-adv-x="410" d=" M63,504 L401,504 L401,468 L162,76 L410,76 L410,0 L50,0 L50,36 L288,428 L63,428"/> 
            <glyph glyph-name="{" unicode="&#x7B;" horiz-adv-x="290" d=" M142,232 Q142,277 124.5,294.5 Q107,312 62,312 L62,388 Q107,388 124.5,405.5 Q142,423 142,468 L142,650 Q142,695 169.5,722.5 Q197,750 242,750 L290,750 L290,674 L267,674 Q243,674 232.5,663.5 Q222,653 222,629 L222,448 Q222,422 216.5,405 Q211,388 201,377 Q191,366 178,360 Q165,354 150,350 Q165,346 178,340 Q191,334 201,323 Q211,312 216.5,294.5 Q222,277 222,252 L222,71 Q222,47 232.5,36.5 Q243,26 267,26 L290,26 L290,-50 L242,-50 Q197,-50 169.5,-22.5 Q142,5 142,50"/> 
            <glyph glyph-name="|" unicode="&#x7C;" horiz-adv-x="177" d=" M177,750 L177,-50 L97,-50 L97,750"/> 
            <glyph glyph-name="}" unicode="&#x7D;" horiz-adv-x="256" d=" M176,50 Q176,5 148.5,-22.5 Q121,-50 76,-50 L28,-50 L28,26 L51,26 Q75,26 85.5,36.5 Q96,47 96,71 L96,252 Q96,277 101.5,294.5 Q107,312 117,323 Q127,334 140,340 Q153,346 168,350 Q153,354 140,360 Q127,366 117,377 Q107,388 101.5,405 Q96,422 96,448 L96,629 Q96,653 85.5,663.5 Q75,674 51,674 L28,674 L28,750 L76,750 Q121,750 148.5,722.5 Q176,695 176,650 L176,468 Q176,423 193.5,405.5 Q211,388 256,388 L256,312 Q211,312 193.5,294.5 Q176,277 176,232"/> 
            <glyph glyph-name="~" unicode="&#x7E;" horiz-adv-x="548" d=" M80,318 Q102,358 136,382.5 Q170,407 212,407 Q244,407 268,399 Q292,391 314,382 Q336,373 357.5,365 Q379,357 406,357 Q432,357 457,369 Q482,381 499,402 L548,351 Q526,310 492,286.5 Q458,263 416,263 Q384,263 360,271 Q336,279 314.5,288 Q293,297 271,305 Q249,313 222,313 Q196,313 171,301 Q146,289 129,268"/> 
            <glyph glyph-name="¡" unicode="&#xA1;" horiz-adv-x="240" d=" M65763,-206 L65739,294 L65673,294 L65649,-206 M65636,429 Q65636,399 65656,378.5 Q65676,358 65706,358 Q65736,358 65756,378.5 Q65776,399 65776,429 Q65776,458 65756,477.5 Q65736,497 65706,497 Q65676,497 65656,477.5 Q65636,458 65636,429"/> 
            <glyph glyph-name="¢" unicode="&#xA2;" horiz-adv-x="500" d=" M500,229 Q473,167 431.5,133.5 Q390,100 329,92 L329,-50 L249,-50 L249,93 Q201,100 165.5,124 Q130,148 106.5,182.5 Q83,217 71.5,260.5 Q60,304 60,350 Q60,396 71.5,439.5 Q83,483 106.5,517.5 Q130,552 165.5,576 Q201,600 249,607 L249,750 L329,750 L329,608 Q390,600 431.5,566.5 Q473,533 500,471 L427,441 Q407,487 374,510 Q341,533 289,533 Q252,533 225,518.5 Q198,504 180.5,479.5 Q163,455 154.5,421.5 Q146,388 146,350 Q146,312 154.5,278.5 Q163,245 180.5,220.5 Q198,196 225,181.5 Q252,167 289,167 Q341,167 374,190 Q407,213 427,259"/> 
            <glyph glyph-name="£" unicode="&#xA3;" horiz-adv-x="520" d=" M65,404 L118,404 Q110,427 105,452 Q100,477 100,507 Q100,554 114,591 Q128,628 153.5,654 Q179,680 214.5,694 Q250,708 293,708 Q363,708 414,672 Q465,636 489,570 L414,535 Q391,586 363,607 Q335,628 293,628 Q248,628 216,598.5 Q184,569 184,506 Q184,472 188.5,448 Q193,424 200,404 L364,404 L364,324 L226,324 Q229,310 231,295 Q233,280 233,261 Q233,203 209.5,159 Q186,115 154,84 Q174,98 198.5,104.5 Q223,111 241,111 Q262,111 278,105 Q294,99 308,91.5 Q322,84 335,78 Q348,72 364,72 Q390,72 410,86 Q430,100 454,140 L520,104 Q488,45 452.5,18.5 Q417,-8 369,-8 Q340,-8 319.5,-2 Q299,4 282.5,11.5 Q266,19 250,25.5 Q234,32 215,32 Q182,32 156.5,22.5 Q131,13 102,-8 L45,54 Q102,109 129,154 Q156,199 156,251 Q156,271 153.5,289 Q151,307 146,324 L65,324"/> 
            <glyph glyph-name="¤" unicode="&#xA4;" horiz-adv-x="528" d=" M26,489 L95,558 L162,471 Q186,489 215,499 Q244,509 277,509 Q310,509 339,499 Q368,489 392,471 L459,558 L528,489 L440,422 Q457,398 466,368.5 Q475,339 475,307 Q475,275 466,245.5 Q457,216 440,192 L528,125 L459,56 L392,143 Q368,125 339,115 Q310,105 277,105 Q244,105 215,115 Q186,125 162,143 L95,56 L26,125 L114,192 Q97,216 88,245.5 Q79,275 79,307 Q79,339 88,368.5 Q97,398 114,422 M159,307 Q159,251 191,216 Q223,181 277,181 Q331,181 363,216 Q395,251 395,307 Q395,363 363,398 Q331,433 277,433 Q223,433 191,398 Q159,363 159,307"/> 
            <glyph glyph-name="¥" unicode="&#xA5;" horiz-adv-x="493" d=" M108,700 L252,398 L396,700 L493,700 L336,387 L452,387 L452,307 L296,307 L296,227 L452,227 L452,147 L296,147 L296,0 L208,0 L208,147 L52,147 L52,227 L208,227 L208,307 L52,307 L52,387 L168,387 L11,700"/> 
            <glyph glyph-name="¦" unicode="&#xA6;" horiz-adv-x="177" d=" M177,299 L177,-50 L97,-50 L97,299 M97,401 L97,750 L177,750 L177,401"/> 
            <glyph glyph-name="§" unicode="&#xA7;" horiz-adv-x="476" d=" M66,274 Q66,326 86,356.5 Q106,387 139,411 Q120,432 109,458.5 Q98,485 98,522 Q98,566 112.5,600.5 Q127,635 151.5,659 Q176,683 207,695.5 Q238,708 271,708 Q346,708 393,670 Q440,632 458,560 L381,535 Q367,581 341.5,604.5 Q316,628 271,628 Q236,628 209,601 Q182,574 182,526 Q182,492 197,470.5 Q212,449 238.5,432.5 Q265,416 300,400.5 Q335,385 375,364 Q422,339 449,305 Q476,271 476,222 Q476,196 471,175.5 Q466,155 456,139 Q446,123 432.5,110 Q419,97 403,85 Q422,64 433,37.5 Q444,11 444,-26 Q444,-70 429.5,-104.5 Q415,-139 390.5,-163 Q366,-187 335,-199.5 Q304,-212 271,-212 Q196,-212 149,-174 Q102,-136 84,-64 L161,-39 Q175,-85 200.5,-108.5 Q226,-132 271,-132 Q306,-132 333,-105 Q360,-78 360,-30 Q360,4 345,25.5 Q330,47 303.5,63.5 Q277,80 242,95.5 Q207,111 167,132 Q120,157 93,191 Q66,225 66,274 M143,283 Q143,253 162,232.5 Q181,212 210,196 Q239,180 274.5,165.5 Q310,151 343,132 Q364,143 381.5,163 Q399,183 399,213 Q399,243 380,263.5 Q361,284 332,300 Q303,316 267.5,330.5 Q232,345 199,364 Q178,353 160.5,333 Q143,313 143,283"/> 
            <glyph glyph-name="¨" unicode="&#xA8;" horiz-adv-x="299" d=" M20,651 Q20,675 36.5,691.5 Q53,708 76,708 Q101,708 117,691.5 Q133,675 133,651 Q133,627 117,611 Q101,595 76,595 Q53,595 36.5,611 Q20,627 20,651 M186,651 Q186,675 202.5,691.5 Q219,708 242,708 Q267,708 283,691.5 Q299,675 299,651 Q299,627 283,611 Q267,595 242,595 Q219,595 202.5,611 Q186,627 186,651"/> 
            <glyph glyph-name="©" unicode="&#xA9;" horiz-adv-x="830" d=" M70,350 Q70,433 98.5,504.5 Q127,576 178,628.5 Q229,681 298.5,710.5 Q368,740 450,740 Q532,740 601.5,710.5 Q671,681 722,628.5 Q773,576 801.5,504.5 Q830,433 830,350 Q830,267 801.5,195.5 Q773,124 722,71.5 Q671,19 601.5,-10.5 Q532,-40 450,-40 Q368,-40 298.5,-10.5 Q229,19 178,71.5 Q127,124 98.5,195.5 Q70,267 70,350 M150,350 Q150,284 171.5,226.5 Q193,169 232,127 Q271,85 326.5,60.5 Q382,36 450,36 Q518,36 573.5,60.5 Q629,85 668,127 Q707,169 728.5,226.5 Q750,284 750,350 Q750,416 728.5,473.5 Q707,531 668,573 Q629,615 573.5,639.5 Q518,664 450,664 Q382,664 326.5,639.5 Q271,615 232,573 Q193,531 171.5,473.5 Q150,416 150,350 M623,265 Q617,234 601,209.5 Q585,185 562,168.5 Q539,152 510.5,143 Q482,134 450,134 Q415,134 380,146.5 Q345,159 317,185.5 Q289,212 271.5,252.5 Q254,293 254,350 Q254,407 271.5,447.5 Q289,488 317,514.5 Q345,541 380,553.5 Q415,566 450,566 Q482,566 510.5,557 Q539,548 562,531.5 Q585,515 601,490.5 Q617,466 623,435 L553,418 Q540,459 514.5,477.5 Q489,496 450,496 Q425,496 403.5,488 Q382,480 365.5,462 Q349,444 339.5,416.5 Q330,389 330,350 Q330,311 339.5,283.5 Q349,256 365.5,238 Q382,220 403.5,212 Q425,204 450,204 Q489,204 514.5,222.5 Q540,241 553,282"/> 
            <glyph glyph-name="ª" unicode="&#xAA;" horiz-adv-x="372" d=" M129,416 Q129,387 146,371.5 Q163,356 195,356 Q214,356 234,362 Q254,368 270,382.5 Q286,397 296,420 Q306,443 306,476 L306,489 L235,489 Q184,489 156.5,469 Q129,449 129,416 M372,300 L318,300 L309,358 Q290,331 259.5,313.5 Q229,296 184,296 Q159,296 137,303 Q115,310 98.5,324.5 Q82,339 72.5,361.5 Q63,384 63,416 Q63,480 111,512.5 Q159,545 241,545 L306,545 L306,562 Q306,608 280.5,626 Q255,644 219,644 Q188,644 165.5,627.5 Q143,611 136,582 L78,595 Q88,642 126.5,673 Q165,704 224,704 Q291,704 331.5,667.5 Q372,631 372,555"/> 
            <glyph glyph-name="«" unicode="&#xAB;" horiz-adv-x="555" d=" M278,341 L555,540 L555,450 L360,310 L555,170 L555,80 L278,279 M48,341 L325,540 L325,450 L130,310 L325,170 L325,80 L48,279"/> 
            <glyph glyph-name="¬" unicode="&#xAC;" horiz-adv-x="502" d=" M69,389 L502,389 L502,142 L418,142 L418,313 L69,313"/> 
            <glyph glyph-name="®" unicode="&#xAE;" horiz-adv-x="830" d=" M70,350 Q70,433 98.5,504.5 Q127,576 178,628.5 Q229,681 298.5,710.5 Q368,740 450,740 Q532,740 601.5,710.5 Q671,681 722,628.5 Q773,576 801.5,504.5 Q830,433 830,350 Q830,267 801.5,195.5 Q773,124 722,71.5 Q671,19 601.5,-10.5 Q532,-40 450,-40 Q368,-40 298.5,-10.5 Q229,19 178,71.5 Q127,124 98.5,195.5 Q70,267 70,350 M150,350 Q150,284 171.5,226.5 Q193,169 232,127 Q271,85 326.5,60.5 Q382,36 450,36 Q518,36 573.5,60.5 Q629,85 668,127 Q707,169 728.5,226.5 Q750,284 750,350 Q750,416 728.5,473.5 Q707,531 668,573 Q629,615 573.5,639.5 Q518,664 450,664 Q382,664 326.5,639.5 Q271,615 232,573 Q193,531 171.5,473.5 Q150,416 150,350 M420,319 L382,319 L382,137 L310,137 L310,563 L463,563 Q529,563 562,529 Q595,495 595,441 Q595,394 568.5,362.5 Q542,331 501,323 L628,137 L546,137 M382,493 L382,389 L462,389 Q495,389 509,402.5 Q523,416 523,441 Q523,466 509,479.5 Q495,493 462,493"/> 
            <glyph glyph-name="¯" unicode="&#xAF;" horiz-adv-x="261" d=" M12,708 L261,708 L261,632 L12,632"/> 
            <glyph glyph-name="°" unicode="&#xB0;" horiz-adv-x="290" d=" M66,593 Q66,641 97.5,672.5 Q129,704 178,704 Q227,704 258.5,672.5 Q290,641 290,593 Q290,545 258.5,513.5 Q227,482 178,482 Q129,482 97.5,513.5 Q66,545 66,593 M130,593 Q130,571 142.5,557.5 Q155,544 178,544 Q201,544 213.5,557.5 Q226,571 226,593 Q226,615 213.5,628.5 Q201,642 178,642 Q155,642 142.5,628.5 Q130,615 130,593"/> 
            <glyph glyph-name="±" unicode="&#xB1;" horiz-adv-x="505" d=" M322,619 L322,436 L505,436 L505,362 L322,362 L322,179 L248,179 L248,362 L65,362 L65,436 L248,436 L248,619 M65,74 L505,74 L505,0 L65,0"/> 
            <glyph glyph-name="²" unicode="&#xB2;" horiz-adv-x="320" d=" M67,592 Q72,640 106,672 Q140,704 190,704 Q247,704 278.5,673 Q310,642 310,588 Q310,532 272,485 L169,360 L320,360 L320,300 L62,300 L62,325 L211,509 Q244,549 244,586 Q244,644 190,644 Q167,644 150.5,626 Q134,608 131,575"/> 
            <glyph glyph-name="³" unicode="&#xB3;" horiz-adv-x="327" d=" M126,424 Q130,392 148,374 Q166,356 195,356 Q230,356 245.5,378 Q261,400 261,431 Q261,464 244,483 Q227,502 195,502 Q184,502 173.5,498.5 Q163,495 158,491 L127,532 L209,640 L81,640 L81,700 L304,700 L304,677 L210,551 Q263,551 295,518 Q327,485 327,431 Q327,372 291,334 Q255,296 195,296 Q139,296 103,328.5 Q67,361 62,415"/> 
            <glyph glyph-name="´" unicode="&#xB4;" horiz-adv-x="209" d=" M88,704 L209,704 L88,560 L20,560"/> 
            <glyph glyph-name="µ" unicode="&#xB5;" horiz-adv-x="485" d=" M86,-204 L86,504 L170,504 L170,171 Q170,119 192.5,93.5 Q215,68 257,68 Q285,68 311,83.5 Q337,99 357,128 Q377,157 389,198.5 Q401,240 401,293 L401,504 L485,504 L485,0 L401,0 L401,93 Q373,44 330,18 Q287,-8 234,-8 Q198,-8 170,3 L170,-204"/> 
            <glyph glyph-name="¶" unicode="&#xB6;" horiz-adv-x="619" d=" M60,507 Q60,547 75,582 Q90,617 116.5,643.5 Q143,670 178,685 Q213,700 253,700 L619,700 L619,624 L557,624 L557,-204 L473,-204 L473,624 L337,624 L337,-204 L253,-204 L253,314 Q213,314 178,329 Q143,344 116.5,370.5 Q90,397 75,432 Q60,467 60,507"/> 
            <glyph glyph-name="·" unicode="&#xB7;" horiz-adv-x="216" d=" M90,349 Q90,375 108,393.5 Q126,412 153,412 Q179,412 197.5,393.5 Q216,375 216,349 Q216,322 197.5,304 Q179,286 153,286 Q126,286 108,304 Q90,322 90,349"/> 
            <glyph glyph-name="¸" unicode="&#xB8;" horiz-adv-x="188" d=" M105,-235 L10,-190 L118,-60 L188,-60"/> 
            <glyph glyph-name="¹" unicode="&#xB9;" horiz-adv-x="206" d=" M206,700 L206,300 L143,300 L143,609 L57,569 L57,639 L184,700"/> 
            <glyph glyph-name="º" unicode="&#xBA;" horiz-adv-x="447" d=" M69,500 Q69,540 82,577 Q95,614 119,642 Q143,670 178,687 Q213,704 258,704 Q302,704 337,687 Q372,670 396.5,642 Q421,614 434,577 Q447,540 447,500 Q447,459 434,422.5 Q421,386 396.5,357.5 Q372,329 337,312.5 Q302,296 258,296 Q213,296 178,312.5 Q143,329 119,357.5 Q95,386 82,422.5 Q69,459 69,500 M135,500 Q135,473 143,446.5 Q151,420 166.5,400 Q182,380 205,367.5 Q228,355 258,355 Q288,355 311,367.5 Q334,380 349.5,400 Q365,420 372.5,446.5 Q380,473 380,500 Q380,527 372.5,553 Q365,579 349.5,599.5 Q334,620 311,632 Q288,644 258,644 Q228,644 205,632 Q182,620 166.5,599.5 Q151,579 143,553 Q135,527 135,500"/> 
            <glyph glyph-name="»" unicode="&#xBB;" horiz-adv-x="563" d=" M333,279 L56,80 L56,170 L251,310 L56,450 L56,540 L333,341 M563,279 L286,80 L286,170 L481,310 L286,450 L286,540 L563,341"/> 
            <glyph glyph-name="¼" unicode="&#xBC;" horiz-adv-x="708" d=" M598,77 L428,77 L428,103 L589,400 L661,400 L661,137 L708,137 L708,77 L661,77 L661,0 L598,0 M598,137 L598,307 L510,137 M227,700 L227,300 L164,300 L164,609 L78,569 L78,639 L205,700 M692,690 L154,-29 L104,11 L642,729"/> 
            <glyph glyph-name="½" unicode="&#xBD;" horiz-adv-x="757" d=" M227,700 L227,300 L164,300 L164,609 L78,569 L78,639 L205,700 M504,65828 Q509,65876 543,65908 Q577,65940 627,65940 Q684,65940 715.5,65909 Q747,65878 747,65824 Q747,65768 709,65721 L606,65596 L757,65596 L757,65536 L499,65536 L499,65561 L648,65745 Q681,65785 681,65822 Q681,65880 627,65880 Q604,65880 587.5,65862 Q571,65844 568,65811 M692,690 L154,-29 L104,11 L642,729"/> 
            <glyph glyph-name="¾" unicode="&#xBE;" horiz-adv-x="769" d=" M659,77 L489,77 L489,103 L650,400 L722,400 L722,137 L769,137 L769,77 L722,77 L722,0 L659,0 M659,137 L659,307 L571,137 M756,690 L218,-29 L168,11 L706,729 M126,424 Q130,392 148,374 Q166,356 195,356 Q230,356 245.5,378 Q261,400 261,431 Q261,464 244,483 Q227,502 195,502 Q184,502 173.5,498.5 Q163,495 158,491 L127,532 L209,640 L81,640 L81,700 L304,700 L304,677 L210,551 Q263,551 295,518 Q327,485 327,431 Q327,372 291,334 Q255,296 195,296 Q139,296 103,328.5 Q67,361 62,415"/> 
            <glyph glyph-name="¿" unicode="&#xBF;" horiz-adv-x="400" d=" M285,431 Q285,402 266,382.5 Q247,363 219,363 Q190,363 170.5,382.5 Q151,402 151,431 Q151,459 170.5,478 Q190,497 219,497 Q247,497 266,478 Q285,459 285,431 M85,187 Q102,238 136.5,265.5 Q171,293 219,293 Q279,293 315,259.5 Q351,226 351,168 Q351,123 328,92.5 Q305,62 266,42 Q250,34 238.5,29 Q227,24 216.5,20 Q206,16 196,11.5 Q186,7 174,1 Q148,-13 139,-30.5 Q130,-48 130,-70 Q130,-103 152,-122 Q164,-133 179,-138.5 Q194,-144 217,-144 Q257,-144 284,-118 Q311,-92 322,-51 L400,-64 Q386,-132 339.5,-173 Q293,-214 217,-214 Q177,-214 146,-202 Q115,-190 93,-170 Q70,-148 59,-121.5 Q48,-95 48,-65 Q48,-27 67,4 Q86,35 124,54 L225,103 Q252,118 263,135 Q274,152 274,172 Q274,196 260,209.5 Q246,223 222,223 Q193,223 176.5,205 Q160,187 150,164"/> 
            <glyph glyph-name="À" unicode="&#xC0;" horiz-adv-x="580" d=" M254,700 L338,700 L580,0 L492,0 L430,187 L162,187 L100,0 L12,0 M402,271 L296,586 L190,271 M347,756 L279,756 L158,900 L279,900"/> 
            <glyph glyph-name="Á" unicode="&#xC1;" horiz-adv-x="580" d=" M254,700 L338,700 L580,0 L492,0 L430,187 L162,187 L100,0 L12,0 M402,271 L296,586 L190,271 M305,900 L426,900 L305,756 L237,756"/> 
            <glyph glyph-name="Â" unicode="&#xC2;" horiz-adv-x="580" d=" M254,700 L338,700 L580,0 L492,0 L430,187 L162,187 L100,0 L12,0 M402,271 L296,586 L190,271 M283,926 L309,926 L462,762 L376,762 L296,847 L216,762 L130,762"/> 
            <glyph glyph-name="Ã" unicode="&#xC3;" horiz-adv-x="580" d=" M254,700 L338,700 L580,0 L492,0 L430,187 L162,187 L100,0 L12,0 M402,271 L296,586 L190,271 M120,820 Q137,852 165.5,874 Q194,896 227,896 Q252,896 269,889.5 Q286,883 299.5,875.5 Q313,868 326,862 Q339,856 358,856 Q379,856 394.5,865.5 Q410,875 424,892 L473,853 Q456,821 427.5,799.5 Q399,778 366,778 Q340,778 323.5,784 Q307,790 293.5,797.5 Q280,805 267,811.5 Q254,818 235,818 Q214,818 198.5,808.5 Q183,799 169,782"/> 
            <glyph glyph-name="Ä" unicode="&#xC4;" horiz-adv-x="580" d=" M254,700 L338,700 L580,0 L492,0 L430,187 L162,187 L100,0 L12,0 M402,271 L296,586 L190,271 M157,847 Q157,871 173.5,887.5 Q190,904 213,904 Q238,904 254,887.5 Q270,871 270,847 Q270,823 254,807 Q238,791 213,791 Q190,791 173.5,807 Q157,823 157,847 M323,847 Q323,871 339.5,887.5 Q356,904 379,904 Q404,904 420,887.5 Q436,871 436,847 Q436,823 420,807 Q404,791 379,791 Q356,791 339.5,807 Q323,823 323,847"/> 
            <glyph glyph-name="Å" unicode="&#xC5;" horiz-adv-x="580" d=" M254,700 L338,700 L580,0 L492,0 L430,187 L162,187 L100,0 L12,0 M402,271 L296,586 L190,271 M197,849 Q197,891 225.5,920 Q254,949 296,949 Q340,949 367.5,920 Q395,891 395,849 Q395,808 367.5,780.5 Q340,753 296,753 Q275,753 257,760.5 Q239,768 225.5,781 Q212,794 204.5,811.5 Q197,829 197,849 M253,850 Q253,831 265,818.5 Q277,806 296,806 Q316,806 327.5,818.5 Q339,831 339,850 Q339,870 327.5,883 Q316,896 296,896 Q277,896 265,883 Q253,870 253,850"/> 
            <glyph glyph-name="Æ" unicode="&#xC6;" horiz-adv-x="773" d=" M763,700 L763,616 L449,616 L449,415 L703,415 L703,331 L449,331 L449,84 L773,84 L773,0 L361,0 L361,187 L180,187 L100,0 L10,0 L315,700 M216,271 L361,271 L361,585 L351,585"/> 
            <glyph glyph-name="Ç" unicode="&#xC7;" horiz-adv-x="645" d=" M645,204 Q633,158 609.5,119 Q586,80 551,52 Q516,24 471,8 Q426,-8 371,-8 Q310,-8 253,14.5 Q196,37 152,81.5 Q108,126 81.5,193 Q55,260 55,350 Q55,440 81.5,507 Q108,574 152,618.5 Q196,663 253,685.5 Q310,708 371,708 Q426,708 471,692 Q516,676 551,648 Q586,620 609.5,581 Q633,542 645,496 L560,471 Q536,545 488,584.5 Q440,624 371,624 Q323,624 281.5,606.5 Q240,589 210,554.5 Q180,520 163,469 Q146,418 146,350 Q146,282 163,231 Q180,180 210,145.5 Q240,111 281.5,93.5 Q323,76 371,76 Q440,76 488,115.5 Q536,155 560,229 M356,-235 L261,-190 L369,-60 L439,-60"/> 
            <glyph glyph-name="È" unicode="&#xC8;" horiz-adv-x="509" d=" M499,700 L499,616 L185,616 L185,415 L439,415 L439,331 L185,331 L185,84 L509,84 L509,0 L97,0 L97,700 M366,756 L298,756 L177,900 L298,900"/> 
            <glyph glyph-name="É" unicode="&#xC9;" horiz-adv-x="509" d=" M499,700 L499,616 L185,616 L185,415 L439,415 L439,331 L185,331 L185,84 L509,84 L509,0 L97,0 L97,700 M297,900 L418,900 L297,756 L229,756"/> 
            <glyph glyph-name="Ê" unicode="&#xCA;" horiz-adv-x="509" d=" M499,700 L499,616 L185,616 L185,415 L439,415 L439,331 L185,331 L185,84 L509,84 L509,0 L97,0 L97,700 M294,926 L320,926 L473,762 L387,762 L307,847 L227,762 L141,762"/> 
            <glyph glyph-name="Ë" unicode="&#xCB;" horiz-adv-x="509" d=" M499,700 L499,616 L185,616 L185,415 L439,415 L439,331 L185,331 L185,84 L509,84 L509,0 L97,0 L97,700 M164,847 Q164,871 180.5,887.5 Q197,904 220,904 Q245,904 261,887.5 Q277,871 277,847 Q277,823 261,807 Q245,791 220,791 Q197,791 180.5,807 Q164,823 164,847 M330,847 Q330,871 346.5,887.5 Q363,904 386,904 Q411,904 427,887.5 Q443,871 443,847 Q443,823 427,807 Q411,791 386,791 Q363,791 346.5,807 Q330,823 330,847"/> 
            <glyph glyph-name="Ì" unicode="&#xCC;" horiz-adv-x="198" d=" M185,700 L185,0 L97,0 L97,700 M65734,756 L65666,756 L65545,900 L65666,900"/> 
            <glyph glyph-name="Í" unicode="&#xCD;" horiz-adv-x="273" d=" M185,700 L185,0 L97,0 L97,700 M152,900 L273,900 L152,756 L84,756"/> 
            <glyph glyph-name="Î" unicode="&#xCE;" horiz-adv-x="307" d=" M185,700 L185,0 L97,0 L97,700 M65664,926 L65690,926 L65843,762 L65757,762 L65677,847 L65597,762 L65511,762"/> 
            <glyph glyph-name="Ï" unicode="&#xCF;" horiz-adv-x="281" d=" M185,700 L185,0 L97,0 L97,700 M65538,847 Q65538,871 65554.5,887.5 Q65571,904 65594,904 Q65619,904 65635,887.5 Q65651,871 65651,847 Q65651,823 65635,807 Q65619,791 65594,791 Q65571,791 65554.5,807 Q65538,823 65538,847 M65704,847 Q65704,871 65720.5,887.5 Q65737,904 65760,904 Q65785,904 65801,887.5 Q65817,871 65817,847 Q65817,823 65801,807 Q65785,791 65760,791 Q65737,791 65720.5,807 Q65704,823 65704,847"/> 
            <glyph glyph-name="Ð" unicode="&#xD0;" horiz-adv-x="632" d=" M35,392 L118,392 L118,700 L310,700 Q374,700 432.5,677 Q491,654 535.5,610 Q580,566 606,500.5 Q632,435 632,350 Q632,265 606,199.5 Q580,134 535.5,90 Q491,46 432.5,23 Q374,0 310,0 L118,0 L118,308 L35,308 M206,616 L206,392 L289,392 L289,308 L206,308 L206,84 L295,84 Q343,84 387,98 Q431,112 464.5,143.5 Q498,175 518,225.5 Q538,276 538,350 Q538,423 518,474 Q498,525 464.5,556.5 Q431,588 387,602 Q343,616 295,616"/> 
            <glyph glyph-name="Ñ" unicode="&#xD1;" horiz-adv-x="604" d=" M604,700 L604,0 L501,0 L185,557 L185,0 L97,0 L97,700 L200,700 L516,143 L516,700 M174,820 Q191,852 219.5,874 Q248,896 281,896 Q306,896 323,889.5 Q340,883 353.5,875.5 Q367,868 380,862 Q393,856 412,856 Q433,856 448.5,865.5 Q464,875 478,892 L527,853 Q510,821 481.5,799.5 Q453,778 420,778 Q394,778 377.5,784 Q361,790 347.5,797.5 Q334,805 321,811.5 Q308,818 289,818 Q268,818 252.5,808.5 Q237,799 223,782"/> 
            <glyph glyph-name="Ò" unicode="&#xD2;" horiz-adv-x="683" d=" M369,708 Q432,708 488.5,685 Q545,662 588.5,616.5 Q632,571 657.5,504 Q683,437 683,350 Q683,263 657.5,196 Q632,129 588.5,83.5 Q545,38 488.5,15 Q432,-8 369,-8 Q306,-8 249.5,15 Q193,38 149.5,83.5 Q106,129 80.5,196 Q55,263 55,350 Q55,437 80.5,504 Q106,571 149.5,616.5 Q193,662 249.5,685 Q306,708 369,708 M369,624 Q322,624 281.5,607 Q241,590 211,555.5 Q181,521 163.5,470 Q146,419 146,350 Q146,281 163.5,230 Q181,179 211,144.5 Q241,110 281.5,93 Q322,76 369,76 Q415,76 456,93 Q497,110 527,144.5 Q557,179 574.5,230 Q592,281 592,350 Q592,419 574.5,470 Q557,521 527,555.5 Q497,590 456,607 Q415,624 369,624 M423,756 L355,756 L234,900 L355,900"/> 
            <glyph glyph-name="Ó" unicode="&#xD3;" horiz-adv-x="683" d=" M369,708 Q432,708 488.5,685 Q545,662 588.5,616.5 Q632,571 657.5,504 Q683,437 683,350 Q683,263 657.5,196 Q632,129 588.5,83.5 Q545,38 488.5,15 Q432,-8 369,-8 Q306,-8 249.5,15 Q193,38 149.5,83.5 Q106,129 80.5,196 Q55,263 55,350 Q55,437 80.5,504 Q106,571 149.5,616.5 Q193,662 249.5,685 Q306,708 369,708 M369,624 Q322,624 281.5,607 Q241,590 211,555.5 Q181,521 163.5,470 Q146,419 146,350 Q146,281 163.5,230 Q181,179 211,144.5 Q241,110 281.5,93 Q322,76 369,76 Q415,76 456,93 Q497,110 527,144.5 Q557,179 574.5,230 Q592,281 592,350 Q592,419 574.5,470 Q557,521 527,555.5 Q497,590 456,607 Q415,624 369,624 M368,900 L489,900 L368,756 L300,756"/> 
            <glyph glyph-name="Ô" unicode="&#xD4;" horiz-adv-x="683" d=" M369,708 Q432,708 488.5,685 Q545,662 588.5,616.5 Q632,571 657.5,504 Q683,437 683,350 Q683,263 657.5,196 Q632,129 588.5,83.5 Q545,38 488.5,15 Q432,-8 369,-8 Q306,-8 249.5,15 Q193,38 149.5,83.5 Q106,129 80.5,196 Q55,263 55,350 Q55,437 80.5,504 Q106,571 149.5,616.5 Q193,662 249.5,685 Q306,708 369,708 M369,624 Q322,624 281.5,607 Q241,590 211,555.5 Q181,521 163.5,470 Q146,419 146,350 Q146,281 163.5,230 Q181,179 211,144.5 Q241,110 281.5,93 Q322,76 369,76 Q415,76 456,93 Q497,110 527,144.5 Q557,179 574.5,230 Q592,281 592,350 Q592,419 574.5,470 Q557,521 527,555.5 Q497,590 456,607 Q415,624 369,624 M356,926 L382,926 L535,762 L449,762 L369,847 L289,762 L203,762"/> 
            <glyph glyph-name="Õ" unicode="&#xD5;" horiz-adv-x="683" d=" M369,708 Q432,708 488.5,685 Q545,662 588.5,616.5 Q632,571 657.5,504 Q683,437 683,350 Q683,263 657.5,196 Q632,129 588.5,83.5 Q545,38 488.5,15 Q432,-8 369,-8 Q306,-8 249.5,15 Q193,38 149.5,83.5 Q106,129 80.5,196 Q55,263 55,350 Q55,437 80.5,504 Q106,571 149.5,616.5 Q193,662 249.5,685 Q306,708 369,708 M369,624 Q322,624 281.5,607 Q241,590 211,555.5 Q181,521 163.5,470 Q146,419 146,350 Q146,281 163.5,230 Q181,179 211,144.5 Q241,110 281.5,93 Q322,76 369,76 Q415,76 456,93 Q497,110 527,144.5 Q557,179 574.5,230 Q592,281 592,350 Q592,419 574.5,470 Q557,521 527,555.5 Q497,590 456,607 Q415,624 369,624 M193,820 Q210,852 238.5,874 Q267,896 300,896 Q325,896 342,889.5 Q359,883 372.5,875.5 Q386,868 399,862 Q412,856 431,856 Q452,856 467.5,865.5 Q483,875 497,892 L546,853 Q529,821 500.5,799.5 Q472,778 439,778 Q413,778 396.5,784 Q380,790 366.5,797.5 Q353,805 340,811.5 Q327,818 308,818 Q287,818 271.5,808.5 Q256,799 242,782"/> 
            <glyph glyph-name="Ö" unicode="&#xD6;" horiz-adv-x="683" d=" M369,708 Q432,708 488.5,685 Q545,662 588.5,616.5 Q632,571 657.5,504 Q683,437 683,350 Q683,263 657.5,196 Q632,129 588.5,83.5 Q545,38 488.5,15 Q432,-8 369,-8 Q306,-8 249.5,15 Q193,38 149.5,83.5 Q106,129 80.5,196 Q55,263 55,350 Q55,437 80.5,504 Q106,571 149.5,616.5 Q193,662 249.5,685 Q306,708 369,708 M369,624 Q322,624 281.5,607 Q241,590 211,555.5 Q181,521 163.5,470 Q146,419 146,350 Q146,281 163.5,230 Q181,179 211,144.5 Q241,110 281.5,93 Q322,76 369,76 Q415,76 456,93 Q497,110 527,144.5 Q557,179 574.5,230 Q592,281 592,350 Q592,419 574.5,470 Q557,521 527,555.5 Q497,590 456,607 Q415,624 369,624 M230,847 Q230,871 246.5,887.5 Q263,904 286,904 Q311,904 327,887.5 Q343,871 343,847 Q343,823 327,807 Q311,791 286,791 Q263,791 246.5,807 Q230,823 230,847 M396,847 Q396,871 412.5,887.5 Q429,904 452,904 Q477,904 493,887.5 Q509,871 509,847 Q509,823 493,807 Q477,791 452,791 Q429,791 412.5,807 Q396,823 396,847"/> 
            <glyph glyph-name="×" unicode="&#xD7;" horiz-adv-x="487" d=" M487,477 L329,319 L487,161 L435,109 L277,267 L119,109 L67,161 L225,319 L67,477 L119,529 L277,371 L435,529"/> 
            <glyph glyph-name="Ø" unicode="&#xD8;" horiz-adv-x="683" d=" M369,708 Q420,708 466.5,693 Q513,678 552,648 L613,727 L672,683 L605,597 Q641,552 662,490 Q683,428 683,350 Q683,263 657.5,196 Q632,129 588.5,83.5 Q545,38 488.5,15 Q432,-8 369,-8 Q318,-8 271.5,7 Q225,22 186,52 L125,-27 L66,17 L133,103 Q97,148 76,210 Q55,272 55,350 Q55,437 80.5,504 Q106,571 149.5,616.5 Q193,662 249.5,685 Q306,708 369,708 M592,350 Q592,404 580.5,448 Q569,492 549,524 L238,119 Q293,76 369,76 Q415,76 456,93 Q497,110 527,144.5 Q557,179 574.5,230 Q592,281 592,350 M369,624 Q322,624 281.5,607 Q241,590 211,555.5 Q181,521 163.5,470 Q146,419 146,350 Q146,295 157.5,251.5 Q169,208 189,176 L500,581 Q445,624 369,624"/> 
            <glyph glyph-name="Ù" unicode="&#xD9;" horiz-adv-x="572" d=" M82,700 L170,700 L170,232 Q170,199 180,170.5 Q190,142 210,121 Q230,100 259.5,88 Q289,76 327,76 Q365,76 394.5,88 Q424,100 444,121 Q464,142 474,170.5 Q484,199 484,232 L484,700 L572,700 L572,238 Q572,178 552.5,132 Q533,86 500,55 Q467,24 422.5,8 Q378,-8 327,-8 Q276,-8 231.5,8 Q187,24 154,55 Q121,86 101.5,132 Q82,178 82,238 M388,756 L320,756 L199,900 L320,900"/> 
            <glyph glyph-name="Ú" unicode="&#xDA;" horiz-adv-x="572" d=" M82,700 L170,700 L170,232 Q170,199 180,170.5 Q190,142 210,121 Q230,100 259.5,88 Q289,76 327,76 Q365,76 394.5,88 Q424,100 444,121 Q464,142 474,170.5 Q484,199 484,232 L484,700 L572,700 L572,238 Q572,178 552.5,132 Q533,86 500,55 Q467,24 422.5,8 Q378,-8 327,-8 Q276,-8 231.5,8 Q187,24 154,55 Q121,86 101.5,132 Q82,178 82,238 M338,900 L459,900 L338,756 L270,756"/> 
            <glyph glyph-name="Û" unicode="&#xDB;" horiz-adv-x="572" d=" M82,700 L170,700 L170,232 Q170,199 180,170.5 Q190,142 210,121 Q230,100 259.5,88 Q289,76 327,76 Q365,76 394.5,88 Q424,100 444,121 Q464,142 474,170.5 Q484,199 484,232 L484,700 L572,700 L572,238 Q572,178 552.5,132 Q533,86 500,55 Q467,24 422.5,8 Q378,-8 327,-8 Q276,-8 231.5,8 Q187,24 154,55 Q121,86 101.5,132 Q82,178 82,238 M314,926 L340,926 L493,762 L407,762 L327,847 L247,762 L161,762"/> 
            <glyph glyph-name="Ü" unicode="&#xDC;" horiz-adv-x="572" d=" M82,700 L170,700 L170,232 Q170,199 180,170.5 Q190,142 210,121 Q230,100 259.5,88 Q289,76 327,76 Q365,76 394.5,88 Q424,100 444,121 Q464,142 474,170.5 Q484,199 484,232 L484,700 L572,700 L572,238 Q572,178 552.5,132 Q533,86 500,55 Q467,24 422.5,8 Q378,-8 327,-8 Q276,-8 231.5,8 Q187,24 154,55 Q121,86 101.5,132 Q82,178 82,238 M188,847 Q188,871 204.5,887.5 Q221,904 244,904 Q269,904 285,887.5 Q301,871 301,847 Q301,823 285,807 Q269,791 244,791 Q221,791 204.5,807 Q188,823 188,847 M354,847 Q354,871 370.5,887.5 Q387,904 410,904 Q435,904 451,887.5 Q467,871 467,847 Q467,823 451,807 Q435,791 410,791 Q387,791 370.5,807 Q354,823 354,847"/> 
            <glyph glyph-name="Ý" unicode="&#xDD;" horiz-adv-x="502" d=" M4,700 L101,700 L253,390 L405,700 L502,700 L297,302 L297,0 L209,0 L209,302 M253,900 L374,900 L253,756 L185,756"/> 
            <glyph glyph-name="Þ" unicode="&#xDE;" horiz-adv-x="549" d=" M185,150 L185,0 L97,0 L97,700 L185,700 L185,550 L341,550 Q440,550 494.5,496 Q549,442 549,350 Q549,258 494.5,204 Q440,150 341,150 M346,234 Q400,234 429,264 Q458,294 458,350 Q458,406 429,436 Q400,466 346,466 L185,466 L185,234"/> 
            <glyph glyph-name="ß" unicode="&#xDF;" horiz-adv-x="510" d=" M38,420 L88,420 L88,505 Q88,556 103,594 Q118,632 144,657.5 Q170,683 204.5,695.5 Q239,708 277,708 Q323,708 358,694 Q393,680 416.5,655.5 Q440,631 451.5,598.5 Q463,566 463,529 Q463,471 436,436.5 Q409,402 373,390 Q397,385 421.5,372 Q446,359 465.5,336.5 Q485,314 497.5,283 Q510,252 510,212 Q510,154 494,112.5 Q478,71 449,44 Q420,17 380.5,4.5 Q341,-8 295,-8 Q269,-8 253,-6 Q237,-4 224,-1 L224,75 Q239,72 256.5,70 Q274,68 295,68 Q358,68 392,102.5 Q426,137 426,206 Q426,275 388.5,310.5 Q351,346 285,346 L250,346 L250,420 L285,420 Q339,420 361,450 Q383,480 383,526 Q383,576 355,604 Q327,632 277,632 Q227,632 199.5,598.5 Q172,565 172,502 L172,0 L88,0 L88,346 L38,346"/> 
            <glyph glyph-name="à" unicode="&#xE0;" horiz-adv-x="450" d=" M142,145 Q142,109 163.5,88.5 Q185,68 225,68 Q249,68 274.5,76 Q300,84 320,102 Q340,120 353,149.5 Q366,179 366,222 L366,234 L276,234 Q211,234 176.5,211 Q142,188 142,145 M450,0 L384,0 L370,71 Q346,36 307.5,14 Q269,-8 212,-8 Q180,-8 152,0.5 Q124,9 102.5,28 Q81,47 68.5,75.5 Q56,104 56,145 Q56,185 72,216 Q88,247 118,268 Q148,289 190,299.5 Q232,310 284,310 L366,310 L366,332 Q366,390 334,413 Q302,436 256,436 Q217,436 188,415.5 Q159,395 151,357 L77,374 Q88,438 136,475 Q184,512 256,512 Q298,512 333.5,501 Q369,490 395,467 Q421,444 435.5,408 Q450,372 450,322 M324,560 L256,560 L135,704 L256,704"/> 
            <glyph glyph-name="á" unicode="&#xE1;" horiz-adv-x="450" d=" M142,145 Q142,109 163.5,88.5 Q185,68 225,68 Q249,68 274.5,76 Q300,84 320,102 Q340,120 353,149.5 Q366,179 366,222 L366,234 L276,234 Q211,234 176.5,211 Q142,188 142,145 M450,0 L384,0 L370,71 Q346,36 307.5,14 Q269,-8 212,-8 Q180,-8 152,0.5 Q124,9 102.5,28 Q81,47 68.5,75.5 Q56,104 56,145 Q56,185 72,216 Q88,247 118,268 Q148,289 190,299.5 Q232,310 284,310 L366,310 L366,332 Q366,390 334,413 Q302,436 256,436 Q217,436 188,415.5 Q159,395 151,357 L77,374 Q88,438 136,475 Q184,512 256,512 Q298,512 333.5,501 Q369,490 395,467 Q421,444 435.5,408 Q450,372 450,322 M262,704 L383,704 L262,560 L194,560"/> 
            <glyph glyph-name="â" unicode="&#xE2;" horiz-adv-x="450" d=" M142,145 Q142,109 163.5,88.5 Q185,68 225,68 Q249,68 274.5,76 Q300,84 320,102 Q340,120 353,149.5 Q366,179 366,222 L366,234 L276,234 Q211,234 176.5,211 Q142,188 142,145 M450,0 L384,0 L370,71 Q346,36 307.5,14 Q269,-8 212,-8 Q180,-8 152,0.5 Q124,9 102.5,28 Q81,47 68.5,75.5 Q56,104 56,145 Q56,185 72,216 Q88,247 118,268 Q148,289 190,299.5 Q232,310 284,310 L366,310 L366,332 Q366,390 334,413 Q302,436 256,436 Q217,436 188,415.5 Q159,395 151,357 L77,374 Q88,438 136,475 Q184,512 256,512 Q298,512 333.5,501 Q369,490 395,467 Q421,444 435.5,408 Q450,372 450,322 M247,730 L273,730 L426,566 L340,566 L260,651 L180,566 L94,566"/> 
            <glyph glyph-name="ã" unicode="&#xE3;" horiz-adv-x="450" d=" M142,145 Q142,109 163.5,88.5 Q185,68 225,68 Q249,68 274.5,76 Q300,84 320,102 Q340,120 353,149.5 Q366,179 366,222 L366,234 L276,234 Q211,234 176.5,211 Q142,188 142,145 M450,0 L384,0 L370,71 Q346,36 307.5,14 Q269,-8 212,-8 Q180,-8 152,0.5 Q124,9 102.5,28 Q81,47 68.5,75.5 Q56,104 56,145 Q56,185 72,216 Q88,247 118,268 Q148,289 190,299.5 Q232,310 284,310 L366,310 L366,332 Q366,390 334,413 Q302,436 256,436 Q217,436 188,415.5 Q159,395 151,357 L77,374 Q88,438 136,475 Q184,512 256,512 Q298,512 333.5,501 Q369,490 395,467 Q421,444 435.5,408 Q450,372 450,322 M87,624 Q104,656 132.5,678 Q161,700 194,700 Q219,700 236,693.5 Q253,687 266.5,679.5 Q280,672 293,666 Q306,660 325,660 Q346,660 361.5,669.5 Q377,679 391,696 L440,657 Q423,625 394.5,603.5 Q366,582 333,582 Q307,582 290.5,588 Q274,594 260.5,601.5 Q247,609 234,615.5 Q221,622 202,622 Q181,622 165.5,612.5 Q150,603 136,586"/> 
            <glyph glyph-name="ä" unicode="&#xE4;" horiz-adv-x="450" d=" M142,145 Q142,109 163.5,88.5 Q185,68 225,68 Q249,68 274.5,76 Q300,84 320,102 Q340,120 353,149.5 Q366,179 366,222 L366,234 L276,234 Q211,234 176.5,211 Q142,188 142,145 M450,0 L384,0 L370,71 Q346,36 307.5,14 Q269,-8 212,-8 Q180,-8 152,0.5 Q124,9 102.5,28 Q81,47 68.5,75.5 Q56,104 56,145 Q56,185 72,216 Q88,247 118,268 Q148,289 190,299.5 Q232,310 284,310 L366,310 L366,332 Q366,390 334,413 Q302,436 256,436 Q217,436 188,415.5 Q159,395 151,357 L77,374 Q88,438 136,475 Q184,512 256,512 Q298,512 333.5,501 Q369,490 395,467 Q421,444 435.5,408 Q450,372 450,322 M121,651 Q121,675 137.5,691.5 Q154,708 177,708 Q202,708 218,691.5 Q234,675 234,651 Q234,627 218,611 Q202,595 177,595 Q154,595 137.5,611 Q121,627 121,651 M287,651 Q287,675 303.5,691.5 Q320,708 343,708 Q368,708 384,691.5 Q400,675 400,651 Q400,627 384,611 Q368,595 343,595 Q320,595 303.5,611 Q287,627 287,651"/> 
            <glyph glyph-name="å" unicode="&#xE5;" horiz-adv-x="450" d=" M142,145 Q142,109 163.5,88.5 Q185,68 225,68 Q249,68 274.5,76 Q300,84 320,102 Q340,120 353,149.5 Q366,179 366,222 L366,234 L276,234 Q211,234 176.5,211 Q142,188 142,145 M450,0 L384,0 L370,71 Q346,36 307.5,14 Q269,-8 212,-8 Q180,-8 152,0.5 Q124,9 102.5,28 Q81,47 68.5,75.5 Q56,104 56,145 Q56,185 72,216 Q88,247 118,268 Q148,289 190,299.5 Q232,310 284,310 L366,310 L366,332 Q366,390 334,413 Q302,436 256,436 Q217,436 188,415.5 Q159,395 151,357 L77,374 Q88,438 136,475 Q184,512 256,512 Q298,512 333.5,501 Q369,490 395,467 Q421,444 435.5,408 Q450,372 450,322 M157,653 Q157,695 185.5,724 Q214,753 256,753 Q300,753 327.5,724 Q355,695 355,653 Q355,612 327.5,584.5 Q300,557 256,557 Q235,557 217,564.5 Q199,572 185.5,585 Q172,598 164.5,615.5 Q157,633 157,653 M213,654 Q213,635 225,622.5 Q237,610 256,610 Q276,610 287.5,622.5 Q299,635 299,654 Q299,674 287.5,687 Q276,700 256,700 Q237,700 225,687 Q213,674 213,654"/> 
            <glyph glyph-name="æ" unicode="&#xE6;" horiz-adv-x="822" d=" M822,234 L452,234 Q454,199 463.5,169 Q473,139 490.5,116.5 Q508,94 534,81 Q560,68 594,68 Q650,68 681.5,92.5 Q713,117 734,164 L808,132 Q773,58 722.5,25 Q672,-8 594,-8 Q523,-8 475,23 Q427,54 400,105 Q363,39 315.5,15.5 Q268,-8 212,-8 Q180,-8 152,0.5 Q124,9 102.5,28 Q81,47 68.5,75.5 Q56,104 56,145 Q56,185 72,216 Q88,247 118,268 Q148,289 190,299.5 Q232,310 284,310 L366,310 L366,332 Q366,390 334,413 Q302,436 256,436 Q217,436 188,415.5 Q159,395 151,357 L77,374 Q88,438 136,475 Q184,512 256,512 Q311,512 354.5,493 Q398,474 423,433 Q452,469 494.5,490.5 Q537,512 594,512 Q650,512 692.5,492 Q735,472 764,439 Q793,406 807.5,363 Q822,320 822,273 M142,145 Q142,109 163.5,88.5 Q185,68 225,68 Q249,68 274.5,76 Q300,84 320,102 Q340,120 353,149.5 Q366,179 366,222 L366,234 L276,234 Q211,234 176.5,211 Q142,188 142,145 M594,436 Q535,436 501.5,400.5 Q468,365 457,310 L734,310 Q729,337 718,360 Q707,383 689.5,400 Q672,417 648,426.5 Q624,436 594,436"/> 
            <glyph glyph-name="ç" unicode="&#xE7;" horiz-adv-x="494" d=" M494,131 Q463,60 412,26 Q361,-8 283,-8 Q225,-8 182,13.5 Q139,35 110.5,71 Q82,107 68,154 Q54,201 54,252 Q54,303 68,350 Q82,397 110.5,433 Q139,469 182,490.5 Q225,512 283,512 Q361,512 412,478 Q463,444 494,373 L421,343 Q401,389 368,412.5 Q335,436 283,436 Q246,436 219,421.5 Q192,407 174.5,382 Q157,357 148.5,323.5 Q140,290 140,252 Q140,214 148.5,180.5 Q157,147 174.5,122 Q192,97 219,82.5 Q246,68 283,68 Q335,68 368,91.5 Q401,115 421,161 M269,-235 L174,-190 L282,-60 L352,-60"/> 
            <glyph glyph-name="è" unicode="&#xE8;" horiz-adv-x="510" d=" M510,234 L140,234 Q142,199 151.5,169 Q161,139 178.5,116.5 Q196,94 222,81 Q248,68 282,68 Q338,68 369.5,92.5 Q401,117 422,164 L496,132 Q461,58 410.5,25 Q360,-8 282,-8 Q225,-8 182,13.5 Q139,35 110.5,71 Q82,107 68,154 Q54,201 54,252 Q54,303 68,350 Q82,397 110.5,433 Q139,469 182,490.5 Q225,512 282,512 Q338,512 380.5,492 Q423,472 452,439 Q481,406 495.5,363 Q510,320 510,273 M282,436 Q223,436 189.5,400.5 Q156,365 145,310 L422,310 Q411,364 377,400 Q343,436 282,436 M344,560 L276,560 L155,704 L276,704"/> 
            <glyph glyph-name="é" unicode="&#xE9;" horiz-adv-x="510" d=" M510,234 L140,234 Q142,199 151.5,169 Q161,139 178.5,116.5 Q196,94 222,81 Q248,68 282,68 Q338,68 369.5,92.5 Q401,117 422,164 L496,132 Q461,58 410.5,25 Q360,-8 282,-8 Q225,-8 182,13.5 Q139,35 110.5,71 Q82,107 68,154 Q54,201 54,252 Q54,303 68,350 Q82,397 110.5,433 Q139,469 182,490.5 Q225,512 282,512 Q338,512 380.5,492 Q423,472 452,439 Q481,406 495.5,363 Q510,320 510,273 M282,436 Q223,436 189.5,400.5 Q156,365 145,310 L422,310 Q411,364 377,400 Q343,436 282,436 M287,704 L408,704 L287,560 L219,560"/> 
            <glyph glyph-name="ê" unicode="&#xEA;" horiz-adv-x="510" d=" M510,234 L140,234 Q142,199 151.5,169 Q161,139 178.5,116.5 Q196,94 222,81 Q248,68 282,68 Q338,68 369.5,92.5 Q401,117 422,164 L496,132 Q461,58 410.5,25 Q360,-8 282,-8 Q225,-8 182,13.5 Q139,35 110.5,71 Q82,107 68,154 Q54,201 54,252 Q54,303 68,350 Q82,397 110.5,433 Q139,469 182,490.5 Q225,512 282,512 Q338,512 380.5,492 Q423,472 452,439 Q481,406 495.5,363 Q510,320 510,273 M282,436 Q223,436 189.5,400.5 Q156,365 145,310 L422,310 Q411,364 377,400 Q343,436 282,436 M273,730 L299,730 L452,566 L366,566 L286,651 L206,566 L120,566"/> 
            <glyph glyph-name="ë" unicode="&#xEB;" horiz-adv-x="510" d=" M510,234 L140,234 Q142,199 151.5,169 Q161,139 178.5,116.5 Q196,94 222,81 Q248,68 282,68 Q338,68 369.5,92.5 Q401,117 422,164 L496,132 Q461,58 410.5,25 Q360,-8 282,-8 Q225,-8 182,13.5 Q139,35 110.5,71 Q82,107 68,154 Q54,201 54,252 Q54,303 68,350 Q82,397 110.5,433 Q139,469 182,490.5 Q225,512 282,512 Q338,512 380.5,492 Q423,472 452,439 Q481,406 495.5,363 Q510,320 510,273 M282,436 Q223,436 189.5,400.5 Q156,365 145,310 L422,310 Q411,364 377,400 Q343,436 282,436 M147,651 Q147,675 163.5,691.5 Q180,708 203,708 Q228,708 244,691.5 Q260,675 260,651 Q260,627 244,611 Q228,595 203,595 Q180,595 163.5,611 Q147,627 147,651 M313,651 Q313,675 329.5,691.5 Q346,708 369,708 Q394,708 410,691.5 Q426,675 426,651 Q426,627 410,611 Q394,595 369,595 Q346,595 329.5,611 Q313,627 313,651"/> 
            <glyph glyph-name="ì" unicode="&#xEC;" horiz-adv-x="200" d=" M177,504 L177,0 L93,0 L93,504 M456,560 L388,560 L267,704 L388,704"/> 
            <glyph glyph-name="í" unicode="&#xED;" horiz-adv-x="260" d=" M177,504 L177,0 L93,0 L93,504 M139,704 L260,704 L139,560 L71,560"/> 
            <glyph glyph-name="î" unicode="&#xEE;" horiz-adv-x="301" d=" M177,504 L177,0 L93,0 L93,504 M378,730 L404,730 L557,566 L471,566 L391,651 L311,566 L225,566"/> 
            <glyph glyph-name="ï" unicode="&#xEF;" horiz-adv-x="275" d=" M177,504 L177,0 L93,0 L93,504 M252,651 Q252,675 268.5,691.5 Q285,708 308,708 Q333,708 349,691.5 Q365,675 365,651 Q365,627 349,611 Q333,595 308,595 Q285,595 268.5,611 Q252,627 252,651 M418,651 Q418,675 434.5,691.5 Q451,708 474,708 Q499,708 515,691.5 Q531,675 531,651 Q531,627 515,611 Q499,595 474,595 Q451,595 434.5,611 Q418,627 418,651"/> 
            <glyph glyph-name="ð" unicode="&#xF0;" horiz-adv-x="526" d=" M195,584 L233,641 Q213,652 193,661.5 Q173,671 153,679 L193,740 Q238,721 273,701 L310,755 L368,713 L334,662 Q386,623 423,578.5 Q460,534 482.5,483.5 Q505,433 515.5,375.5 Q526,318 526,252 Q526,201 510.5,154 Q495,107 465,71 Q435,35 391,13.5 Q347,-8 290,-8 Q233,-8 189,13.5 Q145,35 115,71 Q85,107 69.5,154 Q54,201 54,252 Q54,303 69.5,350 Q85,397 115,433 Q145,469 189,490.5 Q233,512 290,512 Q323,512 355.5,499.5 Q388,487 403,468 Q387,511 359.5,541.5 Q332,572 293,601 L254,542 M140,252 Q140,217 149,184 Q158,151 176.5,125 Q195,99 223,83.5 Q251,68 290,68 Q329,68 357,83.5 Q385,99 403.5,125 Q422,151 431,184 Q440,217 440,252 Q440,288 430.5,321.5 Q421,355 402.5,380.5 Q384,406 355.5,421 Q327,436 290,436 Q251,436 223,420.5 Q195,405 176.5,379 Q158,353 149,320 Q140,287 140,252"/> 
            <glyph glyph-name="ñ" unicode="&#xF1;" horiz-adv-x="491" d=" M491,0 L407,0 L407,333 Q407,385 384.5,410.5 Q362,436 320,436 Q292,436 266,420.5 Q240,405 220,376 Q200,347 188,305 Q176,263 176,211 L176,0 L92,0 L92,504 L176,504 L176,411 Q204,460 247,486 Q290,512 343,512 Q412,512 451.5,471 Q491,430 491,355 M123,624 Q140,656 168.5,678 Q197,700 230,700 Q255,700 272,693.5 Q289,687 302.5,679.5 Q316,672 329,666 Q342,660 361,660 Q382,660 397.5,669.5 Q413,679 427,696 L476,657 Q459,625 430.5,603.5 Q402,582 369,582 Q343,582 326.5,588 Q310,594 296.5,601.5 Q283,609 270,615.5 Q257,622 238,622 Q217,622 201.5,612.5 Q186,603 172,586"/> 
            <glyph glyph-name="ò" unicode="&#xF2;" horiz-adv-x="538" d=" M54,252 Q54,303 70.5,350 Q87,397 118.5,433 Q150,469 194.5,490.5 Q239,512 296,512 Q353,512 397.5,490.5 Q442,469 473.5,433 Q505,397 521.5,350 Q538,303 538,252 Q538,201 521.5,154 Q505,107 473.5,71 Q442,35 397.5,13.5 Q353,-8 296,-8 Q239,-8 194.5,13.5 Q150,35 118.5,71 Q87,107 70.5,154 Q54,201 54,252 M140,252 Q140,217 150,184 Q160,151 179.5,125 Q199,99 228,83.5 Q257,68 296,68 Q335,68 364,83.5 Q393,99 412.5,125 Q432,151 442,184 Q452,217 452,252 Q452,287 442,320 Q432,353 412.5,379 Q393,405 364,420.5 Q335,436 296,436 Q257,436 228,420.5 Q199,405 179.5,379 Q160,353 150,320 Q140,287 140,252 M356,560 L288,560 L167,704 L288,704"/> 
            <glyph glyph-name="ó" unicode="&#xF3;" horiz-adv-x="538" d=" M54,252 Q54,303 70.5,350 Q87,397 118.5,433 Q150,469 194.5,490.5 Q239,512 296,512 Q353,512 397.5,490.5 Q442,469 473.5,433 Q505,397 521.5,350 Q538,303 538,252 Q538,201 521.5,154 Q505,107 473.5,71 Q442,35 397.5,13.5 Q353,-8 296,-8 Q239,-8 194.5,13.5 Q150,35 118.5,71 Q87,107 70.5,154 Q54,201 54,252 M140,252 Q140,217 150,184 Q160,151 179.5,125 Q199,99 228,83.5 Q257,68 296,68 Q335,68 364,83.5 Q393,99 412.5,125 Q432,151 442,184 Q452,217 452,252 Q452,287 442,320 Q432,353 412.5,379 Q393,405 364,420.5 Q335,436 296,436 Q257,436 228,420.5 Q199,405 179.5,379 Q160,353 150,320 Q140,287 140,252 M300,704 L421,704 L300,560 L232,560"/> 
            <glyph glyph-name="ô" unicode="&#xF4;" horiz-adv-x="538" d=" M54,252 Q54,303 70.5,350 Q87,397 118.5,433 Q150,469 194.5,490.5 Q239,512 296,512 Q353,512 397.5,490.5 Q442,469 473.5,433 Q505,397 521.5,350 Q538,303 538,252 Q538,201 521.5,154 Q505,107 473.5,71 Q442,35 397.5,13.5 Q353,-8 296,-8 Q239,-8 194.5,13.5 Q150,35 118.5,71 Q87,107 70.5,154 Q54,201 54,252 M140,252 Q140,217 150,184 Q160,151 179.5,125 Q199,99 228,83.5 Q257,68 296,68 Q335,68 364,83.5 Q393,99 412.5,125 Q432,151 442,184 Q452,217 452,252 Q452,287 442,320 Q432,353 412.5,379 Q393,405 364,420.5 Q335,436 296,436 Q257,436 228,420.5 Q199,405 179.5,379 Q160,353 150,320 Q140,287 140,252 M283,730 L309,730 L462,566 L376,566 L296,651 L216,566 L130,566"/> 
            <glyph glyph-name="õ" unicode="&#xF5;" horiz-adv-x="538" d=" M54,252 Q54,303 70.5,350 Q87,397 118.5,433 Q150,469 194.5,490.5 Q239,512 296,512 Q353,512 397.5,490.5 Q442,469 473.5,433 Q505,397 521.5,350 Q538,303 538,252 Q538,201 521.5,154 Q505,107 473.5,71 Q442,35 397.5,13.5 Q353,-8 296,-8 Q239,-8 194.5,13.5 Q150,35 118.5,71 Q87,107 70.5,154 Q54,201 54,252 M140,252 Q140,217 150,184 Q160,151 179.5,125 Q199,99 228,83.5 Q257,68 296,68 Q335,68 364,83.5 Q393,99 412.5,125 Q432,151 442,184 Q452,217 452,252 Q452,287 442,320 Q432,353 412.5,379 Q393,405 364,420.5 Q335,436 296,436 Q257,436 228,420.5 Q199,405 179.5,379 Q160,353 150,320 Q140,287 140,252 M120,624 Q137,656 165.5,678 Q194,700 227,700 Q252,700 269,693.5 Q286,687 299.5,679.5 Q313,672 326,666 Q339,660 358,660 Q379,660 394.5,669.5 Q410,679 424,696 L473,657 Q456,625 427.5,603.5 Q399,582 366,582 Q340,582 323.5,588 Q307,594 293.5,601.5 Q280,609 267,615.5 Q254,622 235,622 Q214,622 198.5,612.5 Q183,603 169,586"/> 
            <glyph glyph-name="ö" unicode="&#xF6;" horiz-adv-x="538" d=" M54,252 Q54,303 70.5,350 Q87,397 118.5,433 Q150,469 194.5,490.5 Q239,512 296,512 Q353,512 397.5,490.5 Q442,469 473.5,433 Q505,397 521.5,350 Q538,303 538,252 Q538,201 521.5,154 Q505,107 473.5,71 Q442,35 397.5,13.5 Q353,-8 296,-8 Q239,-8 194.5,13.5 Q150,35 118.5,71 Q87,107 70.5,154 Q54,201 54,252 M140,252 Q140,217 150,184 Q160,151 179.5,125 Q199,99 228,83.5 Q257,68 296,68 Q335,68 364,83.5 Q393,99 412.5,125 Q432,151 442,184 Q452,217 452,252 Q452,287 442,320 Q432,353 412.5,379 Q393,405 364,420.5 Q335,436 296,436 Q257,436 228,420.5 Q199,405 179.5,379 Q160,353 150,320 Q140,287 140,252 M157,651 Q157,675 173.5,691.5 Q190,708 213,708 Q238,708 254,691.5 Q270,675 270,651 Q270,627 254,611 Q238,595 213,595 Q190,595 173.5,611 Q157,627 157,651 M323,651 Q323,675 339.5,691.5 Q356,708 379,708 Q404,708 420,691.5 Q436,675 436,651 Q436,627 420,611 Q404,595 379,595 Q356,595 339.5,611 Q323,627 323,651"/> 
            <glyph glyph-name="÷" unicode="&#xF7;" horiz-adv-x="488" d=" M205,128 Q205,154 223,172.5 Q241,191 268,191 Q294,191 312.5,172.5 Q331,154 331,128 Q331,101 312.5,83 Q294,65 268,65 Q241,65 223,83 Q205,101 205,128 M205,502 Q205,528 223,546.5 Q241,565 268,565 Q294,565 312.5,546.5 Q331,528 331,502 Q331,475 312.5,457 Q294,439 268,439 Q241,439 223,457 Q205,475 205,502 M48,354 L488,354 L488,280 L48,280"/> 
            <glyph glyph-name="ø" unicode="&#xF8;" horiz-adv-x="540" d=" M540,504 L479,426 Q508,391 523,346 Q538,301 538,252 Q538,201 521.5,154 Q505,107 473.5,71 Q442,35 397.5,13.5 Q353,-8 296,-8 Q258,-8 226,1.5 Q194,11 168,28 L112,-43 L52,0 L113,78 Q84,113 69,158 Q54,203 54,252 Q54,303 70.5,350 Q87,397 118.5,433 Q150,469 194.5,490.5 Q239,512 296,512 Q334,512 366,502.5 Q398,493 424,476 L480,547 M452,252 Q452,280 445.5,307.5 Q439,335 426,358 L217,91 Q234,80 253.5,74 Q273,68 296,68 Q335,68 364,83.5 Q393,99 412.5,125 Q432,151 442,184 Q452,217 452,252 M140,252 Q140,193 166,146 L375,413 Q358,424 338.5,430 Q319,436 296,436 Q257,436 228,420.5 Q199,405 179.5,379 Q160,353 150,320 Q140,287 140,252"/> 
            <glyph glyph-name="ù" unicode="&#xF9;" horiz-adv-x="485" d=" M86,504 L170,504 L170,171 Q170,119 192.5,93.5 Q215,68 257,68 Q285,68 311,83.5 Q337,99 357,128 Q377,157 389,198.5 Q401,240 401,293 L401,504 L485,504 L485,0 L401,0 L401,93 Q373,44 330,18 Q287,-8 234,-8 Q165,-8 125.5,33 Q86,74 86,149 M340,560 L272,560 L151,704 L272,704"/> 
            <glyph glyph-name="ú" unicode="&#xFA;" horiz-adv-x="485" d=" M86,504 L170,504 L170,171 Q170,119 192.5,93.5 Q215,68 257,68 Q285,68 311,83.5 Q337,99 357,128 Q377,157 389,198.5 Q401,240 401,293 L401,504 L485,504 L485,0 L401,0 L401,93 Q373,44 330,18 Q287,-8 234,-8 Q165,-8 125.5,33 Q86,74 86,149 M289,704 L410,704 L289,560 L221,560"/> 
            <glyph glyph-name="û" unicode="&#xFB;" horiz-adv-x="485" d=" M86,504 L170,504 L170,171 Q170,119 192.5,93.5 Q215,68 257,68 Q285,68 311,83.5 Q337,99 357,128 Q377,157 389,198.5 Q401,240 401,293 L401,504 L485,504 L485,0 L401,0 L401,93 Q373,44 330,18 Q287,-8 234,-8 Q165,-8 125.5,33 Q86,74 86,149 M273,730 L299,730 L452,566 L366,566 L286,651 L206,566 L120,566"/> 
            <glyph glyph-name="ü" unicode="&#xFC;" horiz-adv-x="485" d=" M86,504 L170,504 L170,171 Q170,119 192.5,93.5 Q215,68 257,68 Q285,68 311,83.5 Q337,99 357,128 Q377,157 389,198.5 Q401,240 401,293 L401,504 L485,504 L485,0 L401,0 L401,93 Q373,44 330,18 Q287,-8 234,-8 Q165,-8 125.5,33 Q86,74 86,149 M147,651 Q147,675 163.5,691.5 Q180,708 203,708 Q228,708 244,691.5 Q260,675 260,651 Q260,627 244,611 Q228,595 203,595 Q180,595 163.5,611 Q147,627 147,651 M313,651 Q313,675 329.5,691.5 Q346,708 369,708 Q394,708 410,691.5 Q426,675 426,651 Q426,627 410,611 Q394,595 369,595 Q346,595 329.5,611 Q313,627 313,651"/> 
            <glyph glyph-name="ý" unicode="&#xFD;" horiz-adv-x="448" d=" M448,504 L198,-204 L112,-204 L192,21 L15,504 L107,504 L235,140 L360,504 M246,704 L367,704 L246,560 L178,560"/> 
            <glyph glyph-name="þ" unicode="&#xFE;" horiz-adv-x="547" d=" M547,252 Q547,195 533,147.5 Q519,100 490.5,65.5 Q462,31 420,11.5 Q378,-8 323,-8 Q300,-8 277.5,-2.5 Q255,3 235.5,13 Q216,23 200.5,35.5 Q185,48 176,62 L176,-204 L92,-204 L92,708 L176,708 L176,444 Q182,455 197,467 Q212,479 232,489 Q252,499 275.5,505.5 Q299,512 323,512 Q378,512 420,492.5 Q462,473 490.5,438.5 Q519,404 533,356.5 Q547,309 547,252 M461,252 Q461,292 450.5,326 Q440,360 421,384.5 Q402,409 375,422.5 Q348,436 315,436 Q280,436 253,422.5 Q226,409 207.5,384.5 Q189,360 179,326 Q169,292 169,252 Q169,211 179,177.5 Q189,144 207.5,119.5 Q226,95 253,81.5 Q280,68 315,68 Q348,68 375,81.5 Q402,95 421,119.5 Q440,144 450.5,177.5 Q461,211 461,252"/> 
            <glyph glyph-name="ÿ" unicode="&#xFF;" horiz-adv-x="448" d=" M448,504 L198,-204 L112,-204 L192,21 L15,504 L107,504 L235,140 L360,504 M97,651 Q97,675 113.5,691.5 Q130,708 153,708 Q178,708 194,691.5 Q210,675 210,651 Q210,627 194,611 Q178,595 153,595 Q130,595 113.5,611 Q97,627 97,651 M263,651 Q263,675 279.5,691.5 Q296,708 319,708 Q344,708 360,691.5 Q376,675 376,651 Q376,627 360,611 Q344,595 319,595 Q296,595 279.5,611 Q263,627 263,651"/> 
            <glyph glyph-name="ı" unicode="&#x131;" horiz-adv-x="177" d=" M177,504 L177,0 L93,0 L93,504"/> 
            <glyph glyph-name="Ł" unicode="&#x141;" horiz-adv-x="503" d=" M185,700 L185,398 L302,463 L338,398 L185,314 L185,84 L503,84 L503,0 L97,0 L97,265 L32,228 L-4,293 L97,349 L97,700"/> 
            <glyph glyph-name="ł" unicode="&#x142;" horiz-adv-x="310" d=" M208,708 L208,425 L274,463 L310,398 L208,341 L208,0 L124,0 L124,296 L58,259 L22,324 L124,380 L124,708"/> 
            <glyph glyph-name="Œ" unicode="&#x152;" horiz-adv-x="1007" d=" M997,700 L997,616 L683,616 L683,415 L937,415 L937,331 L683,331 L683,84 L1007,84 L1007,0 L595,0 L595,91 Q551,42 493,17 Q435,-8 369,-8 Q306,-8 249.5,15 Q193,38 149.5,83.5 Q106,129 80.5,196 Q55,263 55,350 Q55,437 80.5,504 Q106,571 149.5,616.5 Q193,662 249.5,685 Q306,708 369,708 Q435,708 493,683 Q551,658 595,609 L595,700 M369,624 Q322,624 281.5,607 Q241,590 211,555.5 Q181,521 163.5,470 Q146,419 146,350 Q146,281 163.5,230 Q181,179 211,144.5 Q241,110 281.5,93 Q322,76 369,76 Q415,76 456,93 Q497,110 527,144.5 Q557,179 574.5,230 Q592,281 592,350 Q592,419 574.5,470 Q557,521 527,555.5 Q497,590 456,607 Q415,624 369,624"/> 
            <glyph glyph-name="œ" unicode="&#x153;" horiz-adv-x="908" d=" M908,234 L538,234 Q540,199 549.5,169 Q559,139 576.5,116.5 Q594,94 620,81 Q646,68 680,68 Q736,68 767.5,92.5 Q799,117 820,164 L894,132 Q859,58 808.5,25 Q758,-8 680,-8 Q613,-8 566.5,21 Q520,50 492,96 Q461,49 411.5,20.5 Q362,-8 296,-8 Q239,-8 194.5,13.5 Q150,35 118.5,71 Q87,107 70.5,154 Q54,201 54,252 Q54,303 70.5,350 Q87,397 118.5,433 Q150,469 194.5,490.5 Q239,512 296,512 Q362,512 411.5,483.5 Q461,455 492,408 Q520,455 566.5,483.5 Q613,512 680,512 Q736,512 778.5,492 Q821,472 850,439 Q879,406 893.5,363 Q908,320 908,273 M140,252 Q140,217 150,184 Q160,151 179.5,125 Q199,99 228,83.5 Q257,68 296,68 Q333,68 362.5,83.5 Q392,99 411.5,125 Q431,151 441.5,184 Q452,217 452,252 Q452,287 441.5,320 Q431,353 411.5,379 Q392,405 362.5,420.5 Q333,436 296,436 Q257,436 228,420.5 Q199,405 179.5,379 Q160,353 150,320 Q140,287 140,252 M680,436 Q621,436 587.5,400.5 Q554,365 543,310 L820,310 Q815,336 804,359 Q793,382 775.5,399 Q758,416 734,426 Q710,436 680,436"/> 
            <glyph glyph-name="Š" unicode="&#x160;" horiz-adv-x="476" d=" M369,550 Q343,596 316.5,610 Q290,624 258,624 Q220,624 197,597.5 Q174,571 174,537 Q174,511 184.5,492 Q195,473 213.5,457.5 Q232,442 256.5,429 Q281,416 309,402 Q339,387 368.5,369.5 Q398,352 422,329 Q446,306 461,274.5 Q476,243 476,201 Q476,158 462,122 Q448,86 422,58 Q393,26 353,9 Q313,-8 266,-8 Q222,-8 184.5,6 Q147,20 118,45.5 Q89,71 69,105.5 Q49,140 40,181 L116,227 Q125,196 136.5,168.5 Q148,141 165.5,120.5 Q183,100 207.5,88 Q232,76 266,76 Q293,76 318.5,86 Q344,96 361,116 Q388,149 388,199 Q388,224 377,244 Q366,264 347.5,280.5 Q329,297 305,310 Q281,323 256,335 Q222,351 191,368.5 Q160,386 137,408.5 Q114,431 100,460 Q86,489 86,530 Q86,569 100,601.5 Q114,634 137.5,658 Q161,682 192,695 Q223,708 258,708 Q295,708 323.5,700 Q352,692 373.5,677 Q395,662 411,641.5 Q427,621 440,596 M94,926 L180,926 L260,841 L340,926 L426,926 L273,762 L247,762"/> 
            <glyph glyph-name="š" unicode="&#x161;" horiz-adv-x="406" d=" M236,512 Q328,512 382,435 L325,386 Q300,413 279.5,424.5 Q259,436 233,436 Q207,436 189.5,419.5 Q172,403 172,372 Q172,349 189.5,334.5 Q207,320 233,307.5 Q259,295 289,283 Q319,271 345,254.5 Q371,238 388.5,213.5 Q406,189 406,152 Q406,76 361,34 Q316,-8 239,-8 Q200,-8 169.5,3.5 Q139,15 116,34.5 Q93,54 77,78 Q61,102 51,128 L122,167 Q139,126 168,97 Q197,68 239,68 Q277,68 298.5,87.5 Q320,107 320,147 Q320,170 303,184.5 Q286,199 260,210.5 Q234,222 204,233.5 Q174,245 148,262.5 Q122,280 105,306 Q88,332 88,373 Q88,402 98.5,427.5 Q109,453 128,471.5 Q147,490 174.5,501 Q202,512 236,512 M67,730 L153,730 L233,645 L313,730 L399,730 L246,566 L220,566"/> 
            <glyph glyph-name="Ÿ" unicode="&#x178;" horiz-adv-x="502" d=" M4,700 L101,700 L253,390 L405,700 L502,700 L297,302 L297,0 L209,0 L209,302 M114,847 Q114,871 130.5,887.5 Q147,904 170,904 Q195,904 211,887.5 Q227,871 227,847 Q227,823 211,807 Q195,791 170,791 Q147,791 130.5,807 Q114,823 114,847 M280,847 Q280,871 296.5,887.5 Q313,904 336,904 Q361,904 377,887.5 Q393,871 393,847 Q393,823 377,807 Q361,791 336,791 Q313,791 296.5,807 Q280,823 280,847"/> 
            <glyph glyph-name="Ž" unicode="&#x17D;" horiz-adv-x="506" d=" M57,700 L496,700 L496,658 L170,84 L506,84 L506,0 L45,0 L45,42 L371,616 L57,616 M110,926 L196,926 L276,841 L356,926 L442,926 L289,762 L263,762"/> 
            <glyph glyph-name="ž" unicode="&#x17E;" horiz-adv-x="410" d=" M63,504 L401,504 L401,468 L162,76 L410,76 L410,0 L50,0 L50,36 L288,428 L63,428 M67,730 L153,730 L233,645 L313,730 L399,730 L246,566 L220,566"/> 
            <glyph glyph-name="ƒ" unicode="&#x192;" horiz-adv-x="473" d=" M112,504 L201,504 L208,537 Q227,630 277,669 Q327,708 404,708 Q425,708 443,703.5 Q461,699 473,692 L442,618 Q431,624 416.5,628 Q402,632 388,632 Q346,632 324,609 Q302,586 292,537 L285,504 L399,504 L385,428 L271,428 L180,-41 Q171,-88 153,-120.5 Q135,-153 109.5,-173 Q84,-193 52.5,-202.5 Q21,-212 -16,-212 Q-37,-212 -55,-207.5 Q-73,-203 -85,-196 L-54,-122 Q-43,-128 -28.5,-132 Q-14,-136 0,-136 Q42,-136 64,-113 Q86,-90 96,-41 L187,428 L98,428"/> 
            <glyph glyph-name="ˆ" unicode="&#x2C6;" horiz-adv-x="361" d=" M182,730 L208,730 L361,566 L275,566 L195,651 L115,566 L29,566"/> 
            <glyph glyph-name="ˇ" unicode="&#x2C7;" horiz-adv-x="361" d=" M29,730 L115,730 L195,645 L275,730 L361,730 L208,566 L182,566"/> 
            <glyph glyph-name="˘" unicode="&#x2D8;" horiz-adv-x="232" d=" M232,700 Q232,654 201,622.5 Q170,591 121,591 Q97,591 77,599.5 Q57,608 42,622.5 Q27,637 18.5,657 Q10,677 10,700 L77,700 Q77,680 89,667.5 Q101,655 121,655 Q141,655 153,667.5 Q165,680 165,700"/> 
            <glyph glyph-name="˙" unicode="&#x2D9;" horiz-adv-x="198" d=" M72,644 Q72,671 90.5,689.5 Q109,708 135,708 Q162,708 180,689.5 Q198,671 198,644 Q198,618 180,600 Q162,582 135,582 Q109,582 90.5,600 Q72,618 72,644"/> 
            <glyph glyph-name="˚" unicode="&#x2DA;" horiz-adv-x="216" d=" M18,653 Q18,695 46.5,724 Q75,753 117,753 Q161,753 188.5,724 Q216,695 216,653 Q216,612 188.5,584.5 Q161,557 117,557 Q96,557 78,564.5 Q60,572 46.5,585 Q33,598 25.5,615.5 Q18,633 18,653 M74,654 Q74,635 86,622.5 Q98,610 117,610 Q137,610 148.5,622.5 Q160,635 160,654 Q160,674 148.5,687 Q137,700 117,700 Q98,700 86,687 Q74,674 74,654"/> 
            <glyph glyph-name="˛" unicode="&#x2DB;" horiz-adv-x="204" d=" M132,0 Q106,-23 91,-42.5 Q76,-62 76,-80 Q76,-94 84,-102 Q92,-110 106,-110 Q123,-110 134.5,-99.5 Q146,-89 161,-69 L204,-104 Q180,-140 156,-157.5 Q132,-175 96,-175 Q57,-175 33.5,-152.5 Q10,-130 10,-92 Q10,-68 25.5,-44 Q41,-20 70,0"/> 
            <glyph glyph-name="˜" unicode="&#x2DC;" horiz-adv-x="371" d=" M18,624 Q35,656 63.5,678 Q92,700 125,700 Q150,700 167,693.5 Q184,687 197.5,679.5 Q211,672 224,666 Q237,660 256,660 Q277,660 292.5,669.5 Q308,679 322,696 L371,657 Q354,625 325.5,603.5 Q297,582 264,582 Q238,582 221.5,588 Q205,594 191.5,601.5 Q178,609 165,615.5 Q152,622 133,622 Q112,622 96.5,612.5 Q81,603 67,586"/> 
            <glyph glyph-name="˝" unicode="&#x2DD;" horiz-adv-x="392" d=" M90,704 L211,704 L90,560 L22,560 M271,704 L392,704 L271,560 L203,560"/> 
            <glyph glyph-name="Ω" unicode="&#x3A9;" horiz-adv-x="607" d=" M75,76 L204,76 Q174,130 150,191 Q130,243 113,307.5 Q96,372 96,440 Q96,498 112.5,547 Q129,596 160,632 Q191,668 236.5,688 Q282,708 341,708 Q399,708 445,688 Q491,668 522,632 Q553,596 569.5,547 Q586,498 586,440 Q586,372 569,307.5 Q552,243 532,191 Q508,130 478,76 L607,76 L607,0 L387,0 L387,23 Q417,85 442,154 Q463,213 480.5,287.5 Q498,362 498,440 Q498,529 457,580.5 Q416,632 341,632 Q266,632 225,580.5 Q184,529 184,440 Q184,362 201,287.5 Q218,213 239,154 Q264,85 295,23 L295,0 L75,0"/> 
            <glyph glyph-name="π" unicode="&#x3C0;" horiz-adv-x="549" d=" M55,504 L549,504 L549,428 L461,428 L461,0 L377,0 L377,428 L227,428 L227,0 L143,0 L143,428 L55,428"/> 
            <glyph glyph-name="–" unicode="&#x2013;" horiz-adv-x="490" d=" M71,354 L490,354 L490,280 L71,280"/> 
            <glyph glyph-name="—" unicode="&#x2014;" horiz-adv-x="688" d=" M71,354 L688,354 L688,280 L71,280"/> 
            <glyph glyph-name="‘" unicode="&#x2018;" horiz-adv-x="249" d=" M249,503 L185,503 L58,708 L180,708"/> 
            <glyph glyph-name="’" unicode="&#x2019;" horiz-adv-x="241" d=" M119,708 L241,708 L114,503 L50,503"/> 
            <glyph glyph-name="‚" unicode="&#x201A;" horiz-adv-x="241" d=" M119,191 L241,191 L114,-14 L50,-14"/> 
            <glyph glyph-name="“" unicode="&#x201C;" horiz-adv-x="423" d=" M423,503 L359,503 L232,708 L354,708 M249,503 L185,503 L58,708 L180,708"/> 
            <glyph glyph-name="”" unicode="&#x201D;" horiz-adv-x="415" d=" M119,708 L241,708 L114,503 L50,503 M293,708 L415,708 L288,503 L224,503"/> 
            <glyph glyph-name="„" unicode="&#x201E;" horiz-adv-x="415" d=" M119,191 L241,191 L114,-14 L50,-14 M293,191 L415,191 L288,-14 L224,-14"/> 
            <glyph glyph-name="†" unicode="&#x2020;" horiz-adv-x="400" d=" M60,504 L190,504 L190,750 L270,750 L270,504 L400,504 L400,424 L270,424 L270,-50 L190,-50 L190,424 L60,424"/> 
            <glyph glyph-name="‡" unicode="&#x2021;" horiz-adv-x="400" d=" M60,504 L190,504 L190,750 L270,750 L270,504 L400,504 L400,424 L270,424 L270,276 L400,276 L400,196 L270,196 L270,-50 L190,-50 L190,196 L60,196 L60,276 L190,276 L190,424 L60,424"/> 
            <glyph glyph-name="•" unicode="&#x2022;" horiz-adv-x="239" d=" M85,330 Q85,362 107.5,384.5 Q130,407 162,407 Q194,407 216.5,384.5 Q239,362 239,330 Q239,298 216.5,275.5 Q194,253 162,253 Q130,253 107.5,275.5 Q85,298 85,330"/> 
            <glyph glyph-name="…" unicode="&#x2026;" horiz-adv-x="746" d=" M90,59 Q90,85 108,103.5 Q126,122 153,122 Q179,122 197.5,103.5 Q216,85 216,59 Q216,32 197.5,14 Q179,-4 153,-4 Q126,-4 108,14 Q90,32 90,59 M355,59 Q355,85 373,103.5 Q391,122 418,122 Q444,122 462.5,103.5 Q481,85 481,59 Q481,32 462.5,14 Q444,-4 418,-4 Q391,-4 373,14 Q355,32 355,59 M620,59 Q620,85 638,103.5 Q656,122 683,122 Q709,122 727.5,103.5 Q746,85 746,59 Q746,32 727.5,14 Q709,-4 683,-4 Q656,-4 638,14 Q620,32 620,59"/> 
            <glyph glyph-name="‰" unicode="&#x2030;" horiz-adv-x="1164" d=" M58,548 Q58,581 70,610.5 Q82,640 103.5,661.5 Q125,683 154.5,695.5 Q184,708 218,708 Q252,708 281.5,695.5 Q311,683 332.5,661.5 Q354,640 366,610.5 Q378,581 378,548 Q378,515 366,486 Q354,457 332.5,435.5 Q311,414 281.5,401.5 Q252,389 218,389 Q184,389 154.5,401.5 Q125,414 103.5,435.5 Q82,457 70,486 Q58,515 58,548 M131,548 Q131,510 154,484.5 Q177,459 218,459 Q259,459 282,484.5 Q305,510 305,548 Q305,586 282,612 Q259,638 218,638 Q177,638 154,612 Q131,586 131,548 M464,151 Q464,184 476,213.5 Q488,243 509.5,264.5 Q531,286 560.5,298.5 Q590,311 624,311 Q658,311 687.5,298.5 Q717,286 738.5,264.5 Q760,243 772,213.5 Q784,184 784,151 Q784,118 772,89 Q760,60 738.5,38.5 Q717,17 687.5,4.5 Q658,-8 624,-8 Q590,-8 560.5,4.5 Q531,17 509.5,38.5 Q488,60 476,89 Q464,118 464,151 M537,151 Q537,113 560,87.5 Q583,62 624,62 Q665,62 688,87.5 Q711,113 711,151 Q711,189 688,215 Q665,241 624,241 Q583,241 560,215 Q537,189 537,151 M844,151 Q844,184 856,213.5 Q868,243 889.5,264.5 Q911,286 940.5,298.5 Q970,311 1004,311 Q1038,311 1067.5,298.5 Q1097,286 1118.5,264.5 Q1140,243 1152,213.5 Q1164,184 1164,151 Q1164,118 1152,89 Q1140,60 1118.5,38.5 Q1097,17 1067.5,4.5 Q1038,-8 1004,-8 Q970,-8 940.5,4.5 Q911,17 889.5,38.5 Q868,60 856,89 Q844,118 844,151 M917,151 Q917,113 940,87.5 Q963,62 1004,62 Q1045,62 1068,87.5 Q1091,113 1091,151 Q1091,189 1068,215 Q1045,241 1004,241 Q963,241 940,215 Q917,189 917,151 M715,690 L177,-29 L127,11 L665,729"/> 
            <glyph glyph-name="‹" unicode="&#x2039;" horiz-adv-x="325" d=" M48,341 L325,540 L325,450 L130,310 L325,170 L325,80 L48,279"/> 
            <glyph glyph-name="›" unicode="&#x203A;" horiz-adv-x="333" d=" M333,279 L56,80 L56,170 L251,310 L56,450 L56,540 L333,341"/> 
            <glyph glyph-name="⁄" unicode="&#x2044;" horiz-adv-x="598" d=" M598,690 L60,-29 L10,11 L548,729"/> 
            <glyph glyph-name="€" unicode="&#x20AC;" horiz-adv-x="586" d=" M72,467 L129,467 Q149,582 217,645 Q285,708 389,708 Q459,708 508,678.5 Q557,649 586,594 L515,555 Q492,593 462.5,610.5 Q433,628 389,628 Q321,628 275,589 Q229,550 213,467 L450,467 L410,387 L206,387 L206,313 L450,313 L410,233 L213,233 Q229,150 275,111 Q321,72 389,72 Q433,72 462.5,89.5 Q492,107 515,145 L586,106 Q557,51 508,21.5 Q459,-8 389,-8 Q285,-8 217,55 Q149,118 129,233 L32,233 L72,313 L122,313 L122,387 L32,387"/> 
            <glyph glyph-name="™" unicode="&#x2122;" horiz-adv-x="740" d=" M28,700 L309,700 L309,640 L204,640 L204,300 L133,300 L133,640 L28,640 M456,700 L561,437 L666,700 L740,700 L740,300 L669,300 L669,553 L582,337 L540,337 L453,553 L453,300 L382,300 L382,700"/> 
            <glyph glyph-name="Ω" unicode="&#x2126;" horiz-adv-x="607" d=" M75,76 L204,76 Q174,130 150,191 Q130,243 113,307.5 Q96,372 96,440 Q96,498 112.5,547 Q129,596 160,632 Q191,668 236.5,688 Q282,708 341,708 Q399,708 445,688 Q491,668 522,632 Q553,596 569.5,547 Q586,498 586,440 Q586,372 569,307.5 Q552,243 532,191 Q508,130 478,76 L607,76 L607,0 L387,0 L387,23 Q417,85 442,154 Q463,213 480.5,287.5 Q498,362 498,440 Q498,529 457,580.5 Q416,632 341,632 Q266,632 225,580.5 Q184,529 184,440 Q184,362 201,287.5 Q218,213 239,154 Q264,85 295,23 L295,0 L75,0"/> 
            <glyph glyph-name="∂" unicode="&#x2202;" horiz-adv-x="539" d=" M48,211 Q48,274 68.5,328.5 Q89,383 126.5,424 Q164,465 216,488.5 Q268,512 331,512 Q372,512 403.5,497 Q435,482 452,462 Q444,543 404.5,587.5 Q365,632 306,632 Q266,632 237,612.5 Q208,593 188,548 L106,569 Q130,632 182.5,670 Q235,708 309,708 Q370,708 413.5,683 Q457,658 485,612.5 Q513,567 526,502 Q539,437 539,357 Q539,291 523,225.5 Q507,160 473,108 Q439,56 384.5,24 Q330,-8 254,-8 Q208,-8 170,8 Q132,24 105,53 Q78,82 63,122.5 Q48,163 48,211 M323,436 Q279,436 244,416 Q209,396 184.5,363.5 Q160,331 147,290.5 Q134,250 134,209 Q134,147 166.5,107.5 Q199,68 259,68 Q303,68 337.5,86.5 Q372,105 396,136.5 Q420,168 433,209.5 Q446,251 446,296 Q446,360 415.5,398 Q385,436 323,436"/> 
            <glyph glyph-name="∆" unicode="&#x2206;" horiz-adv-x="613" d=" M55,20 L295,700 L373,700 L613,20 L613,0 L55,0 M160,76 L508,76 L334,579"/> 
            <glyph glyph-name="∏" unicode="&#x220F;" horiz-adv-x="460" d=" M92,700 L460,700 L460,0 L376,0 L376,624 L176,624 L176,0 L92,0"/> 
            <glyph glyph-name="∑" unicode="&#x2211;" horiz-adv-x="485" d=" M354,360 L354,340 L185,76 L485,76 L485,0 L58,0 L58,20 L270,350 L58,680 L58,700 L485,700 L485,624 L185,624"/> 
            <glyph glyph-name="−" unicode="&#x2212;" horiz-adv-x="507" d=" M67,354 L507,354 L507,280 L67,280"/> 
            <glyph glyph-name="√" unicode="&#x221A;" horiz-adv-x="547" d=" M547,708 L330,0 L264,0 L162,313 L58,313 L58,389 L211,389 L297,132 L467,708"/> 
            <glyph glyph-name="∞" unicode="&#x221E;" horiz-adv-x="822" d=" M638,168 Q587,168 534,195.5 Q481,223 440,279 Q399,223 346,195.5 Q293,168 242,168 Q198,168 164,182 Q130,196 106.5,221 Q83,246 70.5,281.5 Q58,317 58,359 Q58,401 70.5,436.5 Q83,472 106.5,497 Q130,522 164,536 Q198,550 242,550 Q293,550 346,522.5 Q399,495 440,439 Q481,495 534,522.5 Q587,550 638,550 Q681,550 715.5,536 Q750,522 773.5,497 Q797,472 809.5,436.5 Q822,401 822,359 Q822,317 809.5,281.5 Q797,246 773.5,221 Q750,196 715.5,182 Q681,168 638,168 M257,244 Q290,244 329.5,272.5 Q369,301 398,359 Q369,417 329.5,445.5 Q290,474 257,474 Q206,474 175,444 Q144,414 144,359 Q144,304 175,274 Q206,244 257,244 M623,244 Q674,244 705,274 Q736,304 736,359 Q736,414 705,444 Q674,474 623,474 Q590,474 550.5,445.5 Q511,417 482,359 Q511,301 550.5,272.5 Q590,244 623,244"/> 
            <glyph glyph-name="∫" unicode="&#x222B;" horiz-adv-x="473" d=" M208,537 Q226,630 276.5,669 Q327,708 404,708 Q425,708 443,703.5 Q461,699 473,692 L442,618 Q431,624 416.5,628 Q402,632 388,632 Q346,632 324,609 Q302,586 292,537 L180,-41 Q171,-88 153,-120.5 Q135,-153 109.5,-173 Q84,-193 52.5,-202.5 Q21,-212 -16,-212 Q-37,-212 -55,-207.5 Q-73,-203 -85,-196 L-54,-122 Q-43,-128 -28.5,-132 Q-14,-136 0,-136 Q42,-136 64,-113 Q86,-90 96,-41"/> 
            <glyph glyph-name="≈" unicode="&#x2248;" horiz-adv-x="536" d=" M324,474 Q346,514 380,538.5 Q414,563 456,563 Q488,563 512,555 Q536,547 558,538 Q580,529 601.5,521 Q623,513 650,513 Q676,513 701,525 Q726,537 743,558 L792,507 Q770,466 736,442.5 Q702,419 660,419 Q628,419 604,427 Q580,435 558.5,444 Q537,453 515,461 Q493,469 466,469 Q440,469 415,457 Q390,445 373,424 M324,418 Q346,458 380,482.5 Q414,507 456,507 Q488,507 512,499 Q536,491 558,482 Q580,473 601.5,465 Q623,457 650,457 Q676,457 701,469 Q726,481 743,502 L792,451 Q770,410 736,386.5 Q702,363 660,363 Q628,363 604,371 Q580,379 558.5,388 Q537,397 515,405 Q493,413 466,413 Q440,413 415,401 Q390,389 373,368"/> 
            <glyph glyph-name="≠" unicode="&#x2260;" horiz-adv-x="479" d=" M80,430 L305,430 L364,532 L428,495 L391,430 L479,430 L479,356 L347,356 L296,264 L479,264 L479,190 L254,190 L195,88 L131,125 L168,190 L80,190 L80,264 L212,264 L263,356 L80,356"/> 
            <glyph glyph-name="≤" unicode="&#x2264;" horiz-adv-x="495" d=" M55,74 L495,74 L495,0 L55,0 M101,446 L450,631 L450,545 L183,402 L450,259 L450,173 L101,358"/> 
            <glyph glyph-name="≥" unicode="&#x2265;" horiz-adv-x="502" d=" M502,0 L62,0 L62,74 L502,74 M456,358 L107,173 L107,259 L374,402 L107,545 L107,631 L456,446"/> 
            <glyph glyph-name="◊" unicode="&#x25CA;" horiz-adv-x="510" d=" M68,350 L248,700 L330,700 L510,350 L330,0 L248,0 M426,350 L289,622 L152,350 L289,78"/> 
            <glyph glyph-name="" unicode="&#xF8FF;" horiz-adv-x="689" d=" M689,22 Q689,14 683,7 Q677,0 667,0 Q663,0 660,1 L393,78 L126,1 Q123,0 119,0 Q109,0 103,7 Q97,14 97,22 L97,617 Q97,635 113,639 L383,717 Q391,719 393,719 Q395,719 403,717 L673,639 Q689,635 689,617 M371,669 L141,602 Q144,555 163,514 Q182,473 212.5,441.5 Q243,410 283.5,390 Q324,370 371,366 M415,366 Q461,370 502,390 Q543,410 573.5,441.5 Q604,473 623,514 Q642,555 645,602 L415,669 M140,51 L371,118 L371,322 Q296,328 236,365.5 Q176,403 140,463 M646,463 Q609,403 549.5,365.5 Q490,328 415,322 L415,118 L646,51"/> 
            <glyph glyph-name="ﬁ" unicode="&#xFB01;" horiz-adv-x="460" d=" M47,504 L119,504 L119,520 Q119,567 134.5,602 Q150,637 177,660.5 Q204,684 239.5,696 Q275,708 314,708 Q353,708 385.5,700 Q418,692 443,675 L425,603 Q400,618 371,625 Q342,632 313,632 Q262,632 232.5,605 Q203,578 203,521 L203,504 L460,504 L460,0 L376,0 L376,428 L203,428 L203,0 L119,0 L119,428 L47,428"/> 
            </font>
</defs>
</svg>
