<?xml version="1.0" standalone="no"?>
<!DOCTYPE svg PUBLIC "-//W3C//DTD SVG 1.1//EN" "http://www.w3.org/Graphics/SVG/1.1/DTD/svg11.dtd" >
<svg xmlns="http://www.w3.org/2000/svg">
    <defs>
        <font id="Apercu-Medium">
            <font-face font-family="Apercu"
                       units-per-em="1000"
                       ascent="958"
                       descent="-279"
                       bbox="-80 -251 1185 951"
                    />
            <missing-glyph horiz-adv-x="0" />
            
            <glyph glyph-name="#" unicode="&#x23;" horiz-adv-x="658" d=" M108,499 L243,499 L284,700 L372,700 L331,499 L456,499 L497,700 L585,700 L544,499 L658,499 L658,417 L527,417 L500,283 L618,283 L618,201 L483,201 L442,0 L354,0 L395,201 L270,201 L229,0 L141,0 L182,201 L68,201 L68,283 L199,283 L226,417 L108,417 M287,283 L412,283 L439,417 L314,417"/> 
            <glyph glyph-name="$" unicode="&#x24;" horiz-adv-x="494" d=" M371,531 Q330,608 267,608 Q233,608 213.5,585.5 Q194,563 194,532 Q194,497 216,474.5 Q238,452 271.5,434 Q305,416 344,398 Q383,380 416.5,355 Q450,330 472,294.5 Q494,259 494,205 Q494,163 481.5,128 Q469,93 446.5,66 Q424,39 392.5,21.5 Q361,4 324,-3 L324,-90 L224,-90 L224,-3 Q152,11 106,63 Q60,115 44,187 L134,244 Q141,215 153,188 Q165,161 182,140.5 Q199,120 222,108 Q245,96 275,96 Q323,96 352.5,125 Q382,154 382,201 Q382,235 360,257.5 Q338,280 305,298 Q272,316 233,333 Q194,350 161,374.5 Q128,399 106,434.5 Q84,470 84,524 Q84,558 94.5,587.5 Q105,617 123.5,640.5 Q142,664 168,680 Q194,696 224,703 L224,790 L324,790 L324,701 Q372,689 405,659 Q438,629 460,590"/> 
            <glyph glyph-name="%" unicode="&#x25;" horiz-adv-x="785" d=" M55,548 Q55,581 67.5,610.5 Q80,640 102,661.5 Q124,683 153.5,695.5 Q183,708 217,708 Q251,708 280.5,695.5 Q310,683 332,661.5 Q354,640 366.5,610.5 Q379,581 379,548 Q379,515 366.5,485.5 Q354,456 332,434.5 Q310,413 280.5,400.5 Q251,388 217,388 Q183,388 153.5,400.5 Q124,413 102,434.5 Q80,456 67.5,485.5 Q55,515 55,548 M143,548 Q143,515 162.5,493 Q182,471 217,471 Q252,471 271.5,493 Q291,515 291,548 Q291,581 271.5,603 Q252,625 217,625 Q182,625 162.5,603 Q143,581 143,548 M461,152 Q461,185 473.5,214.5 Q486,244 508,265.5 Q530,287 559.5,299.5 Q589,312 623,312 Q657,312 686.5,299.5 Q716,287 738,265.5 Q760,244 772.5,214.5 Q785,185 785,152 Q785,119 772.5,89.5 Q760,60 738,38.5 Q716,17 686.5,4.5 Q657,-8 623,-8 Q589,-8 559.5,4.5 Q530,17 508,38.5 Q486,60 473.5,89.5 Q461,119 461,152 M549,152 Q549,119 568.5,97 Q588,75 623,75 Q658,75 677.5,97 Q697,119 697,152 Q697,185 677.5,207 Q658,229 623,229 Q588,229 568.5,207 Q549,185 549,152 M725,688 L186,-32 L128,13 L667,733"/> 
            <glyph glyph-name="&amp;" unicode="&#x26;" horiz-adv-x="637" d=" M144,559 Q144,589 155.5,616 Q167,643 188,663.5 Q209,684 238,696 Q267,708 303,708 Q342,708 371.5,695.5 Q401,683 421,663.5 Q441,644 451.5,618.5 Q462,593 462,568 Q462,534 452,507 Q442,480 425.5,458.5 Q409,437 386.5,420.5 Q364,404 339,391 L467,224 Q482,248 491,273 Q500,298 514,339 L577,268 Q567,233 554,203.5 Q541,174 525,148 L637,0 L520,0 L468,71 Q452,52 429.5,37.5 Q407,23 382,13 Q357,3 330.5,-2.5 Q304,-8 280,-8 Q234,-8 195.5,7 Q157,22 128.5,49.5 Q100,77 84,116 Q68,155 68,203 Q68,246 78.5,280.5 Q89,315 107,341.5 Q125,368 148.5,388 Q172,408 197,423 Q178,449 161,481.5 Q144,514 144,559 M255,348 Q220,328 194,290 Q168,252 168,198 Q168,146 200,117 Q232,88 279,88 Q318,88 353,102 Q388,116 412,143 M303,616 Q274,616 258,598.5 Q242,581 242,555 Q242,529 250.5,507.5 Q259,486 279,460 Q295,467 310.5,476.5 Q326,486 338,498 Q350,510 357,525 Q364,540 364,560 Q364,587 347.5,601.5 Q331,616 303,616"/> 
            <glyph glyph-name="'" unicode="&#x27;" horiz-adv-x="214" d=" M84,708 L214,708 L184,469 L114,469"/> 
            <glyph glyph-name="(" unicode="&#x28;" horiz-adv-x="277" d=" M277,750 Q251,709 231,667 Q211,625 197.5,577 Q184,529 177.5,473.5 Q171,418 171,350 Q171,282 177.5,226.5 Q184,171 197.5,123 Q211,75 231,32.5 Q251,-10 277,-50 L173,-50 Q152,-14 132.5,25.5 Q113,65 98.5,112.5 Q84,160 75.5,218 Q67,276 67,350 Q67,423 75.5,481.5 Q84,540 98.5,587.5 Q113,635 132.5,674.5 Q152,714 173,750"/> 
            <glyph glyph-name=")" unicode="&#x29;" horiz-adv-x="237" d=" M131,750 Q152,714 171.5,674.5 Q191,635 205.5,587.5 Q220,540 228.5,481.5 Q237,423 237,350 Q237,276 228.5,218 Q220,160 205.5,112.5 Q191,65 171.5,25.5 Q152,-14 131,-50 L27,-50 Q53,-10 73,32.5 Q93,75 106.5,123 Q120,171 126.5,226.5 Q133,282 133,350 Q133,418 126.5,473.5 Q120,529 106.5,577 Q93,625 73,667 Q53,709 27,750"/> 
            <glyph glyph-name="*" unicode="&#x2A;" horiz-adv-x="430" d=" M286,584 L405,623 L430,538 L312,499 L386,398 L317,347 L242,447 L167,347 L98,398 L172,499 L54,538 L79,623 L198,584 L198,708 L286,708"/> 
            <glyph glyph-name="+" unicode="&#x2B;" horiz-adv-x="505" d=" M328,539 L328,363 L505,363 L505,271 L328,271 L328,94 L236,94 L236,271 L60,271 L60,363 L236,363 L236,539"/> 
            <glyph glyph-name="," unicode="&#x2C;" horiz-adv-x="276" d=" M133,128 L276,128 L140,-132 L62,-132"/> 
            <glyph glyph-name="-" unicode="&#x2D;" horiz-adv-x="421" d=" M68,363 L421,363 L421,271 L68,271"/> 
            <glyph glyph-name="." unicode="&#x2E;" horiz-adv-x="233" d=" M159,143 Q190,143 211.5,122 Q233,101 233,69 Q233,37 211.5,16 Q190,-5 159,-5 Q128,-5 106.5,16 Q85,37 85,69 Q85,101 106.5,122 Q128,143 159,143"/> 
            <glyph glyph-name="/" unicode="&#x2F;" horiz-adv-x="552" d=" M552,750 L116,-50 L13,-50 L449,750"/> 
            <glyph glyph-name="0" unicode="&#x30;" horiz-adv-x="568" d=" M316,708 Q378,708 425,683 Q472,658 504,611.5 Q536,565 552,499 Q568,433 568,350 Q568,267 552,201 Q536,135 504,88.5 Q472,42 425,17 Q378,-8 316,-8 Q254,-8 207,17 Q160,42 128,88.5 Q96,135 80,201 Q64,267 64,350 Q64,433 80,499 Q96,565 128,611.5 Q160,658 207,683 Q254,708 316,708 M316,612 Q242,612 206,542.5 Q170,473 170,350 Q170,227 206,157.5 Q242,88 316,88 Q390,88 426,157.5 Q462,227 462,350 Q462,473 426,542.5 Q390,612 316,612"/> 
            <glyph glyph-name="1" unicode="&#x31;" horiz-adv-x="308" d=" M308,700 L308,0 L202,0 L202,550 L71,472 L71,584 L265,700"/> 
            <glyph glyph-name="2" unicode="&#x32;" horiz-adv-x="502" d=" M68,44 L326,375 Q343,396 354,413.5 Q365,431 371,446 Q377,461 379.5,475 Q382,489 382,505 Q382,553 358,582.5 Q334,612 286,612 Q240,612 214,582.5 Q188,553 182,505 L82,524 Q85,563 101,596.5 Q117,630 144,655 Q171,680 207.5,694 Q244,708 286,708 Q330,708 367.5,694.5 Q405,681 432,655.5 Q459,630 474,593 Q489,556 489,509 Q489,468 475,427.5 Q461,387 431,349 L232,96 L502,96 L502,0 L68,0"/> 
            <glyph glyph-name="3" unicode="&#x33;" horiz-adv-x="519" d=" M162,206 Q171,150 202,119 Q233,88 288,88 Q342,88 377.5,122.5 Q413,157 413,223 Q413,291 377,325.5 Q341,360 288,360 Q258,360 227,346 L185,402 L330,604 L93,604 L93,700 L483,700 L483,664 L313,432 Q319,434 327,434.5 Q335,435 342,435 Q382,435 415,419 Q448,403 471,374.5 Q494,346 506.5,307.5 Q519,269 519,223 Q519,173 501,130.5 Q483,88 452,57 Q421,26 378.5,9 Q336,-8 288,-8 Q243,-8 202.5,7 Q162,22 131.5,48.5 Q101,75 81.5,112 Q62,149 59,193"/> 
            <glyph glyph-name="4" unicode="&#x34;" horiz-adv-x="551" d=" M363,140 L61,140 L61,188 L357,700 L469,700 L469,236 L551,236 L551,140 L469,140 L469,0 L363,0 M363,236 L363,540 L193,236"/> 
            <glyph glyph-name="5" unicode="&#x35;" horiz-adv-x="516" d=" M178,202 Q187,140 219,114 Q251,88 293,88 Q350,88 380,126.5 Q410,165 410,228 Q410,290 381.5,329 Q353,368 293,368 Q253,368 218.5,348.5 Q184,329 159,296 L90,310 L129,700 L477,700 L477,604 L218,604 L197,429 Q215,444 242.5,454 Q270,464 299,464 Q352,464 392.5,446 Q433,428 460.5,396.5 Q488,365 502,322 Q516,279 516,228 Q516,177 500.5,133.5 Q485,90 456,58.5 Q427,27 386,9.5 Q345,-8 293,-8 Q205,-8 145.5,41.5 Q86,91 75,183"/> 
            <glyph glyph-name="6" unicode="&#x36;" horiz-adv-x="521" d=" M303,448 Q351,448 391.5,431 Q432,414 460.5,383.5 Q489,353 505,311 Q521,269 521,220 Q521,172 504.5,130.5 Q488,89 458,58 Q428,27 387,9.5 Q346,-8 297,-8 Q248,-8 207,9.5 Q166,27 136,58 Q106,89 89.5,130.5 Q73,172 73,220 Q73,255 82,287 Q91,319 107,347 L315,708 L433,708 L280,444 Q285,446 291.5,447 Q298,448 303,448 M297,352 Q244,352 211.5,317 Q179,282 179,220 Q179,162 212,125 Q245,88 297,88 Q350,88 382.5,125 Q415,162 415,220 Q415,282 382.5,317 Q350,352 297,352"/> 
            <glyph glyph-name="7" unicode="&#x37;" horiz-adv-x="466" d=" M466,652 L198,0 L92,0 L341,604 L52,604 L52,700 L466,700"/> 
            <glyph glyph-name="8" unicode="&#x38;" horiz-adv-x="520" d=" M296,708 Q340,708 376.5,693 Q413,678 439,652.5 Q465,627 479.5,592.5 Q494,558 494,519 Q494,475 475,439 Q456,403 424,377 Q467,352 493.5,309 Q520,266 520,206 Q520,155 502,115.5 Q484,76 453,48.5 Q422,21 381.5,6.5 Q341,-8 296,-8 Q251,-8 210.5,6.5 Q170,21 139,48.5 Q108,76 90,115.5 Q72,155 72,206 Q72,266 98.5,309 Q125,352 168,377 Q136,403 117,439 Q98,475 98,519 Q98,558 112.5,592.5 Q127,627 153,652.5 Q179,678 215.5,693 Q252,708 296,708 M296,320 Q247,320 212.5,291 Q178,262 178,206 Q178,150 212.5,119 Q247,88 296,88 Q345,88 379.5,119 Q414,150 414,206 Q414,262 379.5,291 Q345,320 296,320 M296,616 Q254,616 227.5,588 Q201,560 201,518 Q201,475 227.5,447 Q254,419 296,419 Q338,419 364.5,447 Q391,475 391,518 Q391,560 364.5,588 Q338,616 296,616"/> 
            <glyph glyph-name="9" unicode="&#x39;" horiz-adv-x="522" d=" M292,252 Q244,252 203.5,269 Q163,286 134.5,316.5 Q106,347 90,388.5 Q74,430 74,480 Q74,528 90.5,569.5 Q107,611 137,642 Q167,673 208,690.5 Q249,708 298,708 Q347,708 388,690.5 Q429,673 459,642 Q489,611 505.5,569.5 Q522,528 522,480 Q522,445 513,413 Q504,381 488,353 L280,-8 L162,-8 L315,256 Q310,254 303.5,253 Q297,252 292,252 M298,348 Q351,348 383.5,383 Q416,418 416,480 Q416,538 383,575 Q350,612 298,612 Q245,612 212.5,575 Q180,538 180,480 Q180,418 212.5,383 Q245,348 298,348"/> 
            <glyph glyph-name=":" unicode="&#x3A;" horiz-adv-x="233" d=" M159,143 Q190,143 211.5,122 Q233,101 233,69 Q233,37 211.5,16 Q190,-5 159,-5 Q128,-5 106.5,16 Q85,37 85,69 Q85,101 106.5,122 Q128,143 159,143 M159,466 Q190,466 211.5,445 Q233,424 233,392 Q233,360 211.5,339 Q190,318 159,318 Q128,318 106.5,339 Q85,360 85,392 Q85,424 106.5,445 Q128,466 159,466"/> 
            <glyph glyph-name=";" unicode="&#x3B;" horiz-adv-x="246" d=" M159,466 Q190,466 211.5,445 Q233,424 233,392 Q233,360 211.5,339 Q190,318 159,318 Q128,318 106.5,339 Q85,360 85,392 Q85,424 106.5,445 Q128,466 159,466 M103,128 L246,128 L110,-132 L32,-132"/> 
            <glyph glyph-name="&lt;" unicode="&#x3C;" horiz-adv-x="412" d=" M48,362 L412,554 L412,443 L158,310 L412,177 L412,66 L48,258"/> 
            <glyph glyph-name="=" unicode="&#x3D;" horiz-adv-x="510" d=" M95,439 L510,439 L510,347 L95,347 M95,273 L510,273 L510,181 L95,181"/> 
            <glyph glyph-name="&gt;" unicode="&#x3E;" horiz-adv-x="417" d=" M417,258 L53,66 L53,177 L307,310 L53,443 L53,554 L417,362"/> 
            <glyph glyph-name="?" unicode="&#x3F;" horiz-adv-x="411" d=" M369,312 Q337,207 230,207 Q170,207 132,240 Q94,273 94,331 Q94,379 118.5,408 Q143,437 179,454 L262,492 Q289,505 300,520.5 Q311,536 311,562 Q311,590 289.5,606.5 Q268,623 238,623 Q163,623 140,541 L45,557 Q51,589 66,616.5 Q81,644 105,664.5 Q129,685 161,696.5 Q193,708 232,708 Q270,708 302.5,697.5 Q335,687 359,667.5 Q383,648 397,619.5 Q411,591 411,554 Q411,510 393,482.5 Q375,455 340,438 L227,383 Q185,363 185,327 Q185,308 196.5,297 Q208,286 228,286 Q253,286 266,302 Q279,318 288,343 M154,71 Q154,103 175.5,124.5 Q197,146 230,146 Q263,146 284.5,124.5 Q306,103 306,71 Q306,39 284.5,17.5 Q263,-4 230,-4 Q197,-4 175.5,17.5 Q154,39 154,71"/> 
            <glyph glyph-name="@" unicode="&#x40;" horiz-adv-x="850" d=" M661,509 L637,256 Q636,253 636,249.5 Q636,246 636,244 L636,239 Q636,219 647,209.5 Q658,200 675,200 Q697,200 711.5,212 Q726,224 734.5,244.5 Q743,265 746.5,292.5 Q750,320 750,352 Q750,426 731,478 Q712,530 676.5,563 Q641,596 590,611 Q539,626 474,626 Q417,626 363.5,606 Q310,586 268,545.5 Q226,505 200.5,443.5 Q175,382 175,298 Q175,222 200.5,165.5 Q226,109 268,72 Q310,35 363.5,16.5 Q417,-2 473,-2 Q499,-2 525.5,-1 Q552,0 580.5,5 Q609,10 642,20.5 Q675,31 714,51 L749,-34 Q710,-51 679,-62.5 Q648,-74 617.5,-81 Q587,-88 552.5,-91 Q518,-94 473,-94 Q384,-94 310,-66.5 Q236,-39 182.5,12 Q129,63 99.5,136 Q70,209 70,301 Q70,397 100.5,474.5 Q131,552 185.5,606 Q240,660 315,689 Q390,718 479,718 Q569,718 638,693 Q707,668 754.5,621 Q802,574 826,506 Q850,438 850,352 Q850,232 801,170 Q752,108 671,108 Q633,108 602,126 Q571,144 558,175 Q535,140 502,124 Q469,108 428,108 Q385,108 352,122.5 Q319,137 297,162.5 Q275,188 264,222 Q253,256 253,295 Q253,342 268.5,382.5 Q284,423 312,452.5 Q340,482 379,499 Q418,516 466,516 Q505,516 531.5,503 Q558,490 574,466 L585,509 M459,424 Q409,424 380,388 Q351,352 351,292 Q351,254 372,227 Q393,200 435,200 Q466,200 488,212 Q510,224 523,243 Q536,262 542,285.5 Q548,309 548,332 Q548,378 523.5,401 Q499,424 459,424"/> 
            <glyph glyph-name="A" unicode="&#x41;" horiz-adv-x="599" d=" M356,700 L599,0 L487,0 L429,174 L179,174 L121,0 L9,0 L252,700 M212,278 L396,278 L304,561"/> 
            <glyph glyph-name="B" unicode="&#x42;" horiz-adv-x="574" d=" M342,700 Q429,700 483.5,654 Q538,608 538,517 Q538,476 518,437.5 Q498,399 467,382 Q517,361 545.5,314 Q574,267 574,206 Q574,107 516,53.5 Q458,0 354,0 L94,0 L94,700 M204,596 L204,424 L332,424 Q379,424 403.5,445.5 Q428,467 428,510 Q428,553 403.5,574.5 Q379,596 332,596 M204,320 L204,104 L339,104 Q400,104 431,131.5 Q462,159 462,212 Q462,265 431,292.5 Q400,320 339,320"/> 
            <glyph glyph-name="C" unicode="&#x43;" horiz-adv-x="658" d=" M554,470 Q528,537 487,570.5 Q446,604 375,604 Q331,604 292,588.5 Q253,573 224.5,541.5 Q196,510 179.5,462 Q163,414 163,350 Q163,286 179.5,238 Q196,190 224.5,158.5 Q253,127 292,111.5 Q331,96 375,96 Q446,96 487,129.5 Q528,163 554,230 L658,204 Q631,104 559,48 Q487,-8 375,-8 Q312,-8 253.5,14.5 Q195,37 150,82 Q105,127 78,194 Q51,261 51,350 Q51,439 78,506 Q105,573 150,618 Q195,663 253.5,685.5 Q312,708 375,708 Q487,708 559,652 Q631,596 658,496"/> 
            <glyph glyph-name="D" unicode="&#x44;" horiz-adv-x="622" d=" M300,700 Q363,700 421,678.5 Q479,657 524,613.5 Q569,570 595.5,504 Q622,438 622,350 Q622,261 595.5,195.5 Q569,130 524,86.5 Q479,43 421,21.5 Q363,0 300,0 L94,0 L94,700 M204,596 L204,104 L268,104 Q314,104 357.5,115.5 Q401,127 435,155.5 Q469,184 489.5,231 Q510,278 510,350 Q510,422 489.5,469 Q469,516 435,544.5 Q401,573 357.5,584.5 Q314,596 268,596"/> 
            <glyph glyph-name="E" unicode="&#x45;" horiz-adv-x="519" d=" M509,700 L509,596 L204,596 L204,424 L450,424 L450,320 L204,320 L204,104 L519,104 L519,0 L94,0 L94,700"/> 
            <glyph glyph-name="F" unicode="&#x46;" horiz-adv-x="518" d=" M518,700 L518,596 L204,596 L204,415 L457,415 L457,311 L204,311 L204,0 L94,0 L94,700"/> 
            <glyph glyph-name="G" unicode="&#x47;" horiz-adv-x="657" d=" M553,87 Q544,71 528,54 Q512,37 489,23.5 Q466,10 436,1 Q406,-8 369,-8 Q307,-8 250,13.5 Q193,35 148.5,79 Q104,123 77.5,190.5 Q51,258 51,350 Q51,442 78,509.5 Q105,577 150,621 Q195,665 253.5,686.5 Q312,708 375,708 Q431,708 478,692 Q525,676 560.5,647.5 Q596,619 619.5,579 Q643,539 654,492 L553,461 Q527,534 482.5,569 Q438,604 375,604 Q330,604 291,588 Q252,572 223.5,540.5 Q195,509 179,461.5 Q163,414 163,350 Q163,284 179,236.5 Q195,189 223.5,157.5 Q252,126 291,111 Q330,96 375,96 Q416,96 447,109 Q478,122 499,144 Q520,166 532,195 Q544,224 547,256 L411,256 L411,353 L657,353 L657,0 L561,0"/> 
            <glyph glyph-name="H" unicode="&#x48;" horiz-adv-x="598" d=" M94,700 L204,700 L204,426 L488,426 L488,700 L598,700 L598,0 L488,0 L488,322 L204,322 L204,0 L94,0"/> 
            <glyph glyph-name="I" unicode="&#x49;" horiz-adv-x="204" d=" M94,700 L204,700 L204,0 L94,0"/> 
            <glyph glyph-name="J" unicode="&#x4A;" horiz-adv-x="434" d=" M324,700 L434,700 L434,227 Q434,164 417,119 Q400,74 370.5,46 Q341,18 302,5 Q263,-8 220,-8 Q173,-8 136,6.5 Q99,21 72,46.5 Q45,72 28.5,105 Q12,138 6,176 L117,199 Q126,151 152,123.5 Q178,96 220,96 Q268,96 296,123 Q324,150 324,222"/> 
            <glyph glyph-name="K" unicode="&#x4B;" horiz-adv-x="611" d=" M204,700 L204,431 L454,700 L588,700 L306,387 L611,0 L470,0 L204,343 L204,0 L94,0 L94,700"/> 
            <glyph glyph-name="L" unicode="&#x4C;" horiz-adv-x="506" d=" M204,700 L204,104 L506,104 L506,0 L94,0 L94,700"/> 
            <glyph glyph-name="M" unicode="&#x4D;" horiz-adv-x="702" d=" M94,700 L224,700 L398,234 L572,700 L702,700 L702,0 L592,0 L592,472 L437,64 L359,64 L204,472 L204,0 L94,0"/> 
            <glyph glyph-name="N" unicode="&#x4E;" horiz-adv-x="609" d=" M609,700 L609,0 L491,0 L204,502 L204,0 L94,0 L94,700 L212,700 L499,196 L499,700"/> 
            <glyph glyph-name="O" unicode="&#x4F;" horiz-adv-x="693" d=" M372,708 Q436,708 494,685.5 Q552,663 596.5,618.5 Q641,574 667,507 Q693,440 693,350 Q693,260 667,193 Q641,126 596.5,81.5 Q552,37 494,14.5 Q436,-8 372,-8 Q308,-8 250,14.5 Q192,37 147.5,81.5 Q103,126 77,193 Q51,260 51,350 Q51,440 77,507 Q103,574 147.5,618.5 Q192,663 250,685.5 Q308,708 372,708 M372,604 Q330,604 292,588.5 Q254,573 225.5,541.5 Q197,510 180,462.5 Q163,415 163,350 Q163,285 180,237.5 Q197,190 225.5,158.5 Q254,127 292,111.5 Q330,96 372,96 Q414,96 452,111.5 Q490,127 518.5,158.5 Q547,190 564,237.5 Q581,285 581,350 Q581,415 564,462.5 Q547,510 518.5,541.5 Q490,573 452,588.5 Q414,604 372,604"/> 
            <glyph glyph-name="P" unicode="&#x50;" horiz-adv-x="562" d=" M204,286 L204,0 L94,0 L94,700 L345,700 Q397,700 437.5,684 Q478,668 505.5,640.5 Q533,613 547.5,575 Q562,537 562,493 Q562,449 547.5,411 Q533,373 505.5,345 Q478,317 437.5,301.5 Q397,286 345,286 M350,390 Q398,390 424,417 Q450,444 450,493 Q450,542 424,569 Q398,596 350,596 L204,596 L204,390"/> 
            <glyph glyph-name="Q" unicode="&#x51;" horiz-adv-x="709" d=" M372,708 Q436,708 494,685.5 Q552,663 596.5,618.5 Q641,574 667,507 Q693,440 693,350 Q693,284 679,230.5 Q665,177 639,135 L709,66 L635,-8 L569,57 Q527,25 477,8.5 Q427,-8 372,-8 Q308,-8 250,14.5 Q192,37 147.5,81.5 Q103,126 77,193 Q51,260 51,350 Q51,440 77,507 Q103,574 147.5,618.5 Q192,663 250,685.5 Q308,708 372,708 M481,293 L556,217 Q581,273 581,350 Q581,415 564,462.5 Q547,510 518.5,541.5 Q490,573 452,588.5 Q414,604 372,604 Q330,604 292,588.5 Q254,573 225.5,541.5 Q197,510 180,462.5 Q163,415 163,350 Q163,285 180,237.5 Q197,190 225.5,158.5 Q254,127 292,111.5 Q330,96 372,96 Q405,96 435.5,105 Q466,114 492,134 L407,219"/> 
            <glyph glyph-name="R" unicode="&#x52;" horiz-adv-x="612" d=" M546,507 Q546,435 511,387 Q476,339 410,322 L612,0 L482,0 L285,314 L204,314 L204,0 L94,0 L94,700 L339,700 Q439,700 492.5,648.5 Q546,597 546,507 M342,418 Q382,418 408,439 Q434,460 434,507 Q434,554 408,575 Q382,596 342,596 L204,596 L204,418"/> 
            <glyph glyph-name="S" unicode="&#x53;" horiz-adv-x="488" d=" M365,531 Q324,608 261,608 Q227,608 207.5,585.5 Q188,563 188,532 Q188,497 210,474.5 Q232,452 265.5,434 Q299,416 338,398 Q377,380 410.5,355 Q444,330 466,294.5 Q488,259 488,205 Q488,157 471.5,117.5 Q455,78 425.5,50.5 Q396,23 356,7.5 Q316,-8 269,-8 Q223,-8 184.5,6.5 Q146,21 116.5,47.5 Q87,74 67,109.5 Q47,145 38,187 L128,244 Q135,215 147,188 Q159,161 176,140.5 Q193,120 216,108 Q239,96 269,96 Q317,96 346.5,125 Q376,154 376,201 Q376,235 354,257.5 Q332,280 299,298 Q266,316 227,333 Q188,350 155,374.5 Q122,399 100,434.5 Q78,470 78,524 Q78,564 92,597.5 Q106,631 131,655.5 Q156,680 189.5,694 Q223,708 261,708 Q333,708 379.5,674 Q426,640 454,590"/> 
            <glyph glyph-name="T" unicode="&#x54;" horiz-adv-x="513" d=" M11,700 L513,700 L513,596 L317,596 L317,0 L207,0 L207,596 L11,596"/> 
            <glyph glyph-name="U" unicode="&#x55;" horiz-adv-x="579" d=" M75,700 L185,700 L185,247 Q185,175 220.5,135.5 Q256,96 327,96 Q398,96 433.5,135.5 Q469,175 469,247 L469,700 L579,700 L579,252 Q579,189 559.5,140.5 Q540,92 506.5,59 Q473,26 427,9 Q381,-8 327,-8 Q273,-8 227,9 Q181,26 147.5,59 Q114,92 94.5,140.5 Q75,189 75,252"/> 
            <glyph glyph-name="V" unicode="&#x56;" horiz-adv-x="593" d=" M244,0 L5,700 L123,700 L299,154 L475,700 L593,700 L354,0"/> 
            <glyph glyph-name="W" unicode="&#x57;" horiz-adv-x="889" d=" M889,700 L704,0 L592,0 L456,444 L320,0 L208,0 L23,700 L139,700 L267,156 L406,626 L506,626 L645,156 L773,700"/> 
            <glyph glyph-name="X" unicode="&#x58;" horiz-adv-x="568" d=" M537,700 L352,376 L568,0 L443,0 L290,267 L137,0 L12,0 L228,376 L43,700 L166,700 L290,484 L414,700"/> 
            <glyph glyph-name="Y" unicode="&#x59;" horiz-adv-x="512" d=" M119,700 L257,409 L395,700 L512,700 L312,300 L312,0 L202,0 L202,300 L2,700"/> 
            <glyph glyph-name="Z" unicode="&#x5A;" horiz-adv-x="518" d=" M53,700 L505,700 L505,646 L190,104 L518,104 L518,0 L38,0 L38,54 L357,596 L53,596"/> 
            <glyph glyph-name="[" unicode="&#x5B;" horiz-adv-x="302" d=" M94,750 L302,750 L302,656 L194,656 L194,44 L302,44 L302,-50 L94,-50"/> 
            <glyph glyph-name="\" unicode="&#x5C;" horiz-adv-x="534" d=" M98,750 L534,-50 L431,-50 L-5,750"/> 
            <glyph glyph-name="]" unicode="&#x5D;" horiz-adv-x="244" d=" M244,-50 L36,-50 L36,44 L144,44 L144,656 L36,656 L36,750 L244,750"/> 
            <glyph glyph-name="^" unicode="&#x5E;" horiz-adv-x="524" d=" M333,700 L524,413 L421,413 L289,608 L157,413 L54,413 L245,700"/> 
            <glyph glyph-name="_" unicode="&#x5F;" horiz-adv-x="472" d=" M27,0 L472,0 L472,-92 L27,-92"/> 
            <glyph glyph-name="`" unicode="&#x60;" horiz-adv-x="225" d=" M225,560 L145,560 L16,708 L157,708"/> 
            <glyph glyph-name="a" unicode="&#x61;" horiz-adv-x="453" d=" M44,145 Q44,184 60,214.5 Q76,245 104.5,266.5 Q133,288 173.5,299 Q214,310 262,310 L349,310 L349,332 Q349,379 320,399.5 Q291,420 251,420 Q220,420 195,403.5 Q170,387 157,353 L62,373 Q78,437 128.5,474.5 Q179,512 252,512 Q296,512 333,501.5 Q370,491 396.5,468 Q423,445 438,406.5 Q453,368 453,313 L453,0 L365,0 L355,66 Q330,31 291.5,11.5 Q253,-8 199,-8 Q167,-8 139,1 Q111,10 90,29 Q69,48 56.5,77 Q44,106 44,145 M154,145 Q154,119 169,101.5 Q184,84 217,84 Q241,84 264.5,92 Q288,100 307,115.5 Q326,131 337.5,155 Q349,179 349,212 L349,223 L258,223 Q210,223 182,202 Q154,181 154,145"/> 
            <glyph glyph-name="b" unicode="&#x62;" horiz-adv-x="552" d=" M552,252 Q552,131 495.5,61.5 Q439,-8 327,-8 Q302,-8 280,-2 Q258,4 240,14 Q222,24 209,35.5 Q196,47 190,58 L190,0 L86,0 L86,708 L190,708 L190,448 Q199,460 214,471.5 Q229,483 247.5,492 Q266,501 286,506.5 Q306,512 325,512 Q382,512 424.5,493.5 Q467,475 495.5,440.5 Q524,406 538,358 Q552,310 552,252 M442,252 Q442,291 432.5,322 Q423,353 405.5,375 Q388,397 364.5,408.5 Q341,420 313,420 Q285,420 261.5,408.5 Q238,397 220.5,375 Q203,353 193.5,322 Q184,291 184,252 Q184,213 193.5,182 Q203,151 220.5,129 Q238,107 261.5,95.5 Q285,84 313,84 Q341,84 364.5,95.5 Q388,107 405.5,129 Q423,151 432.5,182 Q442,213 442,252"/> 
            <glyph glyph-name="c" unicode="&#x63;" horiz-adv-x="504" d=" M504,131 Q474,62 420.5,27 Q367,-8 286,-8 Q226,-8 181.5,13 Q137,34 107.5,70 Q78,106 63.5,153 Q49,200 49,252 Q49,304 63.5,351 Q78,398 107.5,434 Q137,470 181.5,491 Q226,512 286,512 Q367,512 420.5,477 Q474,442 504,373 L411,333 Q393,374 362,397 Q331,420 286,420 Q253,420 229,407 Q205,394 189.5,371.5 Q174,349 166.5,318.5 Q159,288 159,252 Q159,216 166.5,185.5 Q174,155 189.5,132.5 Q205,110 229,97 Q253,84 286,84 Q331,84 362,107 Q393,130 411,171"/> 
            <glyph glyph-name="d" unicode="&#x64;" horiz-adv-x="515" d=" M49,252 Q49,310 63,358 Q77,406 105.5,440.5 Q134,475 176.5,493.5 Q219,512 276,512 Q295,512 315,506.5 Q335,501 353.5,492 Q372,483 387,471.5 Q402,460 411,448 L411,708 L515,708 L515,0 L411,0 L411,58 Q405,47 392,35.5 Q379,24 361,14 Q343,4 321,-2 Q299,-8 274,-8 Q162,-8 105.5,61.5 Q49,131 49,252 M159,252 Q159,213 168.5,182 Q178,151 195.5,129 Q213,107 236.5,95.5 Q260,84 288,84 Q316,84 339.5,95.5 Q363,107 380.5,129 Q398,151 407.5,182 Q417,213 417,252 Q417,291 407.5,322 Q398,353 380.5,375 Q363,397 339.5,408.5 Q316,420 288,420 Q260,420 236.5,408.5 Q213,397 195.5,375 Q178,353 168.5,322 Q159,291 159,252"/> 
            <glyph glyph-name="e" unicode="&#x65;" horiz-adv-x="516" d=" M284,420 Q232,420 200.5,389 Q169,358 161,310 L406,310 Q403,331 394,351 Q385,371 370,386 Q355,401 333.5,410.5 Q312,420 284,420 M516,223 L159,223 Q159,195 167,170 Q175,145 190.5,126 Q206,107 229.5,95.5 Q253,84 284,84 Q325,84 360.5,105.5 Q396,127 416,169 L505,134 Q487,98 466,71.5 Q445,45 419,27.5 Q393,10 360,1 Q327,-8 284,-8 Q222,-8 177.5,15.5 Q133,39 104.5,76.5 Q76,114 62.5,160.5 Q49,207 49,252 Q49,297 62.5,343 Q76,389 104.5,426.5 Q133,464 177.5,488 Q222,512 284,512 Q344,512 388,490 Q432,468 460.5,432.5 Q489,397 502.5,353.5 Q516,310 516,268"/> 
            <glyph glyph-name="f" unicode="&#x66;" horiz-adv-x="355" d=" M38,504 L103,504 L103,530 Q103,622 149,665 Q195,708 272,708 Q298,708 319.5,703 Q341,698 355,690 L334,602 Q318,610 303.5,613 Q289,616 275,616 Q207,616 207,537 L207,504 L318,504 L318,412 L207,412 L207,0 L103,0 L103,412 L38,412"/> 
            <glyph glyph-name="g" unicode="&#x67;" horiz-adv-x="494" d=" M87,343 Q87,382 101,413.5 Q115,445 139,467 Q163,489 196,500.5 Q229,512 267,512 Q317,512 359,490 L452,540 L494,465 L426,427 Q448,389 448,343 Q448,303 434,271.5 Q420,240 395.5,218.5 Q371,197 338,185.5 Q305,174 267,174 Q244,174 223.5,178 Q203,182 186,189 Q159,174 159,145 Q159,106 211,106 L322,106 Q396,106 442.5,69.5 Q489,33 489,-38 Q489,-85 470.5,-118 Q452,-151 421,-172 Q390,-193 350,-202.5 Q310,-212 268,-212 Q220,-212 179.5,-201.5 Q139,-191 109.5,-170 Q80,-149 63,-118 Q46,-87 46,-46 Q46,-14 57.5,12 Q69,38 89,56 Q75,70 67.5,89.5 Q60,109 60,135 Q60,169 76.5,195 Q93,221 121,237 Q87,279 87,343 M219,18 Q192,18 168,21 Q146,-2 146,-40 Q146,-78 178,-100 Q210,-122 268,-122 Q322,-122 352.5,-102.5 Q383,-83 383,-46 Q383,-10 360,4 Q337,18 300,18 M188,343 Q188,305 210,283 Q232,261 267,261 Q302,261 324.5,283 Q347,305 347,343 Q347,381 324.5,403 Q302,425 267,425 Q232,425 210,403 Q188,381 188,343"/> 
            <glyph glyph-name="h" unicode="&#x68;" horiz-adv-x="509" d=" M190,708 L190,418 Q217,457 260,484.5 Q303,512 360,512 Q430,512 469.5,474 Q509,436 509,355 L509,0 L405,0 L405,328 Q405,357 399.5,375 Q394,393 383.5,403 Q373,413 358.5,416.5 Q344,420 326,420 Q305,420 281,406.5 Q257,393 236.5,366.5 Q216,340 203,301.5 Q190,263 190,213 L190,0 L86,0 L86,708"/> 
            <glyph glyph-name="i" unicode="&#x69;" horiz-adv-x="205" d=" M61,646 Q61,676 81.5,697.5 Q102,719 133,719 Q164,719 184.5,697.5 Q205,676 205,646 Q205,616 184.5,595.5 Q164,575 133,575 Q102,575 81.5,595.5 Q61,616 61,646 M185,504 L185,0 L81,0 L81,504"/> 
            <glyph glyph-name="j" unicode="&#x6A;" horiz-adv-x="205" d=" M61,646 Q61,676 81.5,697.5 Q102,719 133,719 Q164,719 184.5,697.5 Q205,676 205,646 Q205,616 184.5,595.5 Q164,575 133,575 Q102,575 81.5,595.5 Q61,616 61,646 M-25,-121 Q25,-106 53,-77 Q81,-48 81,13 L81,504 L185,504 L185,23 Q185,-80 138,-136 Q91,-192 1,-212"/> 
            <glyph glyph-name="k" unicode="&#x6B;" horiz-adv-x="517" d=" M190,708 L190,303 L372,504 L504,504 L293,272 L517,0 L385,0 L190,241 L190,0 L86,0 L86,708"/> 
            <glyph glyph-name="l" unicode="&#x6C;" horiz-adv-x="188" d=" M188,708 L188,0 L84,0 L84,708"/> 
            <glyph glyph-name="m" unicode="&#x6D;" horiz-adv-x="782" d=" M190,504 L190,418 Q251,512 342,512 Q393,512 431.5,484 Q470,456 481,408 Q507,458 548,485 Q589,512 638,512 Q707,512 744.5,469.5 Q782,427 782,361 L782,0 L678,0 L678,338 Q678,380 657.5,400 Q637,420 604,420 Q581,420 559.5,405.5 Q538,391 521.5,363 Q505,335 495.5,294.5 Q486,254 486,202 L486,0 L382,0 L382,338 Q382,380 361.5,400 Q341,420 308,420 Q284,420 263,405.5 Q242,391 225.5,362 Q209,333 199.5,290 Q190,247 190,191 L190,0 L86,0 L86,504"/> 
            <glyph glyph-name="n" unicode="&#x6E;" horiz-adv-x="501" d=" M190,504 L190,418 Q217,463 259.5,487.5 Q302,512 353,512 Q419,512 460,473.5 Q501,435 501,361 L501,0 L397,0 L397,328 Q397,379 375.5,399.5 Q354,420 319,420 Q295,420 271.5,406 Q248,392 230,364.5 Q212,337 201,296.5 Q190,256 190,204 L190,0 L86,0 L86,504"/> 
            <glyph glyph-name="o" unicode="&#x6F;" horiz-adv-x="545" d=" M49,252 Q49,305 66,352.5 Q83,400 114.5,435.5 Q146,471 192,491.5 Q238,512 297,512 Q355,512 401.5,491.5 Q448,471 479.5,435.5 Q511,400 528,352.5 Q545,305 545,252 Q545,199 528,151.5 Q511,104 479.5,68.5 Q448,33 401.5,12.5 Q355,-8 297,-8 Q238,-8 192,12.5 Q146,33 114.5,68.5 Q83,104 66,151.5 Q49,199 49,252 M159,252 Q159,220 168,190 Q177,160 194,136.5 Q211,113 237,98.5 Q263,84 297,84 Q331,84 357,98.5 Q383,113 400,136.5 Q417,160 426,190 Q435,220 435,252 Q435,284 426,314 Q417,344 400,367.5 Q383,391 357,405.5 Q331,420 297,420 Q263,420 237,405.5 Q211,391 194,367.5 Q177,344 168,314 Q159,284 159,252"/> 
            <glyph glyph-name="p" unicode="&#x70;" horiz-adv-x="552" d=" M552,252 Q552,193 538,145.5 Q524,98 495.5,63.5 Q467,29 424.5,10.5 Q382,-8 325,-8 Q278,-8 242.5,11.5 Q207,31 190,56 L190,-204 L86,-204 L86,504 L190,504 L190,446 Q196,457 209,468.5 Q222,480 240,490 Q258,500 280,506 Q302,512 327,512 Q439,512 495.5,442.5 Q552,373 552,252 M442,252 Q442,291 432.5,322 Q423,353 405.5,375 Q388,397 364.5,408.5 Q341,420 313,420 Q285,420 261.5,408.5 Q238,397 220.5,375 Q203,353 193.5,322 Q184,291 184,252 Q184,213 193.5,182 Q203,151 220.5,129 Q238,107 261.5,95.5 Q285,84 313,84 Q341,84 364.5,95.5 Q388,107 405.5,129 Q423,151 432.5,182 Q442,213 442,252"/> 
            <glyph glyph-name="q" unicode="&#x71;" horiz-adv-x="515" d=" M49,252 Q49,373 105.5,442.5 Q162,512 274,512 Q299,512 321,506 Q343,500 361,490 Q379,480 392,468.5 Q405,457 411,446 L411,504 L515,504 L515,-204 L411,-204 L411,56 Q402,44 387,32.5 Q372,21 353.5,12 Q335,3 315,-2.5 Q295,-8 276,-8 Q219,-8 176.5,10.5 Q134,29 105.5,63.5 Q77,98 63,145.5 Q49,193 49,252 M159,252 Q159,213 168.5,182 Q178,151 195.5,129 Q213,107 236.5,95.5 Q260,84 288,84 Q316,84 339.5,95.5 Q363,107 380.5,129 Q398,151 407.5,182 Q417,213 417,252 Q417,291 407.5,322 Q398,353 380.5,375 Q363,397 339.5,408.5 Q316,420 288,420 Q260,420 236.5,408.5 Q213,397 195.5,375 Q178,353 168.5,322 Q159,291 159,252"/> 
            <glyph glyph-name="r" unicode="&#x72;" horiz-adv-x="403" d=" M86,0 L86,504 L190,504 L190,420 Q216,465 257,488.5 Q298,512 339,512 Q359,512 375.5,508.5 Q392,505 403,500 L385,405 Q373,413 357.5,416.5 Q342,420 326,420 Q301,420 276.5,406 Q252,392 233,363 Q214,334 202,290.5 Q190,247 190,187 L190,0"/> 
            <glyph glyph-name="s" unicode="&#x73;" horiz-adv-x="410" d=" M234,512 Q280,512 319.5,491 Q359,470 383,432 L317,374 Q298,398 275.5,409 Q253,420 229,420 Q209,420 194,407.5 Q179,395 179,370 Q179,343 204.5,328 Q230,313 269,298 Q294,288 319.5,276.5 Q345,265 365,248.5 Q385,232 397.5,209 Q410,186 410,152 Q410,119 398,90 Q386,61 363,39.5 Q340,18 307.5,5 Q275,-8 235,-8 Q196,-8 164.5,4 Q133,16 108.5,35.5 Q84,55 67,79 Q50,103 40,127 L128,175 Q135,158 145.5,141.5 Q156,125 170,112.5 Q184,100 201,92 Q218,84 239,84 Q269,84 288,99.5 Q307,115 307,150 Q307,166 296.5,177.5 Q286,189 269,197.5 Q252,206 230.5,214 Q209,222 187,231 Q165,240 145.5,252 Q126,264 111,280.5 Q96,297 87.5,318.5 Q79,340 79,369 Q79,398 90.5,424 Q102,450 122.5,469.5 Q143,489 171.5,500.5 Q200,512 234,512"/> 
            <glyph glyph-name="t" unicode="&#x74;" horiz-adv-x="351" d=" M21,504 L105,504 L105,643 L209,708 L209,504 L340,504 L340,412 L209,412 L209,166 Q209,123 225,103.5 Q241,84 276,84 Q290,84 300,87 Q310,90 324,98 L351,10 Q331,0 311,-4 Q291,-8 270,-8 Q234,-8 204,2.5 Q174,13 152,35.5 Q130,58 117.5,91.5 Q105,125 105,172 L105,412 L21,412"/> 
            <glyph glyph-name="u" unicode="&#x75;" horiz-adv-x="494" d=" M390,0 L390,86 Q363,41 320.5,16.5 Q278,-8 227,-8 Q161,-8 120,30.5 Q79,69 79,143 L79,504 L183,504 L183,176 Q183,125 204.5,104.5 Q226,84 261,84 Q285,84 308.5,98 Q332,112 350,139.5 Q368,167 379,207.5 Q390,248 390,300 L390,504 L494,504 L494,0"/> 
            <glyph glyph-name="v" unicode="&#x76;" horiz-adv-x="444" d=" M118,504 L228,142 L338,504 L444,504 L277,0 L179,0 L12,504"/> 
            <glyph glyph-name="w" unicode="&#x77;" horiz-adv-x="723" d=" M723,504 L563,0 L468,0 L377,356 L286,0 L191,0 L31,504 L141,504 L238,136 L327,504 L427,504 L516,136 L613,504"/> 
            <glyph glyph-name="x" unicode="&#x78;" horiz-adv-x="457" d=" M439,504 L291,266 L457,0 L345,0 L235,176 L125,0 L13,0 L179,266 L31,504 L143,504 L235,356 L327,504"/> 
            <glyph glyph-name="y" unicode="&#x79;" horiz-adv-x="462" d=" M118,504 L237,165 L352,504 L462,504 L207,-204 L103,-204 L185,25 L8,504"/> 
            <glyph glyph-name="z" unicode="&#x7A;" horiz-adv-x="419" d=" M61,504 L408,504 L408,462 L181,92 L419,92 L419,0 L46,0 L46,42 L273,412 L61,412"/> 
            <glyph glyph-name="{" unicode="&#x7B;" horiz-adv-x="307" d=" M142,227 Q142,249 138.5,264 Q135,279 125.5,287.5 Q116,296 100,299.5 Q84,303 59,303 L59,397 Q84,397 100,400.5 Q116,404 125.5,412.5 Q135,421 138.5,435.5 Q142,450 142,473 L142,654 Q142,696 169,723 Q196,750 241,750 L307,750 L307,656 L282,656 Q260,656 251,646.5 Q242,637 242,614 L242,449 Q242,421 235.5,403 Q229,385 219,374 Q209,363 195.5,357.5 Q182,352 169,350 Q182,348 195.5,342.5 Q209,337 219,326 Q229,315 235.5,297 Q242,279 242,251 L242,86 Q242,63 251,53.5 Q260,44 282,44 L307,44 L307,-50 L241,-50 Q196,-50 169,-23 Q142,4 142,46"/> 
            <glyph glyph-name="|" unicode="&#x7C;" horiz-adv-x="194" d=" M194,750 L194,-50 L94,-50 L94,750"/> 
            <glyph glyph-name="}" unicode="&#x7D;" horiz-adv-x="273" d=" M190,46 Q190,4 163,-23 Q136,-50 91,-50 L25,-50 L25,44 L50,44 Q72,44 81,53.5 Q90,63 90,86 L90,251 Q90,279 96.5,297 Q103,315 113,326 Q123,337 136,342.5 Q149,348 163,350 Q149,352 136,357.5 Q123,363 113,374 Q103,385 96.5,403 Q90,421 90,449 L90,614 Q90,637 81,646.5 Q72,656 50,656 L25,656 L25,750 L91,750 Q136,750 163,723 Q190,696 190,654 L190,473 Q190,450 193.5,435.5 Q197,421 206.5,412.5 Q216,404 232,400.5 Q248,397 273,397 L273,303 Q248,303 232,299.5 Q216,296 206.5,287.5 Q197,279 193.5,264 Q190,249 190,227"/> 
            <glyph glyph-name="~" unicode="&#x7E;" horiz-adv-x="565" d=" M77,317 Q86,337 100.5,355.5 Q115,374 134,388 Q153,402 174.5,410 Q196,418 219,418 Q251,418 276,410 Q301,402 324,392 Q347,382 369,374 Q391,366 417,366 Q443,366 467.5,379 Q492,392 509,413 L565,353 Q556,333 541.5,314.5 Q527,296 508,282 Q489,268 467.5,260 Q446,252 423,252 Q391,252 366,260 Q341,268 318.5,278 Q296,288 273.5,296 Q251,304 225,304 Q199,304 174.5,291 Q150,278 133,257"/> 
            <glyph glyph-name="¡" unicode="&#xA1;" horiz-adv-x="249" d=" M65780,-204 L65753,275 L65665,275 L65638,-204 M65633,425 Q65633,393 65654.5,371.5 Q65676,350 65709,350 Q65742,350 65763.5,371.5 Q65785,393 65785,425 Q65785,457 65763.5,478.5 Q65742,500 65709,500 Q65676,500 65654.5,478.5 Q65633,457 65633,425"/> 
            <glyph glyph-name="¢" unicode="&#xA2;" horiz-adv-x="512" d=" M512,230 Q486,173 444,138.5 Q402,104 342,95 L342,-49 L242,-49 L242,96 Q195,105 160.5,128.5 Q126,152 103,186.5 Q80,221 68.5,263 Q57,305 57,351 Q57,397 68.5,439 Q80,481 103,515.5 Q126,550 160.5,573.5 Q195,597 242,606 L242,751 L342,751 L342,607 Q402,598 444,563.5 Q486,529 512,472 L419,432 Q401,473 370,496 Q339,519 294,519 Q261,519 237,506 Q213,493 197.5,470.5 Q182,448 174.5,417.5 Q167,387 167,351 Q167,315 174.5,284.5 Q182,254 197.5,231.5 Q213,209 237,196 Q261,183 294,183 Q339,183 370,206 Q401,229 419,270"/> 
            <glyph glyph-name="£" unicode="&#xA3;" horiz-adv-x="527" d=" M62,414 L110,414 Q105,433 100.5,456.5 Q96,480 96,504 Q96,549 110.5,586.5 Q125,624 151,651 Q177,678 214,693 Q251,708 296,708 Q369,708 421.5,672.5 Q474,637 497,570 L410,529 Q390,574 361.5,591 Q333,608 296,608 Q277,608 259.5,602 Q242,596 229,583.5 Q216,571 208,551 Q200,531 200,503 Q200,474 202.5,452.5 Q205,431 210,414 L373,414 L373,314 L240,314 Q242,303 243.5,290.5 Q245,278 245,264 Q245,204 220,163.5 Q195,123 163,95 Q185,109 209,118 Q233,127 253,127 Q274,127 288,121.5 Q302,116 314,109.5 Q326,103 338.5,97.5 Q351,92 368,92 Q388,92 407.5,103 Q427,114 448,149 L527,105 Q495,46 459,19 Q423,-8 372,-8 Q342,-8 321.5,-2.5 Q301,3 284,9.5 Q267,16 252,21.5 Q237,27 218,27 Q188,27 161,19.5 Q134,12 103,-8 L41,61 Q91,108 121,151 Q151,194 151,248 Q151,284 142,314 L62,314"/> 
            <glyph glyph-name="¤" unicode="&#xA4;" horiz-adv-x="539" d=" M539,132 L456,49 L389,136 Q342,105 281,105 Q219,105 173,136 L106,49 L23,132 L111,199 Q97,222 89,249.5 Q81,277 81,307 Q81,337 89,364.5 Q97,392 111,415 L23,482 L106,565 L173,478 Q219,509 281,509 Q342,509 389,478 L456,565 L539,482 L451,415 Q465,392 473,364.5 Q481,337 481,307 Q481,277 473,249.5 Q465,222 451,199 M378,307 Q378,354 352,383 Q326,412 281,412 Q236,412 210,383 Q184,354 184,307 Q184,260 210,231 Q236,202 281,202 Q326,202 352,231 Q378,260 378,307"/> 
            <glyph glyph-name="¥" unicode="&#xA5;" horiz-adv-x="508" d=" M127,700 L259,410 L391,700 L508,700 L359,392 L464,392 L464,300 L314,300 L314,233 L464,233 L464,141 L314,141 L314,0 L204,0 L204,141 L54,141 L54,233 L204,233 L204,300 L54,300 L54,392 L159,392 L10,700"/> 
            <glyph glyph-name="¦" unicode="&#xA6;" horiz-adv-x="194" d=" M194,299 L194,-50 L94,-50 L94,299 M94,401 L94,750 L194,750 L194,401"/> 
            <glyph glyph-name="§" unicode="&#xA7;" horiz-adv-x="482" d=" M482,222 Q482,174 465.5,141.5 Q449,109 418,86 Q438,59 444,31 Q450,3 450,-21 Q450,-66 435.5,-101.5 Q421,-137 396.5,-161.5 Q372,-186 340,-199 Q308,-212 273,-212 Q195,-212 146,-173.5 Q97,-135 78,-63 L173,-31 Q188,-76 213,-94 Q238,-112 273,-112 Q303,-112 326.5,-91 Q350,-70 350,-25 Q350,6 336,25.5 Q322,45 297.5,60 Q273,75 239,90 Q205,105 165,126 Q145,137 126.5,151.5 Q108,166 94,184 Q80,202 71.5,224.5 Q63,247 63,274 Q63,322 79.5,354.5 Q96,387 127,410 Q107,437 101,465 Q95,493 95,517 Q95,562 109.5,597.5 Q124,633 148.5,657.5 Q173,682 205,695 Q237,708 272,708 Q350,708 399,669.5 Q448,631 467,559 L372,527 Q357,572 332,590 Q307,608 272,608 Q242,608 218.5,587 Q195,566 195,521 Q195,490 209,470.5 Q223,451 247.5,436 Q272,421 306,406 Q340,391 380,370 Q400,359 418.5,344.5 Q437,330 451,312 Q465,294 473.5,271.5 Q482,249 482,222 M389,213 Q389,240 371,258.5 Q353,277 325.5,292 Q298,307 263.5,321 Q229,335 196,353 Q177,341 166.5,324 Q156,307 156,283 Q156,256 174,237.5 Q192,219 219.5,204 Q247,189 281.5,175 Q316,161 349,143 Q368,155 378.5,172 Q389,189 389,213"/> 
            <glyph glyph-name="¨" unicode="&#xA8;" horiz-adv-x="330" d=" M18,651 Q18,678 36,696 Q54,714 81,714 Q108,714 126,696 Q144,678 144,651 Q144,624 126,606 Q108,588 81,588 Q54,588 36,606 Q18,624 18,651 M204,651 Q204,678 222,696 Q240,714 267,714 Q294,714 312,696 Q330,678 330,651 Q330,624 312,606 Q294,588 267,588 Q240,588 222,606 Q204,624 204,651"/> 
            <glyph glyph-name="©" unicode="&#xA9;" horiz-adv-x="831" d=" M65,350 Q65,433 94,504.5 Q123,576 174.5,628.5 Q226,681 296,710.5 Q366,740 448,740 Q530,740 600,710.5 Q670,681 721.5,628.5 Q773,576 802,504.5 Q831,433 831,350 Q831,267 802,195.5 Q773,124 721.5,71.5 Q670,19 600,-10.5 Q530,-40 448,-40 Q366,-40 296,-10.5 Q226,19 174.5,71.5 Q123,124 94,195.5 Q65,267 65,350 M161,350 Q161,287 182,232.5 Q203,178 240.5,138 Q278,98 331,75 Q384,52 448,52 Q512,52 565,75 Q618,98 655.5,138 Q693,178 714,232.5 Q735,287 735,350 Q735,413 714,467.5 Q693,522 655.5,562 Q618,602 565,625 Q512,648 448,648 Q384,648 331,625 Q278,602 240.5,562 Q203,522 182,467.5 Q161,413 161,350 M626,269 Q621,236 605,211 Q589,186 565,169 Q541,152 511,143 Q481,134 448,134 Q410,134 374.5,147 Q339,160 311,187 Q283,214 266,254.5 Q249,295 249,350 Q249,405 266,445.5 Q283,486 311,513 Q339,540 374.5,553 Q410,566 448,566 Q481,566 511,557 Q541,548 565,531 Q589,514 605,489 Q621,464 626,431 L541,412 Q528,451 504,466.5 Q480,482 448,482 Q403,482 373,448.5 Q343,415 343,350 Q343,285 373,251.5 Q403,218 448,218 Q480,218 504,233.5 Q528,249 541,288"/> 
            <glyph glyph-name="ª" unicode="&#xAA;" horiz-adv-x="381" d=" M60,416 Q60,478 107.5,512 Q155,546 231,546 L299,546 L299,563 Q299,601 275.5,616.5 Q252,632 220,632 Q196,632 175,620 Q154,608 145,580 L76,595 Q87,646 124.5,675 Q162,704 220,704 Q254,704 283.5,696 Q313,688 335,669.5 Q357,651 369,621 Q381,591 381,548 L381,300 L313,300 L304,354 Q284,327 254,311.5 Q224,296 182,296 Q157,296 135,303 Q113,310 96.5,325 Q80,340 70,362.5 Q60,385 60,416 M146,416 Q146,396 158,382 Q170,368 196,368 Q215,368 233.5,374 Q252,380 266.5,392.5 Q281,405 290,424 Q299,443 299,469 L299,480 L228,480 Q190,480 168,462.5 Q146,445 146,416"/> 
            <glyph glyph-name="«" unicode="&#xAB;" horiz-adv-x="609" d=" M46,346 L339,552 L339,445 L150,310 L339,175 L339,68 L46,274 M316,346 L609,552 L609,445 L420,310 L609,175 L609,68 L316,274"/> 
            <glyph glyph-name="¬" unicode="&#xAC;" horiz-adv-x="514" d=" M65,397 L514,397 L514,142 L410,142 L410,305 L65,305"/> 
            <glyph glyph-name="®" unicode="&#xAE;" horiz-adv-x="831" d=" M65,350 Q65,433 94,504.5 Q123,576 174.5,628.5 Q226,681 296,710.5 Q366,740 448,740 Q530,740 600,710.5 Q670,681 721.5,628.5 Q773,576 802,504.5 Q831,433 831,350 Q831,267 802,195.5 Q773,124 721.5,71.5 Q670,19 600,-10.5 Q530,-40 448,-40 Q366,-40 296,-10.5 Q226,19 174.5,71.5 Q123,124 94,195.5 Q65,267 65,350 M161,350 Q161,287 182,232.5 Q203,178 240.5,138 Q278,98 331,75 Q384,52 448,52 Q512,52 565,75 Q618,98 655.5,138 Q693,178 714,232.5 Q735,287 735,350 Q735,413 714,467.5 Q693,522 655.5,562 Q618,602 565,625 Q512,648 448,648 Q384,648 331,625 Q278,602 240.5,562 Q203,522 182,467.5 Q161,413 161,350 M414,319 L389,319 L389,137 L303,137 L303,563 L461,563 Q528,563 563.5,531.5 Q599,500 599,441 Q599,390 573.5,360.5 Q548,331 507,323 L634,137 L536,137 M389,483 L389,399 L460,399 Q493,399 503.5,411.5 Q514,424 514,441 Q514,458 503.5,470.5 Q493,483 460,483"/> 
            <glyph glyph-name="¯" unicode="&#xAF;" horiz-adv-x="268" d=" M11,700 L268,700 L268,608 L11,608"/> 
            <glyph glyph-name="°" unicode="&#xB0;" horiz-adv-x="291" d=" M63,593 Q63,641 94.5,672.5 Q126,704 177,704 Q228,704 259.5,672.5 Q291,641 291,593 Q291,545 259.5,513.5 Q228,482 177,482 Q126,482 94.5,513.5 Q63,545 63,593 M136,593 Q136,574 146.5,562.5 Q157,551 177,551 Q197,551 207.5,562.5 Q218,574 218,593 Q218,612 207.5,623.5 Q197,635 177,635 Q157,635 146.5,623.5 Q136,612 136,593"/> 
            <glyph glyph-name="±" unicode="&#xB1;" horiz-adv-x="506" d=" M329,621 L329,445 L506,445 L506,353 L329,353 L329,176 L237,176 L237,353 L61,353 L61,445 L237,445 L237,621 M65597,65628 L66042,65628 L66042,65536 L65597,65536"/> 
            <glyph glyph-name="²" unicode="&#xB2;" horiz-adv-x="322" d=" M58,330 L209,516 Q224,535 229,550.5 Q234,566 234,583 Q234,606 221.5,619 Q209,632 189,632 Q169,632 153.5,619 Q138,606 135,572 L62,592 Q67,641 102.5,672.5 Q138,704 189,704 Q246,704 280,672.5 Q314,641 314,585 Q314,555 303.5,530.5 Q293,506 275,484 L183,372 L322,372 L322,300 L58,300"/> 
            <glyph glyph-name="³" unicode="&#xB3;" horiz-adv-x="329" d=" M128,427 Q133,398 151,383 Q169,368 193,368 Q221,368 235,385.5 Q249,403 249,435 Q249,465 234,480.5 Q219,496 193,496 Q172,496 155,484 L119,531 L192,628 L75,628 L75,700 L305,700 L305,671 L214,551 Q265,551 297,517 Q329,483 329,432 Q329,372 295,334 Q261,296 193,296 Q134,296 97.5,330.5 Q61,365 58,417"/> 
            <glyph glyph-name="´" unicode="&#xB4;" horiz-adv-x="226" d=" M85,708 L226,708 L97,560 L17,560"/> 
            <glyph glyph-name="µ" unicode="&#xB5;" horiz-adv-x="494" d=" M390,0 L390,86 Q361,39 319.5,15.5 Q278,-8 227,-8 Q205,-8 183,-3 L183,-204 L79,-204 L79,504 L183,504 L183,176 Q183,125 204.5,104.5 Q226,84 261,84 Q285,84 308.5,98 Q332,112 350,139.5 Q368,167 379,207.5 Q390,248 390,300 L390,504 L494,504 L494,0"/> 
            <glyph glyph-name="¶" unicode="&#xB6;" horiz-adv-x="652" d=" M57,490 Q57,533 73.5,571.5 Q90,610 118.5,638.5 Q147,667 185,683.5 Q223,700 267,700 L652,700 L652,608 L590,608 L590,-204 L486,-204 L486,608 L371,608 L371,-204 L267,-204 L267,280 Q223,280 185,296.5 Q147,313 118.5,341.5 Q90,370 73.5,408 Q57,446 57,490"/> 
            <glyph glyph-name="·" unicode="&#xB7;" horiz-adv-x="233" d=" M159,443 Q190,443 211.5,422 Q233,401 233,369 Q233,337 211.5,316 Q190,295 159,295 Q128,295 106.5,316 Q85,337 85,369 Q85,401 106.5,422 Q128,443 159,443"/> 
            <glyph glyph-name="¸" unicode="&#xB8;" horiz-adv-x="213" d=" M129,-251 L8,-195 L132,-60 L213,-60"/> 
            <glyph glyph-name="¹" unicode="&#xB9;" horiz-adv-x="215" d=" M215,700 L215,300 L138,300 L138,592 L54,552 L54,637 L185,700"/> 
            <glyph glyph-name="º" unicode="&#xBA;" horiz-adv-x="453" d=" M64,500 Q64,542 77,579 Q90,616 115,643.5 Q140,671 176.5,687.5 Q213,704 259,704 Q305,704 341,687.5 Q377,671 402,643.5 Q427,616 440,579 Q453,542 453,500 Q453,458 440,421 Q427,384 402,356.5 Q377,329 341,312.5 Q305,296 259,296 Q213,296 176.5,312.5 Q140,329 115,356.5 Q90,384 77,421 Q64,458 64,500 M150,500 Q150,475 157,451 Q164,427 177.5,408.5 Q191,390 211.5,379 Q232,368 259,368 Q286,368 306,379 Q326,390 339.5,408.5 Q353,427 360,451 Q367,475 367,500 Q367,525 360,549 Q353,573 339.5,591.5 Q326,610 306,621 Q286,632 259,632 Q232,632 211.5,621 Q191,610 177.5,591.5 Q164,573 157,549 Q150,525 150,500"/> 
            <glyph glyph-name="»" unicode="&#xBB;" horiz-adv-x="616" d=" M616,274 L323,68 L323,175 L512,310 L323,445 L323,552 L616,346 M346,274 L53,68 L53,175 L242,310 L53,445 L53,552 L346,346"/> 
            <glyph glyph-name="¼" unicode="&#xBC;" horiz-adv-x="738" d=" M617,71 L450,71 L450,106 L610,400 L694,400 L694,143 L738,143 L738,71 L694,71 L694,0 L617,0 M617,143 L617,286 L543,143 M235,700 L235,300 L158,300 L158,592 L74,552 L74,637 L205,700 M721,688 L182,-32 L124,13 L663,733"/> 
            <glyph glyph-name="½" unicode="&#xBD;" horiz-adv-x="818" d=" M235,700 L235,300 L158,300 L158,592 L74,552 L74,637 L205,700 M725,688 L186,-32 L128,13 L667,733 M554,65566 L705,65752 Q720,65771 725,65786.5 Q730,65802 730,65819 Q730,65842 717.5,65855 Q705,65868 685,65868 Q665,65868 649.5,65855 Q634,65842 631,65808 L558,65828 Q563,65877 598.5,65908.5 Q634,65940 685,65940 Q742,65940 776,65908.5 Q810,65877 810,65821 Q810,65791 799.5,65766.5 Q789,65742 771,65720 L679,65608 L818,65608 L818,65536 L554,65536"/> 
            <glyph glyph-name="¾" unicode="&#xBE;" horiz-adv-x="756" d=" M635,71 L468,71 L468,106 L628,400 L712,400 L712,143 L756,143 L756,71 L712,71 L712,0 L635,0 M635,143 L635,286 L561,143 M749,688 L210,-32 L152,13 L691,733 M128,427 Q133,398 151,383 Q169,368 193,368 Q221,368 235,385.5 Q249,403 249,435 Q249,465 234,480.5 Q219,496 193,496 Q172,496 155,484 L119,531 L192,628 L75,628 L75,700 L305,700 L305,671 L214,551 Q265,551 297,517 Q329,483 329,432 Q329,372 295,334 Q261,296 193,296 Q134,296 97.5,330.5 Q61,365 58,417"/> 
            <glyph glyph-name="¿" unicode="&#xBF;" horiz-adv-x="411" d=" M87,184 Q119,289 226,289 Q286,289 324,256 Q362,223 362,165 Q362,117 337.5,88 Q313,59 277,42 L194,4 Q167,-9 156,-24.5 Q145,-40 145,-66 Q145,-94 166.5,-110.5 Q188,-127 218,-127 Q293,-127 316,-45 L411,-61 Q405,-93 390,-120.5 Q375,-148 351,-168.5 Q327,-189 295,-200.5 Q263,-212 224,-212 Q186,-212 153.5,-201.5 Q121,-191 97,-171.5 Q73,-152 59,-123.5 Q45,-95 45,-58 Q45,-14 63,13.5 Q81,41 116,58 L229,113 Q271,133 271,169 Q271,188 259.5,199 Q248,210 228,210 Q203,210 190,194 Q177,178 168,153 M302,425 Q302,393 280.5,371.5 Q259,350 226,350 Q193,350 171.5,371.5 Q150,393 150,425 Q150,457 171.5,478.5 Q193,500 226,500 Q259,500 280.5,478.5 Q302,457 302,425"/> 
            <glyph glyph-name="À" unicode="&#xC0;" horiz-adv-x="599" d=" M356,700 L599,0 L487,0 L429,174 L179,174 L121,0 L9,0 L252,700 M212,278 L396,278 L304,561 M366,756 L286,756 L157,904 L298,904"/> 
            <glyph glyph-name="Á" unicode="&#xC1;" horiz-adv-x="599" d=" M356,700 L599,0 L487,0 L429,174 L179,174 L121,0 L9,0 L252,700 M212,278 L396,278 L304,561 M305,904 L446,904 L317,756 L237,756"/> 
            <glyph glyph-name="Â" unicode="&#xC2;" horiz-adv-x="599" d=" M356,700 L599,0 L487,0 L429,174 L179,174 L121,0 L9,0 L252,700 M212,278 L396,278 L304,561 M289,938 L319,938 L481,762 L381,762 L304,842 L227,762 L127,762"/> 
            <glyph glyph-name="Ã" unicode="&#xC3;" horiz-adv-x="599" d=" M356,700 L599,0 L487,0 L429,174 L179,174 L121,0 L9,0 L252,700 M212,278 L396,278 L304,561 M120,820 Q127,836 139.5,850.5 Q152,865 167,876.5 Q182,888 199.5,894.5 Q217,901 235,901 Q262,901 278.5,894.5 Q295,888 308,880.5 Q321,873 333.5,866.5 Q346,860 366,860 Q386,860 402,871.5 Q418,883 432,900 L489,853 Q481,837 469,822.5 Q457,808 442,796.5 Q427,785 409.5,778.5 Q392,772 374,772 Q347,772 330.5,778.5 Q314,785 301,792.5 Q288,800 275,806.5 Q262,813 243,813 Q223,813 207,801.5 Q191,790 177,773"/> 
            <glyph glyph-name="Ä" unicode="&#xC4;" horiz-adv-x="599" d=" M356,700 L599,0 L487,0 L429,174 L179,174 L121,0 L9,0 L252,700 M212,278 L396,278 L304,561 M148,847 Q148,874 166,892 Q184,910 211,910 Q238,910 256,892 Q274,874 274,847 Q274,820 256,802 Q238,784 211,784 Q184,784 166,802 Q148,820 148,847 M334,847 Q334,874 352,892 Q370,910 397,910 Q424,910 442,892 Q460,874 460,847 Q460,820 442,802 Q424,784 397,784 Q370,784 352,802 Q334,820 334,847"/> 
            <glyph glyph-name="Å" unicode="&#xC5;" horiz-adv-x="599" d=" M356,700 L599,0 L487,0 L429,174 L179,174 L121,0 L9,0 L252,700 M212,278 L396,278 L304,561 M203,849 Q203,892 232,921.5 Q261,951 304,951 Q349,951 377,921.5 Q405,892 405,849 Q405,807 377,779 Q349,751 304,751 Q261,751 232,779 Q203,807 203,849 M268,850 Q268,834 278,823.5 Q288,813 304,813 Q321,813 330.5,823.5 Q340,834 340,850 Q340,867 330.5,878 Q321,889 304,889 Q288,889 278,878 Q268,867 268,850"/> 
            <glyph glyph-name="Æ" unicode="&#xC6;" horiz-adv-x="799" d=" M789,700 L789,596 L484,596 L484,424 L730,424 L730,320 L484,320 L484,104 L799,104 L799,0 L374,0 L374,174 L195,174 L122,0 L10,0 L312,700 M239,278 L374,278 L374,561 L357,561"/> 
            <glyph glyph-name="Ç" unicode="&#xC7;" horiz-adv-x="658" d=" M554,470 Q528,537 487,570.5 Q446,604 375,604 Q331,604 292,588.5 Q253,573 224.5,541.5 Q196,510 179.5,462 Q163,414 163,350 Q163,286 179.5,238 Q196,190 224.5,158.5 Q253,127 292,111.5 Q331,96 375,96 Q446,96 487,129.5 Q528,163 554,230 L658,204 Q631,104 559,48 Q487,-8 375,-8 Q312,-8 253.5,14.5 Q195,37 150,82 Q105,127 78,194 Q51,261 51,350 Q51,439 78,506 Q105,573 150,618 Q195,663 253.5,685.5 Q312,708 375,708 Q487,708 559,652 Q631,596 658,496 M370,-251 L249,-195 L373,-60 L454,-60"/> 
            <glyph glyph-name="È" unicode="&#xC8;" horiz-adv-x="519" d=" M509,700 L509,596 L204,596 L204,424 L450,424 L450,320 L204,320 L204,104 L519,104 L519,0 L94,0 L94,700 M372,756 L292,756 L163,904 L304,904"/> 
            <glyph glyph-name="É" unicode="&#xC9;" horiz-adv-x="519" d=" M509,700 L509,596 L204,596 L204,424 L450,424 L450,320 L204,320 L204,104 L519,104 L519,0 L94,0 L94,700 M292,904 L433,904 L304,756 L224,756"/> 
            <glyph glyph-name="Ê" unicode="&#xCA;" horiz-adv-x="519" d=" M509,700 L509,596 L204,596 L204,424 L450,424 L450,320 L204,320 L204,104 L519,104 L519,0 L94,0 L94,700 M293,938 L323,938 L485,762 L385,762 L308,842 L231,762 L131,762"/> 
            <glyph glyph-name="Ë" unicode="&#xCB;" horiz-adv-x="519" d=" M509,700 L509,596 L204,596 L204,424 L450,424 L450,320 L204,320 L204,104 L519,104 L519,0 L94,0 L94,700 M149,847 Q149,874 167,892 Q185,910 212,910 Q239,910 257,892 Q275,874 275,847 Q275,820 257,802 Q239,784 212,784 Q185,784 167,802 Q149,820 149,847 M335,847 Q335,874 353,892 Q371,910 398,910 Q425,910 443,892 Q461,874 461,847 Q461,820 443,802 Q425,784 398,784 Q371,784 353,802 Q335,820 335,847"/> 
            <glyph glyph-name="Ì" unicode="&#xCC;" horiz-adv-x="214" d=" M94,700 L204,700 L204,0 L94,0 M65750,756 L65670,756 L65541,904 L65682,904"/> 
            <glyph glyph-name="Í" unicode="&#xCD;" horiz-adv-x="293" d=" M94,700 L204,700 L204,0 L94,0 M152,904 L293,904 L164,756 L84,756"/> 
            <glyph glyph-name="Î" unicode="&#xCE;" horiz-adv-x="326" d=" M94,700 L204,700 L204,0 L94,0 M65670,938 L65700,938 L65862,762 L65762,762 L65685,842 L65608,762 L65508,762"/> 
            <glyph glyph-name="Ï" unicode="&#xCF;" horiz-adv-x="305" d=" M94,700 L204,700 L204,0 L94,0 M65529,847 Q65529,874 65547,892 Q65565,910 65592,910 Q65619,910 65637,892 Q65655,874 65655,847 Q65655,820 65637,802 Q65619,784 65592,784 Q65565,784 65547,802 Q65529,820 65529,847 M65715,847 Q65715,874 65733,892 Q65751,910 65778,910 Q65805,910 65823,892 Q65841,874 65841,847 Q65841,820 65823,802 Q65805,784 65778,784 Q65751,784 65733,802 Q65715,820 65715,847"/> 
            <glyph glyph-name="Ð" unicode="&#xD0;" horiz-adv-x="638" d=" M28,396 L110,396 L110,700 L316,700 Q379,700 437,678.5 Q495,657 540,613.5 Q585,570 611.5,504 Q638,438 638,350 Q638,261 611.5,195.5 Q585,130 540,86.5 Q495,43 437,21.5 Q379,0 316,0 L110,0 L110,304 L28,304 M220,596 L220,396 L302,396 L302,304 L220,304 L220,104 L284,104 Q330,104 373.5,115.5 Q417,127 451,155.5 Q485,184 505.5,231 Q526,278 526,350 Q526,422 505.5,469 Q485,516 451,544.5 Q417,573 373.5,584.5 Q330,596 284,596"/> 
            <glyph glyph-name="Ñ" unicode="&#xD1;" horiz-adv-x="609" d=" M609,700 L609,0 L491,0 L204,502 L204,0 L94,0 L94,700 L212,700 L499,196 L499,700 M167,820 Q174,836 186.5,850.5 Q199,865 214,876.5 Q229,888 246.5,894.5 Q264,901 282,901 Q309,901 325.5,894.5 Q342,888 355,880.5 Q368,873 380.5,866.5 Q393,860 413,860 Q433,860 449,871.5 Q465,883 479,900 L536,853 Q528,837 516,822.5 Q504,808 489,796.5 Q474,785 456.5,778.5 Q439,772 421,772 Q394,772 377.5,778.5 Q361,785 348,792.5 Q335,800 322,806.5 Q309,813 290,813 Q270,813 254,801.5 Q238,790 224,773"/> 
            <glyph glyph-name="Ò" unicode="&#xD2;" horiz-adv-x="693" d=" M372,708 Q436,708 494,685.5 Q552,663 596.5,618.5 Q641,574 667,507 Q693,440 693,350 Q693,260 667,193 Q641,126 596.5,81.5 Q552,37 494,14.5 Q436,-8 372,-8 Q308,-8 250,14.5 Q192,37 147.5,81.5 Q103,126 77,193 Q51,260 51,350 Q51,440 77,507 Q103,574 147.5,618.5 Q192,663 250,685.5 Q308,708 372,708 M372,604 Q330,604 292,588.5 Q254,573 225.5,541.5 Q197,510 180,462.5 Q163,415 163,350 Q163,285 180,237.5 Q197,190 225.5,158.5 Q254,127 292,111.5 Q330,96 372,96 Q414,96 452,111.5 Q490,127 518.5,158.5 Q547,190 564,237.5 Q581,285 581,350 Q581,415 564,462.5 Q547,510 518.5,541.5 Q490,573 452,588.5 Q414,604 372,604 M431,756 L351,756 L222,904 L363,904"/> 
            <glyph glyph-name="Ó" unicode="&#xD3;" horiz-adv-x="693" d=" M372,708 Q436,708 494,685.5 Q552,663 596.5,618.5 Q641,574 667,507 Q693,440 693,350 Q693,260 667,193 Q641,126 596.5,81.5 Q552,37 494,14.5 Q436,-8 372,-8 Q308,-8 250,14.5 Q192,37 147.5,81.5 Q103,126 77,193 Q51,260 51,350 Q51,440 77,507 Q103,574 147.5,618.5 Q192,663 250,685.5 Q308,708 372,708 M372,604 Q330,604 292,588.5 Q254,573 225.5,541.5 Q197,510 180,462.5 Q163,415 163,350 Q163,285 180,237.5 Q197,190 225.5,158.5 Q254,127 292,111.5 Q330,96 372,96 Q414,96 452,111.5 Q490,127 518.5,158.5 Q547,190 564,237.5 Q581,285 581,350 Q581,415 564,462.5 Q547,510 518.5,541.5 Q490,573 452,588.5 Q414,604 372,604 M364,904 L505,904 L376,756 L296,756"/> 
            <glyph glyph-name="Ô" unicode="&#xD4;" horiz-adv-x="693" d=" M372,708 Q436,708 494,685.5 Q552,663 596.5,618.5 Q641,574 667,507 Q693,440 693,350 Q693,260 667,193 Q641,126 596.5,81.5 Q552,37 494,14.5 Q436,-8 372,-8 Q308,-8 250,14.5 Q192,37 147.5,81.5 Q103,126 77,193 Q51,260 51,350 Q51,440 77,507 Q103,574 147.5,618.5 Q192,663 250,685.5 Q308,708 372,708 M372,604 Q330,604 292,588.5 Q254,573 225.5,541.5 Q197,510 180,462.5 Q163,415 163,350 Q163,285 180,237.5 Q197,190 225.5,158.5 Q254,127 292,111.5 Q330,96 372,96 Q414,96 452,111.5 Q490,127 518.5,158.5 Q547,190 564,237.5 Q581,285 581,350 Q581,415 564,462.5 Q547,510 518.5,541.5 Q490,573 452,588.5 Q414,604 372,604 M357,938 L387,938 L549,762 L449,762 L372,842 L295,762 L195,762"/> 
            <glyph glyph-name="Õ" unicode="&#xD5;" horiz-adv-x="693" d=" M372,708 Q436,708 494,685.5 Q552,663 596.5,618.5 Q641,574 667,507 Q693,440 693,350 Q693,260 667,193 Q641,126 596.5,81.5 Q552,37 494,14.5 Q436,-8 372,-8 Q308,-8 250,14.5 Q192,37 147.5,81.5 Q103,126 77,193 Q51,260 51,350 Q51,440 77,507 Q103,574 147.5,618.5 Q192,663 250,685.5 Q308,708 372,708 M372,604 Q330,604 292,588.5 Q254,573 225.5,541.5 Q197,510 180,462.5 Q163,415 163,350 Q163,285 180,237.5 Q197,190 225.5,158.5 Q254,127 292,111.5 Q330,96 372,96 Q414,96 452,111.5 Q490,127 518.5,158.5 Q547,190 564,237.5 Q581,285 581,350 Q581,415 564,462.5 Q547,510 518.5,541.5 Q490,573 452,588.5 Q414,604 372,604 M188,820 Q195,836 207.5,850.5 Q220,865 235,876.5 Q250,888 267.5,894.5 Q285,901 303,901 Q330,901 346.5,894.5 Q363,888 376,880.5 Q389,873 401.5,866.5 Q414,860 434,860 Q454,860 470,871.5 Q486,883 500,900 L557,853 Q549,837 537,822.5 Q525,808 510,796.5 Q495,785 477.5,778.5 Q460,772 442,772 Q415,772 398.5,778.5 Q382,785 369,792.5 Q356,800 343,806.5 Q330,813 311,813 Q291,813 275,801.5 Q259,790 245,773"/> 
            <glyph glyph-name="Ö" unicode="&#xD6;" horiz-adv-x="693" d=" M372,708 Q436,708 494,685.5 Q552,663 596.5,618.5 Q641,574 667,507 Q693,440 693,350 Q693,260 667,193 Q641,126 596.5,81.5 Q552,37 494,14.5 Q436,-8 372,-8 Q308,-8 250,14.5 Q192,37 147.5,81.5 Q103,126 77,193 Q51,260 51,350 Q51,440 77,507 Q103,574 147.5,618.5 Q192,663 250,685.5 Q308,708 372,708 M372,604 Q330,604 292,588.5 Q254,573 225.5,541.5 Q197,510 180,462.5 Q163,415 163,350 Q163,285 180,237.5 Q197,190 225.5,158.5 Q254,127 292,111.5 Q330,96 372,96 Q414,96 452,111.5 Q490,127 518.5,158.5 Q547,190 564,237.5 Q581,285 581,350 Q581,415 564,462.5 Q547,510 518.5,541.5 Q490,573 452,588.5 Q414,604 372,604 M217,847 Q217,874 235,892 Q253,910 280,910 Q307,910 325,892 Q343,874 343,847 Q343,820 325,802 Q307,784 280,784 Q253,784 235,802 Q217,820 217,847 M403,847 Q403,874 421,892 Q439,910 466,910 Q493,910 511,892 Q529,874 529,847 Q529,820 511,802 Q493,784 466,784 Q439,784 421,802 Q403,820 403,847"/> 
            <glyph glyph-name="×" unicode="&#xD7;" horiz-adv-x="500" d=" M435,97 L282,250 L129,97 L64,162 L217,316 L64,470 L129,535 L282,382 L435,535 L500,470 L347,316 L500,162"/> 
            <glyph glyph-name="Ø" unicode="&#xD8;" horiz-adv-x="693" d=" M684,682 L617,595 Q652,550 672.5,489 Q693,428 693,350 Q693,260 667,193 Q641,126 596.5,81.5 Q552,37 494,14.5 Q436,-8 372,-8 Q273,-8 193,44 L132,-35 L60,18 L127,105 Q92,150 71.5,210.5 Q51,271 51,350 Q51,440 77,507 Q103,574 147.5,618.5 Q192,663 250,685.5 Q308,708 372,708 Q471,708 551,656 L612,735 M581,350 Q581,398 572,436 Q563,474 546,503 L259,129 Q308,96 372,96 Q414,96 452,111.5 Q490,127 518.5,158.5 Q547,190 564,237.5 Q581,285 581,350 M372,604 Q330,604 292,588.5 Q254,573 225.5,541.5 Q197,510 180,462.5 Q163,415 163,350 Q163,302 172.5,264 Q182,226 198,197 L485,571 Q435,604 372,604"/> 
            <glyph glyph-name="Ù" unicode="&#xD9;" horiz-adv-x="579" d=" M75,700 L185,700 L185,247 Q185,175 220.5,135.5 Q256,96 327,96 Q398,96 433.5,135.5 Q469,175 469,247 L469,700 L579,700 L579,252 Q579,189 559.5,140.5 Q540,92 506.5,59 Q473,26 427,9 Q381,-8 327,-8 Q273,-8 227,9 Q181,26 147.5,59 Q114,92 94.5,140.5 Q75,189 75,252 M391,756 L311,756 L182,904 L323,904"/> 
            <glyph glyph-name="Ú" unicode="&#xDA;" horiz-adv-x="579" d=" M75,700 L185,700 L185,247 Q185,175 220.5,135.5 Q256,96 327,96 Q398,96 433.5,135.5 Q469,175 469,247 L469,700 L579,700 L579,252 Q579,189 559.5,140.5 Q540,92 506.5,59 Q473,26 427,9 Q381,-8 327,-8 Q273,-8 227,9 Q181,26 147.5,59 Q114,92 94.5,140.5 Q75,189 75,252 M335,904 L476,904 L347,756 L267,756"/> 
            <glyph glyph-name="Û" unicode="&#xDB;" horiz-adv-x="579" d=" M75,700 L185,700 L185,247 Q185,175 220.5,135.5 Q256,96 327,96 Q398,96 433.5,135.5 Q469,175 469,247 L469,700 L579,700 L579,252 Q579,189 559.5,140.5 Q540,92 506.5,59 Q473,26 427,9 Q381,-8 327,-8 Q273,-8 227,9 Q181,26 147.5,59 Q114,92 94.5,140.5 Q75,189 75,252 M312,938 L342,938 L504,762 L404,762 L327,842 L250,762 L150,762"/> 
            <glyph glyph-name="Ü" unicode="&#xDC;" horiz-adv-x="579" d=" M75,700 L185,700 L185,247 Q185,175 220.5,135.5 Q256,96 327,96 Q398,96 433.5,135.5 Q469,175 469,247 L469,700 L579,700 L579,252 Q579,189 559.5,140.5 Q540,92 506.5,59 Q473,26 427,9 Q381,-8 327,-8 Q273,-8 227,9 Q181,26 147.5,59 Q114,92 94.5,140.5 Q75,189 75,252 M172,847 Q172,874 190,892 Q208,910 235,910 Q262,910 280,892 Q298,874 298,847 Q298,820 280,802 Q262,784 235,784 Q208,784 190,802 Q172,820 172,847 M358,847 Q358,874 376,892 Q394,910 421,910 Q448,910 466,892 Q484,874 484,847 Q484,820 466,802 Q448,784 421,784 Q394,784 376,802 Q358,820 358,847"/> 
            <glyph glyph-name="Ý" unicode="&#xDD;" horiz-adv-x="512" d=" M119,700 L257,409 L395,700 L512,700 L312,300 L312,0 L202,0 L202,300 L2,700 M253,904 L394,904 L265,756 L185,756"/> 
            <glyph glyph-name="Þ" unicode="&#xDE;" horiz-adv-x="562" d=" M204,143 L204,0 L94,0 L94,700 L204,700 L204,557 L345,557 Q397,557 437.5,541 Q478,525 505.5,497.5 Q533,470 547.5,432 Q562,394 562,350 Q562,306 547.5,268 Q533,230 505.5,202 Q478,174 437.5,158.5 Q397,143 345,143 M350,247 Q398,247 424,274 Q450,301 450,350 Q450,399 424,426 Q398,453 350,453 L204,453 L204,247"/> 
            <glyph glyph-name="ß" unicode="&#xDF;" horiz-adv-x="519" d=" M35,429 L83,429 L83,514 Q83,563 98.5,599.5 Q114,636 141,660 Q168,684 203.5,696 Q239,708 279,708 Q328,708 364,693.5 Q400,679 423,654 Q446,629 457,596 Q468,563 468,526 Q468,497 460,475 Q452,453 439.5,437 Q427,421 412,410.5 Q397,400 383,396 Q411,387 436,372 Q461,357 479.5,334.5 Q498,312 508.5,281.5 Q519,251 519,212 Q519,154 503,112.5 Q487,71 458.5,44 Q430,17 389.5,4.5 Q349,-8 300,-8 Q280,-8 261,-5.5 Q242,-3 231,0 L231,92 Q246,89 264.5,86.5 Q283,84 300,84 Q363,84 389.5,118 Q416,152 416,209 Q416,275 383.5,306 Q351,337 291,337 L252,337 L252,429 L279,429 Q324,429 347,454 Q370,479 370,523 Q370,569 344.5,592.5 Q319,616 279,616 Q237,616 212,588.5 Q187,561 187,507 L187,0 L83,0 L83,337 L35,337"/> 
            <glyph glyph-name="à" unicode="&#xE0;" horiz-adv-x="453" d=" M44,145 Q44,184 60,214.5 Q76,245 104.5,266.5 Q133,288 173.5,299 Q214,310 262,310 L349,310 L349,332 Q349,379 320,399.5 Q291,420 251,420 Q220,420 195,403.5 Q170,387 157,353 L62,373 Q78,437 128.5,474.5 Q179,512 252,512 Q296,512 333,501.5 Q370,491 396.5,468 Q423,445 438,406.5 Q453,368 453,313 L453,0 L365,0 L355,66 Q330,31 291.5,11.5 Q253,-8 199,-8 Q167,-8 139,1 Q111,10 90,29 Q69,48 56.5,77 Q44,106 44,145 M154,145 Q154,119 169,101.5 Q184,84 217,84 Q241,84 264.5,92 Q288,100 307,115.5 Q326,131 337.5,155 Q349,179 349,212 L349,223 L258,223 Q210,223 182,202 Q154,181 154,145 M327,560 L247,560 L118,708 L259,708"/> 
            <glyph glyph-name="á" unicode="&#xE1;" horiz-adv-x="453" d=" M44,145 Q44,184 60,214.5 Q76,245 104.5,266.5 Q133,288 173.5,299 Q214,310 262,310 L349,310 L349,332 Q349,379 320,399.5 Q291,420 251,420 Q220,420 195,403.5 Q170,387 157,353 L62,373 Q78,437 128.5,474.5 Q179,512 252,512 Q296,512 333,501.5 Q370,491 396.5,468 Q423,445 438,406.5 Q453,368 453,313 L453,0 L365,0 L355,66 Q330,31 291.5,11.5 Q253,-8 199,-8 Q167,-8 139,1 Q111,10 90,29 Q69,48 56.5,77 Q44,106 44,145 M154,145 Q154,119 169,101.5 Q184,84 217,84 Q241,84 264.5,92 Q288,100 307,115.5 Q326,131 337.5,155 Q349,179 349,212 L349,223 L258,223 Q210,223 182,202 Q154,181 154,145 M250,708 L391,708 L262,560 L182,560"/> 
            <glyph glyph-name="â" unicode="&#xE2;" horiz-adv-x="453" d=" M44,145 Q44,184 60,214.5 Q76,245 104.5,266.5 Q133,288 173.5,299 Q214,310 262,310 L349,310 L349,332 Q349,379 320,399.5 Q291,420 251,420 Q220,420 195,403.5 Q170,387 157,353 L62,373 Q78,437 128.5,474.5 Q179,512 252,512 Q296,512 333,501.5 Q370,491 396.5,468 Q423,445 438,406.5 Q453,368 453,313 L453,0 L365,0 L355,66 Q330,31 291.5,11.5 Q253,-8 199,-8 Q167,-8 139,1 Q111,10 90,29 Q69,48 56.5,77 Q44,106 44,145 M154,145 Q154,119 169,101.5 Q184,84 217,84 Q241,84 264.5,92 Q288,100 307,115.5 Q326,131 337.5,155 Q349,179 349,212 L349,223 L258,223 Q210,223 182,202 Q154,181 154,145 M242,742 L272,742 L434,566 L334,566 L257,646 L180,566 L80,566"/> 
            <glyph glyph-name="ã" unicode="&#xE3;" horiz-adv-x="453" d=" M44,145 Q44,184 60,214.5 Q76,245 104.5,266.5 Q133,288 173.5,299 Q214,310 262,310 L349,310 L349,332 Q349,379 320,399.5 Q291,420 251,420 Q220,420 195,403.5 Q170,387 157,353 L62,373 Q78,437 128.5,474.5 Q179,512 252,512 Q296,512 333,501.5 Q370,491 396.5,468 Q423,445 438,406.5 Q453,368 453,313 L453,0 L365,0 L355,66 Q330,31 291.5,11.5 Q253,-8 199,-8 Q167,-8 139,1 Q111,10 90,29 Q69,48 56.5,77 Q44,106 44,145 M154,145 Q154,119 169,101.5 Q184,84 217,84 Q241,84 264.5,92 Q288,100 307,115.5 Q326,131 337.5,155 Q349,179 349,212 L349,223 L258,223 Q210,223 182,202 Q154,181 154,145 M75,624 Q82,640 94.5,654.5 Q107,669 122,680.5 Q137,692 154.5,698.5 Q172,705 190,705 Q217,705 233.5,698.5 Q250,692 263,684.5 Q276,677 288.5,670.5 Q301,664 321,664 Q341,664 357,675.5 Q373,687 387,704 L444,657 Q436,641 424,626.5 Q412,612 397,600.5 Q382,589 364.5,582.5 Q347,576 329,576 Q302,576 285.5,582.5 Q269,589 256,596.5 Q243,604 230,610.5 Q217,617 198,617 Q178,617 162,605.5 Q146,594 132,577"/> 
            <glyph glyph-name="ä" unicode="&#xE4;" horiz-adv-x="453" d=" M44,145 Q44,184 60,214.5 Q76,245 104.5,266.5 Q133,288 173.5,299 Q214,310 262,310 L349,310 L349,332 Q349,379 320,399.5 Q291,420 251,420 Q220,420 195,403.5 Q170,387 157,353 L62,373 Q78,437 128.5,474.5 Q179,512 252,512 Q296,512 333,501.5 Q370,491 396.5,468 Q423,445 438,406.5 Q453,368 453,313 L453,0 L365,0 L355,66 Q330,31 291.5,11.5 Q253,-8 199,-8 Q167,-8 139,1 Q111,10 90,29 Q69,48 56.5,77 Q44,106 44,145 M154,145 Q154,119 169,101.5 Q184,84 217,84 Q241,84 264.5,92 Q288,100 307,115.5 Q326,131 337.5,155 Q349,179 349,212 L349,223 L258,223 Q210,223 182,202 Q154,181 154,145 M100,651 Q100,678 118,696 Q136,714 163,714 Q190,714 208,696 Q226,678 226,651 Q226,624 208,606 Q190,588 163,588 Q136,588 118,606 Q100,624 100,651 M286,651 Q286,678 304,696 Q322,714 349,714 Q376,714 394,696 Q412,678 412,651 Q412,624 394,606 Q376,588 349,588 Q322,588 304,606 Q286,624 286,651"/> 
            <glyph glyph-name="å" unicode="&#xE5;" horiz-adv-x="453" d=" M44,145 Q44,184 60,214.5 Q76,245 104.5,266.5 Q133,288 173.5,299 Q214,310 262,310 L349,310 L349,332 Q349,379 320,399.5 Q291,420 251,420 Q220,420 195,403.5 Q170,387 157,353 L62,373 Q78,437 128.5,474.5 Q179,512 252,512 Q296,512 333,501.5 Q370,491 396.5,468 Q423,445 438,406.5 Q453,368 453,313 L453,0 L365,0 L355,66 Q330,31 291.5,11.5 Q253,-8 199,-8 Q167,-8 139,1 Q111,10 90,29 Q69,48 56.5,77 Q44,106 44,145 M154,145 Q154,119 169,101.5 Q184,84 217,84 Q241,84 264.5,92 Q288,100 307,115.5 Q326,131 337.5,155 Q349,179 349,212 L349,223 L258,223 Q210,223 182,202 Q154,181 154,145 M151,653 Q151,696 180,725.5 Q209,755 252,755 Q297,755 325,725.5 Q353,696 353,653 Q353,611 325,583 Q297,555 252,555 Q209,555 180,583 Q151,611 151,653 M216,654 Q216,638 226,627.5 Q236,617 252,617 Q269,617 278.5,627.5 Q288,638 288,654 Q288,671 278.5,682 Q269,693 252,693 Q236,693 226,682 Q216,671 216,654"/> 
            <glyph glyph-name="æ" unicode="&#xE6;" horiz-adv-x="816" d=" M816,223 L459,223 Q459,195 467,170 Q475,145 490.5,126 Q506,107 529.5,95.5 Q553,84 584,84 Q625,84 660.5,105.5 Q696,127 716,169 L805,134 Q787,98 766,71.5 Q745,45 719,27.5 Q693,10 660,1 Q627,-8 584,-8 Q510,-8 461,24 Q412,56 385,105 Q369,72 347.5,50.5 Q326,29 301.5,16 Q277,3 250.5,-2.5 Q224,-8 199,-8 Q167,-8 139,1 Q111,10 90,29 Q69,48 56.5,77 Q44,106 44,145 Q44,184 60,214.5 Q76,245 104.5,266.5 Q133,288 173.5,299 Q214,310 262,310 L349,310 L349,332 Q349,356 340.5,373 Q332,390 318,400.5 Q304,411 286,415.5 Q268,420 248,420 Q217,420 190.5,404.5 Q164,389 152,354 L64,373 Q78,437 126,474.5 Q174,512 248,512 Q302,512 346,496 Q390,480 417,443 Q446,474 487,493 Q528,512 584,512 Q644,512 688,490 Q732,468 760.5,432.5 Q789,397 802.5,353.5 Q816,310 816,268 M154,145 Q154,119 169,101.5 Q184,84 217,84 Q241,84 264.5,92 Q288,100 307,115.5 Q326,131 337.5,155 Q349,179 349,212 L349,227 L258,227 Q210,227 182,204 Q154,181 154,145 M584,420 Q532,420 500.5,389 Q469,358 461,310 L706,310 Q703,331 694,351 Q685,371 670,386 Q655,401 633.5,410.5 Q612,420 584,420"/> 
            <glyph glyph-name="ç" unicode="&#xE7;" horiz-adv-x="504" d=" M504,131 Q474,62 420.5,27 Q367,-8 286,-8 Q226,-8 181.5,13 Q137,34 107.5,70 Q78,106 63.5,153 Q49,200 49,252 Q49,304 63.5,351 Q78,398 107.5,434 Q137,470 181.5,491 Q226,512 286,512 Q367,512 420.5,477 Q474,442 504,373 L411,333 Q393,374 362,397 Q331,420 286,420 Q253,420 229,407 Q205,394 189.5,371.5 Q174,349 166.5,318.5 Q159,288 159,252 Q159,216 166.5,185.5 Q174,155 189.5,132.5 Q205,110 229,97 Q253,84 286,84 Q331,84 362,107 Q393,130 411,171 M278,-251 L157,-195 L281,-60 L362,-60"/> 
            <glyph glyph-name="è" unicode="&#xE8;" horiz-adv-x="516" d=" M284,420 Q232,420 200.5,389 Q169,358 161,310 L406,310 Q403,331 394,351 Q385,371 370,386 Q355,401 333.5,410.5 Q312,420 284,420 M516,223 L159,223 Q159,195 167,170 Q175,145 190.5,126 Q206,107 229.5,95.5 Q253,84 284,84 Q325,84 360.5,105.5 Q396,127 416,169 L505,134 Q487,98 466,71.5 Q445,45 419,27.5 Q393,10 360,1 Q327,-8 284,-8 Q222,-8 177.5,15.5 Q133,39 104.5,76.5 Q76,114 62.5,160.5 Q49,207 49,252 Q49,297 62.5,343 Q76,389 104.5,426.5 Q133,464 177.5,488 Q222,512 284,512 Q344,512 388,490 Q432,468 460.5,432.5 Q489,397 502.5,353.5 Q516,310 516,268 M349,560 L269,560 L140,708 L281,708"/> 
            <glyph glyph-name="é" unicode="&#xE9;" horiz-adv-x="516" d=" M284,420 Q232,420 200.5,389 Q169,358 161,310 L406,310 Q403,331 394,351 Q385,371 370,386 Q355,401 333.5,410.5 Q312,420 284,420 M516,223 L159,223 Q159,195 167,170 Q175,145 190.5,126 Q206,107 229.5,95.5 Q253,84 284,84 Q325,84 360.5,105.5 Q396,127 416,169 L505,134 Q487,98 466,71.5 Q445,45 419,27.5 Q393,10 360,1 Q327,-8 284,-8 Q222,-8 177.5,15.5 Q133,39 104.5,76.5 Q76,114 62.5,160.5 Q49,207 49,252 Q49,297 62.5,343 Q76,389 104.5,426.5 Q133,464 177.5,488 Q222,512 284,512 Q344,512 388,490 Q432,468 460.5,432.5 Q489,397 502.5,353.5 Q516,310 516,268 M279,708 L420,708 L291,560 L211,560"/> 
            <glyph glyph-name="ê" unicode="&#xEA;" horiz-adv-x="516" d=" M284,420 Q232,420 200.5,389 Q169,358 161,310 L406,310 Q403,331 394,351 Q385,371 370,386 Q355,401 333.5,410.5 Q312,420 284,420 M516,223 L159,223 Q159,195 167,170 Q175,145 190.5,126 Q206,107 229.5,95.5 Q253,84 284,84 Q325,84 360.5,105.5 Q396,127 416,169 L505,134 Q487,98 466,71.5 Q445,45 419,27.5 Q393,10 360,1 Q327,-8 284,-8 Q222,-8 177.5,15.5 Q133,39 104.5,76.5 Q76,114 62.5,160.5 Q49,207 49,252 Q49,297 62.5,343 Q76,389 104.5,426.5 Q133,464 177.5,488 Q222,512 284,512 Q344,512 388,490 Q432,468 460.5,432.5 Q489,397 502.5,353.5 Q516,310 516,268 M270,742 L300,742 L462,566 L362,566 L285,646 L208,566 L108,566"/> 
            <glyph glyph-name="ë" unicode="&#xEB;" horiz-adv-x="516" d=" M284,420 Q232,420 200.5,389 Q169,358 161,310 L406,310 Q403,331 394,351 Q385,371 370,386 Q355,401 333.5,410.5 Q312,420 284,420 M516,223 L159,223 Q159,195 167,170 Q175,145 190.5,126 Q206,107 229.5,95.5 Q253,84 284,84 Q325,84 360.5,105.5 Q396,127 416,169 L505,134 Q487,98 466,71.5 Q445,45 419,27.5 Q393,10 360,1 Q327,-8 284,-8 Q222,-8 177.5,15.5 Q133,39 104.5,76.5 Q76,114 62.5,160.5 Q49,207 49,252 Q49,297 62.5,343 Q76,389 104.5,426.5 Q133,464 177.5,488 Q222,512 284,512 Q344,512 388,490 Q432,468 460.5,432.5 Q489,397 502.5,353.5 Q516,310 516,268 M130,651 Q130,678 148,696 Q166,714 193,714 Q220,714 238,696 Q256,678 256,651 Q256,624 238,606 Q220,588 193,588 Q166,588 148,606 Q130,624 130,651 M316,651 Q316,678 334,696 Q352,714 379,714 Q406,714 424,696 Q442,678 442,651 Q442,624 424,606 Q406,588 379,588 Q352,588 334,606 Q316,624 316,651"/> 
            <glyph glyph-name="ì" unicode="&#xEC;" horiz-adv-x="208" d=" M185,504 L185,0 L81,0 L81,504 M464,560 L384,560 L255,708 L396,708"/> 
            <glyph glyph-name="í" unicode="&#xED;" horiz-adv-x="268" d=" M185,504 L185,0 L81,0 L81,504 M127,708 L268,708 L139,560 L59,560"/> 
            <glyph glyph-name="î" unicode="&#xEE;" horiz-adv-x="310" d=" M185,504 L185,0 L81,0 L81,504 M374,742 L404,742 L566,566 L466,566 L389,646 L312,566 L212,566"/> 
            <glyph glyph-name="ï" unicode="&#xEF;" horiz-adv-x="289" d=" M185,504 L185,0 L81,0 L81,504 M233,651 Q233,678 251,696 Q269,714 296,714 Q323,714 341,696 Q359,678 359,651 Q359,624 341,606 Q323,588 296,588 Q269,588 251,606 Q233,624 233,651 M419,651 Q419,678 437,696 Q455,714 482,714 Q509,714 527,696 Q545,678 545,651 Q545,624 527,606 Q509,588 482,588 Q455,588 437,606 Q419,624 419,651"/> 
            <glyph glyph-name="ð" unicode="&#xF0;" horiz-adv-x="533" d=" M189,586 L222,634 Q203,645 182.5,654.5 Q162,664 140,674 L191,750 Q213,740 233.5,730 Q254,720 273,709 L308,761 L376,713 L342,664 Q396,622 432.5,575 Q469,528 491.5,476.5 Q514,425 523.5,368.5 Q533,312 533,252 Q533,199 517,151.5 Q501,104 470.5,68.5 Q440,33 394.5,12.5 Q349,-8 291,-8 Q232,-8 187,12.5 Q142,33 111.5,68.5 Q81,104 65,151.5 Q49,199 49,252 Q49,305 65,352.5 Q81,400 111.5,435.5 Q142,471 187,491.5 Q232,512 291,512 Q319,512 343,504.5 Q367,497 383,485 Q369,515 347.5,540 Q326,565 292,590 L257,538 M159,252 Q159,220 167,190 Q175,160 191,136.5 Q207,113 232,98.5 Q257,84 291,84 Q325,84 350,98.5 Q375,113 391,136.5 Q407,160 415,190 Q423,220 423,252 Q423,284 415,314 Q407,344 391,367.5 Q375,391 350,405.5 Q325,420 291,420 Q257,420 232,405.5 Q207,391 191,367.5 Q175,344 167,314 Q159,284 159,252"/> 
            <glyph glyph-name="ñ" unicode="&#xF1;" horiz-adv-x="501" d=" M190,504 L190,418 Q217,463 259.5,487.5 Q302,512 353,512 Q419,512 460,473.5 Q501,435 501,361 L501,0 L397,0 L397,328 Q397,379 375.5,399.5 Q354,420 319,420 Q295,420 271.5,406 Q248,392 230,364.5 Q212,337 201,296.5 Q190,256 190,204 L190,0 L86,0 L86,504 M118,624 Q125,640 137.5,654.5 Q150,669 165,680.5 Q180,692 197.5,698.5 Q215,705 233,705 Q260,705 276.5,698.5 Q293,692 306,684.5 Q319,677 331.5,670.5 Q344,664 364,664 Q384,664 400,675.5 Q416,687 430,704 L487,657 Q479,641 467,626.5 Q455,612 440,600.5 Q425,589 407.5,582.5 Q390,576 372,576 Q345,576 328.5,582.5 Q312,589 299,596.5 Q286,604 273,610.5 Q260,617 241,617 Q221,617 205,605.5 Q189,594 175,577"/> 
            <glyph glyph-name="ò" unicode="&#xF2;" horiz-adv-x="545" d=" M49,252 Q49,305 66,352.5 Q83,400 114.5,435.5 Q146,471 192,491.5 Q238,512 297,512 Q355,512 401.5,491.5 Q448,471 479.5,435.5 Q511,400 528,352.5 Q545,305 545,252 Q545,199 528,151.5 Q511,104 479.5,68.5 Q448,33 401.5,12.5 Q355,-8 297,-8 Q238,-8 192,12.5 Q146,33 114.5,68.5 Q83,104 66,151.5 Q49,199 49,252 M159,252 Q159,220 168,190 Q177,160 194,136.5 Q211,113 237,98.5 Q263,84 297,84 Q331,84 357,98.5 Q383,113 400,136.5 Q417,160 426,190 Q435,220 435,252 Q435,284 426,314 Q417,344 400,367.5 Q383,391 357,405.5 Q331,420 297,420 Q263,420 237,405.5 Q211,391 194,367.5 Q177,344 168,314 Q159,284 159,252 M362,560 L282,560 L153,708 L294,708"/> 
            <glyph glyph-name="ó" unicode="&#xF3;" horiz-adv-x="545" d=" M49,252 Q49,305 66,352.5 Q83,400 114.5,435.5 Q146,471 192,491.5 Q238,512 297,512 Q355,512 401.5,491.5 Q448,471 479.5,435.5 Q511,400 528,352.5 Q545,305 545,252 Q545,199 528,151.5 Q511,104 479.5,68.5 Q448,33 401.5,12.5 Q355,-8 297,-8 Q238,-8 192,12.5 Q146,33 114.5,68.5 Q83,104 66,151.5 Q49,199 49,252 M159,252 Q159,220 168,190 Q177,160 194,136.5 Q211,113 237,98.5 Q263,84 297,84 Q331,84 357,98.5 Q383,113 400,136.5 Q417,160 426,190 Q435,220 435,252 Q435,284 426,314 Q417,344 400,367.5 Q383,391 357,405.5 Q331,420 297,420 Q263,420 237,405.5 Q211,391 194,367.5 Q177,344 168,314 Q159,284 159,252 M294,708 L435,708 L306,560 L226,560"/> 
            <glyph glyph-name="ô" unicode="&#xF4;" horiz-adv-x="545" d=" M49,252 Q49,305 66,352.5 Q83,400 114.5,435.5 Q146,471 192,491.5 Q238,512 297,512 Q355,512 401.5,491.5 Q448,471 479.5,435.5 Q511,400 528,352.5 Q545,305 545,252 Q545,199 528,151.5 Q511,104 479.5,68.5 Q448,33 401.5,12.5 Q355,-8 297,-8 Q238,-8 192,12.5 Q146,33 114.5,68.5 Q83,104 66,151.5 Q49,199 49,252 M159,252 Q159,220 168,190 Q177,160 194,136.5 Q211,113 237,98.5 Q263,84 297,84 Q331,84 357,98.5 Q383,113 400,136.5 Q417,160 426,190 Q435,220 435,252 Q435,284 426,314 Q417,344 400,367.5 Q383,391 357,405.5 Q331,420 297,420 Q263,420 237,405.5 Q211,391 194,367.5 Q177,344 168,314 Q159,284 159,252 M282,742 L312,742 L474,566 L374,566 L297,646 L220,566 L120,566"/> 
            <glyph glyph-name="õ" unicode="&#xF5;" horiz-adv-x="545" d=" M49,252 Q49,305 66,352.5 Q83,400 114.5,435.5 Q146,471 192,491.5 Q238,512 297,512 Q355,512 401.5,491.5 Q448,471 479.5,435.5 Q511,400 528,352.5 Q545,305 545,252 Q545,199 528,151.5 Q511,104 479.5,68.5 Q448,33 401.5,12.5 Q355,-8 297,-8 Q238,-8 192,12.5 Q146,33 114.5,68.5 Q83,104 66,151.5 Q49,199 49,252 M159,252 Q159,220 168,190 Q177,160 194,136.5 Q211,113 237,98.5 Q263,84 297,84 Q331,84 357,98.5 Q383,113 400,136.5 Q417,160 426,190 Q435,220 435,252 Q435,284 426,314 Q417,344 400,367.5 Q383,391 357,405.5 Q331,420 297,420 Q263,420 237,405.5 Q211,391 194,367.5 Q177,344 168,314 Q159,284 159,252 M112,624 Q119,640 131.5,654.5 Q144,669 159,680.5 Q174,692 191.5,698.5 Q209,705 227,705 Q254,705 270.5,698.5 Q287,692 300,684.5 Q313,677 325.5,670.5 Q338,664 358,664 Q378,664 394,675.5 Q410,687 424,704 L481,657 Q473,641 461,626.5 Q449,612 434,600.5 Q419,589 401.5,582.5 Q384,576 366,576 Q339,576 322.5,582.5 Q306,589 293,596.5 Q280,604 267,610.5 Q254,617 235,617 Q215,617 199,605.5 Q183,594 169,577"/> 
            <glyph glyph-name="ö" unicode="&#xF6;" horiz-adv-x="545" d=" M49,252 Q49,305 66,352.5 Q83,400 114.5,435.5 Q146,471 192,491.5 Q238,512 297,512 Q355,512 401.5,491.5 Q448,471 479.5,435.5 Q511,400 528,352.5 Q545,305 545,252 Q545,199 528,151.5 Q511,104 479.5,68.5 Q448,33 401.5,12.5 Q355,-8 297,-8 Q238,-8 192,12.5 Q146,33 114.5,68.5 Q83,104 66,151.5 Q49,199 49,252 M159,252 Q159,220 168,190 Q177,160 194,136.5 Q211,113 237,98.5 Q263,84 297,84 Q331,84 357,98.5 Q383,113 400,136.5 Q417,160 426,190 Q435,220 435,252 Q435,284 426,314 Q417,344 400,367.5 Q383,391 357,405.5 Q331,420 297,420 Q263,420 237,405.5 Q211,391 194,367.5 Q177,344 168,314 Q159,284 159,252 M141,651 Q141,678 159,696 Q177,714 204,714 Q231,714 249,696 Q267,678 267,651 Q267,624 249,606 Q231,588 204,588 Q177,588 159,606 Q141,624 141,651 M327,651 Q327,678 345,696 Q363,714 390,714 Q417,714 435,696 Q453,678 453,651 Q453,624 435,606 Q417,588 390,588 Q363,588 345,606 Q327,624 327,651"/> 
            <glyph glyph-name="÷" unicode="&#xF7;" horiz-adv-x="490" d=" M267,202 Q298,202 319.5,181 Q341,160 341,128 Q341,96 319.5,75 Q298,54 267,54 Q236,54 214.5,75 Q193,96 193,128 Q193,160 214.5,181 Q236,202 267,202 M267,574 Q298,574 319.5,553 Q341,532 341,500 Q341,468 319.5,447 Q298,426 267,426 Q236,426 214.5,447 Q193,468 193,500 Q193,532 214.5,553 Q236,574 267,574 M45,363 L490,363 L490,271 L45,271"/> 
            <glyph glyph-name="ø" unicode="&#xF8;" horiz-adv-x="549" d=" M45,4 L105,81 Q78,116 63.5,159.5 Q49,203 49,252 Q49,305 66,352.5 Q83,400 114.5,435.5 Q146,471 192,491.5 Q238,512 297,512 Q332,512 363,504 Q394,496 420,482 L476,554 L549,500 L489,423 Q516,388 530.5,344.5 Q545,301 545,252 Q545,199 528,151.5 Q511,104 479.5,68.5 Q448,33 401.5,12.5 Q355,-8 297,-8 Q262,-8 231,0 Q200,8 174,22 L118,-50 M435,252 Q435,294 419,334 L235,100 Q264,84 297,84 Q331,84 357,98.5 Q383,113 400,136.5 Q417,160 426,190 Q435,220 435,252 M159,252 Q159,210 175,170 L359,404 Q330,420 297,420 Q263,420 237,405.5 Q211,391 194,367.5 Q177,344 168,314 Q159,284 159,252"/> 
            <glyph glyph-name="ù" unicode="&#xF9;" horiz-adv-x="494" d=" M390,0 L390,86 Q363,41 320.5,16.5 Q278,-8 227,-8 Q161,-8 120,30.5 Q79,69 79,143 L79,504 L183,504 L183,176 Q183,125 204.5,104.5 Q226,84 261,84 Q285,84 308.5,98 Q332,112 350,139.5 Q368,167 379,207.5 Q390,248 390,300 L390,504 L494,504 L494,0 M343,560 L263,560 L134,708 L275,708"/> 
            <glyph glyph-name="ú" unicode="&#xFA;" horiz-adv-x="494" d=" M390,0 L390,86 Q363,41 320.5,16.5 Q278,-8 227,-8 Q161,-8 120,30.5 Q79,69 79,143 L79,504 L183,504 L183,176 Q183,125 204.5,104.5 Q226,84 261,84 Q285,84 308.5,98 Q332,112 350,139.5 Q368,167 379,207.5 Q390,248 390,300 L390,504 L494,504 L494,0 M289,708 L430,708 L301,560 L221,560"/> 
            <glyph glyph-name="û" unicode="&#xFB;" horiz-adv-x="494" d=" M390,0 L390,86 Q363,41 320.5,16.5 Q278,-8 227,-8 Q161,-8 120,30.5 Q79,69 79,143 L79,504 L183,504 L183,176 Q183,125 204.5,104.5 Q226,84 261,84 Q285,84 308.5,98 Q332,112 350,139.5 Q368,167 379,207.5 Q390,248 390,300 L390,504 L494,504 L494,0 M272,742 L302,742 L464,566 L364,566 L287,646 L210,566 L110,566"/> 
            <glyph glyph-name="ü" unicode="&#xFC;" horiz-adv-x="494" d=" M390,0 L390,86 Q363,41 320.5,16.5 Q278,-8 227,-8 Q161,-8 120,30.5 Q79,69 79,143 L79,504 L183,504 L183,176 Q183,125 204.5,104.5 Q226,84 261,84 Q285,84 308.5,98 Q332,112 350,139.5 Q368,167 379,207.5 Q390,248 390,300 L390,504 L494,504 L494,0 M134,651 Q134,678 152,696 Q170,714 197,714 Q224,714 242,696 Q260,678 260,651 Q260,624 242,606 Q224,588 197,588 Q170,588 152,606 Q134,624 134,651 M320,651 Q320,678 338,696 Q356,714 383,714 Q410,714 428,696 Q446,678 446,651 Q446,624 428,606 Q410,588 383,588 Q356,588 338,606 Q320,624 320,651"/> 
            <glyph glyph-name="ý" unicode="&#xFD;" horiz-adv-x="462" d=" M118,504 L237,165 L352,504 L462,504 L207,-204 L103,-204 L185,25 L8,504 M247,708 L388,708 L259,560 L179,560"/> 
            <glyph glyph-name="þ" unicode="&#xFE;" horiz-adv-x="552" d=" M552,252 Q552,131 495.5,61.5 Q439,-8 327,-8 Q302,-8 280,-2 Q258,4 240,14 Q222,24 209,35.5 Q196,47 190,58 L190,-204 L86,-204 L86,708 L190,708 L190,448 Q199,460 214,471.5 Q229,483 247.5,492 Q266,501 286,506.5 Q306,512 325,512 Q382,512 424.5,493.5 Q467,475 495.5,440.5 Q524,406 538,358 Q552,310 552,252 M442,252 Q442,291 432.5,322 Q423,353 405.5,375 Q388,397 364.5,408.5 Q341,420 313,420 Q285,420 261.5,408.5 Q238,397 220.5,375 Q203,353 193.5,322 Q184,291 184,252 Q184,213 193.5,182 Q203,151 220.5,129 Q238,107 261.5,95.5 Q285,84 313,84 Q341,84 364.5,95.5 Q388,107 405.5,129 Q423,151 432.5,182 Q442,213 442,252"/> 
            <glyph glyph-name="ÿ" unicode="&#xFF;" horiz-adv-x="462" d=" M118,504 L237,165 L352,504 L462,504 L207,-204 L103,-204 L185,25 L8,504 M82,651 Q82,678 100,696 Q118,714 145,714 Q172,714 190,696 Q208,678 208,651 Q208,624 190,606 Q172,588 145,588 Q118,588 100,606 Q82,624 82,651 M268,651 Q268,678 286,696 Q304,714 331,714 Q358,714 376,696 Q394,678 394,651 Q394,624 376,606 Q358,588 331,588 Q304,588 286,606 Q268,624 268,651"/> 
            <glyph glyph-name="ı" unicode="&#x131;" horiz-adv-x="185" d=" M185,504 L185,0 L81,0 L81,504"/> 
            <glyph glyph-name="Ł" unicode="&#x141;" horiz-adv-x="518" d=" M-1,297 L106,357 L106,700 L216,700 L216,418 L323,478 L368,396 L216,311 L216,104 L518,104 L518,0 L106,0 L106,250 L44,216"/> 
            <glyph glyph-name="ł" unicode="&#x142;" horiz-adv-x="330" d=" M227,708 L227,443 L287,476 L330,395 L227,339 L227,0 L123,0 L123,282 L63,249 L20,330 L123,386 L123,708"/> 
            <glyph glyph-name="Œ" unicode="&#x152;" horiz-adv-x="1008" d=" M998,700 L998,596 L693,596 L693,424 L939,424 L939,320 L693,320 L693,104 L1008,104 L1008,0 L583,0 L583,69 Q539,31 485.5,11.5 Q432,-8 372,-8 Q308,-8 250,14.5 Q192,37 147.5,81.5 Q103,126 77,193 Q51,260 51,350 Q51,440 77,507 Q103,574 147.5,618.5 Q192,663 250,685.5 Q308,708 372,708 Q432,708 485.5,688.5 Q539,669 583,631 L583,700 M372,604 Q330,604 292,588.5 Q254,573 225.5,541.5 Q197,510 180,462.5 Q163,415 163,350 Q163,285 180,237.5 Q197,190 225.5,158.5 Q254,127 292,111.5 Q330,96 372,96 Q414,96 452,111.5 Q490,127 518.5,158.5 Q547,190 564,237.5 Q581,285 581,350 Q581,415 564,462.5 Q547,510 518.5,541.5 Q490,573 452,588.5 Q414,604 372,604"/> 
            <glyph glyph-name="œ" unicode="&#x153;" horiz-adv-x="902" d=" M902,223 L545,223 Q545,195 553,170 Q561,145 576.5,126 Q592,107 615.5,95.5 Q639,84 670,84 Q711,84 746.5,105.5 Q782,127 802,169 L891,134 Q873,98 852,71.5 Q831,45 805,27.5 Q779,10 746,1 Q713,-8 670,-8 Q606,-8 561.5,16.5 Q517,41 488,80 Q456,39 408,15.5 Q360,-8 297,-8 Q238,-8 192,12.5 Q146,33 114.5,68.5 Q83,104 66,151.5 Q49,199 49,252 Q49,305 66,352.5 Q83,400 114.5,435.5 Q146,471 192,491.5 Q238,512 297,512 Q360,512 408,488.5 Q456,465 488,424 Q517,463 561.5,487.5 Q606,512 670,512 Q730,512 774,490 Q818,468 846.5,432.5 Q875,397 888.5,353.5 Q902,310 902,268 M159,252 Q159,220 168,190 Q177,160 194,136.5 Q211,113 237,98.5 Q263,84 297,84 Q331,84 357,98.5 Q383,113 400,136.5 Q417,160 426,190 Q435,220 435,252 Q435,284 426,314 Q417,344 400,367.5 Q383,391 357,405.5 Q331,420 297,420 Q263,420 237,405.5 Q211,391 194,367.5 Q177,344 168,314 Q159,284 159,252 M670,420 Q618,420 586.5,389 Q555,358 547,310 L792,310 Q789,331 780,351 Q771,371 756,386 Q741,401 719.5,410.5 Q698,420 670,420"/> 
            <glyph glyph-name="Š" unicode="&#x160;" horiz-adv-x="488" d=" M365,531 Q324,608 261,608 Q227,608 207.5,585.5 Q188,563 188,532 Q188,497 210,474.5 Q232,452 265.5,434 Q299,416 338,398 Q377,380 410.5,355 Q444,330 466,294.5 Q488,259 488,205 Q488,157 471.5,117.5 Q455,78 425.5,50.5 Q396,23 356,7.5 Q316,-8 269,-8 Q223,-8 184.5,6.5 Q146,21 116.5,47.5 Q87,74 67,109.5 Q47,145 38,187 L128,244 Q135,215 147,188 Q159,161 176,140.5 Q193,120 216,108 Q239,96 269,96 Q317,96 346.5,125 Q376,154 376,201 Q376,235 354,257.5 Q332,280 299,298 Q266,316 227,333 Q188,350 155,374.5 Q122,399 100,434.5 Q78,470 78,524 Q78,564 92,597.5 Q106,631 131,655.5 Q156,680 189.5,694 Q223,708 261,708 Q333,708 379.5,674 Q426,640 454,590 M87,938 L187,938 L264,858 L341,938 L441,938 L279,762 L249,762"/> 
            <glyph glyph-name="š" unicode="&#x161;" horiz-adv-x="410" d=" M234,512 Q280,512 319.5,491 Q359,470 383,432 L317,374 Q298,398 275.5,409 Q253,420 229,420 Q209,420 194,407.5 Q179,395 179,370 Q179,343 204.5,328 Q230,313 269,298 Q294,288 319.5,276.5 Q345,265 365,248.5 Q385,232 397.5,209 Q410,186 410,152 Q410,119 398,90 Q386,61 363,39.5 Q340,18 307.5,5 Q275,-8 235,-8 Q196,-8 164.5,4 Q133,16 108.5,35.5 Q84,55 67,79 Q50,103 40,127 L128,175 Q135,158 145.5,141.5 Q156,125 170,112.5 Q184,100 201,92 Q218,84 239,84 Q269,84 288,99.5 Q307,115 307,150 Q307,166 296.5,177.5 Q286,189 269,197.5 Q252,206 230.5,214 Q209,222 187,231 Q165,240 145.5,252 Q126,264 111,280.5 Q96,297 87.5,318.5 Q79,340 79,369 Q79,398 90.5,424 Q102,450 122.5,469.5 Q143,489 171.5,500.5 Q200,512 234,512 M51,742 L151,742 L228,662 L305,742 L405,742 L243,566 L213,566"/> 
            <glyph glyph-name="Ÿ" unicode="&#x178;" horiz-adv-x="512" d=" M119,700 L257,409 L395,700 L512,700 L312,300 L312,0 L202,0 L202,300 L2,700 M102,847 Q102,874 120,892 Q138,910 165,910 Q192,910 210,892 Q228,874 228,847 Q228,820 210,802 Q192,784 165,784 Q138,784 120,802 Q102,820 102,847 M288,847 Q288,874 306,892 Q324,910 351,910 Q378,910 396,892 Q414,874 414,847 Q414,820 396,802 Q378,784 351,784 Q324,784 306,802 Q288,820 288,847"/> 
            <glyph glyph-name="Ž" unicode="&#x17D;" horiz-adv-x="518" d=" M53,700 L505,700 L505,646 L190,104 L518,104 L518,0 L38,0 L38,54 L357,596 L53,596 M101,938 L201,938 L278,858 L355,938 L455,938 L293,762 L263,762"/> 
            <glyph glyph-name="ž" unicode="&#x17E;" horiz-adv-x="419" d=" M61,504 L408,504 L408,462 L181,92 L419,92 L419,0 L46,0 L46,42 L273,412 L61,412 M59,742 L159,742 L236,662 L313,742 L413,742 L251,566 L221,566"/> 
            <glyph glyph-name="ƒ" unicode="&#x192;" horiz-adv-x="493" d=" M120,504 L205,504 L210,530 Q228,623 280.5,665.5 Q333,708 413,708 Q441,708 462,702.5 Q483,697 493,690 L455,602 Q441,610 426.5,613 Q412,616 398,616 Q365,616 344,597.5 Q323,579 315,537 L309,504 L420,504 L402,412 L291,412 L203,-34 Q185,-127 132.5,-169.5 Q80,-212 0,-212 Q-28,-212 -49,-206.5 Q-70,-201 -80,-194 L-42,-106 Q-28,-114 -13.5,-117 Q1,-120 15,-120 Q48,-120 69,-101.5 Q90,-83 98,-41 L187,412 L102,412"/> 
            <glyph glyph-name="ˆ" unicode="&#x2C6;" horiz-adv-x="383" d=" M191,742 L221,742 L383,566 L283,566 L206,646 L129,566 L29,566"/> 
            <glyph glyph-name="ˇ" unicode="&#x2C7;" horiz-adv-x="383" d=" M29,742 L129,742 L206,662 L283,742 L383,742 L221,566 L191,566"/> 
            <glyph glyph-name="˘" unicode="&#x2D8;" horiz-adv-x="239" d=" M239,700 Q239,678 230.5,658.5 Q222,639 207,624 Q192,609 171,600 Q150,591 124,591 Q98,591 77,600 Q56,609 41,624 Q26,639 17.5,658.5 Q9,678 9,700 L90,700 Q90,684 100,674.5 Q110,665 124,665 Q139,665 148.5,674.5 Q158,684 158,700"/> 
            <glyph glyph-name="˙" unicode="&#x2D9;" horiz-adv-x="211" d=" M67,646 Q67,676 87.5,697.5 Q108,719 139,719 Q170,719 190.5,697.5 Q211,676 211,646 Q211,616 190.5,595.5 Q170,575 139,575 Q108,575 87.5,595.5 Q67,616 67,646"/> 
            <glyph glyph-name="˚" unicode="&#x2DA;" horiz-adv-x="218" d=" M16,653 Q16,696 45,725.5 Q74,755 117,755 Q162,755 190,725.5 Q218,696 218,653 Q218,611 190,583 Q162,555 117,555 Q74,555 45,583 Q16,611 16,653 M81,654 Q81,638 91,627.5 Q101,617 117,617 Q134,617 143.5,627.5 Q153,638 153,654 Q153,671 143.5,682 Q134,693 117,693 Q101,693 91,682 Q81,671 81,654"/> 
            <glyph glyph-name="˛" unicode="&#x2DB;" horiz-adv-x="222" d=" M150,0 Q124,-23 109,-42.5 Q94,-62 94,-79 Q94,-107 122,-107 Q139,-107 149,-97 Q159,-87 174,-67 L222,-106 Q198,-142 173,-161 Q148,-180 109,-180 Q67,-180 42.5,-157.5 Q18,-135 18,-95 Q18,-66 35,-42.5 Q52,-19 81,0"/> 
            <glyph glyph-name="˜" unicode="&#x2DC;" horiz-adv-x="386" d=" M17,624 Q24,640 36.5,654.5 Q49,669 64,680.5 Q79,692 96.5,698.5 Q114,705 132,705 Q159,705 175.5,698.5 Q192,692 205,684.5 Q218,677 230.5,670.5 Q243,664 263,664 Q283,664 299,675.5 Q315,687 329,704 L386,657 Q378,641 366,626.5 Q354,612 339,600.5 Q324,589 306.5,582.5 Q289,576 271,576 Q244,576 227.5,582.5 Q211,589 198,596.5 Q185,604 172,610.5 Q159,617 140,617 Q120,617 104,605.5 Q88,594 74,577"/> 
            <glyph glyph-name="˝" unicode="&#x2DD;" horiz-adv-x="437" d=" M88,700 L229,700 L100,560 L20,560 M296,700 L437,700 L308,560 L228,560"/> 
            <glyph glyph-name="Ω" unicode="&#x3A9;" horiz-adv-x="620" d=" M72,94 L200,94 Q171,142 149,198 Q129,246 113.5,308.5 Q98,371 98,440 Q98,496 115.5,545 Q133,594 165.5,630 Q198,666 243.5,687 Q289,708 346,708 Q403,708 448.5,687 Q494,666 526.5,630 Q559,594 576.5,545 Q594,496 594,440 Q594,371 578,308.5 Q562,246 543,198 Q520,142 492,94 L620,94 L620,0 L387,0 L387,36 Q415,94 438,160 Q457,217 473,289.5 Q489,362 489,440 Q489,518 455.5,566 Q422,614 346,614 Q308,614 280.5,601.5 Q253,589 236,566 Q219,543 211,511 Q203,479 203,440 Q203,362 218.5,289.5 Q234,217 254,160 Q276,94 305,36 L305,0 L72,0"/> 
            <glyph glyph-name="π" unicode="&#x3C0;" horiz-adv-x="554" d=" M53,504 L554,504 L554,410 L469,410 L469,0 L365,0 L365,410 L242,410 L242,0 L138,0 L138,410 L53,410"/> 
            <glyph glyph-name="–" unicode="&#x2013;" horiz-adv-x="513" d=" M68,363 L513,363 L513,271 L68,271"/> 
            <glyph glyph-name="—" unicode="&#x2014;" horiz-adv-x="711" d=" M68,363 L711,363 L711,271 L68,271"/> 
            <glyph glyph-name="‘" unicode="&#x2018;" horiz-adv-x="271" d=" M271,486 L193,486 L54,708 L197,708"/> 
            <glyph glyph-name="’" unicode="&#x2019;" horiz-adv-x="264" d=" M121,708 L264,708 L125,486 L47,486"/> 
            <glyph glyph-name="‚" unicode="&#x201A;" horiz-adv-x="264" d=" M121,208 L264,208 L125,-14 L47,-14"/> 
            <glyph glyph-name="“" unicode="&#x201C;" horiz-adv-x="469" d=" M469,486 L391,486 L252,708 L395,708 M271,486 L193,486 L54,708 L197,708"/> 
            <glyph glyph-name="”" unicode="&#x201D;" horiz-adv-x="462" d=" M319,708 L462,708 L323,486 L245,486 M121,708 L264,708 L125,486 L47,486"/> 
            <glyph glyph-name="„" unicode="&#x201E;" horiz-adv-x="462" d=" M121,208 L264,208 L125,-14 L47,-14 M319,208 L462,208 L323,-14 L245,-14"/> 
            <glyph glyph-name="†" unicode="&#x2020;" horiz-adv-x="410" d=" M56,504 L183,504 L183,750 L283,750 L283,504 L410,504 L410,412 L283,412 L283,-50 L183,-50 L183,412 L56,412"/> 
            <glyph glyph-name="‡" unicode="&#x2021;" horiz-adv-x="410" d=" M56,504 L183,504 L183,750 L283,750 L283,504 L410,504 L410,412 L283,412 L283,288 L410,288 L410,196 L283,196 L283,-50 L183,-50 L183,196 L56,196 L56,288 L183,288 L183,412 L56,412"/> 
            <glyph glyph-name="•" unicode="&#x2022;" horiz-adv-x="291" d=" M81,330 Q81,375 111,405 Q141,435 186,435 Q231,435 261,405 Q291,375 291,330 Q291,285 261,255 Q231,225 186,225 Q141,225 111,255 Q81,285 81,330"/> 
            <glyph glyph-name="…" unicode="&#x2026;" horiz-adv-x="769" d=" M159,143 Q190,143 211.5,122 Q233,101 233,69 Q233,37 211.5,16 Q190,-5 159,-5 Q128,-5 106.5,16 Q85,37 85,69 Q85,101 106.5,122 Q128,143 159,143 M427,143 Q458,143 479.5,122 Q501,101 501,69 Q501,37 479.5,16 Q458,-5 427,-5 Q396,-5 374.5,16 Q353,37 353,69 Q353,101 374.5,122 Q396,143 427,143 M695,143 Q726,143 747.5,122 Q769,101 769,69 Q769,37 747.5,16 Q726,-5 695,-5 Q664,-5 642.5,16 Q621,37 621,69 Q621,101 642.5,122 Q664,143 695,143"/> 
            <glyph glyph-name="‰" unicode="&#x2030;" horiz-adv-x="1185" d=" M55,548 Q55,581 67.5,610.5 Q80,640 102,661.5 Q124,683 153.5,695.5 Q183,708 217,708 Q251,708 280.5,695.5 Q310,683 332,661.5 Q354,640 366.5,610.5 Q379,581 379,548 Q379,515 366.5,485.5 Q354,456 332,434.5 Q310,413 280.5,400.5 Q251,388 217,388 Q183,388 153.5,400.5 Q124,413 102,434.5 Q80,456 67.5,485.5 Q55,515 55,548 M143,548 Q143,515 162.5,493 Q182,471 217,471 Q252,471 271.5,493 Q291,515 291,548 Q291,581 271.5,603 Q252,625 217,625 Q182,625 162.5,603 Q143,581 143,548 M461,152 Q461,185 473.5,214.5 Q486,244 508,265.5 Q530,287 559.5,299.5 Q589,312 623,312 Q657,312 686.5,299.5 Q716,287 738,265.5 Q760,244 772.5,214.5 Q785,185 785,152 Q785,119 772.5,89.5 Q760,60 738,38.5 Q716,17 686.5,4.5 Q657,-8 623,-8 Q589,-8 559.5,4.5 Q530,17 508,38.5 Q486,60 473.5,89.5 Q461,119 461,152 M549,152 Q549,119 568.5,97 Q588,75 623,75 Q658,75 677.5,97 Q697,119 697,152 Q697,185 677.5,207 Q658,229 623,229 Q588,229 568.5,207 Q549,185 549,152 M861,152 Q861,185 873.5,214.5 Q886,244 908,265.5 Q930,287 959.5,299.5 Q989,312 1023,312 Q1057,312 1086.5,299.5 Q1116,287 1138,265.5 Q1160,244 1172.5,214.5 Q1185,185 1185,152 Q1185,119 1172.5,89.5 Q1160,60 1138,38.5 Q1116,17 1086.5,4.5 Q1057,-8 1023,-8 Q989,-8 959.5,4.5 Q930,17 908,38.5 Q886,60 873.5,89.5 Q861,119 861,152 M949,152 Q949,119 968.5,97 Q988,75 1023,75 Q1058,75 1077.5,97 Q1097,119 1097,152 Q1097,185 1077.5,207 Q1058,229 1023,229 Q988,229 968.5,207 Q949,185 949,152 M721,688 L182,-32 L124,13 L663,733"/> 
            <glyph glyph-name="‹" unicode="&#x2039;" horiz-adv-x="339" d=" M46,346 L339,552 L339,445 L150,310 L339,175 L339,68 L46,274"/> 
            <glyph glyph-name="›" unicode="&#x203A;" horiz-adv-x="346" d=" M346,274 L53,68 L53,175 L242,310 L53,445 L53,552 L346,346"/> 
            <glyph glyph-name="⁄" unicode="&#x2044;" horiz-adv-x="604" d=" M604,688 L65,-32 L7,13 L546,733"/> 
            <glyph glyph-name="€" unicode="&#x20AC;" horiz-adv-x="594" d=" M75,472 L127,472 Q138,531 162,575.5 Q186,620 220,649.5 Q254,679 297,693.5 Q340,708 390,708 Q462,708 513.5,678 Q565,648 594,594 L506,544 Q486,577 459.5,595.5 Q433,614 390,614 Q330,614 289.5,580.5 Q249,547 234,472 L447,472 L401,380 L225,380 L225,320 L447,320 L401,228 L234,228 Q249,153 289.5,119.5 Q330,86 390,86 Q433,86 459.5,104.5 Q486,123 506,156 L594,106 Q565,52 513.5,22 Q462,-8 390,-8 Q291,-8 220,50.5 Q149,109 127,228 L29,228 L75,320 L119,320 L119,380 L29,380"/> 
            <glyph glyph-name="™" unicode="&#x2122;" horiz-adv-x="753" d=" M25,700 L319,700 L319,624 L214,624 L214,300 L130,300 L130,624 L25,624 M381,700 L466,700 L567,456 L668,700 L753,700 L753,300 L669,300 L669,526 L594,337 L540,337 L465,526 L465,300 L381,300"/> 
            <glyph glyph-name="Ω" unicode="&#x2126;" horiz-adv-x="620" d=" M72,94 L200,94 Q171,142 149,198 Q129,246 113.5,308.5 Q98,371 98,440 Q98,496 115.5,545 Q133,594 165.5,630 Q198,666 243.5,687 Q289,708 346,708 Q403,708 448.5,687 Q494,666 526.5,630 Q559,594 576.5,545 Q594,496 594,440 Q594,371 578,308.5 Q562,246 543,198 Q520,142 492,94 L620,94 L620,0 L387,0 L387,36 Q415,94 438,160 Q457,217 473,289.5 Q489,362 489,440 Q489,518 455.5,566 Q422,614 346,614 Q308,614 280.5,601.5 Q253,589 236,566 Q219,543 211,511 Q203,479 203,440 Q203,362 218.5,289.5 Q234,217 254,160 Q276,94 305,36 L305,0 L72,0"/> 
            <glyph glyph-name="∂" unicode="&#x2202;" horiz-adv-x="549" d=" M46,213 Q46,275 66,329.5 Q86,384 123.5,424.5 Q161,465 215.5,488.5 Q270,512 339,512 Q370,512 396.5,503.5 Q423,495 437,482 Q428,546 395,581 Q362,616 305,616 Q273,616 243,596.5 Q213,577 198,535 L95,566 Q105,597 125.5,623 Q146,649 173.5,668 Q201,687 234.5,697.5 Q268,708 304,708 Q372,708 418.5,686.5 Q465,665 494,621.5 Q523,578 536,513.5 Q549,449 549,362 Q549,291 533.5,224 Q518,157 482.5,105.5 Q447,54 389.5,23 Q332,-8 248,-8 Q200,-8 162.5,8.5 Q125,25 99,54 Q73,83 59.5,124 Q46,165 46,213 M327,420 Q288,420 256,402 Q224,384 202,355.5 Q180,327 168,291 Q156,255 156,218 Q156,189 162,164.5 Q168,140 181,122 Q194,104 214,94 Q234,84 262,84 Q302,84 333.5,102.5 Q365,121 387,150.5 Q409,180 420.5,217 Q432,254 432,291 Q432,355 407,387.5 Q382,420 327,420"/> 
            <glyph glyph-name="∆" unicode="&#x2206;" horiz-adv-x="630" d=" M52,26 L297,700 L385,700 L630,26 L630,0 L52,0 M179,94 L503,94 L341,560"/> 
            <glyph glyph-name="∏" unicode="&#x220F;" horiz-adv-x="477" d=" M90,700 L477,700 L477,0 L373,0 L373,606 L194,606 L194,0 L90,0"/> 
            <glyph glyph-name="∑" unicode="&#x2211;" horiz-adv-x="485" d=" M55,0 L55,45 L247,350 L55,655 L55,700 L485,700 L485,606 L197,606 L351,362 L351,338 L197,94 L485,94 L485,0"/> 
            <glyph glyph-name="−" unicode="&#x2212;" horiz-adv-x="509" d=" M64,363 L509,363 L509,271 L64,271"/> 
            <glyph glyph-name="√" unicode="&#x221A;" horiz-adv-x="563" d=" M563,708 L346,0 L263,0 L165,295 L55,295 L55,389 L223,389 L303,148 L465,708"/> 
            <glyph glyph-name="∞" unicode="&#x221E;" horiz-adv-x="829" d=" M640,168 Q615,168 588,173.5 Q561,179 534.5,191 Q508,203 484.5,222 Q461,241 442,267 Q423,241 399.5,222 Q376,203 349.5,191 Q323,179 296,173.5 Q269,168 244,168 Q199,168 164,182 Q129,196 104.5,221 Q80,246 67.5,281.5 Q55,317 55,359 Q55,401 67.5,436.5 Q80,472 104.5,497 Q129,522 164,536 Q199,550 244,550 Q269,550 296,544.5 Q323,539 349.5,527 Q376,515 399.5,496 Q423,477 442,451 Q461,477 484.5,496 Q508,515 534.5,527 Q561,539 588,544.5 Q615,550 640,550 Q685,550 720,536 Q755,522 779.5,497 Q804,472 816.5,436.5 Q829,401 829,359 Q829,317 816.5,281.5 Q804,246 779.5,221 Q755,196 720,182 Q685,168 640,168 M259,260 Q288,260 324.5,282 Q361,304 390,359 Q361,414 324.5,436 Q288,458 259,458 Q215,458 187,433.5 Q159,409 159,359 Q159,309 187,284.5 Q215,260 259,260 M625,260 Q669,260 697,284.5 Q725,309 725,359 Q725,409 697,433.5 Q669,458 625,458 Q596,458 559.5,436 Q523,414 494,359 Q523,304 559.5,282 Q596,260 625,260"/> 
            <glyph glyph-name="∫" unicode="&#x222B;" horiz-adv-x="493" d=" M210,530 Q228,623 280.5,665.5 Q333,708 413,708 Q441,708 462,702.5 Q483,697 493,690 L455,602 Q441,610 426.5,613 Q412,616 398,616 Q365,616 344,597.5 Q323,579 315,537 L203,-34 Q185,-127 132.5,-169.5 Q80,-212 0,-212 Q-28,-212 -49,-206.5 Q-70,-201 -80,-194 L-42,-106 Q-28,-114 -13.5,-117 Q1,-120 15,-120 Q48,-120 69,-101.5 Q90,-83 98,-41"/> 
            <glyph glyph-name="≈" unicode="&#x2248;" horiz-adv-x="553" d=" M321,417 Q330,437 344.5,455.5 Q359,474 378,488 Q397,502 418.5,510 Q440,518 463,518 Q495,518 520,510 Q545,502 568,492 Q591,482 613,474 Q635,466 661,466 Q687,466 711.5,479 Q736,492 753,513 L809,453 Q800,433 785.5,414.5 Q771,396 752,382 Q733,368 711.5,360 Q690,352 667,352 Q635,352 610,360 Q585,368 562.5,378 Q540,388 517.5,396 Q495,404 469,404 Q443,404 418.5,391 Q394,378 377,357 M320,473 Q329,493 343.5,511.5 Q358,530 377,544 Q396,558 417.5,566 Q439,574 462,574 Q494,574 519,566 Q544,558 567,548 Q590,538 612,530 Q634,522 660,522 Q686,522 710.5,535 Q735,548 752,569 L808,509 Q799,489 784.5,470.5 Q770,452 751,438 Q732,424 710.5,416 Q689,408 666,408 Q634,408 609,416 Q584,424 561.5,434 Q539,444 516.5,452 Q494,460 468,460 Q442,460 417.5,447 Q393,434 376,413"/> 
            <glyph glyph-name="≠" unicode="&#x2260;" horiz-adv-x="490" d=" M75,439 L303,439 L364,546 L444,500 L409,439 L490,439 L490,347 L356,347 L314,273 L490,273 L490,181 L262,181 L201,74 L121,120 L156,181 L75,181 L75,273 L209,273 L251,347 L75,347"/> 
            <glyph glyph-name="≤" unicode="&#x2264;" horiz-adv-x="509" d=" M98,454 L462,646 L462,535 L208,402 L462,269 L462,158 L98,350 M52,92 L509,92 L509,0 L52,0"/> 
            <glyph glyph-name="≥" unicode="&#x2265;" horiz-adv-x="513" d=" M467,350 L103,158 L103,269 L357,402 L103,535 L103,646 L467,454 M513,0 L56,0 L56,92 L513,92"/> 
            <glyph glyph-name="◊" unicode="&#x25CA;" horiz-adv-x="526" d=" M64,350 L245,700 L345,700 L526,350 L345,0 L245,0 M423,350 L295,609 L167,350 L295,90"/> 
            </font>
</defs>
</svg>
