<?xml version="1.0" standalone="no"?>
<!DOCTYPE svg PUBLIC "-//W3C//DTD SVG 1.1//EN" "http://www.w3.org/Graphics/SVG/1.1/DTD/svg11.dtd" >
<svg xmlns="http://www.w3.org/2000/svg">
<metadata>Generated by IcoMoon</metadata>
<defs>
<font id="icomoon" horiz-adv-x="1024">
<font-face units-per-em="1024" ascent="960" descent="-64" />
<missing-glyph horiz-adv-x="1024" />
<glyph unicode="&#x20;" horiz-adv-x="512" d="" />
<glyph unicode="&#xe900;" glyph-name="instagram-over" d="M696.32 555.126c-3.151 18.905-11.028 36.234-25.206 50.412-12.603 11.028-26.782 17.329-42.535 18.905-15.754 3.151-33.083 3.151-50.412 3.151-53.563 0-108.702 1.575-162.265-1.575-7.877 0-15.754-1.575-22.055-3.151-17.329-3.151-33.083-11.028-45.686-25.206-11.028-12.603-17.329-26.782-18.905-40.96-3.151-17.329-3.151-34.658-3.151-51.988 0-48.837 0-97.674 0-146.511 0 0 0 0 0 0 0-4.726 1.575-9.452 1.575-14.178 0-12.603 3.151-25.206 7.877-37.809 4.726-14.178 14.178-25.206 26.782-34.658 14.178-11.028 31.508-15.754 50.412-17.329 14.178-1.575 26.782-1.575 40.96-1.575 45.686 0 89.797 0 135.483 1.575 12.603 0 26.782 1.575 39.385 3.151 20.48 3.151 36.234 11.028 50.412 26.782 11.028 12.603 17.329 26.782 18.905 42.535 3.151 15.754 3.151 33.083 3.151 50.412 0 47.262 0 92.948-1.575 140.209-1.575 11.028-1.575 23.631-3.151 37.809zM512 323.545c-64.591 0-119.729 51.988-118.154 121.305 1.575 61.44 51.988 116.578 121.305 115.003 61.44-1.575 116.578-51.988 115.003-121.305-1.575-63.015-51.988-115.003-118.154-115.003zM634.88 536.222c-14.178-1.575-28.357 12.603-28.357 28.357 0 12.603 12.603 26.782 28.357 26.782 14.178 0 28.357-12.603 26.782-29.932 0-12.603-12.603-26.782-26.782-25.206zM518.302 517.317c-48.837 3.151-78.769-36.234-81.92-70.892-3.151-47.262 36.234-78.769 70.892-81.92 47.262-3.151 81.92 37.809 80.345 75.618 1.575 42.535-34.658 74.043-69.317 77.194zM512 952.123c-278.843 0-504.123-225.28-504.123-504.123s225.28-504.123 504.123-504.123 504.123 225.28 504.123 504.123-225.28 504.123-504.123 504.123zM742.006 358.203c0 0-1.575-1.575-1.575-1.575-1.575-11.028-1.575-23.631-3.151-34.658-1.575-12.603-4.726-25.206-11.028-36.234-7.877-15.754-17.329-29.932-29.932-40.96-9.452-7.877-18.905-14.178-29.932-18.905-20.48-9.452-44.111-12.603-66.166-12.603-1.575 0-3.151 0-4.726-1.575-55.138 0-110.277 0-165.415 0 0 0-1.575 1.575-1.575 1.575-11.028 1.575-23.631 1.575-34.658 3.151-12.603 1.575-25.206 4.726-36.234 11.028-15.754 7.877-29.932 17.329-40.96 29.932-7.877 9.452-14.178 18.905-18.905 29.932-9.452 20.48-12.603 44.111-12.603 66.166 0 1.575 0 3.151-1.575 4.726 0 55.138 0 110.277 0 165.415 0 0 1.575 1.575 1.575 1.575 1.575 11.028 1.575 23.631 3.151 34.658 1.575 12.603 4.726 25.206 11.028 36.234 7.877 15.754 17.329 29.932 29.932 40.96 9.452 7.877 18.905 14.178 29.932 18.905 20.48 9.452 44.111 12.603 66.166 12.603 1.575 0 3.151 0 4.726 1.575 55.138 0 110.277 0 165.415 0 0 0 1.575-1.575 1.575-1.575 11.028-1.575 23.631-1.575 34.658-3.151 12.603-1.575 25.206-4.726 36.234-11.028 15.754-7.877 29.932-17.329 40.96-29.932 7.877-9.452 14.178-18.905 18.905-29.932 9.452-20.48 12.603-44.111 12.603-66.166 0-1.575 0-3.151 1.575-4.726 0-55.138 0-110.277 0-165.415z" />
<glyph unicode="&#xe901;" glyph-name="facebook-over" d="M513.6 948.8c-283.2 0-513.6-230.4-513.6-513.6s230.4-513.6 513.6-513.6 513.6 230.4 513.6 513.6-230.4 513.6-513.6 513.6zM721.6 249.6c0-12.8-9.6-22.4-22.4-22.4h-107.2v161.6h54.4l8 62.4h-62.4v40c0 17.6 4.8 30.4 30.4 30.4h33.6v56c-6.4 0-25.6 3.2-48 3.2-48 0-80-28.8-80-83.2v-46.4h-54.4v-62.4h54.4v-161.6h-200c-12.8 0-22.4 9.6-22.4 22.4v371.2c0 12.8 9.6 22.4 22.4 22.4h369.6c12.8 0 22.4-9.6 22.4-22.4v-371.2z" />
<glyph unicode="&#xe902;" glyph-name="arrow-down" d="M904.528 707.918c26.438 24.035 67.355 22.086 91.39-4.352s22.086-67.355-4.352-91.39l-431.304-392.095c-24.676-22.433-62.362-22.433-87.038 0l-431.304 392.095c-26.438 24.035-28.387 64.951-4.352 91.39s64.951 28.387 91.39 4.352l387.785-352.532 387.785 352.532z" />
<glyph unicode="&#xe903;" glyph-name="arrow-up" d="M904.528 188.082c26.438-24.035 67.355-22.086 91.39 4.352s22.086 67.355-4.352 91.39l-431.304 392.095c-24.676 22.433-62.362 22.433-87.038 0l-431.304-392.095c-26.438-24.035-28.387-64.951-4.352-91.39s64.951-28.387 91.39-4.352l387.785 352.532 387.785-352.532z" />
<glyph unicode="&#xe904;" glyph-name="circle-down" d="M512-64c-281.6 0-512 230.4-512 512s230.4 512 512 512 512-230.4 512-512-230.4-512-512-512zM512 923.429c-263.314 0-475.429-212.114-475.429-475.429s212.114-475.429 475.429-475.429c263.314 0 475.429 212.114 475.429 475.429s-212.114 475.429-475.429 475.429zM512 239.543c-7.314 0-10.971 3.657-14.629 7.314l-256 329.143 29.257 21.943 241.371-310.857 241.371 310.857 29.257-21.943-256-329.143c-3.657-3.657-7.314-7.314-14.629-7.314z" />
<glyph unicode="&#xe905;" glyph-name="tumblr-over" d="M628.578 312.517c-12.603-4.726-26.782-7.877-40.96-6.302-7.877 1.575-14.178 3.151-20.48 9.452-7.877 7.877-11.028 18.905-11.028 28.357 0 40.96 0 81.92 0 122.88 0 3.151 1.575 4.726 4.726 4.726 23.631 0 47.262 0 69.317 0 4.726 0 4.726 0 4.726 4.726 0 20.48 0 40.96 0 61.44 0 4.726 0 4.726-4.726 4.726-23.631 0-45.686 0-69.317 0-4.726 0-4.726 0-4.726 4.726 0 18.905 0 36.234 0 55.138 0 14.178 0 28.357 0 44.111 0 3.151 0 3.151-3.151 3.151-18.905 0-37.809 0-56.714 0-1.575 0-3.151-1.575-3.151-3.151-1.575-3.151-1.575-7.877-1.575-11.028-3.151-17.329-7.877-34.658-17.329-50.412-7.877-14.178-18.905-26.782-33.083-36.234-7.877-4.726-17.329-9.452-26.782-14.178-1.575-1.575-3.151-1.575-3.151-4.726 0-17.329 0-36.234 0-53.563 0-3.151 1.575-4.726 4.726-4.726 14.178 0 26.782 0 40.96 0 3.151 0 4.726-1.575 4.726-4.726 0-22.055 0-44.111 0-66.166s0-44.111 0-66.166c0-3.151 0-6.302 0-9.452 3.151-15.754 6.302-29.932 15.754-44.111 7.877-12.603 17.329-23.631 29.932-33.083 20.48-14.178 44.111-18.905 67.742-20.48 11.028 0 22.055 1.575 33.083 3.151 15.754 3.151 31.508 9.452 44.111 20.48 1.575 0 1.575 3.151 1.575 3.151-6.302 17.329-12.603 36.234-18.905 53.563-3.151 4.726-3.151 6.302-6.302 4.726zM513.575 952.123c-278.843 0-505.698-225.28-505.698-504.123s226.855-504.123 505.698-504.123 505.698 225.28 505.698 504.123-226.855 504.123-505.698 504.123zM669.538 244.775c-7.877-7.877-17.329-14.178-26.782-17.329-12.603-6.302-26.782-9.452-40.96-12.603-6.302-1.575-14.178-1.575-20.48-3.151-9.452 0-20.48-1.575-29.932 0-11.028 0-22.055 1.575-31.508 3.151-12.603 1.575-25.206 4.726-36.234 7.877-18.905 4.726-37.809 14.178-53.563 26.782-18.905 15.754-31.508 37.809-36.234 63.015-1.575 9.452-3.151 20.48-3.151 29.932 0 36.234 0 72.468 0 108.702 0 1.575 0 3.151 0 4.726-1.575 0-3.151 0-6.302 0-12.603 0-26.782 0-39.385 0-1.575 0-3.151 0-4.726 0 0 31.508 0 63.015 0 94.523 0 0 1.575 0 1.575 0 4.726 1.575 9.452 3.151 15.754 6.302 12.603 4.726 23.631 12.603 33.083 22.055s15.754 18.905 20.48 31.508c6.302 12.603 9.452 26.782 11.028 40.96 1.575 7.877 4.726 14.178 12.603 18.905 1.575 1.575 4.726 1.575 6.302 3.151 44.111 0 89.797 0 133.908 0 0-1.575 1.575-3.151 1.575-4.726 0-33.083 0-64.591 0-97.674 0-4.726 0-4.726 6.302-4.726 22.055 0 45.686 0 67.742 0 3.151 0 4.726-1.575 4.726-4.726 0-33.083 0-66.166 0-99.249 0-6.302 0-6.302-6.302-6.302-22.055 0-45.686 0-67.742 0-4.726 0-4.726 0-4.726-4.726 0-34.658 0-67.742 0-102.4 0 0 0-1.575 0-1.575 1.575-7.877 0-7.877 7.877-7.877 18.905 0 37.809 0 56.714 0 1.575 0 3.151 0 4.726-3.151 6.302-17.329 12.603-34.658 17.329-53.563 3.151-7.877 4.726-15.754 7.877-23.631s1.575-11.028-1.575-14.178z" />
<glyph unicode="&#xe906;" glyph-name="location-on" d="M504.819 519.092c-77.229 0-140.057 62.827-140.057 140.057s62.827 140.024 140.057 140.024c77.229 0 140.057-62.794 140.057-140.024s-62.827-140.057-140.057-140.057zM700.931 659.149c0 29.597-7.036 57.41-18.861 82.581 5.88 3.567 9.976 9.711 9.976 17.078 0 11.198-9.051 20.282-20.216 20.282-3.865 0-7.234-1.354-10.306-3.237-12.123 16.252-26.492 30.621-42.975 42.446 1.057 2.444 1.652 5.12 1.652 7.928 0 11.231-9.051 20.315-20.216 20.315-6.606 0-12.189-3.402-15.922-8.324-24.279 10.769-51.002 17.045-79.244 17.045-90.442 0-166.020-61.836-188.614-145.21-1.982 0.661-3.997 1.255-6.21 1.255-11.165 0-20.249-9.084-20.249-20.282 0-11.165 9.018-20.183 20.117-20.249-0.231-3.931-1.156-7.663-1.156-11.627 0-60.845 28.408-114.622 72.010-150.627-0.198 0-0.396 0.099-0.595 0.099-11.165 0-20.249-9.084-20.249-20.282s9.084-20.249 20.249-20.249c11.132 0 20.216 9.051 20.216 20.249 0 2.18-0.628 4.129-1.222 6.078 30.555-19.654 66.725-31.414 105.703-31.414 108.148 0 196.113 87.998 196.113 196.146zM545.752 80.463c0.066 0.76 0.462 1.42 0.462 2.213 0 11.198-9.084 20.282-20.249 20.282s-20.216-9.084-20.216-20.282c0-11.198 9.051-20.282 20.216-20.282 2.114 0 4.063 0.595 5.979 1.189-8.853-10.075-17.837-19.753-27.119-28.672-44.66 42.942-84.166 100.55-118.255 164.005 7.961 2.742 13.774 10.075 13.774 18.994 0 11.198-9.084 20.249-20.249 20.249-4.393 0-8.291-1.685-11.594-4.129-26.822 54.767-49.714 112.607-67.98 168.894 2.874-1.519 5.979-2.643 9.447-2.643 11.165 0 20.249 9.084 20.249 20.282s-9.084 20.282-20.249 20.282c-7.763 0-14.303-4.558-17.705-11-20.249 67.155-33.957 130.643-40.2 182.074 2.444 3.336 4.129 7.234 4.129 11.66 0 6.012-2.709 11.231-6.838 14.964-0.793 10.769-1.255 20.909-1.255 30.125 0 56.254 17.078 105.439 46.939 144.219 3.667-4.195 8.952-6.937 14.931-6.937 11.165 0 20.249 9.084 20.249 20.282 0 6.573-3.336 12.156-8.159 15.855 14.699 13.18 31.215 24.51 49.515 33.726 2.61-1.255 5.483-2.081 8.522-2.081 8.886 0 16.219 5.847 18.927 13.841 29.465 10.537 62.266 16.351 97.742 16.351h11.925c-1.718-2.973-2.94-6.243-2.94-9.91 0-11.165 9.051-20.282 20.216-20.282s20.249 9.117 20.249 20.282c0 2.94-0.694 5.682-1.817 8.192 116.241-11.627 198.656-87.469 214.181-195.815-3.468 2.94-7.829 4.922-12.75 4.922-11.165 0-20.216-9.084-20.216-20.315 0-11.165 9.051-20.249 20.216-20.249 6.21 0 11.561 2.973 15.294 7.399 0.066-3.171 0.396-6.243 0.396-9.48 0-25.567-3.237-57.707-9.348-93.878-2.048 0.661-4.096 1.288-6.342 1.288-11.165 0-20.216-9.084-20.216-20.282 0-10.802 8.489-19.456 19.093-20.051-11.759-56.023-29.498-118.949-52.719-182.305-0.165 11.033-9.117 19.951-20.183 19.951-11.132 0-20.216-9.084-20.216-20.282 0-11.165 9.084-20.282 20.216-20.282 5.946 0 11.132 2.676 14.865 6.739-22.297-58.863-49.185-117.331-80.268-170.479-2.048 0.727-4.129 1.321-6.408 1.321-11.165 0-20.249-9.084-20.249-20.315 0-5.682 2.411-10.802 6.21-14.501-12.783-19.588-26.261-37.855-40.2-55.131zM512.885 959.98h-16.12c-176.59 0-304.756-122.517-304.756-291.311 0-150.33 103.986-531.192 294.648-692.951 5.219-4.459 11.693-6.706 18.168-6.706 6.441 0 12.916 2.246 18.168 6.706 190.629 161.759 294.615 542.621 294.615 692.951 0 168.795-128.132 291.311-304.723 291.311zM309.978 576.076c-11.165 0-20.216-9.084-20.216-20.282s9.051-20.282 20.216-20.282c11.165 0 20.216 9.084 20.216 20.282s-9.051 20.282-20.216 20.282zM454.108 440.849c-11.165 0-20.183-9.084-20.183-20.282s9.018-20.282 20.183-20.282c11.165 0 20.216 9.084 20.216 20.282s-9.051 20.282-20.216 20.282zM599.978 440.849c-11.165 0-20.216-9.084-20.216-20.282s9.051-20.282 20.216-20.282c11.165 0 20.216 9.084 20.216 20.282s-9.051 20.282-20.216 20.282zM671.817 508.624c-11.165 0-20.216-9.084-20.216-20.282s9.051-20.282 20.216-20.282c11.165 0 20.216 9.084 20.216 20.282s-9.051 20.282-20.216 20.282zM454.108 305.624c-11.165 0-20.183-9.084-20.183-20.282s9.018-20.282 20.183-20.282c11.165 0 20.216 9.084 20.216 20.282s-9.051 20.282-20.216 20.282zM599.978 305.624c-11.165 0-20.216-9.084-20.216-20.282s9.051-20.282 20.216-20.282c11.165 0 20.216 9.084 20.216 20.282s-9.051 20.282-20.216 20.282zM380.109 373.397c-11.165 0-20.216-9.084-20.216-20.282s9.051-20.282 20.216-20.282c11.165 0 20.216 9.084 20.216 20.282s-9.051 20.282-20.216 20.282zM525.979 373.397c-11.165 0-20.216-9.084-20.216-20.282s9.051-20.282 20.216-20.282c11.165 0 20.216 9.084 20.216 20.282s-9.051 20.282-20.216 20.282zM454.108 170.397c-11.165 0-20.183-9.084-20.183-20.282s9.018-20.282 20.183-20.282c11.165 0 20.216 9.084 20.216 20.282s-9.051 20.282-20.216 20.282zM525.979 238.172c-11.165 0-20.216-9.051-20.216-20.282 0-11.198 9.051-20.282 20.216-20.282s20.216 9.084 20.216 20.282c0 11.231-9.051 20.282-20.216 20.282z" />
<glyph unicode="&#xe907;" glyph-name="logo-mobile" d="M987.867 602.053c-92.51-69.137-213.946-87.773-256.309-30.634-42.369 57.14 10.341 168.442 102.845 237.58 7.611 5.694 15.218 10.838 22.788 15.557-40.452 37.105-86.864 67.757-137.62 90.383 15.644-29.486 20.693-70.631 10.292-118.889-19.151-88.909-82.219-162.773-137.687-150.718-55.462 12.035-82.354 105.434-63.185 194.362 11.895 55.203 38.302 93.585 69.882 111.874-28.238 4.85-57.256 7.403-86.87 7.403-282.77 0-512.003-230.146-512.003-514.053 0-100.512 28.76-194.27 78.428-273.482 86.569 250.12 289.296 445.144 484.552 424.305 129.066-13.767 197.351-114.971 188.744-271.735-8.405-153.076-75.663-301.536-165.599-387.763 247.64 36.063 437.876 250.047 437.876 508.675 0 57.504-9.406 112.793-26.757 164.426-3.047-2.456-6.162-4.886-9.376-7.292zM327.53 579.094c-21.431-25.249-75.344-14.435-114.199 18.814-38.867 33.254-45.582 74.294-24.14 99.556 21.46 25.247 62.939 25.199 101.8-8.070 38.849-33.243 57.986-85.035 36.538-110.301zM452.044 638.806c-41.712-19.214-104.387 28.45-135.131 95.664-30.744 67.195-16.004 124.379 25.701 143.613 41.704 19.234 94.617-6.779 125.349-73.987 30.751-67.22 25.786-146.056-15.919-165.29zM764.042 194.595c10.358 43.822 16.988 88.47 19.415 132.761 1.026 18.71 1.149 36.784 0.404 54.247 62.664-5.7 151.419-67.072 151.443-99.487 0.025-29.413-56.254-7.551-171.263-87.521zM273.285 50.446c7.932 116.755 73.771 198.939 106.85 209.53 19.218 6.169 45.539-5.058 43.432-30.732-3.588-43.643-58.214-73.27-67.185-181.013-4.116-49.713 13.050-105.978 67.946-109.014 118.862-6.581 231.271 221.536 239.848 377.844 7.422 135.001-41.196 197.145-111.672 204.041-168.37 16.464-343.413-207.36-404.57-437.593 37.393-37.968 80.634-70.112 128.256-94.966-3.287 18.222-4.479 38.745-2.906 61.903zM586.88 410.258c27.489 0.019 28.214-24.736 27.98-35.71-0.94-46.413-57.286-103.127-84.282-59.552-14.715 33.416 22.131 94.152 56.303 95.263zM920.845 11.073h10.625l10.629-25.633 10.625 25.633h10.624v-43.994h-10.624v21.226l-7.12-17.161h-7.011l-7.123 17.161v-21.226h-10.625v43.994zM880.863 11.073h33.41v-9.904h-11.393v-34.090h-10.625v34.090h-11.392v9.904z" />
<glyph unicode="&#xe908;" glyph-name="nav-toggle-off" d="M69.818 832h884.364c38.56 0 69.818-31.259 69.818-69.818s-31.259-69.818-69.818-69.818h-884.364c-38.56 0-69.818 31.259-69.818 69.818s31.259 69.818 69.818 69.818zM69.818 506.182h884.364c38.56 0 69.818-31.259 69.818-69.818s-31.259-69.818-69.818-69.818h-884.364c-38.56 0-69.818 31.259-69.818 69.818s31.259 69.818 69.818 69.818zM69.818 180.364h884.364c38.56 0 69.818-31.259 69.818-69.818s-31.259-69.818-69.818-69.818h-884.364c-38.56 0-69.818 31.259-69.818 69.818s31.259 69.818 69.818 69.818zM69.818 832h884.364c38.56 0 69.818-31.259 69.818-69.818s-31.259-69.818-69.818-69.818h-884.364c-38.56 0-69.818 31.259-69.818 69.818s31.259 69.818 69.818 69.818zM69.818 506.182h884.364c38.56 0 69.818-31.259 69.818-69.818s-31.259-69.818-69.818-69.818h-884.364c-38.56 0-69.818 31.259-69.818 69.818s31.259 69.818 69.818 69.818zM69.818 180.364h884.364c38.56 0 69.818-31.259 69.818-69.818s-31.259-69.818-69.818-69.818h-884.364c-38.56 0-69.818 31.259-69.818 69.818s31.259 69.818 69.818 69.818zM69.818 832h884.364c38.56 0 69.818-31.259 69.818-69.818s-31.259-69.818-69.818-69.818h-884.364c-38.56 0-69.818 31.259-69.818 69.818s31.259 69.818 69.818 69.818zM69.818 506.182h884.364c38.56 0 69.818-31.259 69.818-69.818s-31.259-69.818-69.818-69.818h-884.364c-38.56 0-69.818 31.259-69.818 69.818s31.259 69.818 69.818 69.818zM69.818 180.364h884.364c38.56 0 69.818-31.259 69.818-69.818s-31.259-69.818-69.818-69.818h-884.364c-38.56 0-69.818 31.259-69.818 69.818s31.259 69.818 69.818 69.818z" />
<glyph unicode="&#xe909;" glyph-name="circle-left" d="M0 448c0 281.6 230.4 512 512 512s512-230.4 512-512-230.4-512-512-512-512 230.4-512 512zM987.429 448c0 263.314-212.114 475.429-475.429 475.429s-475.429-212.114-475.429-475.429c0-263.314 212.114-475.429 475.429-475.429s475.429 212.114 475.429 475.429zM303.543 448c0 7.314 3.657 10.971 7.314 14.629l329.143 256 21.943-29.257-310.857-241.371 310.857-241.371-21.943-29.257-329.143 256c-3.657 3.657-7.314 7.314-7.314 14.629z" />
<glyph unicode="&#xe90a;" glyph-name="search-off" d="M461.232 374.712c-22.544-7.984-46.819-12.334-72.102-12.334-7.171 0-14.261 0.35-21.254 1.034-0.866-12.706-11.539-22.752-24.592-22.752-13.62 0-24.669 10.939-24.669 24.423 0 3.006 0.551 5.886 1.557 8.546-53.779 18.116-98.032 56.812-123.139 106.562-11.738 1.874-20.695 11.959-20.695 24.111 0 5.837 2.073 11.199 5.53 15.401-4.776 17.585-7.324 36.065-7.324 55.123 0 17.563 2.163 34.635 6.24 50.969-2.802 3.964-4.446 8.79-4.446 13.996 0 11.063 7.446 20.422 17.658 23.407 24.247 52.281 69.312 93.208 124.62 112.313 0.125 13.358 11.125 24.172 24.668 24.172 9.729 0 18.136-5.581 22.145-13.678 7.784 0.851 15.692 1.287 23.701 1.287 24.539 0 48.129-4.098 70.108-11.639 0.202 13.292 11.172 24.029 24.666 24.029 0.147 0 0.294-0.001 0.44-0.004 13.62 0.004 24.669-10.935 24.669-24.399 0-7.509-3.426-14.228-8.815-18.709 13.026-7.831 25.147-16.995 36.169-27.3 4.178 3.228 9.436 5.153 15.149 5.153 13.62 0 24.669-10.939 24.669-24.403 0-7.159-3.114-13.601-8.075-18.069 22.506-33.6 35.626-73.874 35.626-117.126 0-43.413-13.221-83.826-35.887-117.501 5.112-4.473 8.336-11.009 8.336-18.283 0-13.484-11.049-24.423-24.669-24.423-5.88 0-11.277 2.039-15.512 5.441-13.121-12.21-27.79-22.808-43.68-31.471 9.706-3.28 16.689-12.378 16.689-23.098-0.001-0.136 0-0.272 0-0.408 0-13.484-11.049-24.423-24.669-24.423-0.073 0-0.147 0-0.22 0.001-0.073-0.001-0.146-0.001-0.22-0.001-13.62 0-24.669 10.939-24.669 24.423 0 3.418 0.712 6.674 1.998 9.629zM487.272 254.234c7.073-0.828 13.231-4.616 17.169-10.079 12.769 4.113 25.348 8.992 37.684 14.632 4.058 1.87 8.377 2.764 12.636 2.764 8.377 0 16.633-3.48 22.479-9.944l19.71-21.835c-0.001 0.076-0.001 0.152-0.001 0.228 0 13.484 11.049 24.403 24.669 24.403s24.649-10.919 24.649-24.403c0-13.484-11.029-24.403-24.649-24.403-1.018 0-2.022 0.061-3.008 0.18l160.902-178.252c35.557-39.359 96.806-42.78 136.561-7.577l15.548 13.763c19.164 16.945 30.514 40.413 31.961 66.029 1.446 25.636-7.172 50.198-24.287 69.152h-0.020l-33.135 36.706c-13.592 0.033-24.587 10.939-24.587 24.403 0 0.903 0.049 1.795 0.146 2.672l-39.608 43.877c-1.915-0.472-3.918-0.723-5.982-0.723-13.62 0-24.669 10.919-24.669 24.403 0 3.008 0.55 5.889 1.556 8.549l-33.639 37.264c-4.224-3.368-9.594-5.385-15.442-5.385-13.62 0-24.669 10.939-24.669 24.423 0 6.765 2.789 12.893 7.293 17.316l-15.22 16.86c-1.808 2.009-3.877 3.58-5.906 5.251-6.107 5.061-10.29 12.571-11.51 20.38-4.467-6.216-11.799-10.27-20.091-10.27-13.62 0-24.669 10.939-24.669 24.423 0 13.464 11.049 24.403 24.669 24.403 11.453 0 21.073-7.734 23.845-18.201 21.508 56.174 27.369 114.79 17.419 174.319-4.362 26.105-11.893 51.242-22.165 75.017-4.519-5.482-11.394-8.982-19.099-8.982-13.62 0-24.669 10.939-24.669 24.423 0 13.005 10.307 23.653 23.283 24.365-28.766 47.747-69.199 88.067-116.962 116.994 0.47-1.881 0.72-3.847 0.72-5.87 0-13.484-11.049-24.423-24.669-24.423s-24.649 10.939-24.649 24.423c0 10.65 6.9 19.72 16.525 23.046-16.399 7.692-33.466 14.104-51.054 19.102-2.507-0.85-5.196-1.312-7.994-1.312-0.073 0-0.147 0-0.22 0.001-0.073-0.001-0.146-0.001-0.22-0.001-7.064 0-13.436 2.942-17.934 7.656-11.886 2.35-23.966 4.060-36.199 5.091-21.966 1.809-43.782 1.562-65.207-0.657-4.278-7.232-12.203-12.089-21.28-12.089-6.248 0-11.955 2.302-16.302 6.095-65.892-14.274-126.444-47.682-174.010-97.524-37.346-39.144-64.053-85.73-78.934-136.026 5.679-4.473 9.321-11.371 9.321-19.101 0-11.548-8.104-21.23-18.987-23.771-4.495-28.583-5.327-57.969-2.3-87.543 12.021-1.633 21.287-11.845 21.287-24.175 0-9.483-5.464-17.706-13.444-21.752 29.614-122.74 124.314-216.324 250.144-245.633 3.009 10.113 12.453 17.488 23.646 17.488 13.62 0 24.669-10.919 24.669-24.403 0-0.294-0.005-0.586-0.016-0.878 30.742-2.785 61.46-1.457 91.507 3.917 1.51 12.048 11.879 21.364 24.46 21.364 0.003 0 0.006 0 0.009 0-12.575-0.004-22.939-9.317-24.45-21.36-0.006-0.001-0.012-0.002-0.018-0.003l27.407 21.194zM851.708-64c-43.17 0-86.159 17.482-117.116 51.749l-187.847 208.092c-70.832-27.784-147.51-34.964-223.163-20.664-169.727 32.1-295.1 161.911-319.427 330.683-17.497 121.478 20.771 241.763 105.002 330.027s202.954 133.033 325.714 122.632c179.028-15.055 330.295-153.518 359.664-329.212 10.808-64.717 5.243-130.925-16.031-192.778l205.706-227.861c27.863-30.847 41.884-70.723 39.534-112.27s-20.792-79.613-51.969-107.158l-15.528-13.783c-29.892-26.432-67.296-39.439-104.54-39.458zM415.475 821.087c-13.62 0-24.669 10.939-24.669 24.423 0 13.464 11.049 24.403 24.669 24.403s24.649-10.939 24.649-24.403c0-13.484-11.029-24.423-24.649-24.423zM273.179 821.087c-13.62 0-24.649 10.939-24.649 24.423 0 13.464 11.029 24.403 24.649 24.403s24.669-10.939 24.669-24.403c0-13.484-11.049-24.423-24.669-24.423zM130.882 685.598c-13.62 0-24.649 10.939-24.649 24.423 0 13.464 11.029 24.403 24.649 24.403s24.669-10.939 24.669-24.403c0-13.484-11.049-24.423-24.669-24.423zM200.987 750.857c-13.62 0-24.649 10.939-24.649 24.423 0 13.464 11.029 24.403 24.649 24.403s24.669-10.939 24.669-24.403c0-13.484-11.049-24.423-24.669-24.423zM130.882 550.108c-13.62 0-24.649 10.939-24.649 24.423 0 13.464 11.029 24.403 24.649 24.403s24.669-10.939 24.669-24.403c0-13.484-11.049-24.423-24.669-24.423zM130.882 414.619c-13.62 0-24.649 10.939-24.649 24.423 0 13.464 11.029 24.403 24.649 24.403s24.669-10.939 24.669-24.403c0-13.484-11.049-24.423-24.669-24.423zM200.987 340.66c-13.62 0-24.649 10.939-24.649 24.423 0 13.464 11.029 24.403 24.649 24.403s24.669-10.939 24.669-24.403c0-13.484-11.049-24.423-24.669-24.423zM621.617 750.857c-13.62 0-24.669 10.939-24.669 24.423 0 13.464 11.049 24.403 24.669 24.403s24.649-10.939 24.649-24.403c0-13.484-11.029-24.423-24.649-24.423zM693.811 550.108c-13.62 0-24.669 10.939-24.669 24.423 0 13.464 11.049 24.403 24.669 24.403s24.649-10.939 24.649-24.403c0-13.484-11.029-24.423-24.649-24.423zM621.617 615.368c-13.62 0-24.669 10.939-24.669 24.423 0 13.464 11.049 24.403 24.669 24.403s24.649-10.939 24.649-24.403c0-13.484-11.029-24.423-24.649-24.423zM621.617 479.878c-13.62 0-24.669 10.939-24.669 24.423 0 13.464 11.049 24.403 24.669 24.403s24.649-10.939 24.649-24.403c0-13.484-11.029-24.423-24.649-24.423zM621.617 340.66c-13.62 0-24.669 10.939-24.669 24.423 0 13.464 11.049 24.403 24.669 24.403s24.649-10.939 24.649-24.403c0-13.484-11.029-24.423-24.649-24.423zM693.811 275.828c-13.62 0-24.669 10.919-24.669 24.403s11.049 24.403 24.669 24.403c13.62 0 24.649-10.919 24.649-24.403s-11.029-24.403-24.649-24.403zM551.514 275.828c-13.62 0-24.649 10.919-24.649 24.403s11.029 24.403 24.649 24.403c13.62 0 24.669-10.919 24.669-24.403s-11.049-24.403-24.669-24.403zM693.811 140.339c-13.62 0-24.669 10.919-24.669 24.403s11.049 24.403 24.669 24.403c13.62 0 24.649-10.919 24.649-24.403s-11.029-24.403-24.649-24.403zM836.108 140.339c-13.62 0-24.669 10.919-24.669 24.403s11.049 24.403 24.669 24.403c13.62 0 24.649-10.919 24.649-24.403s-11.029-24.403-24.649-24.403zM763.914 205.598c-13.62 0-24.669 10.919-24.669 24.403s11.049 24.403 24.669 24.403c13.62 0 24.649-10.919 24.649-24.403s-11.029-24.403-24.649-24.403zM836.108 4.849c-13.62 0-24.669 10.919-24.669 24.403s11.049 24.403 24.669 24.403c13.62 0 24.649-10.919 24.649-24.403s-11.029-24.403-24.649-24.403zM906.2 70.109c-13.62 0-24.649 10.919-24.649 24.403s11.029 24.403 24.649 24.403c13.62 0 24.669-10.919 24.669-24.403s-11.049-24.403-24.669-24.403zM763.914 70.109c-13.62 0-24.669 10.919-24.669 24.403s11.049 24.403 24.669 24.403c13.62 0 24.649-10.919 24.649-24.403s-11.029-24.403-24.649-24.403zM415.897 275.828c-13.62 0-24.649 10.919-24.649 24.403s11.029 24.403 24.649 24.403c13.62 0 24.669-10.919 24.669-24.403s-11.049-24.403-24.669-24.403zM273.611 275.828c-13.62 0-24.669 10.919-24.669 24.403s11.049 24.403 24.669 24.403c13.62 0 24.649-10.919 24.649-24.403s-11.029-24.403-24.649-24.403zM389.129 727.628c-85.095 0-154.32-68.535-154.32-152.802 0-84.247 69.225-152.782 154.32-152.782s154.34 68.535 154.34 152.782c0 84.267-69.245 152.802-154.34 152.802z" />
<glyph unicode="&#xe90b;" glyph-name="close" d="M509.918 350.882l-235.2-235.2c-26.243-26.243-68.792-26.243-95.035 0s-26.243 68.792 0 95.035l221.282 221.282-221.282 221.282c-26.243 26.243-26.243 68.792 0 95.035s68.792 26.243 95.035 0l235.2-235.2 235.2 235.2c26.243 26.243 68.792 26.243 95.035 0s26.243-68.792 0-95.035l-221.282-221.282 221.282-221.282c26.243-26.243 26.243-68.792 0-95.035s-68.792-26.243-95.035 0l-235.2 235.2z" />
<glyph unicode="&#xe90c;" glyph-name="logo-desktop" d="M987.867 602.053c-92.51-69.137-213.946-87.773-256.309-30.634-42.369 57.14 10.341 168.442 102.845 237.58 7.611 5.694 15.218 10.838 22.788 15.557-40.452 37.105-86.864 67.757-137.62 90.383 15.644-29.486 20.693-70.631 10.292-118.889-19.151-88.909-82.219-162.773-137.687-150.718-55.462 12.035-82.354 105.434-63.185 194.362 11.895 55.203 38.302 93.585 69.882 111.874-28.238 4.85-57.256 7.403-86.87 7.403-282.77 0-512.003-230.146-512.003-514.053 0-100.512 28.76-194.27 78.428-273.482 86.569 250.12 289.296 445.144 484.552 424.305 129.066-13.767 197.351-114.971 188.744-271.735-8.405-153.076-75.663-301.536-165.599-387.763 247.64 36.063 437.876 250.047 437.876 508.675 0 57.504-9.406 112.793-26.757 164.426-3.047-2.456-6.162-4.886-9.376-7.292zM327.53 579.094c-21.431-25.249-75.344-14.435-114.199 18.814-38.867 33.254-45.582 74.294-24.14 99.556 21.46 25.247 62.939 25.199 101.8-8.070 38.849-33.243 57.986-85.035 36.538-110.301zM452.044 638.806c-41.712-19.214-104.387 28.45-135.131 95.664-30.744 67.195-16.004 124.379 25.701 143.613 41.704 19.234 94.617-6.779 125.349-73.987 30.751-67.22 25.786-146.056-15.919-165.29zM764.042 194.595c10.358 43.822 16.988 88.47 19.415 132.761 1.026 18.71 1.149 36.784 0.404 54.247 62.664-5.7 151.419-67.072 151.443-99.487 0.025-29.413-56.254-7.551-171.263-87.521zM273.285 50.446c7.932 116.755 73.771 198.939 106.85 209.53 19.218 6.169 45.539-5.058 43.432-30.732-3.588-43.643-58.214-73.27-67.185-181.013-4.116-49.713 13.050-105.978 67.946-109.014 118.862-6.581 231.271 221.536 239.848 377.844 7.422 135.001-41.196 197.145-111.672 204.041-168.37 16.464-343.413-207.36-404.57-437.593 37.393-37.968 80.634-70.112 128.256-94.966-3.287 18.222-4.479 38.745-2.906 61.903zM586.88 410.258c27.489 0.019 28.214-24.736 27.98-35.71-0.94-46.413-57.286-103.127-84.282-59.552-14.715 33.416 22.131 94.152 56.303 95.263zM920.845 11.073h10.625l10.629-25.633 10.625 25.633h10.624v-43.994h-10.624v21.226l-7.12-17.161h-7.011l-7.123 17.161v-21.226h-10.625v43.994zM880.863 11.073h33.41v-9.904h-11.393v-34.090h-10.625v34.090h-11.392v9.904z" />
<glyph unicode="&#xe90d;" glyph-name="location-off" d="M504.819 519.092c-77.229 0-140.057 62.827-140.057 140.057s62.827 140.024 140.057 140.024c77.229 0 140.057-62.794 140.057-140.024s-62.827-140.057-140.057-140.057zM700.931 659.149c0 29.597-7.036 57.41-18.861 82.581 5.88 3.567 9.976 9.711 9.976 17.078 0 11.198-9.051 20.282-20.216 20.282-3.865 0-7.234-1.354-10.306-3.237-12.123 16.252-26.492 30.621-42.975 42.446 1.057 2.444 1.652 5.12 1.652 7.928 0 11.231-9.051 20.315-20.216 20.315-6.606 0-12.189-3.402-15.922-8.324-24.279 10.769-51.002 17.045-79.244 17.045-90.442 0-166.020-61.836-188.614-145.21-1.982 0.661-3.997 1.255-6.21 1.255-11.165 0-20.249-9.084-20.249-20.282 0-11.165 9.018-20.183 20.117-20.249-0.231-3.931-1.156-7.663-1.156-11.627 0-60.845 28.408-114.622 72.010-150.627-0.198 0-0.396 0.099-0.595 0.099-11.165 0-20.249-9.084-20.249-20.282s9.084-20.249 20.249-20.249c11.132 0 20.216 9.051 20.216 20.249 0 2.18-0.628 4.129-1.222 6.078 30.555-19.654 66.725-31.414 105.703-31.414 108.148 0 196.113 87.998 196.113 196.146zM545.752 80.463c0.066 0.76 0.462 1.42 0.462 2.213 0 11.198-9.084 20.282-20.249 20.282s-20.216-9.084-20.216-20.282c0-11.198 9.051-20.282 20.216-20.282 2.114 0 4.063 0.595 5.979 1.189-8.853-10.075-17.837-19.753-27.119-28.672-44.66 42.942-84.166 100.55-118.255 164.005 7.961 2.742 13.774 10.075 13.774 18.994 0 11.198-9.084 20.249-20.249 20.249-4.393 0-8.291-1.685-11.594-4.129-26.822 54.767-49.714 112.607-67.98 168.894 2.874-1.519 5.979-2.643 9.447-2.643 11.165 0 20.249 9.084 20.249 20.282s-9.084 20.282-20.249 20.282c-7.763 0-14.303-4.558-17.705-11-20.249 67.155-33.957 130.643-40.2 182.074 2.444 3.336 4.129 7.234 4.129 11.66 0 6.012-2.709 11.231-6.838 14.964-0.793 10.769-1.255 20.909-1.255 30.125 0 56.254 17.078 105.439 46.939 144.219 3.667-4.195 8.952-6.937 14.931-6.937 11.165 0 20.249 9.084 20.249 20.282 0 6.573-3.336 12.156-8.159 15.855 14.699 13.18 31.215 24.51 49.515 33.726 2.61-1.255 5.483-2.081 8.522-2.081 8.886 0 16.219 5.847 18.927 13.841 29.465 10.537 62.266 16.351 97.742 16.351h11.925c-1.718-2.973-2.94-6.243-2.94-9.91 0-11.165 9.051-20.282 20.216-20.282s20.249 9.117 20.249 20.282c0 2.94-0.694 5.682-1.817 8.192 116.241-11.627 198.656-87.469 214.181-195.815-3.468 2.94-7.829 4.922-12.75 4.922-11.165 0-20.216-9.084-20.216-20.315 0-11.165 9.051-20.249 20.216-20.249 6.21 0 11.561 2.973 15.294 7.399 0.066-3.171 0.396-6.243 0.396-9.48 0-25.567-3.237-57.707-9.348-93.878-2.048 0.661-4.096 1.288-6.342 1.288-11.165 0-20.216-9.084-20.216-20.282 0-10.802 8.489-19.456 19.093-20.051-11.759-56.023-29.498-118.949-52.719-182.305-0.165 11.033-9.117 19.951-20.183 19.951-11.132 0-20.216-9.084-20.216-20.282 0-11.165 9.084-20.282 20.216-20.282 5.946 0 11.132 2.676 14.865 6.739-22.297-58.863-49.185-117.331-80.268-170.479-2.048 0.727-4.129 1.321-6.408 1.321-11.165 0-20.249-9.084-20.249-20.315 0-5.682 2.411-10.802 6.21-14.501-12.783-19.588-26.261-37.855-40.2-55.131zM512.885 959.98h-16.12c-176.59 0-304.756-122.517-304.756-291.311 0-150.33 103.986-531.192 294.648-692.951 5.219-4.459 11.693-6.706 18.168-6.706 6.441 0 12.916 2.246 18.168 6.706 190.629 161.759 294.615 542.621 294.615 692.951 0 168.795-128.132 291.311-304.723 291.311zM309.978 576.076c-11.165 0-20.216-9.084-20.216-20.282s9.051-20.282 20.216-20.282c11.165 0 20.216 9.084 20.216 20.282s-9.051 20.282-20.216 20.282zM454.108 440.849c-11.165 0-20.183-9.084-20.183-20.282s9.018-20.282 20.183-20.282c11.165 0 20.216 9.084 20.216 20.282s-9.051 20.282-20.216 20.282zM599.978 440.849c-11.165 0-20.216-9.084-20.216-20.282s9.051-20.282 20.216-20.282c11.165 0 20.216 9.084 20.216 20.282s-9.051 20.282-20.216 20.282zM671.817 508.624c-11.165 0-20.216-9.084-20.216-20.282s9.051-20.282 20.216-20.282c11.165 0 20.216 9.084 20.216 20.282s-9.051 20.282-20.216 20.282zM454.108 305.624c-11.165 0-20.183-9.084-20.183-20.282s9.018-20.282 20.183-20.282c11.165 0 20.216 9.084 20.216 20.282s-9.051 20.282-20.216 20.282zM599.978 305.624c-11.165 0-20.216-9.084-20.216-20.282s9.051-20.282 20.216-20.282c11.165 0 20.216 9.084 20.216 20.282s-9.051 20.282-20.216 20.282zM380.109 373.397c-11.165 0-20.216-9.084-20.216-20.282s9.051-20.282 20.216-20.282c11.165 0 20.216 9.084 20.216 20.282s-9.051 20.282-20.216 20.282zM525.979 373.397c-11.165 0-20.216-9.084-20.216-20.282s9.051-20.282 20.216-20.282c11.165 0 20.216 9.084 20.216 20.282s-9.051 20.282-20.216 20.282zM454.108 170.397c-11.165 0-20.183-9.084-20.183-20.282s9.018-20.282 20.183-20.282c11.165 0 20.216 9.084 20.216 20.282s-9.051 20.282-20.216 20.282zM525.979 238.172c-11.165 0-20.216-9.051-20.216-20.282 0-11.198 9.051-20.282 20.216-20.282s20.216 9.084 20.216 20.282c0 11.231-9.051 20.282-20.216 20.282z" />
<glyph unicode="&#xe90e;" glyph-name="circle-right" d="M1024 448c0-281.6-230.4-512-512-512s-512 230.4-512 512 230.4 512 512 512 512-230.4 512-512zM36.571 448c0-263.314 212.114-475.429 475.429-475.429s475.429 212.114 475.429 475.429c0 263.314-212.114 475.429-475.429 475.429s-475.429-212.114-475.429-475.429zM720.457 448c0-7.314-3.657-10.971-7.314-14.629l-329.143-256-21.943 29.257 310.857 241.371-310.857 241.371 21.943 29.257 329.143-256c3.657-3.657 7.314-7.314 7.314-14.629z" />
<glyph unicode="&#xe90f;" glyph-name="circle-up" d="M512 960c281.6 0 512-230.4 512-512s-230.4-512-512-512-512 230.4-512 512 230.4 512 512 512zM512-27.429c263.314 0 475.429 212.114 475.429 475.429s-212.114 475.429-475.429 475.429c-263.314 0-475.429-212.114-475.429-475.429s212.114-475.429 475.429-475.429zM512 656.457c7.314 0 10.971-3.657 14.629-7.314l256-329.143-29.257-21.943-241.371 310.857-241.371-310.857-29.257 21.943 256 329.143c3.657 3.657 7.314 7.314 14.629 7.314z" />
<glyph unicode="&#xe910;" glyph-name="info" d="M470 541.867v86h84v-86h-84zM512 71.867c188 0 342 154 342 342s-154 342-342 342-342-154-342-342 154-342 342-342zM512 839.867c236 0 426-190 426-426s-190-426-426-426-426 190-426 426 190 426 426 426zM470 199.867v256h84v-256h-84z" />
<glyph unicode="&#xe911;" glyph-name="replay" horiz-adv-x="890" d="M465.54 920.966v0c0.090 0.001 0.197 0.001 0.304 0.001 16.165 0 30.792-6.58 41.351-17.207l138.149-138.831c0.957-0.972 1.984-1.867 3.078-2.678 14.705-10.512 24.13-27.448 24.13-46.584 0-0.647-0.011-1.292-0.032-1.934s0.002-0.221 0.002-0.379c0.005-0.292 0.008-0.637 0.008-0.982 0-19.203-9.482-36.192-24.020-46.539-1.319-0.966-2.33-1.843-3.269-2.792l-138.883-137.991c-10.621-10.602-25.283-17.159-41.477-17.159-32.425 0-58.711 26.286-58.711 58.711 0 12.323 3.797 23.759 10.284 33.203 2.695 3.923 4.381 9.018 4.381 14.507 0 14.488-11.745 26.234-26.234 26.234-1.875 0-3.705-0.197-5.468-0.571-127.094-26.789-221.252-138.142-221.252-271.487 0-153.052 124.047-277.131 277.086-277.184 10.95 0.001 21.746 0.63 32.362 1.853 137.907 16.131 244.919 133.372 244.919 275.608 0 10.697-0.605 21.253-1.783 31.635-0.161 1.087-0.319 3.818-0.319 6.586 0 36.335 27.32 66.29 62.539 70.444 2.716 0.322 5.486 0.493 8.294 0.504 36.321-0.024 66.226-27.4 70.238-62.636 1.694-14.343 2.644-30.58 2.644-47.039 0-214.882-161.857-391.961-370.306-415.969-16.025-1.848-32.347-2.801-48.891-2.805-231.132 0.297-418.382 187.729-418.382 418.897 0 214.695 161.515 391.667 369.667 416.035l1.961 0.187h2.256c13.471 1.213 23.948 12.45 23.948 26.134 0 5.979-2 11.491-5.369 15.904-7.617 9.74-12.241 22.243-12.241 35.825 0 32.338 26.215 58.553 58.553 58.553 0.133 0 0.266 0 0.398-0.001zM465.435 947.252c-0.063 0-0.138 0-0.212 0-23.32 0-44.44-9.42-59.761-24.663l0.004 0.004c-15.395-15.415-24.915-36.7-24.915-60.209 0-19.464 6.526-37.404 17.51-51.75l-2.669 0.204c-223.653-25.737-395.709-213.988-395.709-442.426 0-245.868 199.315-445.183 445.183-445.183s445.183 199.315 445.183 445.183c0 17.496-1.009 34.755-2.973 51.725-5.54 46.475-46.38 83.79-95.964 83.926-3.868-0.007-7.66-0.236-11.387-0.674-48.304-5.567-85.819-46.612-85.819-96.419 0-3.798 0.218-7.545 0.643-11.229 0.941-7.892 1.502-17.554 1.502-27.347 0-138.596-112.354-250.95-250.95-250.95s-250.95 112.354-250.95 250.95c0 120.776 85.32 221.625 198.975 245.561-7.45-13.067-12.871-29.551-12.871-47.301 0-23.381 9.406-44.566 24.641-59.976l-0.008 0.008c15.423-15.397 36.716-24.918 60.233-24.918 23.386 0 44.573 9.415 59.976 24.662l138.926 138.244c3.757 2.698 7.063 5.487 10.138 8.511l-0.012-0.011c15.41 15.731 24.92 37.293 24.92 61.076 0 23.624-9.383 45.057-24.626 60.775l0.021-0.022c-3.163 3.073-6.589 5.916-10.227 8.479l-138.308 138.796c-15.344 15.396-36.57 24.922-60.020 24.922-0.075 0-0.149 0-0.224 0h0.012z" />
<glyph unicode="&#xe912;" glyph-name="twitter-over" d="M512 947.2c-283.2 0-512-228.8-512-512s228.8-512 512-512 512 228.8 512 512-228.8 512-512 512zM766.4 588.8c-8-12.8-17.6-24-28.8-33.6-6.4-6.4-12.8-11.2-19.2-16-1.6 0-1.6-1.6-1.6-3.2 0-3.2 0-4.8 0-8 0-6.4 0-12.8 0-19.2 0-8-1.6-14.4-1.6-22.4-1.6-16-6.4-32-11.2-46.4-6.4-22.4-16-43.2-28.8-62.4-9.6-17.6-22.4-33.6-35.2-48-6.4-6.4-12.8-12.8-20.8-19.2s-17.6-14.4-25.6-20.8c-11.2-8-24-14.4-36.8-20.8-16-6.4-30.4-12.8-46.4-17.6-17.6-4.8-33.6-6.4-51.2-8-3.2 0-4.8 0-8 0-9.6 0-19.2 0-30.4 0 0 0-1.6 0-1.6 0-6.4 0-14.4 1.6-20.8 1.6-11.2 1.6-22.4 3.2-32 6.4-14.4 3.2-27.2 8-40 12.8-11.2 4.8-20.8 9.6-30.4 16-3.2 1.6-8 4.8-11.2 6.4 0 0 0 0 0 0 6.4 0 12.8-1.6 17.6-1.6 9.6 0 19.2 0 28.8 1.6 12.8 1.6 24 3.2 35.2 8 19.2 6.4 38.4 16 56 27.2 3.2 1.6 4.8 3.2 8 6.4-3.2 0-4.8 0-6.4 0-11.2 1.6-22.4 4.8-33.6 9.6-12.8 6.4-24 14.4-33.6 25.6-8 9.6-14.4 19.2-17.6 32 0 1.6 0 3.2 1.6 1.6 4.8-1.6 9.6-1.6 14.4-1.6s9.6 0 14.4 1.6c3.2 0 8 1.6 11.2 1.6-1.6 0-1.6 0-1.6 0-11.2 3.2-22.4 8-32 14.4-8 4.8-16 12.8-22.4 19.2s-11.2 14.4-14.4 22.4c-3.2 9.6-6.4 19.2-8 28.8 0 3.2 0 8-1.6 11.2 0 1.6 0 1.6 1.6 1.6 0 0 1.6-1.6 1.6-1.6 11.2-4.8 22.4-8 35.2-9.6 1.6 0 1.6 0 3.2 0 0 0-1.6 0-1.6 1.6-6.4 4.8-12.8 9.6-17.6 16-8 9.6-12.8 19.2-17.6 28.8-4.8 14.4-6.4 28.8-6.4 43.2 0 9.6 3.2 17.6 6.4 27.2 1.6 4.8 3.2 9.6 6.4 12.8 1.6 1.6 1.6 1.6 3.2 0 4.8-4.8 8-9.6 12.8-14.4 3.2-3.2 8-8 11.2-11.2s6.4-6.4 9.6-8c11.2-8 20.8-17.6 33.6-24 14.4-9.6 30.4-17.6 46.4-24 11.2-4.8 20.8-8 32-11.2 12.8-3.2 24-6.4 36.8-8 8 1.6 14.4 1.6 20.8 1.6 1.6 0 1.6 0 1.6 1.6-1.6 8-1.6 16-1.6 25.6 0 4.8 0 9.6 1.6 12.8 1.6 11.2 6.4 22.4 11.2 32 6.4 9.6 12.8 19.2 22.4 25.6 6.4 6.4 14.4 11.2 24 14.4 9.6 4.8 19.2 6.4 30.4 8 3.2 0 4.8 0 8 0 1.6 0 4.8 0 6.4 0 3.2 0 4.8 0 8 0 11.2-1.6 22.4-4.8 33.6-9.6 9.6-4.8 19.2-11.2 27.2-19.2 1.6-1.6 1.6-1.6 3.2-1.6 6.4 1.6 12.8 3.2 17.6 4.8 14.4 4.8 27.2 11.2 41.6 17.6 0 0 1.6 1.6 1.6 0 0 0 0-1.6 0-1.6-1.6-4.8-3.2-9.6-6.4-14.4-6.4-12.8-16-24-28.8-32-1.6-1.6-3.2-3.2-6.4-4.8 1.6 0 3.2 0 4.8 0 12.8 1.6 25.6 4.8 36.8 9.6 3.2 3.2 6.4 4.8 11.2 4.8 0 0 0 0 0 0z" />
<glyph unicode="&#xe913;" glyph-name="youtube-over" d="M460.012 364.308c44.111 22.055 86.646 45.686 130.757 67.742-44.111 23.631-88.222 45.686-130.757 69.317 0-45.686 0-91.372 0-137.058zM513.575 940.898c-278.843 0-505.698-226.855-505.698-505.698s226.855-505.698 505.698-505.698 505.698 226.855 505.698 505.698-226.855 505.698-505.698 505.698zM753.034 364.308c-1.575-12.603-3.151-26.782-4.726-39.385-1.575-11.028-4.726-20.48-9.452-29.932-9.452-17.329-23.631-28.357-42.535-31.508-11.028-1.575-23.631-3.151-34.658-3.151-20.48-1.575-39.385-1.575-59.865-3.151-18.905 0-37.809-1.575-56.714-1.575-14.178 0-26.782 0-40.96 0-26.782 0-55.138 0-81.92 1.575-20.48 0-40.96 1.575-61.44 1.575-12.603 0-25.206 1.575-37.809 4.726-22.055 4.726-36.234 17.329-44.111 39.385-4.726 12.603-6.302 25.206-7.877 37.809-1.575 17.329-3.151 34.658-3.151 51.988 0 34.658-1.575 69.317 1.575 103.975 1.575 15.754 1.575 29.932 6.302 45.686 1.575 4.726 3.151 11.028 6.302 15.754 9.452 20.48 25.206 31.508 45.686 34.658 14.178 1.575 28.357 3.151 42.535 3.151 25.206 1.575 50.412 1.575 75.618 3.151 14.178 0 28.357 0 42.535 0 7.877 0 15.754 0 23.631 0 0 0 0 0 0 0 18.905 0 36.234 0 55.138 0 31.508 0 61.44-1.575 92.948-3.151 11.028 0 22.055-1.575 33.083-3.151 26.782-3.151 44.111-17.329 51.988-42.535 4.726-12.603 6.302-23.631 7.877-36.234 1.575-17.329 3.151-34.658 3.151-51.988-1.575-33.083-1.575-64.591-3.151-97.674z" />
<glyph unicode="&#xe914;" glyph-name="nav-toggle-on" d="M69.818 832h884.364c38.56 0 69.818-31.259 69.818-69.818s-31.259-69.818-69.818-69.818h-884.364c-38.56 0-69.818 31.259-69.818 69.818s31.259 69.818 69.818 69.818zM69.818 506.182h884.364c38.56 0 69.818-31.259 69.818-69.818s-31.259-69.818-69.818-69.818h-884.364c-38.56 0-69.818 31.259-69.818 69.818s31.259 69.818 69.818 69.818zM69.818 180.364h884.364c38.56 0 69.818-31.259 69.818-69.818s-31.259-69.818-69.818-69.818h-884.364c-38.56 0-69.818 31.259-69.818 69.818s31.259 69.818 69.818 69.818zM69.818 832h884.364c38.56 0 69.818-31.259 69.818-69.818s-31.259-69.818-69.818-69.818h-884.364c-38.56 0-69.818 31.259-69.818 69.818s31.259 69.818 69.818 69.818zM69.818 506.182h884.364c38.56 0 69.818-31.259 69.818-69.818s-31.259-69.818-69.818-69.818h-884.364c-38.56 0-69.818 31.259-69.818 69.818s31.259 69.818 69.818 69.818zM69.818 180.364h884.364c38.56 0 69.818-31.259 69.818-69.818s-31.259-69.818-69.818-69.818h-884.364c-38.56 0-69.818 31.259-69.818 69.818s31.259 69.818 69.818 69.818zM69.818 832h884.364c38.56 0 69.818-31.259 69.818-69.818s-31.259-69.818-69.818-69.818h-884.364c-38.56 0-69.818 31.259-69.818 69.818s31.259 69.818 69.818 69.818zM69.818 506.182h884.364c38.56 0 69.818-31.259 69.818-69.818s-31.259-69.818-69.818-69.818h-884.364c-38.56 0-69.818 31.259-69.818 69.818s31.259 69.818 69.818 69.818zM69.818 180.364h884.364c38.56 0 69.818-31.259 69.818-69.818s-31.259-69.818-69.818-69.818h-884.364c-38.56 0-69.818 31.259-69.818 69.818s31.259 69.818 69.818 69.818z" />
<glyph unicode="&#xe915;" glyph-name="servings" horiz-adv-x="1587" d="M337.92-66.56h-220.16c-40.96 0-71.68 30.72-71.68 66.56v225.28c0 40.96 15.36 76.8 40.96 107.52 10.24 10.24 25.6 10.24 35.84 5.12 10.24-10.24 10.24-25.6 5.12-35.84-15.36-20.48-25.6-46.080-25.6-76.8v-225.28c0-10.24 10.24-15.36 20.48-15.36h215.040c10.24 0 20.48 10.24 20.48 15.36v225.28c0 66.56-56.32 122.88-128 122.88-81.92 0-153.6 66.56-153.6 148.48s66.56 148.48 153.6 148.48c81.92 0 153.6-66.56 153.6-148.48 0-25.6-5.12-51.2-20.48-76.8-10.24-5.12-25.6-10.24-35.84-5.12-15.36 10.24-15.36 25.6-10.24 35.84 10.24 15.36 15.36 30.72 15.36 51.2 0 56.32-46.080 97.28-102.4 97.28s-102.4-46.080-102.4-97.28c0-56.32 46.080-97.28 102.4-97.28 97.28 0 179.2-76.8 179.2-174.080v-225.28c-5.12-40.96-35.84-71.68-71.68-71.68zM716.8-66.56h-215.040c-40.96 0-71.68 30.72-71.68 66.56v471.040c0 97.28 81.92 174.080 179.2 174.080 56.32 0 102.4 46.080 102.4 97.28 0 56.32-46.080 97.28-102.4 97.28s-102.4-46.080-102.4-97.28c0-15.36 5.12-35.84 15.36-51.2 5.12-10.24 5.12-25.6-10.24-35.84s-30.72 5.12-35.84 15.36c-15.36 25.6-20.48 51.2-20.48 76.8 0 81.92 66.56 148.48 153.6 148.48 81.92 0 153.6-66.56 153.6-148.48s-66.56-148.48-153.6-148.48c-71.68 0-128-56.32-128-122.88v-471.040c0-10.24 10.24-15.36 20.48-15.36h215.040c10.24 0 20.48 10.24 20.48 15.36v471.040c0 30.72-10.24 56.32-25.6 76.8-10.24 10.24-5.12 25.6 5.12 35.84s25.6 5.12 35.84-5.12c25.6-30.72 40.96-71.68 40.96-107.52v-471.040c-10.24-40.96-40.96-71.68-76.8-71.68zM1095.68-66.56h-215.040c-40.96 0-71.68 30.72-71.68 66.56v399.36c0 40.96 15.36 76.8 40.96 107.52 10.24 10.24 25.6 10.24 35.84 5.12 10.24-10.24 10.24-25.6 5.12-35.84-20.48-20.48-25.6-51.2-25.6-76.8v-399.36c0-10.24 10.24-15.36 20.48-15.36h215.040c10.24 0 20.48 10.24 20.48 15.36v399.36c0 66.56-56.32 122.88-128 122.88-81.92 0-153.6 66.56-153.6 148.48s66.56 148.48 153.6 148.48 153.6-66.56 153.6-148.48c0-25.6-5.12-51.2-20.48-76.8-5.12-10.24-20.48-15.36-35.84-10.24-10.24 5.12-15.36 20.48-10.24 35.84 10.24 15.36 15.36 30.72 15.36 51.2 0 56.32-46.080 97.28-102.4 97.28s-102.4-46.080-102.4-97.28c0-56.32 46.080-97.28 102.4-97.28 97.28 0 179.2-76.8 179.2-174.080v-399.36c-10.24-35.84-40.96-66.56-76.8-66.56zM1474.56-66.56h-215.040c-40.96 0-71.68 30.72-71.68 66.56v276.48c0 97.28 81.92 174.080 179.2 174.080 56.32 0 102.4 46.080 102.4 97.28 0 56.32-46.080 97.28-102.4 97.28s-102.4-46.080-102.4-97.28c0-15.36 5.12-35.84 15.36-51.2 5.12-10.24 5.12-25.6-10.24-35.84-10.24-5.12-25.6-5.12-35.84 10.24-15.36 20.48-20.48 46.080-20.48 76.8 0 81.92 66.56 148.48 153.6 148.48s153.6-66.56 153.6-148.48c0-81.92-66.56-148.48-153.6-148.48-71.68 0-128-56.32-128-122.88v-276.48c0-10.24 10.24-15.36 20.48-15.36h215.040c10.24 0 20.48 10.24 20.48 15.36v276.48c0 30.72-10.24 56.32-25.6 76.8-10.24 10.24-5.12 25.6 5.12 35.84s25.6 5.12 35.84-5.12c25.6-30.72 40.96-71.68 40.96-107.52v-276.48c-10.24-35.84-40.96-66.56-76.8-66.56z" />
<glyph unicode="&#xe916;" glyph-name="time" horiz-adv-x="935" d="M467.478 128c-191.443 0-342.817 155.826-342.817 347.27s155.826 347.27 342.817 347.27c191.443 0 342.817-155.826 342.817-347.27s-151.374-347.27-342.817-347.27zM467.478 778.017c-164.73 0-298.296-138.017-298.296-302.748 0-169.183 133.565-302.748 298.296-302.748s298.296 138.017 298.296 302.748c0 164.73-133.565 302.748-298.296 302.748zM810.296-58.991h-685.635c-44.522 0-80.139 35.617-80.139 84.591 0 13.357 8.904 22.261 22.261 22.261s22.261-13.357 22.261-26.713c0-22.261 17.809-40.070 35.617-40.070h685.635c22.261 0 35.617 17.809 35.617 40.070v436.313c0 204.8-151.374 382.887-342.817 400.696-106.852 8.904-209.252-22.261-289.391-97.948-80.139-71.235-124.661-178.087-124.661-284.939v-325.009c0-13.357-8.904-22.261-22.261-22.261s-22.261 8.904-22.261 22.261v325.009c0 120.209 53.426 240.417 142.47 320.557s204.8 120.209 325.009 106.852c213.704-22.261 378.435-218.157 378.435-445.217v-436.313c0-44.522-35.617-80.139-80.139-80.139zM440.765 337.252c-4.452 0-13.357 0-17.809 4.452-31.165 8.904-44.522 40.070-35.617 71.235l48.974 151.374c8.904 13.357 17.809 26.713 31.165 35.617s26.713 8.904 44.522 4.452c31.165-8.904 44.522-40.070 35.617-71.235l-48.974-151.374c-4.452-13.357-13.357-26.713-26.713-31.165-13.357-8.904-22.261-13.357-31.165-13.357zM489.739 559.861c0 0-4.452 0-4.452 0-4.452 0-4.452-4.452-4.452-8.904l-48.974-151.374c0-4.452 0-13.357 8.904-13.357 4.452 0 8.904 0 8.904 0 4.452 0 4.452 4.452 4.452 8.904l48.974 151.374c0 4.452 0 8.904-13.357 13.357 4.452 0 4.452 0 0 0zM467.478 640c-13.357 0-22.261 8.904-22.261 22.261v62.33c0 13.357 8.904 22.261 22.261 22.261s22.261-8.904 22.261-22.261v-66.783c0-8.904-8.904-17.809-22.261-17.809zM587.687 595.478c-4.452 0-8.904 0-13.357 4.452-8.904 8.904-8.904 22.261-4.452 31.165l40.070 48.974c8.904 8.904 22.261 8.904 31.165 4.452 8.904-8.904 8.904-22.261 4.452-31.165l-40.070-48.974c-4.452-8.904-13.357-8.904-17.809-8.904zM650.017 484.174c-8.904 0-17.809 8.904-22.261 17.809 0 13.357 4.452 22.261 17.809 26.713l66.783 8.904c13.357 0 22.261-4.452 26.713-17.809 0-13.357-4.452-22.261-17.809-26.713l-71.235-8.904c4.452 0 4.452 0 0 0zM685.635 323.896c-4.452 0-8.904 0-13.357 4.452l-53.426 31.165c-8.904 4.452-13.357 17.809-8.904 31.165 4.452 8.904 17.809 13.357 31.165 8.904l53.426-31.165c8.904-4.452 13.357-17.809 8.904-31.165s-8.904-13.357-17.809-13.357zM552.070 208.139c-8.904 0-17.809 4.452-22.261 13.357l-22.261 62.33c-4.452 13.357 0 22.261 13.357 26.713s22.261 0 26.713-13.357l22.261-62.33c4.452-13.357 0-22.261-13.357-26.713 0 4.452 0 0-4.452 0zM382.887 208.139c-4.452 0-4.452 0-8.904 0-13.357 4.452-17.809 17.809-13.357 26.713l22.261 62.33c4.452 13.357 17.809 17.809 26.713 13.357 13.357-4.452 17.809-17.809 13.357-26.713l-22.261-57.878c0-8.904-8.904-17.809-17.809-17.809zM249.322 323.896c-8.904 0-13.357 4.452-17.809 8.904-4.452 8.904-4.452 22.261 8.904 31.165l53.426 31.165c8.904 4.452 22.261 4.452 31.165-8.904 4.452-8.904 4.452-22.261-8.904-31.165l-53.426-31.165c-4.452 0-8.904 0-13.357 0zM284.939 479.722c-4.452 0-4.452 4.452 0 0l-71.235 13.357c-13.357 0-22.261 13.357-17.809 26.713 0 13.357 13.357 22.261 26.713 17.809l62.33-13.357c13.357 0 22.261-13.357 17.809-26.713 0-8.904-8.904-17.809-17.809-17.809zM347.27 595.478c-4.452 0-13.357 4.452-17.809 8.904l-40.070 48.974c-8.904 8.904-8.904 22.261 0 31.165 13.357 8.904 26.713 4.452 31.165-4.452l40.070-48.974c8.904-8.904 4.452-22.261-4.452-31.165 0-4.452-4.452-4.452-8.904-4.452z" />
<glyph unicode="&#xe917;" glyph-name="android" d="M896 563.2c-35.2 0-64-28.8-64-64v-256c0-35.2 28.8-64 64-64s64 28.8 64 64v256c0 35.2-28.8 64-64 64zM128 563.2c-35.2 0-64-28.8-64-64v-256c0-35.2 28.8-64 64-64s64 28.8 64 64v256c0 35.2-28.802 64-64 64zM224 211.2c0-53.020 42.98-96 96-96v0-128c0-35.2 28.8-64 64-64s64 28.8 64 64v128h128v-128c0-35.2 28.8-64 64-64s64 28.8 64 64v128c53.020 0 96 42.98 96 96v352h-576v-352zM798.216 627.198c-9.716 87.884-59.004 163.792-129.62 209.646l32.024 64.046c7.904 15.806 1.496 35.028-14.31 42.932s-35.030 1.496-42.932-14.312l-32.142-64.286-8.35 3.316c-28.568 9.502-59.122 14.66-90.886 14.66-31.762 0-62.316-5.158-90.888-14.656l-8.348-3.316-32.142 64.282c-7.904 15.808-27.128 22.212-42.932 14.312-15.808-7.904-22.214-27.126-14.312-42.932l32.022-64.046c-70.616-45.852-119.904-121.762-129.622-209.644v-32h574.222v31.998h-1.784zM416 691.2c-17.674 0-32 14.328-32 32 0 17.648 14.288 31.958 31.93 31.996 0.032 0 0.062-0.002 0.094-0.002 0.018 0 0.036 0.002 0.052 0.002 17.638-0.042 31.924-14.35 31.924-31.996 0-17.672-14.326-32-32-32zM608 691.2c-17.674 0-32 14.328-32 32 0 17.646 14.286 31.954 31.924 31.996 0.016 0 0.034-0.002 0.050-0.002 0.032 0 0.064 0.002 0.096 0.002 17.64-0.038 31.93-14.348 31.93-31.996 0-17.672-14.326-32-32-32z" />
<glyph unicode="&#xe918;" glyph-name="apple" d="M791.498 403.108c-1.294 129.682 105.758 191.876 110.542 194.966-60.152 88.020-153.85 100.078-187.242 101.472-79.742 8.074-155.596-46.948-196.066-46.948-40.368 0-102.818 45.754-168.952 44.552-86.916-1.292-167.058-50.538-211.812-128.38-90.304-156.698-23.126-388.84 64.89-515.926 43.008-62.204 94.292-132.076 161.626-129.58 64.842 2.588 89.362 41.958 167.756 41.958s100.428-41.958 169.050-40.67c69.774 1.296 113.982 63.398 156.692 125.796 49.39 72.168 69.726 142.038 70.924 145.626-1.548 0.706-136.060 52.236-137.408 207.134zM662.562 783.678c35.738 43.358 59.86 103.512 53.28 163.522-51.478-2.096-113.878-34.29-150.81-77.55-33.142-38.376-62.148-99.626-54.374-158.436 57.466-4.484 116.128 29.204 151.904 72.464z" />
<glyph unicode="&#xe919;" glyph-name="difficulty" horiz-adv-x="1268" d="M331.581-62.171h-214.552c-39.010 0-68.267 29.257-68.267 68.267v336.457c0 39.010 29.257 68.267 68.267 68.267h214.552c39.010 0 68.267-29.257 68.267-68.267v-336.457c0-39.010-34.133-68.267-68.267-68.267zM117.029 357.181c-9.752 0-19.505-9.752-19.505-19.505v-336.457c0-9.752 9.752-19.505 19.505-19.505h214.552c9.752 0 19.505 9.752 19.505 19.505v336.457c0 9.752-9.752 19.505-19.505 19.505h-214.552zM741.181-62.171h-209.676c-39.010 0-68.267 29.257-68.267 68.267v580.267c0 34.133 29.257 68.267 68.267 68.267h214.552c39.010 0 68.267-29.257 68.267-68.267v-575.39c-4.876-43.886-34.133-73.143-73.143-73.143zM531.505 605.867c-14.629 0-19.505-9.752-19.505-19.505v-580.267c0-9.752 9.752-19.505 19.505-19.505h214.552c9.752 0 19.505 9.752 19.505 19.505v575.39c0 9.752-9.752 19.505-19.505 19.505h-214.552zM1155.657-62.171h-214.552c-39.010 0-68.267 29.257-68.267 68.267v668.038c0 14.629 9.752 24.381 24.381 24.381v0c14.629 0 24.381-9.752 24.381-24.381v-668.038c0-9.752 9.752-19.505 19.505-19.505h214.552c9.752 0 19.505 9.752 19.505 19.505v828.952c0 9.752-9.752 19.505-19.505 19.505h-214.552c-9.752 0-19.505-9.752-19.505-19.505v-63.39c0-14.629-9.752-24.381-24.381-24.381v0c-14.629 0-24.381 9.752-24.381 24.381v63.39c0 39.010 29.257 68.267 68.267 68.267h214.552c39.010 0 68.267-29.257 68.267-68.267v-824.076c0-43.886-29.257-73.143-68.267-73.143z" />
<glyph unicode="&#xe91a;" glyph-name="twitter-up" d="M512-76.8c-282.77 0-512 229.23-512 512s229.23 512 512 512c282.77 0 512-229.23 512-512s-229.23-512-512-512zM512 916.17c-265.632 0-480.97-215.337-480.97-480.97s215.337-480.97 480.97-480.97c265.632 0 480.97 215.337 480.97 480.97s-215.337 480.97-480.97 480.97zM698.182 553.581c-12.776-6.005-27.601-10.373-43.174-12.337 15.123 9.872 27.015 24.882 32.778 42.653-13.799-8.108-30.074-14.679-47.454-18.208-14.744 15.072-34.578 24.616-56.643 24.663-42.383-0.612-76.498-35.106-76.498-77.568 0-0.003 0-0.005 0-0.008 0.033-6.34 0.766-12.492 2.126-18.405-64.079 4.163-120.157 35.148-157.247 81.883-6.881-10.913-10.739-24.532-10.739-39.052 0-0.242 0.001-0.483 0.003-0.724-0.001-0.058-0.001-0.169-0.001-0.281 0-26.802 13.404-50.473 33.874-64.675-12.424 0.659-24.073 4.415-34.234 10.422l0.361-1.749c-0.003-0.235-0.004-0.513-0.004-0.791 0-37.353 26.4-68.54 61.56-75.921-5.543-1.756-12.49-2.718-19.66-2.726-0.054 0-0.112 0-0.17 0-5.047 0-9.975 0.508-14.737 1.477 10.342-31.066 38.339-53.337 71.706-54.535-25.585-20.877-58.725-33.517-94.817-33.517-6.836 0.003-13.577 0.397-20.205 1.162 33.779-22.129 74.327-35.276 117.946-35.296 140.572 0 217.217 119.156 217.217 222.642 0 3.413 0 6.827 0 10.085 14.957 11.364 27.572 24.868 37.637 40.196z" />
<glyph unicode="&#xe91b;" glyph-name="bullet" d="M512-76.8c-281.6 0-512 230.4-512 512s230.4 512 512 512 512-230.4 512-512-230.4-512-512-512zM512 605.857c-93.855 0-170.657-76.8-170.657-170.657s76.8-170.655 170.657-170.655c93.855 0 170.655 76.8 170.655 170.655s-76.8 170.655-170.655 170.655z" />
<glyph unicode="&#xe91c;" glyph-name="map" horiz-adv-x="810" d="M541.808 631.584c54.356 0 98.192 43.836 98.192 98.192s-43.836 99.945-98.192 99.945c-54.356 0-98.192-43.836-98.192-98.192v0c0-56.11 43.836-99.945 98.192-99.945zM541.808 773.611c22.795 0 42.082-19.288 42.082-42.082s-19.288-42.082-42.082-42.082-42.082 19.288-42.082 42.082v0c0 22.795 19.288 42.082 42.082 42.082 0 0 0 0 0 0zM797.808 728.022c-7.014 5.26-17.534 7.014-26.301 3.507l-14.027-5.26c0 117.479-92.932 213.918-210.411 219.178-119.233 3.507-219.178-91.178-222.685-210.411 0-1.753 0-3.507 0-5.26 0-26.301 1.753-52.603 8.767-77.151h-66.63c-3.507 0-5.26 0-8.767-1.753l-238.466-78.904c-12.274-3.507-19.288-15.781-19.288-28.055v-592.658c0-15.781 12.274-28.055 28.055-28.055 3.507 0 5.26 0 8.767 1.753l234.959 78.904h270.027c3.507 0 5.26 0 8.767 1.753l240.219 80.658c12.274 3.507 19.288 14.027 19.288 26.301v592.658c0 8.767-5.26 17.534-12.274 22.795zM240.219 52.953l-184.11-61.37v533.041l182.356 61.37 1.753-533.041zM382.247 731.529c0 87.671 71.89 159.562 159.562 159.562h3.507c87.671-3.507 157.808-78.904 156.055-166.575 0-5.26 0-10.521 0-15.781s0-10.521-1.753-15.781v-1.753c0-5.26-1.753-10.521-3.507-15.781v0c-1.753-10.521-5.26-21.041-10.521-31.562-17.534-38.575-52.603-84.164-126.247-178.849l-17.534-22.795-17.534 22.795c-47.342 59.616-78.904 99.945-99.945 131.507-12.274 17.534-22.795 36.822-31.562 56.11-7.014 26.301-12.274 50.849-10.521 78.904v0zM296.329 59.967v536.548h61.37c36.822-57.863 78.904-113.973 122.74-166.575l26.301-33.315c1.753-3.507 5.26-5.26 8.767-8.767v-327.89h-219.178zM753.973 133.611l-182.356-61.37v317.37c3.507 1.753 5.26 5.26 8.767 8.767l26.301 33.315c98.192 126.247 136.767 173.589 149.041 234.959v0l-1.753-533.041z" />
<glyph unicode="&#xe91d;" glyph-name="ellipses" d="M512-76.8c-282.376 0-512 229.624-512 512s229.624 512 512 512c282.376 0 512-229.624 512-512s-229.624-512-512-512zM512 916.17c-263.758 0-480.97-217.212-480.97-480.97s217.212-480.97 480.97-480.97 480.97 217.212 480.97 480.97-217.212 480.97-480.97 480.97zM344.436 435.2c0-30.848-25.007-55.855-55.855-55.855s-55.855 25.007-55.855 55.855c0 30.848 25.007 55.855 55.855 55.855s55.855-25.007 55.855-55.855zM769.552 435.2c0-30.848-25.007-55.855-55.855-55.855s-55.855 25.007-55.855 55.855c0 30.848 25.007 55.855 55.855 55.855s55.855-25.007 55.855-55.855zM555.442 435.2c0-30.848-25.007-55.855-55.855-55.855s-55.855 25.007-55.855 55.855c0 30.848 25.007 55.855 55.855 55.855s55.855-25.007 55.855-55.855z" />
<glyph unicode="&#xe91e;" glyph-name="youtube-up" d="M512-76.8c-282.77 0-512 229.23-512 512s229.23 512 512 512c282.77 0 512-229.23 512-512s-229.23-512-512-512zM512 916.17c-265.632 0-480.97-215.337-480.97-480.97s215.337-480.97 480.97-480.97c265.632 0 480.97 215.337 480.97 480.97s-215.337 480.97-480.97 480.97zM723.782 521.775c-4.168 25.397-24.346 45.048-49.665 48.376-45.356 2.96-97.995 4.628-151.023 4.628s-105.668-1.669-157.867-4.956c-20.421-2.133-42.689-22.088-48.636-48.247-4.015-29.767-6.26-63.693-6.26-98.143 0-29.304 1.625-58.228 4.789-86.688 6.665-25.625 30.325-47.721 59.781-52.299 41.44-2.821 89.344-4.399 137.617-4.399 57.697 0 114.868 2.254 171.428 6.679 16.485 2.795 35.31 21.304 39.021 44.836 3.958 29.777 6.194 63.85 6.194 98.446 0 32.339-1.954 64.221-5.751 95.536zM476.47 373.139v117.295l113.105-58.647z" />
<glyph unicode="&#xe91f;" glyph-name="tumblr-up" d="M512-76.8c-282.77 0-512 229.23-512 512s229.23 512 512 512c282.77 0 512-229.23 512-512s-229.23-512-512-512zM512 916.17c-265.632 0-480.97-215.337-480.97-480.97s215.337-480.97 480.97-480.97c265.632 0 480.97 215.337 480.97 480.97s-215.337 480.97-480.97 480.97zM560.252 613.314c0.036-0.51 0.056-1.106 0.056-1.707s-0.020-1.196-0.061-1.787c0.004-25.055 0.004-50.344 0.004-75.479 0-3.568 0-3.568 3.879-3.568h56.475c2.482 0 3.258 0 3.258-3.103 0-26.065 0-52.286 0-78.507 0-3.724 0-3.724-3.879-3.724h-55.389c-3.568 0-3.568 0-3.568-3.568 0-26.841 0-53.527 0-80.213-0.037-0.28-0.058-0.603-0.058-0.931s0.021-0.651 0.062-0.968c0.927-4.462 0.772-4.462 4.961-4.462 15.515 0 31.030 0 46.545 0 0.149 0.027 0.321 0.042 0.496 0.042 1.479 0 2.703-1.089 2.915-2.508 4.657-13.67 9.466-27.323 14.276-40.821 2.172-6.206 4.034-12.567 6.672-18.463 0.588-1.079 0.934-2.364 0.934-3.729 0-2.689-1.341-5.064-3.39-6.494-6.588-6.545-14.428-11.796-23.137-15.361-10.396-4.371-21.947-7.625-33.982-9.386-6.926-0.983-14.222-1.597-21.621-1.795-3.827-0.005-7.395-0.005-10.964-0.005-11.728 0.195-23.052 1.147-34.144 2.811-10.266 1.131-20.793 3.259-30.969 6.212-11.045 3.259-21.864 8.233-31.739 14.551-17.414 11.221-30.407 29.073-35.38 50.030-1.89 7.565-2.91 15.609-2.91 23.89 0 0.361 0.002 0.722 0.006 1.082v90.088h-38.943v73.232l4.499 1.552c13.269 3.933 24.739 10.386 34.391 18.861 8.548 7.704 15.362 17.359 19.731 28.257 3.604 8.903 6.167 18.653 7.417 28.809 0.262 5.026 2.183 9.005 5.171 11.884 2.279 1.685 4.912 3.428 7.632 5.038l110.443 0.242zM467.161 405.721c0-15.515 0-32.116 0-48.097 0.091-6.039 0.765-11.867 1.967-17.499 2.191-10.249 6.057-19.853 11.3-28.532 7.498-12.231 18.287-22.323 31.132-29.008 12.563-6.311 26.793-10.094 41.853-10.599 2.079-0.115 4.316-0.178 6.566-0.178 6.781 0 13.429 0.571 19.898 1.667 14.464 1.949 28.038 7.459 39.621 15.61 0.913 0.254 1.753 1.391 1.753 2.724 0 0.716-0.243 1.376-0.65 1.901l0.005-0.007c-4.81 13.498-9.464 26.841-14.119 40.184-0.931 3.103-1.241 3.258-4.499 2.172-7.111-2.781-15.343-4.393-23.953-4.393-2.932 0-5.821 0.187-8.655 0.55-5.367 0.641-10.423 2.993-14.435 6.508-5.637 5.381-9.161 12.993-9.161 21.428 0 0.53 0.014 1.057 0.041 1.581-0.003 31.733-0.003 63.384-0.003 95.19 0 3.413 0 3.724 3.879 3.724h55.389c0.211-0.054 0.453-0.085 0.703-0.085 1.383 0 2.543 0.952 2.862 2.237 0.058 0.23 0.088 0.471 0.088 0.718s-0.031 0.489-0.088 0.718c0.004 15.495 0.004 31.941 0.004 48.077 0.030 0.157 0.047 0.337 0.047 0.522 0 1.425-1.011 2.614-2.355 2.888l-1.26 0.003c-18.308 0-36.616 0-54.924 0-4.189 0-4.655 0-4.655 4.499v75.248c0 2.017 0 3.258-2.793 3.258h-44.684c-0.207 0.039-0.444 0.061-0.687 0.061-1.89 0-3.464-1.351-3.809-3.14-1.564-9.508-3.345-17.467-5.518-25.263-4.993-17.3-15.895-33.229-30.449-44.747-7.928-6.403-16.851-11.634-26.499-15.422-2.212-0.598-3.331-1.95-3.331-3.563 0-0.085 0.003-0.17 0.009-0.254l-0.001-41.88c-0.060-0.203-0.094-0.436-0.094-0.677 0-1.184 0.83-2.175 1.939-2.423l33.219-0.003c3.724 0 3.879 0 3.879-3.724v-51.2z" />
<glyph unicode="&#xe920;" glyph-name="check" horiz-adv-x="1323" d="M563.2 12.8c0 0 0 0 0 0s0 0 0 0v0zM541.867-8.533c0 0 0 0 0 0s0 0 0 0v0zM541.867-8.533c0 0 0 0 0 0v0 0zM166.4 541.867c-4.267 0-4.267 0 0 0-29.867 0-59.733-12.8-85.333-42.667-25.6-21.333-38.4-51.2-38.4-76.8 0-29.867 17.067-59.733 51.2-93.867l307.2-311.467c0 0 4.267-4.267 4.267-4.267s4.267 0 4.267-4.267 8.533-8.533 8.533-8.533c0 0 4.267-4.267 4.267-4.267s4.267 0 4.267 0c17.067-12.8 34.133-21.333 55.467-21.333 4.267 0 8.533 0 8.533 0 8.533 0 17.067 4.267 21.333 4.267 0 0 0 0 0 0 4.267 0 12.8 4.267 21.333 8.533 0 0 0 0 4.267 0 8.533 4.267 17.067 12.8 25.6 21.333 0 0 0 0 4.267 4.267v0c0 0 4.267 4.267 4.267 4.267s4.267 4.267 4.267 4.267l652.8 665.6c34.133 34.133 51.2 68.267 51.2 93.867 0 29.867-12.8 55.467-38.4 81.067v0c-29.867 29.867-55.467 42.667-85.333 42.667s-59.733-17.067-93.867-51.2l-563.2-576c-8.533-8.533-21.333-8.533-29.867 0l-213.333 213.333c-34.133 34.133-64 51.2-89.6 51.2v0zM567.467-29.867v0 0zM554.667-46.933c0 0 0 0 0 0s0 0 0 0v0zM550.4-51.2c0 0 0 0 0 0s0 0 0 0v0zM550.4-51.2c0 0 0 0 0 0s0 0 0 0v0zM482.133-68.267c-4.267 0-4.267 0 0 0-29.867 0-55.467 12.8-81.067 29.867-4.267 0-4.267 4.267-8.533 4.267-8.533 4.267-12.8 8.533-17.067 12.8s-4.267 4.267-8.533 8.533l-307.2 311.467c-42.667 42.667-64 85.333-64 128 0 38.4 17.067 76.8 51.2 110.933 38.4 29.867 72.533 46.933 115.2 46.933 38.4 0 81.067-21.333 123.733-64l196.267-200.533 550.4 563.2c42.667 42.667 85.333 64 123.733 64s76.8-17.067 106.667-51.2c34.133-34.133 51.2-72.533 51.2-110.933 0-42.667-17.067-85.333-59.733-128l-648.533-665.6c-4.267-4.267-4.267-4.267-8.533-8.533 0-4.267-4.267-4.267-4.267-4.267v0c0 0 0 0 0 0-8.533-8.533-21.333-17.067-29.867-21.333 0 0 0 0-4.267-4.267-12.8-8.533-21.333-12.8-29.867-17.067s-21.333-4.267-29.867-8.533c-8.533 4.267-12.8 4.267-17.067 4.267v0z" />
<glyph unicode="&#xe921;" glyph-name="box" d="M896 947.2h-768c-70.4 0-128-57.6-128-128v-768c0-70.4 57.6-128 128-128h768c70.4 0 128 57.6 128 128v768c0 70.4-57.6 128-128 128zM896 51.2h-768v768h768v-768z" />
<glyph unicode="&#xe922;" glyph-name="plus" d="M600.017-28.11c0 0 0 0 0 0-48.577-48.577-127.382-48.577-175.959-0.076-24.288 24.288-36.471 56.115-36.395 88.017l-0.076 251.032-250.956-0.076c-31.827 0-63.729 12.106-88.017 36.395-48.577 48.577-48.577 127.23 0 175.806 0 0 0.076 0.076 0.076 0.076v0c0.076 0.153 0.228 0.228 0.381 0.381 24.136 24.136 55.81 36.243 87.484 36.166l251.032 0.076-0.456 251.032c-0.076 31.674 12.030 63.424 36.166 87.561 0.076 0.076 0.228 0.228 0.305 0.305v0c48.577 48.501 127.305 48.425 175.883-0.153 24.441-24.060 36.547-55.81 36.624-87.636l0.076-251.032 250.956 0.076c31.902 0 63.882-12.106 88.245-36.471 48.654-48.654 48.654-127.533 0-176.187-24.288-24.288-56.115-36.471-87.942-36.471l-251.032-0.076 0.228-250.728c0-31.75-12.106-63.576-36.318-87.789-0.153-0.076-0.228-0.153-0.305-0.228v0zM72.294 499.614v0c0 0 0 0 0 0-35.709-35.709-35.709-93.423-0.076-128.981 17.817-17.817 41.192-26.725 64.566-26.725l267.63 0.076c4.263 0 8.528-1.599 11.802-4.872s4.872-7.538 4.872-11.802l0.076-267.707c0-23.298 8.908-46.674 26.725-64.414 35.634-35.634 93.348-35.634 128.904 0 17.817 17.817 26.725 41.115 26.725 64.491l-0.076 267.63c0.076 4.188 1.752 8.451 5.025 11.649 3.198 3.198 7.461 4.872 11.649 5.025h267.63c23.223-0.076 46.446 8.832 64.185 26.496 0.076 0.076 0.153 0.153 0.228 0.228v0c35.481 35.634 35.481 93.27-0.153 128.829-17.741 17.741-41.040 26.649-64.338 26.725v0l-267.783 0.228c-4.263 0-8.528 1.599-11.802 4.872s-4.872 7.538-4.872 11.802l0.228 267.402c0 23.298-8.908 46.674-26.649 64.414-35.557 35.557-93.195 35.557-128.752 0-0.076-0.076-0.076-0.076-0.153-0.153v0c-0.076-0.076-0.153-0.153-0.228-0.228-17.741-17.741-26.573-40.963-26.496-64.185l-0.305-267.249c-0.153-4.188-1.827-8.376-5.025-11.649s-7.386-4.872-11.649-5.025l-267.707 0.076c-23.070-0.076-46.14-8.908-63.804-26.496-0.076-0.153-0.228-0.305-0.381-0.456v0z" />
<glyph unicode="&#xe923;" glyph-name="location" d="M477.867-76.8c-34.133 0-64.474 18.963-79.644 53.096l-390.637 845.748c-15.17 34.133-7.585 72.059 18.963 98.607s64.474 34.133 98.607 18.963l845.748-386.844c45.511-18.963 64.474-72.059 45.511-117.57-7.585-18.963-22.756-34.133-45.511-45.511l-288.237-125.156-125.156-288.237c-15.17-30.341-45.511-53.096-79.644-53.096v0zM443.733 25.6v0zM508.207 25.6v0zM163.081 784.119l314.785-682.667 98.607 227.556c7.585 18.963 26.548 37.926 45.511 45.511l227.556 98.607-686.459 310.993zM690.252 275.911v0z" />
<glyph unicode="&#xe924;" glyph-name="list" horiz-adv-x="1201" d="M196.923 848.738c0-54.379-44.083-98.462-98.462-98.462s-98.462 44.083-98.462 98.462c0 54.379 44.083 98.462 98.462 98.462s98.462-44.083 98.462-98.462zM0 438.013c0-53.451 42.198-98.462 98.462-98.462s98.462 42.198 98.462 98.462c0 53.451-42.198 98.462-98.462 98.462 0 0 0 0 0 0-53.451 0-98.462-45.011-98.462-98.462 0 0 0 0 0 0zM0 21.662c0-53.451 42.198-98.462 98.462-98.462 53.451 0 98.462 42.198 98.462 98.462 0 53.451-42.198 98.462-98.462 98.462 0 0 0 0 0 0-53.451 0-98.462-45.011-98.462-98.462 0 0 0 0 0 0zM368.527 893.749h801.758c16.879 0 28.132-11.253 28.132-28.132v-28.132c0-16.879-11.253-28.132-28.132-28.132h-801.758c-16.879 0-28.132 11.253-28.132 28.132v28.132c0 14.066 11.253 28.132 28.132 28.132zM368.527 480.211h801.758c16.879 0 28.132-11.253 28.132-28.132v-28.132c0-16.879-11.253-28.132-28.132-28.132h-801.758c-16.879 0-28.132 11.253-28.132 28.132v28.132c0 14.066 11.253 28.132 28.132 28.132zM368.527 63.859h801.758c16.879 0 28.132-11.253 28.132-28.132v-28.132c0-16.879-11.253-28.132-28.132-28.132h-801.758c-16.879 0-28.132 11.253-28.132 28.132v28.132c0 14.066 11.253 28.132 28.132 28.132z" />
<glyph unicode="&#xe925;" glyph-name="instagram-up" d="M512-76.8c-282.77 0-512 229.23-512 512s229.23 512 512 512c282.77 0 512-229.23 512-512s-229.23-512-512-512zM512 916.17c-265.632 0-480.97-215.337-480.97-480.97s215.337-480.97 480.97-480.97c265.632 0 480.97 215.337 480.97 480.97s-215.337 480.97-480.97 480.97zM341.333 299.132v272.136s0 1.396 0 2.172c2.905 15.477 14.644 27.581 29.684 30.981l4.915 1.446h273.998c15.497-2.865 27.619-14.623 30.982-29.686 0.048-1.655 0.824-3.051 1.135-4.292v-272.756s0-1.396 0-2.172c-3.138-15.712-15.318-27.892-30.78-30.988l-3.199-1.438h-273.998c-16.015 2.892-28.521 15.138-31.762 30.775zM380.742 461.265v-2.793q0-70.594 0-140.722c-0.010-0.192-0.016-0.417-0.016-0.643 0-7.016 5.479-12.752 12.391-13.164l2.053-0.002q116.829 0 233.503 0c0.444-0.052 0.958-0.082 1.479-0.082 7.369 0 13.343 5.974 13.343 13.343 0 0.521-0.030 1.035-0.088 1.54l0.006 142.523h-29.634c2.141-7.855 3.371-16.874 3.371-26.18 0-23.698-7.977-45.533-21.393-62.965-18.105-24.843-47.192-41.103-80.103-41.647-1.794-0.106-3.791-0.166-5.803-0.166-26.112 0-49.867 10.095-67.574 26.595-21.828 19.049-35.58 46.998-35.58 78.158 0 9.314 1.229 18.342 3.533 26.929l-29.489-0.725zM577.629 435.2c0 36.246-29.383 65.629-65.629 65.629s-65.629-29.383-65.629-65.629c0-36.246 29.383-65.629 65.629-65.629 0 0 0 0 0 0v0c36.246 0 65.629 29.383 65.629 65.629v0zM610.676 566.768h-18.928c-0.281 0.021-0.609 0.034-0.94 0.034-7.283 0-13.188-5.904-13.188-13.188 0-0.175 0.003-0.35 0.010-0.524q-0.001-19.369-0.001-38.608c-0.010-0.188-0.015-0.407-0.015-0.628 0-6.954 5.512-12.62 12.405-12.869l1.109-0.001q19.394 0 38.633 0c0.149-0.006 0.324-0.010 0.499-0.010 7.198 0 13.033 5.835 13.033 13.033 0 0.331-0.012 0.659-0.037 0.984q0.003 18.73 0.003 37.659c0.016 0.241 0.024 0.523 0.024 0.807 0 7.050-5.468 12.823-12.394 13.31l-20.212 0.002z" />
<glyph unicode="&#xe926;" glyph-name="facebook-up" d="M512-76.8c-282.77 0-512 229.23-512 512s229.23 512 512 512c282.77 0 512-229.23 512-512s-229.23-512-512-512zM512 916.17c-265.632 0-480.97-215.337-480.97-480.97s215.337-480.97 480.97-480.97c265.632 0 480.97 215.337 480.97 480.97s-215.337 480.97-480.97 480.97zM434.424 498.192h36.616v37.547c-0.249 2.686-0.391 5.809-0.391 8.964 0 17.793 4.511 34.533 12.452 49.138 11.344 16.566 30.705 27.658 52.657 27.658 1.358 0 2.706-0.042 4.042-0.126 2.833 0.159 6.367 0.244 9.92 0.244 19.742 0 38.868-2.634 57.048-7.569l-10.676-56.589c-8.756 2.658-18.859 4.337-29.305 4.65-14.448 0.004-27.171-5.426-27.171-20.321v-43.598h58.337l-4.034-55.699h-54.303v-193.474h-68.577v193.474h-36.616v55.699z" />
<glyph unicode="&#xe927;" glyph-name="standalone" horiz-adv-x="2093" d="M2046.128 14.929h-232.132v580.329c0 13.104-11.232 24.336-24.336 24.336v0h-372.534v76.753c0 13.104-11.232 24.336-24.336 24.336v0h-71.137v54.289h61.777c13.104 0 24.336 11.232 24.336 24.336 0 11.232-5.616 20.592-16.848 22.464l-351.941 123.554c-5.616 1.872-11.232 1.872-16.848 0l-267.7-93.601-84.241-29.952c-13.104-3.744-18.72-18.72-14.976-29.952 3.744-9.36 13.104-16.848 22.464-16.848h61.777v-54.289h-71.137c-13.104 0-24.336-11.232-24.336-24.336v0-76.753h-374.406c-13.104 0-24.336-11.232-24.336-24.336v0-578.457h-198.435c-26.208 0-46.801-20.592-46.801-46.801s20.592-46.801 46.801-46.801h1999.327c26.208 0 46.801 20.592 46.801 46.801s-20.592 44.929-46.801 44.929zM1029.616 896.655l211.539-74.881h-421.207l209.667 74.881zM1272.98 774.973v-54.289h-486.728v54.289h486.728zM1216.819 355.639v-340.709h-162.867v340.709h162.867zM1007.152 14.929h-160.995v340.709h160.995v-340.709zM1418.998 14.929v453.031h348.197v-451.159h-348.197zM1765.324 570.922v-54.289h-348.197v54.289h348.197zM690.779 672.012h677.675v-655.21h-104.834v363.174c0 13.104-11.232 24.336-24.336 24.336h-419.335c-13.104 0-24.336-11.232-24.336-24.336v0-365.046h-104.834v657.082zM642.106 570.922v-54.289h-348.197v54.289h348.197zM293.909 467.961h348.197v-451.159h-348.197v451.159z" />
<glyph unicode="&#xe928;" glyph-name="mall" horiz-adv-x="1417" d="M1357.309 815.728h-225.91c-11.11 0-24.072-3.703-33.331-11.11l-368.492-255.537v133.324c0 22.221-18.517 40.738-40.738 40.738v0h-64.81c-22.221 0-40.738-18.517-40.738-40.738v-235.168l-299.978-207.392h-224.058c-33.331 0-59.255-25.924-59.255-59.255v-199.986c0-33.331 25.924-59.255 59.255-59.255v0h225.91c11.11 0 24.072 3.703 33.331 11.11l814.756 564.774h225.91c33.331 0 59.255 25.924 59.255 59.255v199.986c-1.852 33.331-27.776 59.255-61.107 59.255 0 0 0 0 0 0zM1362.864 556.488c0-3.703-1.852-5.555-5.555-5.555v0h-225.91c-11.11 0-24.072-3.703-33.331-11.11l-814.756-564.774h-224.058c-3.703 0-5.555 1.852-5.555 5.555v0 199.986c0 3.703 1.852 5.555 5.555 5.555 0 0 0 0 0 0h225.91c11.11 0 24.072 3.703 33.331 11.11l811.052 562.922c0 0 1.852 1.852 3.703 1.852h224.058c3.703 0 5.555-1.852 5.555-5.555v0-199.986zM744.391 858.318c0-49.088-39.794-88.882-88.882-88.882s-88.882 39.794-88.882 88.882c0 49.088 39.794 88.882 88.882 88.882s88.882-39.794 88.882-88.882z" />
<glyph unicode="&#xe929;" glyph-name="user-inactive" d="M884.053 223.552c-15.168 16.448-34.155 29.44-54.827 37.781l-165.995 67.179c-6.592 2.773-10.859 8.96-10.859 16.213 0 4.693 1.899 9.173 5.12 12.373l63.765 63.573c10.901 11.093 16.875 25.6 16.875 40.96v79.36c0 25.195-16 46.528-38.421 54.613v31.36c0 100.267-81.493 181.76-181.739 181.76-100.267 0-181.781-81.493-181.781-181.76v-34.965c-20.885-8.768-35.819-29.44-35.819-53.568v-67.392c0-14.315 5.333-27.968 14.72-38.635l67.84-75.733c2.965-3.2 4.48-7.253 4.48-11.733v-4.693c0-7.253-4.48-13.867-11.115-16.427l-155.285-60.16c-34.56-13.44-62.741-38.805-79.787-71.253-50.368 72.747-80 160.853-80 255.595 0 248.512 202.24 450.56 450.56 450.56 248.512 0 450.773-202.048 450.773-450.56 0-86.635-24.747-167.701-67.413-236.395l-11.093 11.947zM511.787-2.581c-128.448 0-244.48 54.187-326.635 140.8l5.12 14.080c8.96 24.747 28.181 44.587 52.928 54.187l155.285 60.181c30.080 11.52 50.368 41.152 50.368 73.579v4.693c0 19.627-7.040 38.187-20.053 52.693l-66.987 74.88v62.528c20.053 1.899 35.819 18.752 35.819 39.232v52.693c0 66.368 53.973 120.32 120.341 120.32 66.325 0 120.299-53.952 120.299-120.32v-50.112c0-21.333 17.067-38.848 38.4-39.275v-74.453l-62.699-62.507c-14.741-14.912-23.040-34.773-23.040-55.893 0-32.213 19.413-61.013 49.259-73.173l165.995-67.179c12.373-4.928 23.68-12.821 32.853-22.635l19.627-21.12c-82.773-99.627-207.573-163.2-346.88-163.2zM511.787 960c-282.261 0-511.787-229.568-511.787-512 0-127.808 47.147-244.48 124.8-334.293 1.28-2.155 2.752-3.861 4.693-5.568 93.845-105.387 230.4-172.139 382.293-172.139 282.432 0 512.213 229.739 512.213 512 0 282.432-229.781 512-512.213 512z" />
<glyph unicode="&#xe92a;" glyph-name="user-active" d="M511.181-76.8c-281.805 0-511.181 229.376-511.181 512.819s229.376 511.181 512.819 511.181c281.805 0 511.181-229.376 511.181-511.181 0-283.443-229.376-512.819-512.819-512.819zM511.181 901.325c-257.229 0-465.306-208.077-465.306-466.944s209.715-466.944 466.944-465.306c257.229 0 465.306 208.077 465.306 466.944 0 257.229-208.077 465.306-466.944 465.306zM175.309 101.786l-45.875 4.915c0 4.915 11.469 114.688 95.027 154.010 19.661 9.83 40.96 18.022 62.259 26.214 31.13 13.107 98.304 39.322 98.304 54.067 1.638 11.469-22.938 44.237-36.045 63.898-22.938 32.768-44.237 60.621-44.237 86.835 0 24.576 9.83 47.514 26.214 65.536 3.277 3.277 6.554 8.192 8.192 11.469 0 1.638 0 4.915 0 8.192 0 27.853-1.638 83.558 39.322 124.518 29.491 27.853 72.090 42.598 127.795 42.598h-1.638c34.406-6.554 44.237-39.322-4.915-45.875h8.192c-44.237 0-77.005-9.83-96.666-29.491-27.853-27.853-26.214-70.451-26.214-93.389 0-6.554 0-11.469 0-18.022-3.277-11.469-8.192-22.938-16.384-31.13-9.83-9.83-16.384-22.938-16.384-36.045 0-11.469 21.299-40.96 34.406-60.621 24.576-34.406 47.514-65.536 44.237-95.027-3.277-40.96-60.621-63.898-127.795-91.75-19.661-8.192-40.96-16.384-60.621-26.214-58.982-26.214-67.174-113.050-67.174-114.688zM842.138 101.786c0 0-9.83 88.474-68.813 116.326-19.661 8.192-39.322 18.022-60.621 26.214-65.536 26.214-122.88 49.152-127.795 91.75-3.277 27.853 19.661 60.621 44.237 95.027 13.107 19.661 34.406 49.152 34.406 60.621 0 13.107-6.554 26.214-16.384 36.045-8.192 8.192-13.107 19.661-16.384 31.13 0 6.554 0 11.469 0 18.022 0 22.938 0 65.536-26.214 93.389-19.661 19.661-52.429 31.13-96.666 31.13h-16.384c16.384 8.192 14.746 40.96-3.277 45.875h18.022c57.344 0 99.942-14.746 127.795-44.237 40.96-40.96 39.322-98.304 39.322-124.518 0-3.277 0-8.192 0-9.83 1.638-3.277 4.915-8.192 8.192-11.469 16.384-18.022 26.214-40.96 26.214-65.536 0-26.214-19.661-54.067-44.237-86.835-13.107-19.661-37.683-52.429-36.045-63.898 1.638-14.746 67.174-40.96 98.304-54.067 21.299-8.192 42.598-18.022 62.259-26.214 83.558-39.322 93.389-149.094 95.027-154.010l-40.96-4.915zM516.096-45.67c-154.010 0-291.635 73.728-391.578 167.117 8.192 42.598 37.683 78.643 78.643 95.027 21.299 9.83 47.514 18.022 70.451 27.853 77.005 27.853 144.179 52.429 149.094 96.666 3.277 29.491-22.938 63.898-52.429 98.304-16.384 19.661-40.96 50.79-40.96 62.259 1.638 14.746 8.192 29.491 19.661 39.322 9.83 9.83 16.384 19.661 19.661 32.768 1.638 6.554 1.638 13.107 1.638 19.661 0 24.576-1.638 68.813 31.13 96.666 22.938 21.299 60.621 31.13 113.050 31.13s88.474-9.83 111.411-31.13c32.768-29.491 31.13-73.728 31.13-98.304 0-6.554 0-13.107 1.638-19.661 3.277-13.107 9.83-22.938 19.661-32.768 11.469-9.83 18.022-22.938 19.661-39.322 0-11.469-24.576-42.598-40.96-62.259-27.853-36.045-55.706-68.813-52.429-98.304 4.915-44.237 70.451-67.174 147.456-96.666 24.576-8.192 49.152-18.022 70.451-27.853 55.706-24.576 40.96-75.366 45.875-101.581-96.666-106.496-201.523-158.925-352.256-158.925z" />
<glyph unicode="&#xe92b;" glyph-name="bag-inactive" horiz-adv-x="791" d="M586.106-7.055c-1.388 0-1.388 0-2.786 0l-538.214 50.072c-13.908 1.388-25.031 13.908-25.031 29.204l54.234 784.377c1.388 13.908 12.52 25.031 26.428 25.031h157.153c12.52 0 23.643-8.347 26.428-20.857 0-2.786 13.908-59.806 62.582-59.806 50.072 0 68.142 58.408 68.142 61.194 2.786 11.123 13.908 19.469 26.428 19.469h233.643c13.908 0 25.031-9.734 26.428-23.643l80.663-744.051c1.388-11.123-4.174-20.857-13.908-26.428l-169.673-90.398c-4.174-4.174-8.347-4.174-12.52-4.174zM77.096 94.465l503.449-47.285 146.031 77.878-76.49 702.327h-190.53c-13.908-29.204-47.285-80.663-112.654-80.663-59.806 0-94.572 44.5-108.48 80.663h-112.654l-48.673-732.918zM586.106-7.055c-15.296 0-26.428 12.52-26.428 26.428v834.449c0 15.296 12.52 26.428 26.428 26.428s26.428-12.52 26.428-26.428v-834.449c0-15.296-11.123-26.428-26.428-26.428z" />
<glyph unicode="&#xe92c;" glyph-name="bag-active" horiz-adv-x="1029" d="M1028.815 472.115c0 138.031-93.091 260.013-226.307 296.928l-16.050 150.871c-1.605 16.050-16.050 28.89-32.1 27.285h-268.038c-14.445 0-25.68-9.63-30.495-22.47 0-3.21-20.865-70.621-78.646-70.621s-72.226 65.806-72.226 69.016c-3.21 14.445-16.050 24.075-30.495 24.075h-181.367c-16.050 0-30.495-12.84-30.495-28.89l-62.596-905.229c-1.605-16.050 11.235-32.1 28.89-33.705l624.351-56.176c1.605 0 4.815 0 6.42 0h1.605l4.815 1.605h1.605l195.812 102.721c11.235 6.42 17.655 17.655 16.050 30.495l-14.445 136.426c99.511 56.176 163.712 162.107 163.712 277.668zM738.307 778.673c-6.42 0-12.84 1.605-19.26 1.605-12.84 0-25.68-1.605-36.915-3.21v107.536h44.94l11.235-105.931zM121.981 884.604h130.006c16.050-41.73 56.176-93.091 126.796-93.091 77.041 0 113.956 59.386 130.006 93.091h112.351v-121.981c-160.502-54.571-247.172-231.122-192.602-391.624 30.495-89.881 101.116-162.107 192.602-192.602v-190.997l-556.94 51.361 57.781 845.843zM815.348 75.676l-131.611-69.016v158.897c40.125-4.815 81.856-1.605 121.981 9.63l9.63-99.511z" />
<glyph unicode="&#xe92d;" glyph-name="email-redCircle" d="M512-64c-282.77 0-512 229.23-512 512s229.23 512 512 512 512-229.23 512-512-229.23-512-512-512zM739.556 343.705v208.589c0 10.21-3.331 19.659-8.86 27.702l-142.139-113.996 143.697-147.379c4.496 7.46 7.302 15.938 7.302 25.084zM512.001 439.24l197.782 158.634c-8.116 4.073-17.256 6.571-27.115 6.571h-341.335c-9.871 0-19.014-2.498-27.097-6.571zM567.141 448.837l-45.781-36.743c-2.678-2.138-6.012-3.206-9.359-3.206-3.349 0-6.683 1.068-9.361 3.206l-45.791 36.745-145.515-149.263c8.722-5.016 18.944-8.021 29.999-8.021h341.336c11.053 0 21.28 3.005 29.999 8.021zM293.306 579.997c-5.528-8.043-8.862-17.492-8.862-27.703v-208.59c0-9.146 2.793-17.624 7.306-25.084l143.681 147.404z" />
<glyph unicode="&#xe92e;" glyph-name="cold" d="M512-76.8c-12.118 0-22.722 9.089-22.722 21.207v980.071c1.515 12.118 12.118 21.207 24.237 19.692 10.604-1.515 19.692-9.089 19.692-19.692v-980.071c0-10.604-9.089-21.207-21.207-21.207zM512 598.798v0c-6.059 0-10.604 3.030-15.148 6.059l-143.905 143.905c-10.604 6.059-12.118 19.692-6.059 30.296s19.692 12.118 30.296 6.059c3.030-1.515 4.544-3.030 6.059-6.059l128.757-127.243 128.757 128.757c10.604 6.059 24.237 3.030 30.296-7.574 4.544-7.574 4.544-16.663 0-22.722l-143.905-143.905c-4.544-4.544-9.089-7.574-15.148-7.574zM512 763.91c-6.059 0-10.604 3.030-15.148 6.059l-80.284 80.284c-10.604 6.059-12.118 19.692-6.059 30.296s19.692 12.118 30.296 6.059c3.030-1.515 4.544-3.030 6.059-6.059l65.136-65.136 63.621 65.136c6.059 10.604 19.692 12.118 30.296 6.059s12.118-19.692 6.059-30.296c-1.515-3.030-3.030-4.544-6.059-6.059l-80.284-80.284c-3.030-3.030-9.089-6.059-13.633-6.059zM259.030 668.478h-113.609c-12.118-1.515-22.722 7.574-24.237 19.692s7.574 22.722 19.692 24.237c1.515 0 3.030 0 3.030 0h92.402v92.402c1.515 12.118 12.118 21.207 24.237 19.692 10.604-1.515 19.692-9.089 19.692-19.692v-115.124c0-12.118-9.089-21.207-21.207-21.207zM274.178 64.076c-12.118 0-22.722 9.089-22.722 22.722v0 90.888h-90.888c-12.118-1.515-22.722 7.574-24.237 19.692s7.574 22.722 19.692 24.237c1.515 0 3.030 0 3.030 0h113.609c12.118 0 22.722-9.089 22.722-22.722v0-113.609c0-12.118-9.089-21.207-21.207-21.207zM878.58 668.478h-113.609c-12.118 0-22.722 9.089-22.722 21.207v115.124c1.515 12.118 12.118 21.207 24.237 19.692 10.604-1.515 19.692-9.089 19.692-19.692v-92.402h92.402c12.118-1.515 21.207-12.118 19.692-24.237 0-10.604-9.089-18.178-19.692-19.692zM749.822 64.076c-12.118 0-22.722 9.089-22.722 22.722v0 113.609c0 12.118 9.089 22.722 22.722 22.722v0h113.609c12.118-1.515 21.207-12.118 19.692-24.237-1.515-10.604-9.089-19.692-19.692-19.692h-90.888v-92.402c0-13.633-9.089-22.722-22.722-22.722 0 0 0 0 0 0zM655.905 83.768c-6.059 0-10.604 3.030-15.148 6.059l-128.757 128.757-128.757-128.757c-10.604-6.059-24.237-3.030-30.296 7.574-4.544 7.574-4.544 16.663 0 22.722l142.391 145.42c9.089 7.574 21.207 7.574 30.296 0l143.905-143.905c9.089-9.089 9.089-22.722 0-31.811-3.030-3.030-9.089-4.544-13.633-6.059v0zM431.716-17.723c-12.118 0-21.207 10.604-21.207 22.722 0 6.059 3.030 10.604 6.059 15.148l80.284 80.284c9.089 7.574 21.207 7.574 30.296 0l80.284-80.284c6.059-10.604 3.030-24.237-7.574-30.296-7.574-4.544-16.663-4.544-22.722 0l-65.136 63.621-65.136-63.621c-4.544-4.544-9.089-7.574-15.148-7.574zM1001.278 413.993h-978.556c-12.118 1.515-21.207 12.118-19.692 24.237 1.515 10.604 9.089 19.692 19.692 19.692h980.071c12.118-1.515 21.207-12.118 19.692-24.237-1.515-10.604-10.604-19.692-21.207-19.692zM840.71 270.088c-6.059 0-10.604 3.030-15.148 6.059l-143.905 143.905c-7.574 9.089-7.574 21.207 0 30.296l143.905 143.905c10.604 6.059 24.237 3.030 30.296-7.574 4.544-7.574 4.544-16.663 0-22.722l-128.757-128.757 128.757-128.757c9.089-9.089 9.089-22.722 0-31.811-4.544-1.515-9.089-4.544-15.148-4.544v0zM942.201 333.709c-6.059 0-10.604 3.030-15.148 6.059l-80.284 80.284c-7.574 9.089-7.574 21.207 0 30.296l80.284 80.284c10.604 6.059 24.237 3.030 30.296-7.574 4.544-7.574 4.544-16.663 0-22.722l-63.621-65.136 65.136-65.136c9.089-9.089 9.089-22.722 0-31.811-4.544-3.030-9.089-4.544-16.663-4.544v0zM183.29 270.088c-12.118 0-21.207 10.604-21.207 22.722 0 6.059 3.030 10.604 6.059 15.148l127.243 128.757-128.757 127.243c-6.059 10.604-3.030 24.237 7.574 30.296 7.574 4.544 16.663 4.544 22.722 0l143.905-143.905c7.574-9.089 7.574-21.207 0-30.296l-143.905-143.905c-4.544-3.030-9.089-6.059-13.633-6.059zM80.284 333.709c-12.118 0-21.207 10.604-21.207 22.722 0 6.059 3.030 10.604 6.059 15.148l65.136 65.136-65.136 65.136c-6.059 10.604-3.030 24.237 7.574 30.296 7.574 4.544 16.663 4.544 22.722 0l80.284-80.284c7.574-9.089 7.574-21.207 0-30.296l-80.284-80.284c-3.030-6.059-9.089-7.574-15.148-7.574zM855.858 71.65c-6.059 0-10.604 3.030-15.148 6.059l-674.083 674.083c-6.059 10.604-3.030 24.237 7.574 30.296 7.574 4.544 16.663 4.544 22.722 0l674.083-672.568c9.089-9.089 9.089-22.722 0-31.811-4.544-3.030-9.089-6.059-15.148-6.059v0zM631.669 118.608c-12.118 0-22.722 9.089-22.722 22.722v0 177.231c0 12.118 9.089 22.722 22.722 22.722v0h177.231c12.118-1.515 21.207-12.118 19.692-24.237-1.515-10.604-9.089-19.692-19.692-19.692h-156.024v-156.024c0-13.633-9.089-22.722-21.207-22.722v0zM392.331 535.176h-174.201c-12.118 1.515-21.207 12.118-19.692 24.237 1.515 10.604 9.089 19.692 19.692 19.692h152.994v152.994c1.515 12.118 12.118 21.207 24.237 19.692 10.604-1.515 19.692-9.089 19.692-19.692v-175.716c0-12.118-10.604-21.207-22.722-21.207zM175.716 80.738c-12.118 0-21.207 10.604-21.207 22.722 0 6.059 3.030 10.604 6.059 15.148l655.905 655.905c10.604 6.059 24.237 3.030 30.296-7.574 4.544-7.574 4.544-16.663 0-22.722l-655.905-657.42c-3.030-4.544-9.089-7.574-15.148-6.059zM392.331 118.608c-12.118 0-22.722 9.089-22.722 22.722v0 154.509h-151.479c-12.118-1.515-22.722 7.574-24.237 19.692s7.574 22.722 19.692 24.237c1.515 0 3.030 0 3.030 0h175.716c12.118 0 22.722-9.089 22.722-22.722v0-177.231c0-12.118-10.604-21.207-22.722-21.207 0 0 0 0 0 0zM807.385 535.176h-175.716c-12.118 0-22.722 9.089-22.722 21.207 0 0 0 0 0 0v175.716c1.515 12.118 12.118 21.207 24.237 19.692 10.604-1.515 19.692-9.089 19.692-19.692v-152.994h154.509c12.118-1.515 21.207-12.118 19.692-24.237 0-10.604-9.089-19.692-19.692-19.692z" />
<glyph unicode="&#xe92f;" glyph-name="hot" horiz-adv-x="742" d="M630.857 611.962c-7.619 9.143-19.81 12.19-30.476 6.095-10.667-4.571-15.238-16.762-12.19-28.952 24.381-92.952-9.143-150.857-44.19-182.857 54.857 214.857-167.619 510.476-193.524 534.857-9.143 7.619-22.857 7.619-30.476-1.524-4.571-4.571-6.095-12.19-6.095-18.286 28.952-169.143-30.476-243.81-86.857-316.952-60.952-77.714-123.429-158.476-65.524-338.286-65.524 25.905-82.286 140.19-82.286 141.714-1.524 12.19-13.714 19.81-25.905 18.286-7.619-1.524-13.714-6.095-16.762-12.19-67.048-141.714-30.476-249.905 10.667-316.952 68.571-108.19 201.143-173.714 289.524-173.714v0l53.333-1.524c134.095 0 256 77.714 310.857 199.619 73.143 155.429 45.714 347.429-70.095 490.667zM335.238 348.343c30.476-12.19 53.333-38.095 60.952-70.095 16.762-56.381 3.048-118.857-19.81-134.095-10.667-6.095-12.19-21.333-6.095-30.476 4.571-6.095 10.667-9.143 18.286-9.143 54.857 0 92.952 21.333 109.714 60.952 9.143-19.81 12.19-41.143 10.667-62.476-4.571-45.714-28.952-88.381-68.571-114.286-39.619-28.952-94.476-27.429-132.571 3.048v0c-77.714 74.667-50.286 120.381-12.19 184.381 28.952 47.238 62.476 102.095 39.619 172.19zM661.333 141.105c-30.476-67.048-85.333-121.905-152.381-150.857 25.905 30.476 42.667 68.571 45.714 109.714 4.571 50.286-13.714 100.571-51.81 134.095-9.143 7.619-22.857 7.619-30.476-1.524-3.048-4.571-6.095-9.143-6.095-13.714 0-30.476-9.143-50.286-28.952-60.952 13.714 42.667 15.238 89.905 1.524 134.095-21.333 68.571-71.619 106.667-137.143 106.667v0c-12.19 0-22.857-9.143-22.857-22.857 0-4.571 1.524-7.619 3.048-10.667 38.095-65.524 9.143-111.238-22.857-164.571-36.571-57.905-76.19-126.476-6.095-210.286-68.571 25.905-128 73.143-169.143 134.095-39.619 62.476-51.81 138.667-30.476 210.286 21.333-53.333 62.476-118.857 141.714-114.286 12.19 0 21.333 10.667 21.333 22.857 0 3.048 0 4.571-1.524 7.619-70.095 178.286-16.762 246.857 45.714 327.619 50.286 65.524 106.667 137.143 103.619 274.286 35.048-50.286 65.524-105.143 91.429-160 44.19-97.524 82.286-233.143 21.333-327.619-3.048-4.571-6.095-9.143-6.095-15.238 0-9.143 6.095-18.286 15.238-21.333 6.095-1.524 10.667-1.524 16.762 1.524 80.762 32 134.095 108.19 137.143 193.524 67.048-121.905 77.714-265.143 21.333-382.476z" />
<glyph unicode="&#xe930;" glyph-name="calendar" horiz-adv-x="1021" d="M839.37 829.285h-54.303v89.988c0 15.515-12.412 27.927-27.927 27.927s-27.927-12.412-27.927-27.927v-91.539h-190.836v91.539c0 15.515-12.412 27.927-27.927 27.927s-27.927-12.412-27.927-27.927v-91.539h-192.388v91.539c0 15.515-12.412 27.927-27.927 27.927s-27.927-12.412-27.927-27.927v-91.539h-54.303c-99.297 0-179.976-80.679-179.976-181.527v-538.376c0-102.4 80.679-184.63 181.527-184.63 0 0 0 0 0 0h657.842c100.848 0 181.527 82.23 181.527 183.079v539.927c0 100.848-80.679 181.527-181.527 183.079zM181.527 774.982h54.303v-93.091c0-15.515 12.412-27.927 27.927-27.927s27.927 12.412 27.927 27.927v93.091h192.388v-93.091c0-15.515 12.412-27.927 26.376-27.927 15.515 0 27.927 12.412 27.927 26.376 0 0 0 0 0 0v93.091h192.388v-93.091c0-15.515 12.412-27.927 27.927-27.927s27.927 12.412 27.927 27.927v93.091h54.303c71.37 0 127.224-57.406 127.224-128.776v-52.752h-913.842v52.752c0 71.37 57.406 128.776 127.224 130.327zM839.37-22.497h-657.842c-71.37 0-127.224 57.406-127.224 128.776v432.873h912.291v-432.873c0-69.818-55.855-127.224-127.224-128.776z" />
<glyph unicode="&#xe931;" glyph-name="Checkmark" d="M512-64c-282.624 0-512 229.376-512 512s229.376 512 512 512 512-229.376 512-512-229.376-512-512-512zM512 905.387c-252.587 0-457.387-204.8-457.387-457.387s204.8-457.387 457.387-457.387 457.387 204.8 457.387 457.387-204.8 457.387-457.387 457.387zM466.944 337.408c0 0-1.365 0 0 0-6.827 0-12.288 2.731-16.384 8.192l-98.304 128.341c-6.827 9.557-5.461 21.845 4.096 28.672s21.845 5.461 28.672-4.096l81.92-109.227 155.648 184.32c6.827 8.192 20.48 9.557 28.672 2.731s9.557-20.48 2.731-28.672l-172.032-203.435c-4.096-4.096-9.557-6.827-15.019-6.827z" />
<glyph unicode="&#xe932;" glyph-name="missing-items" d="M83.2 625.067c-17.067 2.133-29.867 17.067-29.867 34.133l6.4 74.667c2.133 17.067 14.933 29.867 32 29.867h145.067c17.067 0 32-12.8 32-29.867 0-19.2 6.4-36.267 17.067-49.067s8.533-34.133-4.267-44.8c-12.8-10.667-34.133-8.533-44.8 4.267-12.8 17.067-23.467 36.267-27.733 57.6h-89.6l-4.267-44.8c-2.133-17.067-14.933-29.867-32-32 0 0 0 0 0 0zM64 375.467c-17.067 2.133-29.867 17.067-29.867 34.133l10.667 134.4c2.133 17.067 17.067 29.867 34.133 29.867 17.067-2.133 29.867-17.067 29.867-34.133l-10.667-134.4c-2.133-17.067-14.933-29.867-34.133-29.867 0 0 0 0 0 0zM44.8 125.867c-17.067 2.133-29.867 17.067-29.867 34.133l10.667 134.4c2.133 17.067 17.067 29.867 34.133 29.867 17.067-2.133 29.867-17.067 29.867-34.133l-10.667-134.4c-2.133-17.067-14.933-29.867-34.133-29.867 0 0 0 0 0 0zM106.667 0c17.067 0 32-14.933 32-32s-14.933-32-32-32h-74.667c-8.533 0-17.067 4.267-23.467 10.667s-8.533 14.933-8.533 23.467l6.4 74.667c2.133 17.067 17.067 29.867 34.133 29.867 17.067-2.133 29.867-17.067 29.867-34.133l-4.267-40.533h40.533zM337.067 0c17.067 0 32-14.933 32-32s-12.8-32-32-32h-123.733c-17.067 0-32 14.933-32 32s14.933 32 32 32h123.733zM569.6 0c17.067 0 32-14.933 32-32s-14.933-32-32-32h-125.867c-17.067 0-32 14.933-32 32s14.933 32 34.133 32h44.8l4.267 44.8c2.133 17.067 17.067 29.867 34.133 27.733s29.867-17.067 27.733-34.133l-2.133-38.4h14.933zM742.4 72.533c17.067 2.133 32-10.667 34.133-29.867l6.4-74.667c0-8.533-2.133-17.067-8.533-23.467-6.4-4.267-14.933-8.533-23.467-8.533h-74.667c-17.067 0-32 14.933-32 32s14.933 32 32 32h40.533l-2.133 40.533c-2.133 14.933 10.667 32 27.733 32zM736 125.867c-17.067 0-29.867 12.8-32 29.867l-10.667 134.4c-2.133 17.067 10.667 32 29.867 34.133 17.067 2.133 32-10.667 34.133-29.867l10.667-134.4c2.133-17.067-10.667-32-32-34.133 2.133 0 0 0 0 0zM539.733 125.867h-2.133c-17.067 2.133-29.867 17.067-27.733 34.133l12.8 134.4c2.133 17.067 17.067 29.867 34.133 27.733s29.867-17.067 27.733-34.133l-12.8-134.4c-2.133-17.067-17.067-27.733-32-27.733zM772.267 960c138.667 0 251.733-113.067 251.733-249.6 0-138.667-113.067-249.6-251.733-249.6-10.667 0-19.2 0-29.867 2.133l4.267-51.2c2.133-17.067-10.667-32-29.867-34.133h-2.133c-17.067 0-29.867 12.8-32 29.867l-6.4 72.533c-25.6 10.667-51.2 25.6-72.533 44.8l-10.667-117.333c-2.133-17.067-14.933-27.733-32-27.733h-2.133c-17.067 2.133-29.867 17.067-27.733 34.133l12.8 134.4c2.133 12.8 8.533 21.333 19.2 25.6v0c-25.6 36.267-40.533 81.067-42.667 128v0h-44.8c-4.267-21.333-14.933-40.533-27.733-57.6-6.4-8.533-14.933-10.667-25.6-10.667-6.4 0-14.933 2.133-19.2 6.4-12.8 10.667-14.933 32-4.267 44.8s17.067 29.867 17.067 49.067c0 17.067 14.933 29.867 32 29.867h74.667c2.133 0 2.133 0 4.267 0 23.467 110.933 125.867 196.267 245.333 196.267zM772.267 512c108.8 0 198.4 89.6 198.4 198.4s-89.6 198.4-198.4 198.4-198.4-89.6-198.4-198.4c0-72.533 40.533-136.533 100.267-170.667 19.2-10.667 42.667-19.2 66.133-23.467 10.667-2.133 21.333-4.267 32-4.267zM748.8 657.067c14.933 0 27.733-8.533 27.733-25.6 0-14.933-10.667-25.6-27.733-25.6s-27.733 12.8-27.733 25.6c0 17.067 12.8 25.6 27.733 25.6zM765.867 840.533c59.733 0 72.533-34.133 72.533-55.467 0-61.867-74.667-61.867-74.667-89.6 0-4.267 4.267-10.667 6.4-14.933l-38.4-10.667c-6.4 8.533-10.667 19.2-10.667 29.867 0 42.667 70.4 38.4 70.4 81.067 0 19.2-17.067 27.733-36.267 27.733-10.667 0-25.6-2.133-36.267-6.4l-2.133 32c19.2 4.267 34.133 6.4 49.067 6.4z" />
<glyph unicode="&#xe933;" glyph-name="orders-restaurant-feedback" d="M678.4 795.733c93.867 0 170.667-76.8 170.667-170.667v-179.2c0-89.6-68.267-162.133-153.6-170.667l-38.4-113.067c-2.133-6.4-8.533-12.8-14.933-14.933-2.133 0-4.267 0-6.4 0-4.267 0-10.667 2.133-12.8 4.267l-153.6 121.6-72.533 2.133c-93.867 0-170.667 76.8-170.667 170.667v179.2c0 93.867 76.8 170.667 170.667 170.667 0 0 281.6 0 281.6 0zM804.267 445.867v179.2c0 70.4-57.6 125.867-125.867 125.867h-281.6c-70.4 0-125.867-57.6-125.867-125.867v-179.2c0-70.4 57.6-125.867 125.867-125.867l81.067-2.133c4.267 0 8.533-2.133 12.8-4.267l134.4-106.667 34.133 98.133c2.133 8.533 10.667 14.933 21.333 14.933 68.267 0 123.733 57.6 123.733 125.867zM663.467 706.133c53.333 0 96-42.667 96-96v-149.333c0-53.333-42.667-96-96-96h-251.733c-53.333 0-96 42.667-96 96v149.333c0 53.333 42.667 96 96 96 0 0 251.733 0 251.733 0zM684.8 413.867c14.933 8.533 27.733 23.467 29.867 40.533-6.4 2.133-10.667 8.533-10.667 17.067s4.267 14.933 12.8 17.067v68.267c-6.4 2.133-12.8 8.533-12.8 17.067s4.267 14.933 12.8 17.067v19.2c0 27.733-23.467 51.2-51.2 51.2h-34.133c-4.267-4.267-8.533-6.4-12.8-6.4s-10.667 4.267-14.933 6.4h-78.933c-4.267-4.267-8.533-6.4-12.8-6.4s-10.667 2.133-12.8 6.4h-70.4c-4.267-4.267-8.533-6.4-12.8-6.4s-8.533 2.133-12.8 4.267c-12.8-2.133-23.467-8.533-32-17.067 8.533-2.133 12.8-8.533 12.8-14.933 0-10.667-8.533-19.2-19.2-19.2-2.133 0-4.267 0-6.4 2.133v-64c8.533-2.133 14.933-8.533 14.933-17.067s-6.4-14.933-14.933-17.067v-49.067c0-4.267 0-6.4 0-8.533 2.133 0 2.133 0 4.267 0 10.667 0 19.2-8.533 19.2-19.2 0-4.267-2.133-8.533-4.267-12.8 8.533-8.533 21.333-12.8 34.133-12.8h44.8c-8.533 2.133-12.8 8.533-12.8 17.067 0 10.667 8.533 19.2 19.2 19.2s19.2-8.533 19.2-19.2c0-8.533-6.4-14.933-12.8-17.067h83.2c-2.133 2.133-4.267 6.4-4.267 10.667 0 10.667 8.533 19.2 19.2 19.2s19.2-8.533 19.2-19.2c0-4.267-2.133-8.533-4.267-10.667h76.8c-2.133 2.133-4.267 6.4-4.267 10.667 0 10.667 8.533 19.2 19.2 19.2s19.2-8.533 19.2-19.2c-6.4-2.133-6.4-4.267-8.533-6.4zM512 593.067c10.667 0 19.2-8.533 19.2-19.2s-8.533-19.2-19.2-19.2-19.2 8.533-19.2 19.2c0 10.667 8.533 19.2 19.2 19.2zM616.533 593.067c10.667 0 19.2-8.533 19.2-19.2s-8.533-19.2-19.2-19.2-19.2 8.533-19.2 19.2c2.133 10.667 8.533 19.2 19.2 19.2zM458.667 640c10.667 0 19.2-8.533 19.2-19.2s-8.533-19.2-19.2-19.2-19.2 8.533-19.2 19.2c0 12.8 8.533 19.2 19.2 19.2zM409.6 593.067c10.667 0 19.2-8.533 19.2-19.2s-8.533-19.2-19.2-19.2-19.2 8.533-19.2 19.2c0 10.667 8.533 19.2 19.2 19.2zM667.733 640c10.667 0 19.2-8.533 19.2-19.2s-8.533-19.2-19.2-19.2-19.2 8.533-19.2 19.2c2.133 12.8 10.667 19.2 19.2 19.2zM563.2 640c10.667 0 19.2-8.533 19.2-19.2s-8.533-19.2-19.2-19.2-19.2 8.533-19.2 19.2c2.133 12.8 8.533 19.2 19.2 19.2zM512 490.667c10.667 0 19.2-8.533 19.2-19.2s-8.533-19.2-19.2-19.2-19.2 8.533-19.2 19.2 8.533 19.2 19.2 19.2zM616.533 490.667c10.667 0 19.2-8.533 19.2-19.2s-8.533-19.2-19.2-19.2-19.2 8.533-19.2 19.2c2.133 10.667 8.533 19.2 19.2 19.2zM458.667 539.733c10.667 0 19.2-8.533 19.2-19.2s-8.533-19.2-19.2-19.2-19.2 8.533-19.2 19.2c0 10.667 8.533 19.2 19.2 19.2zM667.733 539.733c10.667 0 19.2-8.533 19.2-19.2s-8.533-19.2-19.2-19.2-19.2 8.533-19.2 19.2c2.133 10.667 10.667 19.2 19.2 19.2zM563.2 539.733c10.667 0 19.2-8.533 19.2-19.2s-8.533-19.2-19.2-19.2-19.2 8.533-19.2 19.2c2.133 10.667 8.533 19.2 19.2 19.2zM407.467 497.067c10.667 0 19.2-8.533 19.2-19.2s-8.533-19.2-19.2-19.2-19.2 8.533-19.2 19.2c2.133 10.667 10.667 19.2 19.2 19.2zM70.4 586.667c-10.667 0-19.2 8.533-19.2 19.2v155.733c0 10.667 8.533 19.2 19.2 19.2s19.2-8.533 19.2-19.2v-155.733c-2.133-10.667-10.667-19.2-19.2-19.2zM117.333 586.667c-10.667 0-19.2 8.533-19.2 19.2v155.733c0 10.667 8.533 19.2 19.2 19.2s19.2-8.533 19.2-19.2v-155.733c0-10.667-8.533-19.2-19.2-19.2zM168.533 778.667c10.667 0 19.2-8.533 19.2-19.2v-196.267c0-23.467-12.8-46.933-34.133-57.6l-6.4-4.267v-285.867c0-27.733-23.467-51.2-51.2-51.2-12.8 0-27.733 6.4-36.267 14.933-10.667 10.667-14.933 23.467-14.933 36.267v0 290.133l-6.4 4.267c-21.333 10.667-34.133 34.133-34.133 57.6v194.133c0 10.667 8.533 19.2 19.2 19.2s19.2-8.533 19.2-19.2v-196.267c0-10.667 4.267-19.2 14.933-23.467l10.667-8.533c6.4-2.133 10.667-8.533 10.667-17.067v-296.533c0-4.267 2.133-6.4 4.267-10.667 2.133-2.133 6.4-4.267 10.667-4.267 8.533 0 14.933 6.4 14.933 14.933v0 294.4c0 6.4 4.267 12.8 10.667 17.067l17.067 8.533c6.4 6.4 12.8 14.933 12.8 25.6v196.267c0 8.533 8.533 17.067 19.2 17.067zM1024 462.933v0-253.867c0-27.733-23.467-51.2-51.2-51.2s-51.2 23.467-51.2 51.2v249.6c-4.267 4.267-8.533 8.533-12.8 14.933-17.067 21.333-21.333 53.333-12.8 78.933l66.133 213.333c4.267 14.933 19.2 25.6 36.267 23.467s27.733-14.933 27.733-29.867l-2.133-296.533zM985.6 209.067v234.667h-29.867v-234.667c0-8.533 6.4-14.933 14.933-14.933s14.933 6.4 14.933 14.933zM928 539.733c-4.267-14.933-2.133-34.133 8.533-46.933 6.4-8.533 14.933-12.8 23.467-12.8h25.6v245.333l-57.6-185.6z" />
<glyph unicode="&#xe934;" glyph-name="other" d="M866.133 810.667c87.467 0 157.867-70.4 157.867-157.867v-164.267c0-87.467-70.4-157.867-157.867-157.867l-66.133-2.133-140.8-110.933c-4.267-2.133-8.533-4.267-12.8-4.267-2.133 0-4.267 0-6.4 0-6.4 2.133-10.667 6.4-12.8 12.8l-36.267 104.533c-6.4 0-12.8 2.133-19.2 2.133-17.067-64-70.4-110.933-138.667-117.333l-36.267-104.533c-2.133-6.4-6.4-10.667-12.8-12.8-2.133 0-4.267 0-6.4 0-4.267 0-8.533 2.133-12.8 4.267l-140.8 110.933-68.267 2.133c-87.467 0-157.867 70.4-157.867 157.867v164.267c0 87.467 70.4 157.867 157.867 157.867h260.267c10.667 0 23.467-2.133 34.133-4.267 19.2 70.4 81.067 119.467 155.733 119.467h260.267zM983.467 488.533v164.267c0 64-53.333 117.333-117.333 117.333h-260.267c-55.467 0-102.4-38.4-113.067-91.733 51.2-25.6 85.333-78.933 85.333-140.8v-164.267c8.533-2.133 19.2-4.267 27.733-4.267s17.067-6.4 19.2-12.8l29.867-89.6 123.733 98.133c4.267 2.133 8.533 4.267 12.8 4.267l74.667 2.133c64 0 117.333 53.333 117.333 117.333zM535.467 373.333v164.267c0 38.4-19.2 72.533-46.933 93.867-12.8 8.533-25.6 14.933-40.533 19.2-8.533 2.133-19.2 4.267-27.733 4.267h-262.4c-64 0-117.333-51.2-117.333-117.333v-164.267c0-64 53.333-117.333 117.333-117.333l74.667-2.133c4.267 0 8.533-2.133 12.8-4.267l123.733-98.133 29.867 89.6c2.133 8.533 10.667 14.933 19.2 14.933 55.467 0 102.4 38.4 113.067 91.733 4.267 8.533 4.267 17.067 4.267 25.6zM716.8 524.8c12.8 0 23.467-8.533 23.467-21.333s-8.533-21.333-23.467-21.333c-14.933 0-23.467 10.667-23.467 21.333 0 14.933 10.667 21.333 23.467 21.333zM691.2 672c12.8 2.133 27.733 6.4 38.4 6.4 49.067 0 59.733-29.867 59.733-44.8 0-51.2-61.867-51.2-61.867-74.667 0-4.267 2.133-8.533 6.4-12.8l-29.867-8.533c-4.267 6.4-8.533 14.933-8.533 23.467 0 36.267 57.6 32 57.6 66.133 0 14.933-14.933 21.333-29.867 21.333-8.533 0-21.333-2.133-29.867-4.267l-2.133 27.733zM292.267 428.8c-8.533 0-14.933 6.4-14.933 14.933s6.4 14.933 14.933 14.933 14.933-6.4 14.933-14.933-6.4-14.933-14.933-14.933zM202.667 428.8c-8.533 0-14.933 6.4-14.933 14.933s6.4 14.933 14.933 14.933 14.933-6.4 14.933-14.933-6.4-14.933-14.933-14.933zM381.867 428.8c-8.533 0-14.933 6.4-14.933 14.933s6.4 14.933 14.933 14.933 14.933-6.4 14.933-14.933-6.4-14.933-14.933-14.933z" />
</font>
</defs>
</svg>
